%TF.GenerationSoftware,KiCad,Pcbnew,(5.1.6)-1*%
%TF.CreationDate,2021-04-19T20:59:16+02:00*%
%TF.ProjectId,SimpleDigital,53696d70-6c65-4446-9967-6974616c2e6b,v01*%
%TF.SameCoordinates,Original*%
%TF.FileFunction,Soldermask,Top*%
%TF.FilePolarity,Negative*%
%FSLAX46Y46*%
G04 Gerber Fmt 4.6, Leading zero omitted, Abs format (unit mm)*
G04 Created by KiCad (PCBNEW (5.1.6)-1) date 2021-04-19 20:59:16*
%MOMM*%
%LPD*%
G01*
G04 APERTURE LIST*
%ADD10R,1.300000X1.300000*%
%ADD11O,1.800000X1.800000*%
%ADD12R,1.800000X1.800000*%
%ADD13C,2.700000*%
%ADD14C,2.100000*%
%ADD15R,0.700000X2.100000*%
%ADD16R,2.100000X0.700000*%
%ADD17R,3.100000X1.700000*%
%ADD18R,1.700000X3.100000*%
%ADD19C,3.300000*%
%ADD20R,1.640000X0.690000*%
%ADD21R,1.900000X1.900000*%
%ADD22C,1.900000*%
%ADD23C,3.100000*%
%ADD24R,2.900000X3.700000*%
%ADD25R,1.440000X0.740000*%
%ADD26R,2.300000X3.900000*%
%ADD27R,2.300000X1.600000*%
%ADD28R,1.690000X0.740000*%
%ADD29R,2.100000X7.975000*%
%ADD30R,2.600000X1.800000*%
G04 APERTURE END LIST*
D10*
%TO.C,C48*%
X166900000Y-139550000D03*
X164800000Y-139550000D03*
%TD*%
D11*
%TO.C,J14*%
X139075000Y-140690000D03*
D12*
X139075000Y-138150000D03*
%TD*%
D13*
%TO.C,J17*%
X164750000Y-120950000D03*
%TD*%
%TO.C,J16*%
X183725000Y-102600000D03*
%TD*%
%TO.C,J8*%
X176750000Y-130625000D03*
%TD*%
%TO.C,J5*%
X134825000Y-134000000D03*
%TD*%
%TO.C,J4*%
X178650000Y-109225000D03*
%TD*%
%TO.C,J1*%
X160800000Y-119475000D03*
%TD*%
D11*
%TO.C,Battery_9V1*%
X161850000Y-148690000D03*
D12*
X161850000Y-146150000D03*
%TD*%
D14*
%TO.C,RV2*%
X150497156Y-93509848D03*
X147906356Y-90944448D03*
X150497156Y-90969848D03*
%TD*%
%TO.C,RV1*%
X145640000Y-96575000D03*
X148180000Y-96575000D03*
X143100000Y-96575000D03*
%TD*%
D10*
%TO.C,C49*%
X169200000Y-110450000D03*
X169200000Y-108350000D03*
%TD*%
D15*
%TO.C,U4*%
X164590000Y-104100000D03*
X167130000Y-109000000D03*
X165860000Y-109000000D03*
X164590000Y-109000000D03*
X163320000Y-109000000D03*
X163320000Y-104100000D03*
X165860000Y-104100000D03*
X167130000Y-104100000D03*
%TD*%
D16*
%TO.C,U2*%
X149600000Y-131315000D03*
X144700000Y-133855000D03*
X144700000Y-132585000D03*
X144700000Y-131315000D03*
X144700000Y-130045000D03*
X149600000Y-130045000D03*
X149600000Y-132585000D03*
X149600000Y-133855000D03*
%TD*%
D17*
%TO.C,C40*%
X151350000Y-97875000D03*
X155750000Y-97875000D03*
%TD*%
D18*
%TO.C,C21*%
X141700000Y-114350000D03*
X141700000Y-109950000D03*
%TD*%
D17*
%TO.C,C28*%
X159950000Y-109775000D03*
X155550000Y-109775000D03*
%TD*%
%TO.C,C27*%
X160000000Y-104025000D03*
X155600000Y-104025000D03*
%TD*%
D18*
%TO.C,C8*%
X144800000Y-99925000D03*
X144800000Y-104325000D03*
%TD*%
D17*
%TO.C,C9*%
X135575000Y-105275000D03*
X139975000Y-105275000D03*
%TD*%
D18*
%TO.C,C17*%
X128525000Y-107775000D03*
X128525000Y-112175000D03*
%TD*%
D17*
%TO.C,C30*%
X148600000Y-123900000D03*
X144200000Y-123900000D03*
%TD*%
%TO.C,C41*%
X156800000Y-119825000D03*
X152400000Y-119825000D03*
%TD*%
%TO.C,C44*%
X166900000Y-116225000D03*
X171300000Y-116225000D03*
%TD*%
%TO.C,C11*%
X158075000Y-128575000D03*
X153675000Y-128575000D03*
%TD*%
D18*
%TO.C,C4*%
X180100000Y-113275000D03*
X180100000Y-117675000D03*
%TD*%
D17*
%TO.C,C25*%
X169950000Y-122400000D03*
X174350000Y-122400000D03*
%TD*%
%TO.C,C13*%
X161625000Y-125725000D03*
X166025000Y-125725000D03*
%TD*%
%TO.C,C7*%
X165650000Y-156150000D03*
X170050000Y-156150000D03*
%TD*%
D18*
%TO.C,C33*%
X121300000Y-90875000D03*
X121300000Y-95275000D03*
%TD*%
D10*
%TO.C,R31*%
X131125000Y-96700000D03*
X131125000Y-94600000D03*
%TD*%
D17*
%TO.C,C5*%
X139900000Y-96925000D03*
X135500000Y-96925000D03*
%TD*%
%TO.C,C42*%
X140325000Y-91175000D03*
X144725000Y-91175000D03*
%TD*%
%TO.C,C43*%
X161950000Y-92075000D03*
X157550000Y-92075000D03*
%TD*%
D19*
%TO.C,M2*%
X181600000Y-156500000D03*
%TD*%
%TO.C,M3*%
X181600000Y-95450000D03*
%TD*%
%TO.C,M1*%
X123600000Y-156550000D03*
%TD*%
D20*
%TO.C,U1*%
X152362157Y-114734848D03*
X152362157Y-113464848D03*
X152362157Y-112194848D03*
X152362157Y-110924848D03*
X152362157Y-109654848D03*
X152362157Y-108384848D03*
X152362157Y-107114848D03*
X146962157Y-107114848D03*
X146962157Y-108384848D03*
X146962157Y-109654848D03*
X146962157Y-110924848D03*
X146962157Y-112194848D03*
X146962157Y-113464848D03*
X146962157Y-114734848D03*
%TD*%
D16*
%TO.C,U8*%
X152200000Y-156400000D03*
X152200000Y-155130000D03*
X152200000Y-153860000D03*
X152200000Y-152590000D03*
X152200000Y-151320000D03*
X152200000Y-150050000D03*
X152200000Y-148780000D03*
X152200000Y-147510000D03*
X152200000Y-146240000D03*
X152200000Y-144970000D03*
X152200000Y-143700000D03*
X152200000Y-142430000D03*
X152200000Y-141160000D03*
X152200000Y-139890000D03*
X142800000Y-139890000D03*
X142800000Y-141160000D03*
X142800000Y-142430000D03*
X142800000Y-143700000D03*
X142800000Y-144970000D03*
X142800000Y-146240000D03*
X142800000Y-147510000D03*
X142800000Y-148780000D03*
X142800000Y-150050000D03*
X142800000Y-151320000D03*
X142800000Y-152590000D03*
X142800000Y-153860000D03*
X142800000Y-155130000D03*
X142800000Y-156400000D03*
%TD*%
D21*
%TO.C,D4*%
X180075000Y-105300000D03*
D22*
X180075000Y-102760000D03*
%TD*%
D23*
%TO.C,J3*%
X90200000Y-145440000D03*
X102900000Y-145440000D03*
X96550000Y-145440000D03*
X90200000Y-129210000D03*
X102900000Y-129210000D03*
X96550000Y-129210000D03*
%TD*%
%TO.C,J6*%
X208670000Y-146759999D03*
X202320000Y-146759999D03*
X215020000Y-146759999D03*
X208670000Y-130529999D03*
X202320000Y-130529999D03*
X215020000Y-130529999D03*
%TD*%
D12*
%TO.C,J9*%
X109880000Y-143580000D03*
D11*
X109880000Y-141040000D03*
X109880000Y-138500000D03*
X109880000Y-135960000D03*
X109880000Y-133420000D03*
X109880000Y-130880000D03*
%TD*%
%TO.C,J10*%
X174825000Y-110300000D03*
X174825000Y-107760000D03*
X174825000Y-105220000D03*
X174825000Y-102680000D03*
X174825000Y-100140000D03*
D12*
X174825000Y-97600000D03*
%TD*%
%TO.C,J11*%
X195270000Y-132240000D03*
D11*
X195270000Y-134780000D03*
X195270000Y-137320000D03*
X195270000Y-139860000D03*
X195270000Y-142400000D03*
X195270000Y-144940000D03*
%TD*%
%TO.C,J12*%
X130875000Y-142525000D03*
X130875000Y-139985000D03*
X130875000Y-137445000D03*
X130875000Y-134905000D03*
X130875000Y-132365000D03*
D12*
X130875000Y-129825000D03*
%TD*%
%TO.C,J15*%
X157150000Y-81400000D03*
D11*
X154610000Y-81400000D03*
X152070000Y-81400000D03*
X149530000Y-81400000D03*
X146990000Y-81400000D03*
%TD*%
D10*
%TO.C,R19*%
X181675000Y-108200000D03*
X181675000Y-110300000D03*
%TD*%
%TO.C,R37*%
X149350000Y-73750000D03*
X149350000Y-75850000D03*
%TD*%
%TO.C,R38*%
X146950000Y-75750000D03*
X146950000Y-77850000D03*
%TD*%
%TO.C,R39*%
X156850000Y-78250000D03*
X156850000Y-76150000D03*
%TD*%
D24*
%TO.C,SW1*%
X146200000Y-70600000D03*
X157600000Y-70600000D03*
D14*
X149400000Y-63600000D03*
X154400000Y-63600000D03*
X149400000Y-78100000D03*
X151900000Y-78100000D03*
X154400000Y-78100000D03*
%TD*%
D10*
%TO.C,C1*%
X146827157Y-116679848D03*
X148927157Y-116679848D03*
%TD*%
%TO.C,C2*%
X176249593Y-114415841D03*
X176249593Y-116515841D03*
%TD*%
%TO.C,C3*%
X161225000Y-115925000D03*
X163325000Y-115925000D03*
%TD*%
%TO.C,C6*%
X164725000Y-152375000D03*
X166825000Y-152375000D03*
%TD*%
%TO.C,C10*%
X138777157Y-100759849D03*
X140877157Y-100759849D03*
%TD*%
%TO.C,C12*%
X134417156Y-113074849D03*
X132317156Y-113074849D03*
%TD*%
%TO.C,C14*%
X124217157Y-112599848D03*
X124217157Y-114699848D03*
%TD*%
%TO.C,C15*%
X170850000Y-127550000D03*
X168750000Y-127550000D03*
%TD*%
%TO.C,C16*%
X141080000Y-134960000D03*
X138980000Y-134960000D03*
%TD*%
%TO.C,C18*%
X133892156Y-116674848D03*
X133892156Y-118774848D03*
%TD*%
%TO.C,C19*%
X139792156Y-119074848D03*
X139792156Y-116974848D03*
%TD*%
%TO.C,C20*%
X133917157Y-120599849D03*
X133917157Y-122699849D03*
%TD*%
%TO.C,C22*%
X122217158Y-123649849D03*
X124317158Y-123649849D03*
%TD*%
%TO.C,C23*%
X131992159Y-125649848D03*
X129892159Y-125649848D03*
%TD*%
%TO.C,C24*%
X126367157Y-125699848D03*
X124267157Y-125699848D03*
%TD*%
%TO.C,C26*%
X160925000Y-129625000D03*
X163025000Y-129625000D03*
%TD*%
%TO.C,C29*%
X164550000Y-99175000D03*
X162450000Y-99175000D03*
%TD*%
%TO.C,C31*%
X127145637Y-96703250D03*
X125045637Y-96703250D03*
%TD*%
%TO.C,C32*%
X117450000Y-94750000D03*
X117450000Y-96850000D03*
%TD*%
%TO.C,C34*%
X126620638Y-100603252D03*
X126620638Y-102703252D03*
%TD*%
%TO.C,C35*%
X132645636Y-102803251D03*
X132645636Y-100703251D03*
%TD*%
%TO.C,C36*%
X128650000Y-104950000D03*
X126550000Y-104950000D03*
%TD*%
%TO.C,C37*%
X118200000Y-111350000D03*
X118200000Y-109250000D03*
%TD*%
%TO.C,C38*%
X122250000Y-109300000D03*
X124350000Y-109300000D03*
%TD*%
%TO.C,C39*%
X120300000Y-109250000D03*
X120300000Y-111350000D03*
%TD*%
%TO.C,C45*%
X158885000Y-154450000D03*
X158885000Y-156550000D03*
%TD*%
%TO.C,C46*%
X158960000Y-138275000D03*
X158960000Y-140375000D03*
%TD*%
%TO.C,C47*%
X138400000Y-146245000D03*
X140500000Y-146245000D03*
%TD*%
D22*
%TO.C,D5*%
X134680000Y-146830000D03*
X134680000Y-149370000D03*
D21*
X134680000Y-151910000D03*
%TD*%
%TO.C,D6*%
X134630000Y-159780000D03*
D22*
X134630000Y-157240000D03*
X134630000Y-154700000D03*
%TD*%
D12*
%TO.C,J2*%
X161875000Y-152450000D03*
D11*
X161875000Y-154990000D03*
X161875000Y-157530000D03*
%TD*%
D12*
%TO.C,J7*%
X161775000Y-142425000D03*
D11*
X161775000Y-139885000D03*
X161775000Y-137345000D03*
X161775000Y-134805000D03*
X161775000Y-132265000D03*
%TD*%
%TO.C,J13*%
X143365000Y-159345000D03*
X145905000Y-159345000D03*
X148445000Y-159345000D03*
X150985000Y-159345000D03*
D12*
X153525000Y-159345000D03*
%TD*%
D25*
%TO.C,Q1*%
X154975001Y-134395000D03*
X154975001Y-132495000D03*
X152875001Y-133445000D03*
%TD*%
%TO.C,Q2*%
X139025000Y-131870000D03*
X141125000Y-130920000D03*
X141125000Y-132820000D03*
%TD*%
D10*
%TO.C,R1*%
X174150000Y-118475000D03*
X176250000Y-118475000D03*
%TD*%
%TO.C,R2*%
X174199593Y-114445841D03*
X174199593Y-116545841D03*
%TD*%
%TO.C,R3*%
X163350000Y-113875000D03*
X161250000Y-113875000D03*
%TD*%
%TO.C,R4*%
X148677157Y-104089849D03*
X148677157Y-101989849D03*
%TD*%
%TO.C,R5*%
X144797157Y-107149849D03*
X142697157Y-107149849D03*
%TD*%
%TO.C,R6*%
X147875000Y-137895001D03*
X147875000Y-135795001D03*
%TD*%
%TO.C,R7*%
X150626561Y-127855266D03*
X148526561Y-127855266D03*
%TD*%
%TO.C,R8*%
X174825000Y-136825000D03*
X172725000Y-136825000D03*
%TD*%
%TO.C,R9*%
X168800000Y-136825000D03*
X170900000Y-136825000D03*
%TD*%
%TO.C,R10*%
X164775000Y-137525000D03*
X166875000Y-137525000D03*
%TD*%
%TO.C,R11*%
X132317156Y-111074848D03*
X134417156Y-111074848D03*
%TD*%
%TO.C,R12*%
X136317157Y-109749849D03*
X136317157Y-111849849D03*
%TD*%
%TO.C,R13*%
X137867157Y-115049848D03*
X135767157Y-115049848D03*
%TD*%
%TO.C,R14*%
X135792158Y-117024849D03*
X137892158Y-117024849D03*
%TD*%
%TO.C,R15*%
X135792158Y-118999849D03*
X137892158Y-118999849D03*
%TD*%
%TO.C,R16*%
X158900000Y-132395000D03*
X156800000Y-132395000D03*
%TD*%
%TO.C,R17*%
X152697157Y-101989847D03*
X152697157Y-104089847D03*
%TD*%
%TO.C,R18*%
X158777157Y-113779849D03*
X156677157Y-113779849D03*
%TD*%
%TO.C,R20*%
X145875000Y-137895000D03*
X145875000Y-135795000D03*
%TD*%
%TO.C,R21*%
X143326562Y-127855265D03*
X145426562Y-127855265D03*
%TD*%
%TO.C,R22*%
X127145637Y-94703252D03*
X125045637Y-94703252D03*
%TD*%
%TO.C,R23*%
X129069850Y-92692843D03*
X129069850Y-94792843D03*
%TD*%
%TO.C,R24*%
X128545638Y-98728251D03*
X130645638Y-98728251D03*
%TD*%
%TO.C,R25*%
X128545635Y-100728251D03*
X130645635Y-100728251D03*
%TD*%
%TO.C,R26*%
X128545638Y-102728250D03*
X130645638Y-102728250D03*
%TD*%
%TO.C,R27*%
X135050000Y-130870000D03*
X137150000Y-130870000D03*
%TD*%
%TO.C,R28*%
X137250000Y-150710000D03*
X139350000Y-150710000D03*
%TD*%
%TO.C,R29*%
X139360000Y-152820000D03*
X137260000Y-152820000D03*
%TD*%
%TO.C,R30*%
X154817159Y-115839848D03*
X156917159Y-115839848D03*
%TD*%
%TO.C,R33*%
X137290000Y-154879999D03*
X139390000Y-154879999D03*
%TD*%
%TO.C,R34*%
X139330000Y-156960000D03*
X137230000Y-156960000D03*
%TD*%
%TO.C,R35*%
X158600000Y-95925000D03*
X158600000Y-98025000D03*
%TD*%
%TO.C,R36*%
X169177157Y-104409848D03*
X169177157Y-106509848D03*
%TD*%
D26*
%TO.C,U3*%
X171850000Y-144600000D03*
D27*
X165550000Y-142300000D03*
X165550000Y-144600000D03*
X165550000Y-146900000D03*
%TD*%
D28*
%TO.C,U5*%
X131767157Y-114954849D03*
X131767157Y-116224849D03*
X131767157Y-117494849D03*
X131767157Y-118764849D03*
X131767157Y-120034849D03*
X131767157Y-121304849D03*
X131767157Y-122574849D03*
X131767157Y-123844849D03*
X126367157Y-123844849D03*
X126367157Y-122574849D03*
X126367157Y-121304849D03*
X126367157Y-120034849D03*
X126367157Y-118764849D03*
X126367157Y-117494849D03*
X126367157Y-116224849D03*
X126367157Y-114954849D03*
%TD*%
D27*
%TO.C,U6*%
X166975000Y-134600000D03*
X166975000Y-132300000D03*
X166975000Y-130000000D03*
D26*
X173275000Y-132300000D03*
%TD*%
D28*
%TO.C,U7*%
X119020636Y-98608252D03*
X119020636Y-99878252D03*
X119020636Y-101148252D03*
X119020636Y-102418252D03*
X119020636Y-103688252D03*
X119020636Y-104958252D03*
X119020636Y-106228252D03*
X119020636Y-107498252D03*
X124420636Y-107498252D03*
X124420636Y-106228252D03*
X124420636Y-104958252D03*
X124420636Y-103688252D03*
X124420636Y-102418252D03*
X124420636Y-101148252D03*
X124420636Y-99878252D03*
X124420636Y-98608252D03*
%TD*%
D29*
%TO.C,Y1*%
X156660000Y-153437500D03*
X156660000Y-141562500D03*
%TD*%
D10*
%TO.C,R32*%
X150707157Y-104089850D03*
X150707157Y-101989850D03*
%TD*%
D30*
%TO.C,D1*%
X169300000Y-149775000D03*
X165300000Y-149775000D03*
%TD*%
%TO.C,D2*%
X169400000Y-160600000D03*
X165400000Y-160600000D03*
%TD*%
%TO.C,D3*%
X169450000Y-139400000D03*
X173450000Y-139400000D03*
%TD*%
%TO.C,D7*%
X173550000Y-126900000D03*
X177550000Y-126900000D03*
%TD*%
M02*
