%TF.GenerationSoftware,KiCad,Pcbnew,(5.1.6)-1*%
%TF.CreationDate,2021-04-19T20:59:16+02:00*%
%TF.ProjectId,SimpleDigital,53696d70-6c65-4446-9967-6974616c2e6b,v01*%
%TF.SameCoordinates,Original*%
%TF.FileFunction,Legend,Top*%
%TF.FilePolarity,Positive*%
%FSLAX46Y46*%
G04 Gerber Fmt 4.6, Leading zero omitted, Abs format (unit mm)*
G04 Created by KiCad (PCBNEW (5.1.6)-1) date 2021-04-19 20:59:16*
%MOMM*%
%LPD*%
G01*
G04 APERTURE LIST*
%ADD10C,0.150000*%
%ADD11C,0.120000*%
%ADD12C,0.200000*%
%ADD13C,0.100000*%
G04 APERTURE END LIST*
D10*
X77702619Y-121809523D02*
X77702619Y-122476190D01*
X76702619Y-122047619D01*
X77274047Y-123000000D02*
X77321666Y-122904761D01*
X77369285Y-122857142D01*
X77464523Y-122809523D01*
X77512142Y-122809523D01*
X77607380Y-122857142D01*
X77655000Y-122904761D01*
X77702619Y-123000000D01*
X77702619Y-123190476D01*
X77655000Y-123285714D01*
X77607380Y-123333333D01*
X77512142Y-123380952D01*
X77464523Y-123380952D01*
X77369285Y-123333333D01*
X77321666Y-123285714D01*
X77274047Y-123190476D01*
X77274047Y-123000000D01*
X77226428Y-122904761D01*
X77178809Y-122857142D01*
X77083571Y-122809523D01*
X76893095Y-122809523D01*
X76797857Y-122857142D01*
X76750238Y-122904761D01*
X76702619Y-123000000D01*
X76702619Y-123190476D01*
X76750238Y-123285714D01*
X76797857Y-123333333D01*
X76893095Y-123380952D01*
X77083571Y-123380952D01*
X77178809Y-123333333D01*
X77226428Y-123285714D01*
X77274047Y-123190476D01*
X76797857Y-123809523D02*
X76750238Y-123857142D01*
X76702619Y-123809523D01*
X76750238Y-123761904D01*
X76797857Y-123809523D01*
X76702619Y-123809523D01*
X77702619Y-124476190D02*
X77702619Y-124571428D01*
X77655000Y-124666666D01*
X77607380Y-124714285D01*
X77512142Y-124761904D01*
X77321666Y-124809523D01*
X77083571Y-124809523D01*
X76893095Y-124761904D01*
X76797857Y-124714285D01*
X76750238Y-124666666D01*
X76702619Y-124571428D01*
X76702619Y-124476190D01*
X76750238Y-124380952D01*
X76797857Y-124333333D01*
X76893095Y-124285714D01*
X77083571Y-124238095D01*
X77321666Y-124238095D01*
X77512142Y-124285714D01*
X77607380Y-124333333D01*
X77655000Y-124380952D01*
X77702619Y-124476190D01*
X77702619Y-125428571D02*
X77702619Y-125523809D01*
X77655000Y-125619047D01*
X77607380Y-125666666D01*
X77512142Y-125714285D01*
X77321666Y-125761904D01*
X77083571Y-125761904D01*
X76893095Y-125714285D01*
X76797857Y-125666666D01*
X76750238Y-125619047D01*
X76702619Y-125523809D01*
X76702619Y-125428571D01*
X76750238Y-125333333D01*
X76797857Y-125285714D01*
X76893095Y-125238095D01*
X77083571Y-125190476D01*
X77321666Y-125190476D01*
X77512142Y-125238095D01*
X77607380Y-125285714D01*
X77655000Y-125333333D01*
X77702619Y-125428571D01*
X77702619Y-126380952D02*
X77702619Y-126476190D01*
X77655000Y-126571428D01*
X77607380Y-126619047D01*
X77512142Y-126666666D01*
X77321666Y-126714285D01*
X77083571Y-126714285D01*
X76893095Y-126666666D01*
X76797857Y-126619047D01*
X76750238Y-126571428D01*
X76702619Y-126476190D01*
X76702619Y-126380952D01*
X76750238Y-126285714D01*
X76797857Y-126238095D01*
X76893095Y-126190476D01*
X77083571Y-126142857D01*
X77321666Y-126142857D01*
X77512142Y-126190476D01*
X77607380Y-126238095D01*
X77655000Y-126285714D01*
X77702619Y-126380952D01*
X76702619Y-127904761D02*
X77369285Y-127904761D01*
X77274047Y-127904761D02*
X77321666Y-127952380D01*
X77369285Y-128047619D01*
X77369285Y-128190476D01*
X77321666Y-128285714D01*
X77226428Y-128333333D01*
X76702619Y-128333333D01*
X77226428Y-128333333D02*
X77321666Y-128380952D01*
X77369285Y-128476190D01*
X77369285Y-128619047D01*
X77321666Y-128714285D01*
X77226428Y-128761904D01*
X76702619Y-128761904D01*
X76702619Y-129238095D02*
X77369285Y-129238095D01*
X77274047Y-129238095D02*
X77321666Y-129285714D01*
X77369285Y-129380952D01*
X77369285Y-129523809D01*
X77321666Y-129619047D01*
X77226428Y-129666666D01*
X76702619Y-129666666D01*
X77226428Y-129666666D02*
X77321666Y-129714285D01*
X77369285Y-129809523D01*
X77369285Y-129952380D01*
X77321666Y-130047619D01*
X77226428Y-130095238D01*
X76702619Y-130095238D01*
D11*
X78425000Y-87000000D02*
X78425000Y-165000000D01*
X115100000Y-87000000D02*
X77838579Y-87000000D01*
X115100000Y-165000000D02*
X77838579Y-165000000D01*
X78425000Y-165000000D02*
X77838579Y-163873496D01*
X78425000Y-165000000D02*
X79011421Y-163873496D01*
X78425000Y-87000000D02*
X77838579Y-88126504D01*
X78425000Y-87000000D02*
X79011421Y-88126504D01*
D10*
X148409523Y-54857380D02*
X149076190Y-54857380D01*
X148647619Y-55857380D01*
X149933333Y-54857380D02*
X149457142Y-54857380D01*
X149409523Y-55333571D01*
X149457142Y-55285952D01*
X149552380Y-55238333D01*
X149790476Y-55238333D01*
X149885714Y-55285952D01*
X149933333Y-55333571D01*
X149980952Y-55428809D01*
X149980952Y-55666904D01*
X149933333Y-55762142D01*
X149885714Y-55809761D01*
X149790476Y-55857380D01*
X149552380Y-55857380D01*
X149457142Y-55809761D01*
X149409523Y-55762142D01*
X150409523Y-55762142D02*
X150457142Y-55809761D01*
X150409523Y-55857380D01*
X150361904Y-55809761D01*
X150409523Y-55762142D01*
X150409523Y-55857380D01*
X151076190Y-54857380D02*
X151171428Y-54857380D01*
X151266666Y-54905000D01*
X151314285Y-54952619D01*
X151361904Y-55047857D01*
X151409523Y-55238333D01*
X151409523Y-55476428D01*
X151361904Y-55666904D01*
X151314285Y-55762142D01*
X151266666Y-55809761D01*
X151171428Y-55857380D01*
X151076190Y-55857380D01*
X150980952Y-55809761D01*
X150933333Y-55762142D01*
X150885714Y-55666904D01*
X150838095Y-55476428D01*
X150838095Y-55238333D01*
X150885714Y-55047857D01*
X150933333Y-54952619D01*
X150980952Y-54905000D01*
X151076190Y-54857380D01*
X152028571Y-54857380D02*
X152123809Y-54857380D01*
X152219047Y-54905000D01*
X152266666Y-54952619D01*
X152314285Y-55047857D01*
X152361904Y-55238333D01*
X152361904Y-55476428D01*
X152314285Y-55666904D01*
X152266666Y-55762142D01*
X152219047Y-55809761D01*
X152123809Y-55857380D01*
X152028571Y-55857380D01*
X151933333Y-55809761D01*
X151885714Y-55762142D01*
X151838095Y-55666904D01*
X151790476Y-55476428D01*
X151790476Y-55238333D01*
X151838095Y-55047857D01*
X151885714Y-54952619D01*
X151933333Y-54905000D01*
X152028571Y-54857380D01*
X152980952Y-54857380D02*
X153076190Y-54857380D01*
X153171428Y-54905000D01*
X153219047Y-54952619D01*
X153266666Y-55047857D01*
X153314285Y-55238333D01*
X153314285Y-55476428D01*
X153266666Y-55666904D01*
X153219047Y-55762142D01*
X153171428Y-55809761D01*
X153076190Y-55857380D01*
X152980952Y-55857380D01*
X152885714Y-55809761D01*
X152838095Y-55762142D01*
X152790476Y-55666904D01*
X152742857Y-55476428D01*
X152742857Y-55238333D01*
X152790476Y-55047857D01*
X152838095Y-54952619D01*
X152885714Y-54905000D01*
X152980952Y-54857380D01*
X154504761Y-55857380D02*
X154504761Y-55190714D01*
X154504761Y-55285952D02*
X154552380Y-55238333D01*
X154647619Y-55190714D01*
X154790476Y-55190714D01*
X154885714Y-55238333D01*
X154933333Y-55333571D01*
X154933333Y-55857380D01*
X154933333Y-55333571D02*
X154980952Y-55238333D01*
X155076190Y-55190714D01*
X155219047Y-55190714D01*
X155314285Y-55238333D01*
X155361904Y-55333571D01*
X155361904Y-55857380D01*
X155838095Y-55857380D02*
X155838095Y-55190714D01*
X155838095Y-55285952D02*
X155885714Y-55238333D01*
X155980952Y-55190714D01*
X156123809Y-55190714D01*
X156219047Y-55238333D01*
X156266666Y-55333571D01*
X156266666Y-55857380D01*
X156266666Y-55333571D02*
X156314285Y-55238333D01*
X156409523Y-55190714D01*
X156552380Y-55190714D01*
X156647619Y-55238333D01*
X156695238Y-55333571D01*
X156695238Y-55857380D01*
D11*
X190100000Y-56675000D02*
X115100000Y-56675000D01*
X190100000Y-87000000D02*
X190100000Y-56088579D01*
X115100000Y-87000000D02*
X115100000Y-56088579D01*
X115100000Y-56675000D02*
X116226504Y-56088579D01*
X115100000Y-56675000D02*
X116226504Y-57261421D01*
X190100000Y-56675000D02*
X188973496Y-56088579D01*
X190100000Y-56675000D02*
X188973496Y-57261421D01*
D12*
X120834523Y-149558333D02*
X120929761Y-149748809D01*
X120929761Y-150129761D01*
X120834523Y-150320238D01*
X120644047Y-150415476D01*
X119882142Y-150415476D01*
X119691666Y-150320238D01*
X119596428Y-150129761D01*
X119596428Y-149748809D01*
X119691666Y-149558333D01*
X119882142Y-149463095D01*
X120072619Y-149463095D01*
X120263095Y-150415476D01*
X119596428Y-148605952D02*
X120929761Y-148605952D01*
X119786904Y-148605952D02*
X119691666Y-148510714D01*
X119596428Y-148320238D01*
X119596428Y-148034523D01*
X119691666Y-147844047D01*
X119882142Y-147748809D01*
X120929761Y-147748809D01*
X119596428Y-145939285D02*
X121215476Y-145939285D01*
X121405952Y-146034523D01*
X121501190Y-146129761D01*
X121596428Y-146320238D01*
X121596428Y-146605952D01*
X121501190Y-146796428D01*
X120834523Y-145939285D02*
X120929761Y-146129761D01*
X120929761Y-146510714D01*
X120834523Y-146701190D01*
X120739285Y-146796428D01*
X120548809Y-146891666D01*
X119977380Y-146891666D01*
X119786904Y-146796428D01*
X119691666Y-146701190D01*
X119596428Y-146510714D01*
X119596428Y-146129761D01*
X119691666Y-145939285D01*
X120929761Y-144986904D02*
X119596428Y-144986904D01*
X118929761Y-144986904D02*
X119025000Y-145082142D01*
X119120238Y-144986904D01*
X119025000Y-144891666D01*
X118929761Y-144986904D01*
X119120238Y-144986904D01*
X119596428Y-144034523D02*
X120929761Y-144034523D01*
X119786904Y-144034523D02*
X119691666Y-143939285D01*
X119596428Y-143748809D01*
X119596428Y-143463095D01*
X119691666Y-143272619D01*
X119882142Y-143177380D01*
X120929761Y-143177380D01*
X120834523Y-141463095D02*
X120929761Y-141653571D01*
X120929761Y-142034523D01*
X120834523Y-142225000D01*
X120644047Y-142320238D01*
X119882142Y-142320238D01*
X119691666Y-142225000D01*
X119596428Y-142034523D01*
X119596428Y-141653571D01*
X119691666Y-141463095D01*
X119882142Y-141367857D01*
X120072619Y-141367857D01*
X120263095Y-142320238D01*
X120834523Y-139748809D02*
X120929761Y-139939285D01*
X120929761Y-140320238D01*
X120834523Y-140510714D01*
X120644047Y-140605952D01*
X119882142Y-140605952D01*
X119691666Y-140510714D01*
X119596428Y-140320238D01*
X119596428Y-139939285D01*
X119691666Y-139748809D01*
X119882142Y-139653571D01*
X120072619Y-139653571D01*
X120263095Y-140605952D01*
X120929761Y-138796428D02*
X119596428Y-138796428D01*
X119977380Y-138796428D02*
X119786904Y-138701190D01*
X119691666Y-138605952D01*
X119596428Y-138415476D01*
X119596428Y-138225000D01*
X120834523Y-136796428D02*
X120929761Y-136986904D01*
X120929761Y-137367857D01*
X120834523Y-137558333D01*
X120644047Y-137653571D01*
X119882142Y-137653571D01*
X119691666Y-137558333D01*
X119596428Y-137367857D01*
X119596428Y-136986904D01*
X119691666Y-136796428D01*
X119882142Y-136701190D01*
X120072619Y-136701190D01*
X120263095Y-137653571D01*
X120929761Y-134986904D02*
X118929761Y-134986904D01*
X120834523Y-134986904D02*
X120929761Y-135177380D01*
X120929761Y-135558333D01*
X120834523Y-135748809D01*
X120739285Y-135844047D01*
X120548809Y-135939285D01*
X119977380Y-135939285D01*
X119786904Y-135844047D01*
X119691666Y-135748809D01*
X119596428Y-135558333D01*
X119596428Y-135177380D01*
X119691666Y-134986904D01*
X120929761Y-132510714D02*
X118929761Y-132510714D01*
X119691666Y-132510714D02*
X119596428Y-132320238D01*
X119596428Y-131939285D01*
X119691666Y-131748809D01*
X119786904Y-131653571D01*
X119977380Y-131558333D01*
X120548809Y-131558333D01*
X120739285Y-131653571D01*
X120834523Y-131748809D01*
X120929761Y-131939285D01*
X120929761Y-132320238D01*
X120834523Y-132510714D01*
X119596428Y-130891666D02*
X120929761Y-130415476D01*
X119596428Y-129939285D02*
X120929761Y-130415476D01*
X121405952Y-130605952D01*
X121501190Y-130701190D01*
X121596428Y-130891666D01*
X124129761Y-150939285D02*
X122129761Y-150939285D01*
X122129761Y-150463095D01*
X122225000Y-150177380D01*
X122415476Y-149986904D01*
X122605952Y-149891666D01*
X122986904Y-149796428D01*
X123272619Y-149796428D01*
X123653571Y-149891666D01*
X123844047Y-149986904D01*
X124034523Y-150177380D01*
X124129761Y-150463095D01*
X124129761Y-150939285D01*
X124129761Y-148082142D02*
X123082142Y-148082142D01*
X122891666Y-148177380D01*
X122796428Y-148367857D01*
X122796428Y-148748809D01*
X122891666Y-148939285D01*
X124034523Y-148082142D02*
X124129761Y-148272619D01*
X124129761Y-148748809D01*
X124034523Y-148939285D01*
X123844047Y-149034523D01*
X123653571Y-149034523D01*
X123463095Y-148939285D01*
X123367857Y-148748809D01*
X123367857Y-148272619D01*
X123272619Y-148082142D01*
X124129761Y-147129761D02*
X122796428Y-147129761D01*
X122986904Y-147129761D02*
X122891666Y-147034523D01*
X122796428Y-146844047D01*
X122796428Y-146558333D01*
X122891666Y-146367857D01*
X123082142Y-146272619D01*
X124129761Y-146272619D01*
X123082142Y-146272619D02*
X122891666Y-146177380D01*
X122796428Y-145986904D01*
X122796428Y-145701190D01*
X122891666Y-145510714D01*
X123082142Y-145415476D01*
X124129761Y-145415476D01*
X122796428Y-144463095D02*
X124510714Y-144463095D01*
X124701190Y-144558333D01*
X124796428Y-144748809D01*
X124796428Y-144844047D01*
X122129761Y-144463095D02*
X122225000Y-144558333D01*
X122320238Y-144463095D01*
X122225000Y-144367857D01*
X122129761Y-144463095D01*
X122320238Y-144463095D01*
X124129761Y-142653571D02*
X123082142Y-142653571D01*
X122891666Y-142748809D01*
X122796428Y-142939285D01*
X122796428Y-143320238D01*
X122891666Y-143510714D01*
X124034523Y-142653571D02*
X124129761Y-142844047D01*
X124129761Y-143320238D01*
X124034523Y-143510714D01*
X123844047Y-143605952D01*
X123653571Y-143605952D01*
X123463095Y-143510714D01*
X123367857Y-143320238D01*
X123367857Y-142844047D01*
X123272619Y-142653571D01*
X122796428Y-141701190D02*
X124129761Y-141701190D01*
X122986904Y-141701190D02*
X122891666Y-141605952D01*
X122796428Y-141415476D01*
X122796428Y-141129761D01*
X122891666Y-140939285D01*
X123082142Y-140844047D01*
X124129761Y-140844047D01*
X124129761Y-138367857D02*
X122129761Y-138367857D01*
X122129761Y-137605952D01*
X122225000Y-137415476D01*
X122320238Y-137320238D01*
X122510714Y-137225000D01*
X122796428Y-137225000D01*
X122986904Y-137320238D01*
X123082142Y-137415476D01*
X123177380Y-137605952D01*
X123177380Y-138367857D01*
X124129761Y-136367857D02*
X122796428Y-136367857D01*
X123177380Y-136367857D02*
X122986904Y-136272619D01*
X122891666Y-136177380D01*
X122796428Y-135986904D01*
X122796428Y-135796428D01*
X124034523Y-134367857D02*
X124129761Y-134558333D01*
X124129761Y-134939285D01*
X124034523Y-135129761D01*
X123844047Y-135225000D01*
X123082142Y-135225000D01*
X122891666Y-135129761D01*
X122796428Y-134939285D01*
X122796428Y-134558333D01*
X122891666Y-134367857D01*
X123082142Y-134272619D01*
X123272619Y-134272619D01*
X123463095Y-135225000D01*
X124129761Y-133415476D02*
X122796428Y-133415476D01*
X123177380Y-133415476D02*
X122986904Y-133320238D01*
X122891666Y-133225000D01*
X122796428Y-133034523D01*
X122796428Y-132844047D01*
X124129761Y-131320238D02*
X123082142Y-131320238D01*
X122891666Y-131415476D01*
X122796428Y-131605952D01*
X122796428Y-131986904D01*
X122891666Y-132177380D01*
X124034523Y-131320238D02*
X124129761Y-131510714D01*
X124129761Y-131986904D01*
X124034523Y-132177380D01*
X123844047Y-132272619D01*
X123653571Y-132272619D01*
X123463095Y-132177380D01*
X123367857Y-131986904D01*
X123367857Y-131510714D01*
X123272619Y-131320238D01*
X124129761Y-129510714D02*
X122129761Y-129510714D01*
X124034523Y-129510714D02*
X124129761Y-129701190D01*
X124129761Y-130082142D01*
X124034523Y-130272619D01*
X123939285Y-130367857D01*
X123748809Y-130463095D01*
X123177380Y-130463095D01*
X122986904Y-130367857D01*
X122891666Y-130272619D01*
X122796428Y-130082142D01*
X122796428Y-129701190D01*
X122891666Y-129510714D01*
D11*
%TO.C,C48*%
X166170000Y-138750000D02*
X165570000Y-138750000D01*
X166150000Y-140350000D02*
X165550000Y-140350000D01*
%TO.C,J14*%
X137745000Y-142020000D02*
X140405000Y-142020000D01*
X137745000Y-139420000D02*
X137745000Y-142020000D01*
X140405000Y-139420000D02*
X140405000Y-142020000D01*
X137745000Y-139420000D02*
X140405000Y-139420000D01*
X137745000Y-138150000D02*
X137745000Y-136820000D01*
X137745000Y-136820000D02*
X139075000Y-136820000D01*
%TO.C,J17*%
X163250000Y-119550000D02*
X166250000Y-119550000D01*
X166250000Y-119550000D02*
X166250000Y-122400000D01*
X163250000Y-119550000D02*
X163250000Y-122400000D01*
X163250000Y-122400000D02*
X166250000Y-122400000D01*
%TO.C,J16*%
X182225000Y-101200000D02*
X185225000Y-101200000D01*
X185225000Y-101200000D02*
X185225000Y-104050000D01*
X182225000Y-101200000D02*
X182225000Y-104050000D01*
X182225000Y-104050000D02*
X185225000Y-104050000D01*
%TO.C,J8*%
X175250000Y-129225000D02*
X178250000Y-129225000D01*
X178250000Y-129225000D02*
X178250000Y-132075000D01*
X175250000Y-129225000D02*
X175250000Y-132075000D01*
X175250000Y-132075000D02*
X178250000Y-132075000D01*
%TO.C,J5*%
X133325000Y-132600000D02*
X136325000Y-132600000D01*
X136325000Y-132600000D02*
X136325000Y-135450000D01*
X133325000Y-132600000D02*
X133325000Y-135450000D01*
X133325000Y-135450000D02*
X136325000Y-135450000D01*
%TO.C,J4*%
X177150000Y-107825000D02*
X180150000Y-107825000D01*
X180150000Y-107825000D02*
X180150000Y-110675000D01*
X177150000Y-107825000D02*
X177150000Y-110675000D01*
X177150000Y-110675000D02*
X180150000Y-110675000D01*
%TO.C,J1*%
X159300000Y-118075000D02*
X162300000Y-118075000D01*
X162300000Y-118075000D02*
X162300000Y-120925000D01*
X159300000Y-118075000D02*
X159300000Y-120925000D01*
X159300000Y-120925000D02*
X162300000Y-120925000D01*
%TO.C,Battery_9V1*%
X160520000Y-150020000D02*
X163180000Y-150020000D01*
X160520000Y-147420000D02*
X160520000Y-150020000D01*
X163180000Y-147420000D02*
X163180000Y-150020000D01*
X160520000Y-147420000D02*
X163180000Y-147420000D01*
X160520000Y-146150000D02*
X160520000Y-144820000D01*
X160520000Y-144820000D02*
X161850000Y-144820000D01*
%TO.C,C49*%
X170000000Y-109100000D02*
X170000000Y-109700000D01*
X168400000Y-109080000D02*
X168400000Y-109680000D01*
D13*
%TO.C,U4*%
X162625000Y-108650000D02*
X162625000Y-108350000D01*
X162925000Y-108650000D02*
X162625000Y-108650000D01*
X167825000Y-108650000D02*
X167825000Y-108350000D01*
X167525000Y-108650000D02*
X167825000Y-108650000D01*
X162625000Y-104450000D02*
X162625000Y-104750000D01*
X162925000Y-104450000D02*
X162625000Y-104450000D01*
X167525000Y-104650000D02*
X167525000Y-103850000D01*
X167825000Y-104950000D02*
X167525000Y-104650000D01*
X167825000Y-105350000D02*
X167825000Y-104950000D01*
%TO.C,U2*%
X145050000Y-129350000D02*
X145350000Y-129350000D01*
X145050000Y-129650000D02*
X145050000Y-129350000D01*
X145050000Y-134550000D02*
X145350000Y-134550000D01*
X145050000Y-134250000D02*
X145050000Y-134550000D01*
X149250000Y-129350000D02*
X148950000Y-129350000D01*
X149250000Y-129650000D02*
X149250000Y-129350000D01*
X149050000Y-134250000D02*
X149850000Y-134250000D01*
X148750000Y-134550000D02*
X149050000Y-134250000D01*
X148350000Y-134550000D02*
X148750000Y-134550000D01*
D11*
%TO.C,C40*%
X155460000Y-95235000D02*
X150880000Y-95235000D01*
X156220000Y-95995000D02*
X155460000Y-95235000D01*
X155460000Y-100565000D02*
X156220000Y-99805000D01*
X150880000Y-100565000D02*
X155460000Y-100565000D01*
X156220000Y-99805000D02*
X156220000Y-99015000D01*
X156220000Y-95995000D02*
X156220000Y-96785000D01*
X150880000Y-95235000D02*
X150880000Y-96785000D01*
X150880000Y-100565000D02*
X150880000Y-99015000D01*
%TO.C,C21*%
X139060000Y-110240000D02*
X139060000Y-114820000D01*
X139820000Y-109480000D02*
X139060000Y-110240000D01*
X144390000Y-110240000D02*
X143630000Y-109480000D01*
X144390000Y-114820000D02*
X144390000Y-110240000D01*
X143630000Y-109480000D02*
X142840000Y-109480000D01*
X139820000Y-109480000D02*
X140610000Y-109480000D01*
X139060000Y-114820000D02*
X140610000Y-114820000D01*
X144390000Y-114820000D02*
X142840000Y-114820000D01*
%TO.C,C28*%
X155840000Y-112415000D02*
X160420000Y-112415000D01*
X155080000Y-111655000D02*
X155840000Y-112415000D01*
X155840000Y-107085000D02*
X155080000Y-107845000D01*
X160420000Y-107085000D02*
X155840000Y-107085000D01*
X155080000Y-107845000D02*
X155080000Y-108635000D01*
X155080000Y-111655000D02*
X155080000Y-110865000D01*
X160420000Y-112415000D02*
X160420000Y-110865000D01*
X160420000Y-107085000D02*
X160420000Y-108635000D01*
%TO.C,C27*%
X155890000Y-106665000D02*
X160470000Y-106665000D01*
X155130000Y-105905000D02*
X155890000Y-106665000D01*
X155890000Y-101335000D02*
X155130000Y-102095000D01*
X160470000Y-101335000D02*
X155890000Y-101335000D01*
X155130000Y-102095000D02*
X155130000Y-102885000D01*
X155130000Y-105905000D02*
X155130000Y-105115000D01*
X160470000Y-106665000D02*
X160470000Y-105115000D01*
X160470000Y-101335000D02*
X160470000Y-102885000D01*
%TO.C,C8*%
X147440000Y-104035000D02*
X147440000Y-99455000D01*
X146680000Y-104795000D02*
X147440000Y-104035000D01*
X142110000Y-104035000D02*
X142870000Y-104795000D01*
X142110000Y-99455000D02*
X142110000Y-104035000D01*
X142870000Y-104795000D02*
X143660000Y-104795000D01*
X146680000Y-104795000D02*
X145890000Y-104795000D01*
X147440000Y-99455000D02*
X145890000Y-99455000D01*
X142110000Y-99455000D02*
X143660000Y-99455000D01*
%TO.C,C9*%
X139685000Y-102635000D02*
X135105000Y-102635000D01*
X140445000Y-103395000D02*
X139685000Y-102635000D01*
X139685000Y-107965000D02*
X140445000Y-107205000D01*
X135105000Y-107965000D02*
X139685000Y-107965000D01*
X140445000Y-107205000D02*
X140445000Y-106415000D01*
X140445000Y-103395000D02*
X140445000Y-104185000D01*
X135105000Y-102635000D02*
X135105000Y-104185000D01*
X135105000Y-107965000D02*
X135105000Y-106415000D01*
%TO.C,C17*%
X131165000Y-111885000D02*
X131165000Y-107305000D01*
X130405000Y-112645000D02*
X131165000Y-111885000D01*
X125835000Y-111885000D02*
X126595000Y-112645000D01*
X125835000Y-107305000D02*
X125835000Y-111885000D01*
X126595000Y-112645000D02*
X127385000Y-112645000D01*
X130405000Y-112645000D02*
X129615000Y-112645000D01*
X131165000Y-107305000D02*
X129615000Y-107305000D01*
X125835000Y-107305000D02*
X127385000Y-107305000D01*
%TO.C,C30*%
X144490000Y-126540000D02*
X149070000Y-126540000D01*
X143730000Y-125780000D02*
X144490000Y-126540000D01*
X144490000Y-121210000D02*
X143730000Y-121970000D01*
X149070000Y-121210000D02*
X144490000Y-121210000D01*
X143730000Y-121970000D02*
X143730000Y-122760000D01*
X143730000Y-125780000D02*
X143730000Y-124990000D01*
X149070000Y-126540000D02*
X149070000Y-124990000D01*
X149070000Y-121210000D02*
X149070000Y-122760000D01*
%TO.C,C41*%
X152690000Y-122465000D02*
X157270000Y-122465000D01*
X151930000Y-121705000D02*
X152690000Y-122465000D01*
X152690000Y-117135000D02*
X151930000Y-117895000D01*
X157270000Y-117135000D02*
X152690000Y-117135000D01*
X151930000Y-117895000D02*
X151930000Y-118685000D01*
X151930000Y-121705000D02*
X151930000Y-120915000D01*
X157270000Y-122465000D02*
X157270000Y-120915000D01*
X157270000Y-117135000D02*
X157270000Y-118685000D01*
%TO.C,C44*%
X171010000Y-113585000D02*
X166430000Y-113585000D01*
X171770000Y-114345000D02*
X171010000Y-113585000D01*
X171010000Y-118915000D02*
X171770000Y-118155000D01*
X166430000Y-118915000D02*
X171010000Y-118915000D01*
X171770000Y-118155000D02*
X171770000Y-117365000D01*
X171770000Y-114345000D02*
X171770000Y-115135000D01*
X166430000Y-113585000D02*
X166430000Y-115135000D01*
X166430000Y-118915000D02*
X166430000Y-117365000D01*
%TO.C,C11*%
X153965000Y-131215000D02*
X158545000Y-131215000D01*
X153205000Y-130455000D02*
X153965000Y-131215000D01*
X153965000Y-125885000D02*
X153205000Y-126645000D01*
X158545000Y-125885000D02*
X153965000Y-125885000D01*
X153205000Y-126645000D02*
X153205000Y-127435000D01*
X153205000Y-130455000D02*
X153205000Y-129665000D01*
X158545000Y-131215000D02*
X158545000Y-129665000D01*
X158545000Y-125885000D02*
X158545000Y-127435000D01*
%TO.C,C4*%
X182740000Y-117385000D02*
X182740000Y-112805000D01*
X181980000Y-118145000D02*
X182740000Y-117385000D01*
X177410000Y-117385000D02*
X178170000Y-118145000D01*
X177410000Y-112805000D02*
X177410000Y-117385000D01*
X178170000Y-118145000D02*
X178960000Y-118145000D01*
X181980000Y-118145000D02*
X181190000Y-118145000D01*
X182740000Y-112805000D02*
X181190000Y-112805000D01*
X177410000Y-112805000D02*
X178960000Y-112805000D01*
%TO.C,C25*%
X174060000Y-119760000D02*
X169480000Y-119760000D01*
X174820000Y-120520000D02*
X174060000Y-119760000D01*
X174060000Y-125090000D02*
X174820000Y-124330000D01*
X169480000Y-125090000D02*
X174060000Y-125090000D01*
X174820000Y-124330000D02*
X174820000Y-123540000D01*
X174820000Y-120520000D02*
X174820000Y-121310000D01*
X169480000Y-119760000D02*
X169480000Y-121310000D01*
X169480000Y-125090000D02*
X169480000Y-123540000D01*
%TO.C,C13*%
X165735000Y-123085000D02*
X161155000Y-123085000D01*
X166495000Y-123845000D02*
X165735000Y-123085000D01*
X165735000Y-128415000D02*
X166495000Y-127655000D01*
X161155000Y-128415000D02*
X165735000Y-128415000D01*
X166495000Y-127655000D02*
X166495000Y-126865000D01*
X166495000Y-123845000D02*
X166495000Y-124635000D01*
X161155000Y-123085000D02*
X161155000Y-124635000D01*
X161155000Y-128415000D02*
X161155000Y-126865000D01*
%TO.C,C7*%
X169760000Y-153510000D02*
X165180000Y-153510000D01*
X170520000Y-154270000D02*
X169760000Y-153510000D01*
X169760000Y-158840000D02*
X170520000Y-158080000D01*
X165180000Y-158840000D02*
X169760000Y-158840000D01*
X170520000Y-158080000D02*
X170520000Y-157290000D01*
X170520000Y-154270000D02*
X170520000Y-155060000D01*
X165180000Y-153510000D02*
X165180000Y-155060000D01*
X165180000Y-158840000D02*
X165180000Y-157290000D01*
%TO.C,C33*%
X123940000Y-94985000D02*
X123940000Y-90405000D01*
X123180000Y-95745000D02*
X123940000Y-94985000D01*
X118610000Y-94985000D02*
X119370000Y-95745000D01*
X118610000Y-90405000D02*
X118610000Y-94985000D01*
X119370000Y-95745000D02*
X120160000Y-95745000D01*
X123180000Y-95745000D02*
X122390000Y-95745000D01*
X123940000Y-90405000D02*
X122390000Y-90405000D01*
X118610000Y-90405000D02*
X120160000Y-90405000D01*
%TO.C,R31*%
X131925000Y-95350000D02*
X131925000Y-95950000D01*
X130325000Y-95330000D02*
X130325000Y-95930000D01*
%TO.C,C5*%
X135790000Y-99565000D02*
X140370000Y-99565000D01*
X135030000Y-98805000D02*
X135790000Y-99565000D01*
X135790000Y-94235000D02*
X135030000Y-94995000D01*
X140370000Y-94235000D02*
X135790000Y-94235000D01*
X135030000Y-94995000D02*
X135030000Y-95785000D01*
X135030000Y-98805000D02*
X135030000Y-98015000D01*
X140370000Y-99565000D02*
X140370000Y-98015000D01*
X140370000Y-94235000D02*
X140370000Y-95785000D01*
%TO.C,C42*%
X144435000Y-88535000D02*
X139855000Y-88535000D01*
X145195000Y-89295000D02*
X144435000Y-88535000D01*
X144435000Y-93865000D02*
X145195000Y-93105000D01*
X139855000Y-93865000D02*
X144435000Y-93865000D01*
X145195000Y-93105000D02*
X145195000Y-92315000D01*
X145195000Y-89295000D02*
X145195000Y-90085000D01*
X139855000Y-88535000D02*
X139855000Y-90085000D01*
X139855000Y-93865000D02*
X139855000Y-92315000D01*
%TO.C,C43*%
X157840000Y-94715000D02*
X162420000Y-94715000D01*
X157080000Y-93955000D02*
X157840000Y-94715000D01*
X157840000Y-89385000D02*
X157080000Y-90145000D01*
X162420000Y-89385000D02*
X157840000Y-89385000D01*
X157080000Y-90145000D02*
X157080000Y-90935000D01*
X157080000Y-93955000D02*
X157080000Y-93165000D01*
X162420000Y-94715000D02*
X162420000Y-93165000D01*
X162420000Y-89385000D02*
X162420000Y-90935000D01*
D13*
%TO.C,U1*%
X151962157Y-115224848D02*
X152862157Y-115224848D01*
X151962157Y-115624848D02*
X151962157Y-115224848D01*
X151362157Y-115624848D02*
X151962157Y-115624848D01*
X147362157Y-115624848D02*
X147762157Y-115624848D01*
X147362157Y-115224848D02*
X147362157Y-115624848D01*
X147262157Y-106224848D02*
X147762157Y-106224848D01*
X147262157Y-106624848D02*
X147262157Y-106224848D01*
X151962157Y-106324848D02*
X151562157Y-106324848D01*
X151962157Y-106624848D02*
X151962157Y-106324848D01*
%TO.C,U8*%
X151350000Y-156795000D02*
X153050000Y-156795000D01*
X143650000Y-157195000D02*
X144150000Y-157195000D01*
X143650000Y-157195000D02*
X143650000Y-156795000D01*
X143650000Y-139095000D02*
X144150000Y-139095000D01*
X143650000Y-139095000D02*
X143650000Y-139495000D01*
X151350000Y-139095000D02*
X150850000Y-139095000D01*
X151350000Y-139095000D02*
X151350000Y-139495000D01*
X150950000Y-157195000D02*
X150700000Y-157195000D01*
X151350000Y-156795000D02*
X150950000Y-157195000D01*
D11*
%TO.C,D4*%
X182575000Y-104030000D02*
G75*
G03*
X182575000Y-104030000I-2500000J0D01*
G01*
X178530000Y-106590000D02*
X181620000Y-106590000D01*
X180075462Y-101040000D02*
G75*
G03*
X178530170Y-106590000I-462J-2990000D01*
G01*
X180074538Y-101040000D02*
G75*
G02*
X181619830Y-106590000I462J-2990000D01*
G01*
%TO.C,J3*%
X86200000Y-146580000D02*
X86200000Y-128290000D01*
X86200000Y-128290000D02*
X88750000Y-128290000D01*
X91660000Y-128290000D02*
X95090000Y-128290000D01*
X98010000Y-128290000D02*
X101440000Y-128290000D01*
X101440000Y-146580000D02*
X98010000Y-146580000D01*
X95090000Y-146580000D02*
X91660000Y-146580000D01*
X88750000Y-146580000D02*
X86200000Y-146580000D01*
X106810000Y-146580000D02*
X104360000Y-146580000D01*
X106810000Y-128290000D02*
X104360000Y-128290000D01*
X106810000Y-146580000D02*
X106810000Y-128290000D01*
X83200000Y-131580000D02*
X86200000Y-131580000D01*
X83200000Y-143280000D02*
X83200000Y-131580000D01*
X83200000Y-143280000D02*
X86200000Y-143280000D01*
X106840000Y-141690000D02*
X110060000Y-141690000D01*
X110080000Y-141690000D02*
X110080000Y-133210000D01*
X106840000Y-133180000D02*
X110060000Y-133180000D01*
%TO.C,J6*%
X198380000Y-142789999D02*
X195160000Y-142789999D01*
X195140000Y-134279999D02*
X195140000Y-142759999D01*
X198380000Y-134279999D02*
X195160000Y-134279999D01*
X222020000Y-132689999D02*
X219020000Y-132689999D01*
X222020000Y-132689999D02*
X222020000Y-144389999D01*
X222020000Y-144389999D02*
X219020000Y-144389999D01*
X198410000Y-129389999D02*
X198410000Y-147679999D01*
X198410000Y-147679999D02*
X200860000Y-147679999D01*
X198410000Y-129389999D02*
X200860000Y-129389999D01*
X216470000Y-129389999D02*
X219020000Y-129389999D01*
X210130000Y-129389999D02*
X213560000Y-129389999D01*
X203780000Y-129389999D02*
X207210000Y-129389999D01*
X207210000Y-147679999D02*
X203780000Y-147679999D01*
X213560000Y-147679999D02*
X210130000Y-147679999D01*
X219020000Y-147679999D02*
X216470000Y-147679999D01*
X219020000Y-129389999D02*
X219020000Y-147679999D01*
%TO.C,J9*%
X111210000Y-129550000D02*
X108550000Y-129550000D01*
X111210000Y-142310000D02*
X111210000Y-129550000D01*
X108550000Y-142310000D02*
X108550000Y-129550000D01*
X111210000Y-142310000D02*
X108550000Y-142310000D01*
X111210000Y-143580000D02*
X111210000Y-144910000D01*
X111210000Y-144910000D02*
X109880000Y-144910000D01*
%TO.C,J10*%
X173495000Y-96270000D02*
X174825000Y-96270000D01*
X173495000Y-97600000D02*
X173495000Y-96270000D01*
X173495000Y-98870000D02*
X176155000Y-98870000D01*
X176155000Y-98870000D02*
X176155000Y-111630000D01*
X173495000Y-98870000D02*
X173495000Y-111630000D01*
X173495000Y-111630000D02*
X176155000Y-111630000D01*
%TO.C,J11*%
X193940000Y-146270000D02*
X196600000Y-146270000D01*
X193940000Y-133510000D02*
X193940000Y-146270000D01*
X196600000Y-133510000D02*
X196600000Y-146270000D01*
X193940000Y-133510000D02*
X196600000Y-133510000D01*
X193940000Y-132240000D02*
X193940000Y-130910000D01*
X193940000Y-130910000D02*
X195270000Y-130910000D01*
%TO.C,J12*%
X129545000Y-128495000D02*
X130875000Y-128495000D01*
X129545000Y-129825000D02*
X129545000Y-128495000D01*
X129545000Y-131095000D02*
X132205000Y-131095000D01*
X132205000Y-131095000D02*
X132205000Y-143855000D01*
X129545000Y-131095000D02*
X129545000Y-143855000D01*
X129545000Y-143855000D02*
X132205000Y-143855000D01*
%TO.C,J15*%
X145660000Y-80070000D02*
X145660000Y-82730000D01*
X155880000Y-80070000D02*
X145660000Y-80070000D01*
X155880000Y-82730000D02*
X145660000Y-82730000D01*
X155880000Y-80070000D02*
X155880000Y-82730000D01*
X157150000Y-80070000D02*
X158480000Y-80070000D01*
X158480000Y-80070000D02*
X158480000Y-81400000D01*
%TO.C,R19*%
X182475000Y-108950000D02*
X182475000Y-109550000D01*
X180875000Y-108930000D02*
X180875000Y-109530000D01*
%TO.C,R37*%
X150150000Y-74500000D02*
X150150000Y-75100000D01*
X148550000Y-74480000D02*
X148550000Y-75080000D01*
%TO.C,R38*%
X147750000Y-76500000D02*
X147750000Y-77100000D01*
X146150000Y-76480000D02*
X146150000Y-77080000D01*
%TO.C,R39*%
X156050000Y-76880000D02*
X156050000Y-77480000D01*
X157650000Y-76900000D02*
X157650000Y-77500000D01*
D13*
%TO.C,SW1*%
X146475000Y-77425000D02*
X145525000Y-77425000D01*
X145525000Y-77425000D02*
X145525000Y-76750000D01*
X146375000Y-63775000D02*
X145525000Y-63775000D01*
X145525000Y-63775000D02*
X145525000Y-64450000D01*
X158275000Y-76850000D02*
X158275000Y-77425000D01*
X158275000Y-77425000D02*
X157475000Y-77425000D01*
X157575000Y-63775000D02*
X158275000Y-63775000D01*
X158275000Y-63775000D02*
X158275000Y-64275000D01*
D11*
%TO.C,C1*%
X148177157Y-117479848D02*
X147577157Y-117479848D01*
X148197157Y-115879848D02*
X147597157Y-115879848D01*
%TO.C,C2*%
X175449593Y-115145841D02*
X175449593Y-115745841D01*
X177049593Y-115165841D02*
X177049593Y-115765841D01*
%TO.C,C3*%
X162575000Y-116725000D02*
X161975000Y-116725000D01*
X162595000Y-115125000D02*
X161995000Y-115125000D01*
%TO.C,C6*%
X165455000Y-153175000D02*
X166055000Y-153175000D01*
X165475000Y-151575000D02*
X166075000Y-151575000D01*
%TO.C,C10*%
X139507157Y-101559849D02*
X140107157Y-101559849D01*
X139527157Y-99959849D02*
X140127157Y-99959849D01*
%TO.C,C12*%
X133687156Y-112274849D02*
X133087156Y-112274849D01*
X133667156Y-113874849D02*
X133067156Y-113874849D01*
%TO.C,C14*%
X123417157Y-113949848D02*
X123417157Y-113349848D01*
X125017157Y-113969848D02*
X125017157Y-113369848D01*
%TO.C,C15*%
X169500000Y-126750000D02*
X170100000Y-126750000D01*
X169480000Y-128350000D02*
X170080000Y-128350000D01*
%TO.C,C16*%
X139730000Y-134160000D02*
X140330000Y-134160000D01*
X139710000Y-135760000D02*
X140310000Y-135760000D01*
%TO.C,C18*%
X133092156Y-118024848D02*
X133092156Y-117424848D01*
X134692156Y-118044848D02*
X134692156Y-117444848D01*
%TO.C,C19*%
X140592156Y-118344848D02*
X140592156Y-117744848D01*
X138992156Y-118324848D02*
X138992156Y-117724848D01*
%TO.C,C20*%
X133117157Y-121949849D02*
X133117157Y-121349849D01*
X134717157Y-121969849D02*
X134717157Y-121369849D01*
%TO.C,C22*%
X122947158Y-124449849D02*
X123547158Y-124449849D01*
X122967158Y-122849849D02*
X123567158Y-122849849D01*
%TO.C,C23*%
X131262159Y-124849848D02*
X130662159Y-124849848D01*
X131242159Y-126449848D02*
X130642159Y-126449848D01*
%TO.C,C24*%
X125017157Y-124899848D02*
X125617157Y-124899848D01*
X124997157Y-126499848D02*
X125597157Y-126499848D01*
%TO.C,C26*%
X161655000Y-130425000D02*
X162255000Y-130425000D01*
X161675000Y-128825000D02*
X162275000Y-128825000D01*
%TO.C,C29*%
X163200000Y-98375000D02*
X163800000Y-98375000D01*
X163180000Y-99975000D02*
X163780000Y-99975000D01*
%TO.C,C31*%
X126415637Y-95903250D02*
X125815637Y-95903250D01*
X126395637Y-97503250D02*
X125795637Y-97503250D01*
%TO.C,C32*%
X116650000Y-96100000D02*
X116650000Y-95500000D01*
X118250000Y-96120000D02*
X118250000Y-95520000D01*
%TO.C,C34*%
X125820638Y-101953252D02*
X125820638Y-101353252D01*
X127420638Y-101973252D02*
X127420638Y-101373252D01*
%TO.C,C35*%
X133445636Y-102073251D02*
X133445636Y-101473251D01*
X131845636Y-102053251D02*
X131845636Y-101453251D01*
%TO.C,C36*%
X127300000Y-104150000D02*
X127900000Y-104150000D01*
X127280000Y-105750000D02*
X127880000Y-105750000D01*
%TO.C,C37*%
X119000000Y-110620000D02*
X119000000Y-110020000D01*
X117400000Y-110600000D02*
X117400000Y-110000000D01*
%TO.C,C38*%
X123600000Y-110100000D02*
X123000000Y-110100000D01*
X123620000Y-108500000D02*
X123020000Y-108500000D01*
%TO.C,C39*%
X119500000Y-110600000D02*
X119500000Y-110000000D01*
X121100000Y-110620000D02*
X121100000Y-110020000D01*
%TO.C,C45*%
X158085000Y-155800000D02*
X158085000Y-155200000D01*
X159685000Y-155820000D02*
X159685000Y-155220000D01*
%TO.C,C46*%
X158160000Y-139005000D02*
X158160000Y-139605000D01*
X159760000Y-139025000D02*
X159760000Y-139625000D01*
%TO.C,C47*%
X139130000Y-147045000D02*
X139730000Y-147045000D01*
X139150000Y-145445000D02*
X139750000Y-145445000D01*
%TO.C,D5*%
X138680000Y-149370000D02*
G75*
G03*
X138680000Y-149370000I-4000000J0D01*
G01*
X132538000Y-153430000D02*
X136822000Y-153430000D01*
X134679514Y-144780000D02*
G75*
G02*
X136821145Y-153430000I486J-4590000D01*
G01*
X134680486Y-144780000D02*
G75*
G03*
X132538855Y-153430000I-486J-4590000D01*
G01*
%TO.C,D6*%
X132488000Y-161300000D02*
X136772000Y-161300000D01*
X138630000Y-157240000D02*
G75*
G03*
X138630000Y-157240000I-4000000J0D01*
G01*
X134630486Y-152650000D02*
G75*
G03*
X132488855Y-161300000I-486J-4590000D01*
G01*
X134629514Y-152650000D02*
G75*
G02*
X136771145Y-161300000I486J-4590000D01*
G01*
%TO.C,J2*%
X160545000Y-151120000D02*
X161875000Y-151120000D01*
X160545000Y-152450000D02*
X160545000Y-151120000D01*
X160545000Y-153720000D02*
X163205000Y-153720000D01*
X163205000Y-153720000D02*
X163205000Y-158860000D01*
X160545000Y-153720000D02*
X160545000Y-158860000D01*
X160545000Y-158860000D02*
X163205000Y-158860000D01*
%TO.C,J7*%
X163105000Y-143755000D02*
X161775000Y-143755000D01*
X163105000Y-142425000D02*
X163105000Y-143755000D01*
X163105000Y-141155000D02*
X160445000Y-141155000D01*
X160445000Y-141155000D02*
X160445000Y-130935000D01*
X163105000Y-141155000D02*
X163105000Y-130935000D01*
X163105000Y-130935000D02*
X160445000Y-130935000D01*
%TO.C,J13*%
X142035000Y-158015000D02*
X142035000Y-160675000D01*
X152255000Y-158015000D02*
X142035000Y-158015000D01*
X152255000Y-160675000D02*
X142035000Y-160675000D01*
X152255000Y-158015000D02*
X152255000Y-160675000D01*
X153525000Y-158015000D02*
X154855000Y-158015000D01*
X154855000Y-158015000D02*
X154855000Y-159345000D01*
D13*
%TO.C,Q1*%
X154100001Y-135095000D02*
X154375001Y-135095000D01*
X154375001Y-135095000D02*
X154750001Y-134820000D01*
X154750001Y-134820000D02*
X154750001Y-134770000D01*
X154750001Y-134770000D02*
X155525001Y-134770000D01*
X154275001Y-131795000D02*
X154750001Y-131795000D01*
X154750001Y-131795000D02*
X154750001Y-132145000D01*
X153100001Y-132020000D02*
X153100001Y-132145000D01*
X153100001Y-132095000D02*
X153100001Y-131795000D01*
X153100001Y-131795000D02*
X153550001Y-131795000D01*
X153475001Y-135095000D02*
X153100001Y-135095000D01*
X153100001Y-135095000D02*
X153100001Y-134795000D01*
%TO.C,Q2*%
X139250000Y-133520000D02*
X139250000Y-133220000D01*
X139625000Y-133520000D02*
X139250000Y-133520000D01*
X139250000Y-130220000D02*
X139700000Y-130220000D01*
X139250000Y-130520000D02*
X139250000Y-130220000D01*
X139250000Y-130445000D02*
X139250000Y-130570000D01*
X140900000Y-130220000D02*
X140900000Y-130570000D01*
X140425000Y-130220000D02*
X140900000Y-130220000D01*
X140900000Y-133195000D02*
X141675000Y-133195000D01*
X140900000Y-133245000D02*
X140900000Y-133195000D01*
X140525000Y-133520000D02*
X140900000Y-133245000D01*
X140250000Y-133520000D02*
X140525000Y-133520000D01*
D11*
%TO.C,R1*%
X175500000Y-119275000D02*
X174900000Y-119275000D01*
X175520000Y-117675000D02*
X174920000Y-117675000D01*
%TO.C,R2*%
X173399593Y-115175841D02*
X173399593Y-115775841D01*
X174999593Y-115195841D02*
X174999593Y-115795841D01*
%TO.C,R3*%
X162000000Y-113075000D02*
X162600000Y-113075000D01*
X161980000Y-114675000D02*
X162580000Y-114675000D01*
%TO.C,R4*%
X149477157Y-103359849D02*
X149477157Y-102759849D01*
X147877157Y-103339849D02*
X147877157Y-102739849D01*
%TO.C,R5*%
X143447157Y-106349849D02*
X144047157Y-106349849D01*
X143427157Y-107949849D02*
X144027157Y-107949849D01*
%TO.C,R6*%
X148675000Y-137165001D02*
X148675000Y-136565001D01*
X147075000Y-137145001D02*
X147075000Y-136545001D01*
%TO.C,R7*%
X149896561Y-127055266D02*
X149296561Y-127055266D01*
X149876561Y-128655266D02*
X149276561Y-128655266D01*
%TO.C,R8*%
X174095000Y-136025000D02*
X173495000Y-136025000D01*
X174075000Y-137625000D02*
X173475000Y-137625000D01*
%TO.C,R9*%
X170150000Y-137625000D02*
X169550000Y-137625000D01*
X170170000Y-136025000D02*
X169570000Y-136025000D01*
%TO.C,R10*%
X166125000Y-138325000D02*
X165525000Y-138325000D01*
X166145000Y-136725000D02*
X165545000Y-136725000D01*
%TO.C,R11*%
X133047156Y-111874848D02*
X133647156Y-111874848D01*
X133067156Y-110274848D02*
X133667156Y-110274848D01*
%TO.C,R12*%
X135517157Y-111099849D02*
X135517157Y-110499849D01*
X137117157Y-111119849D02*
X137117157Y-110519849D01*
%TO.C,R13*%
X136517157Y-114249848D02*
X137117157Y-114249848D01*
X136497157Y-115849848D02*
X137097157Y-115849848D01*
%TO.C,R14*%
X136522158Y-117824849D02*
X137122158Y-117824849D01*
X136542158Y-116224849D02*
X137142158Y-116224849D01*
%TO.C,R15*%
X136522158Y-119799849D02*
X137122158Y-119799849D01*
X136542158Y-118199849D02*
X137142158Y-118199849D01*
%TO.C,R16*%
X157550000Y-131595000D02*
X158150000Y-131595000D01*
X157530000Y-133195000D02*
X158130000Y-133195000D01*
%TO.C,R17*%
X151897157Y-102719847D02*
X151897157Y-103319847D01*
X153497157Y-102739847D02*
X153497157Y-103339847D01*
%TO.C,R18*%
X158047157Y-112979849D02*
X157447157Y-112979849D01*
X158027157Y-114579849D02*
X157427157Y-114579849D01*
%TO.C,R20*%
X146675000Y-137165000D02*
X146675000Y-136565000D01*
X145075000Y-137145000D02*
X145075000Y-136545000D01*
%TO.C,R21*%
X144676562Y-128655265D02*
X144076562Y-128655265D01*
X144696562Y-127055265D02*
X144096562Y-127055265D01*
%TO.C,R22*%
X125795637Y-93903252D02*
X126395637Y-93903252D01*
X125775637Y-95503252D02*
X126375637Y-95503252D01*
%TO.C,R23*%
X128269850Y-94042843D02*
X128269850Y-93442843D01*
X129869850Y-94062843D02*
X129869850Y-93462843D01*
%TO.C,R24*%
X129275638Y-99528251D02*
X129875638Y-99528251D01*
X129295638Y-97928251D02*
X129895638Y-97928251D01*
%TO.C,R25*%
X129275635Y-101528251D02*
X129875635Y-101528251D01*
X129295635Y-99928251D02*
X129895635Y-99928251D01*
%TO.C,R26*%
X129275638Y-103528250D02*
X129875638Y-103528250D01*
X129295638Y-101928250D02*
X129895638Y-101928250D01*
%TO.C,R27*%
X136400000Y-131670000D02*
X135800000Y-131670000D01*
X136420000Y-130070000D02*
X135820000Y-130070000D01*
%TO.C,R28*%
X137980000Y-151510000D02*
X138580000Y-151510000D01*
X138000000Y-149910000D02*
X138600000Y-149910000D01*
%TO.C,R29*%
X138010000Y-152020000D02*
X138610000Y-152020000D01*
X137990000Y-153620000D02*
X138590000Y-153620000D01*
%TO.C,R30*%
X156167159Y-116639848D02*
X155567159Y-116639848D01*
X156187159Y-115039848D02*
X155587159Y-115039848D01*
%TO.C,R33*%
X138020000Y-155679999D02*
X138620000Y-155679999D01*
X138040000Y-154079999D02*
X138640000Y-154079999D01*
%TO.C,R34*%
X137980000Y-156160000D02*
X138580000Y-156160000D01*
X137960000Y-157760000D02*
X138560000Y-157760000D01*
%TO.C,R35*%
X157800000Y-97275000D02*
X157800000Y-96675000D01*
X159400000Y-97295000D02*
X159400000Y-96695000D01*
%TO.C,R36*%
X168377157Y-105139848D02*
X168377157Y-105739848D01*
X169977157Y-105159848D02*
X169977157Y-105759848D01*
D13*
%TO.C,U3*%
X167725000Y-141325000D02*
X167250000Y-141325000D01*
X167250000Y-141325000D02*
X166925000Y-141625000D01*
X166925000Y-141625000D02*
X166730000Y-141625000D01*
X167400000Y-147875000D02*
X166925000Y-147875000D01*
X166925000Y-147875000D02*
X166925000Y-147425000D01*
X170475000Y-141825000D02*
X170475000Y-141325000D01*
X170475000Y-141325000D02*
X170075000Y-141325000D01*
X170475000Y-147500000D02*
X170475000Y-147875000D01*
X170475000Y-147875000D02*
X170175000Y-147875000D01*
%TO.C,U5*%
X131267157Y-124599849D02*
X130967157Y-124599849D01*
X131267157Y-124599849D02*
X131267157Y-124299849D01*
X131267157Y-114199849D02*
X130967157Y-114199849D01*
X126867157Y-124299849D02*
X126867157Y-124599849D01*
X126867157Y-124599849D02*
X127167157Y-124599849D01*
X127267157Y-114199849D02*
X126867157Y-114199849D01*
X126867157Y-114199849D02*
X126867157Y-114499849D01*
X126867157Y-114499849D02*
X126267157Y-114499849D01*
X131267157Y-114499849D02*
X131267157Y-114199849D01*
%TO.C,U6*%
X171900000Y-135575000D02*
X171600000Y-135575000D01*
X171900000Y-135200000D02*
X171900000Y-135575000D01*
X171900000Y-129025000D02*
X171500000Y-129025000D01*
X171900000Y-129525000D02*
X171900000Y-129025000D01*
X168350000Y-135575000D02*
X168350000Y-135125000D01*
X168825000Y-135575000D02*
X168350000Y-135575000D01*
X168350000Y-129325000D02*
X168155000Y-129325000D01*
X168675000Y-129025000D02*
X168350000Y-129325000D01*
X169150000Y-129025000D02*
X168675000Y-129025000D01*
%TO.C,U7*%
X123920636Y-98153252D02*
X123920636Y-97853252D01*
X119520636Y-98153252D02*
X118920636Y-98153252D01*
X119520636Y-97853252D02*
X119520636Y-98153252D01*
X119920636Y-97853252D02*
X119520636Y-97853252D01*
X119520636Y-108253252D02*
X119820636Y-108253252D01*
X119520636Y-107953252D02*
X119520636Y-108253252D01*
X123920636Y-97853252D02*
X123620636Y-97853252D01*
X123920636Y-108253252D02*
X123920636Y-107953252D01*
X123920636Y-108253252D02*
X123620636Y-108253252D01*
D11*
%TO.C,Y1*%
X159210000Y-157575000D02*
X159210000Y-141600000D01*
X154110000Y-157575000D02*
X159210000Y-157575000D01*
X154110000Y-141600000D02*
X154110000Y-157575000D01*
%TO.C,R32*%
X151507157Y-102739850D02*
X151507157Y-103339850D01*
X149907157Y-102719850D02*
X149907157Y-103319850D01*
D13*
%TO.C,D1*%
X169550000Y-148375000D02*
X169550000Y-148775000D01*
X169550000Y-148375000D02*
X169150000Y-148375000D01*
X165050000Y-148375000D02*
X165450000Y-148375000D01*
X165050000Y-148375000D02*
X165050000Y-148775000D01*
X165050000Y-151175000D02*
X165050000Y-150775000D01*
X165050000Y-151175000D02*
X165450000Y-151175000D01*
X169550000Y-151175000D02*
X169550000Y-150775000D01*
X169550000Y-151175000D02*
X169150000Y-151175000D01*
X165936020Y-148375460D02*
X165859820Y-148375460D01*
X165936020Y-148840280D02*
X165936020Y-148375460D01*
X165859820Y-148840280D02*
X165936020Y-148840280D01*
X165859820Y-148375460D02*
X165859820Y-148840280D01*
X165936020Y-151177080D02*
X165859820Y-151177080D01*
X165936020Y-150717340D02*
X165936020Y-151177080D01*
X165859820Y-150717340D02*
X165936020Y-150717340D01*
X165859820Y-151177080D02*
X165859820Y-150717340D01*
%TO.C,D2*%
X168840180Y-159197920D02*
X168840180Y-159657660D01*
X168840180Y-159657660D02*
X168763980Y-159657660D01*
X168763980Y-159657660D02*
X168763980Y-159197920D01*
X168763980Y-159197920D02*
X168840180Y-159197920D01*
X168840180Y-161999540D02*
X168840180Y-161534720D01*
X168840180Y-161534720D02*
X168763980Y-161534720D01*
X168763980Y-161534720D02*
X168763980Y-161999540D01*
X168763980Y-161999540D02*
X168840180Y-161999540D01*
X165150000Y-159200000D02*
X165550000Y-159200000D01*
X165150000Y-159200000D02*
X165150000Y-159600000D01*
X169650000Y-159200000D02*
X169250000Y-159200000D01*
X169650000Y-159200000D02*
X169650000Y-159600000D01*
X169650000Y-162000000D02*
X169650000Y-161600000D01*
X169650000Y-162000000D02*
X169250000Y-162000000D01*
X165150000Y-162000000D02*
X165550000Y-162000000D01*
X165150000Y-162000000D02*
X165150000Y-161600000D01*
%TO.C,D3*%
X169200000Y-140800000D02*
X169200000Y-140400000D01*
X169200000Y-140800000D02*
X169600000Y-140800000D01*
X173700000Y-140800000D02*
X173300000Y-140800000D01*
X173700000Y-140800000D02*
X173700000Y-140400000D01*
X173700000Y-138000000D02*
X173700000Y-138400000D01*
X173700000Y-138000000D02*
X173300000Y-138000000D01*
X169200000Y-138000000D02*
X169200000Y-138400000D01*
X169200000Y-138000000D02*
X169600000Y-138000000D01*
X172813980Y-140799540D02*
X172890180Y-140799540D01*
X172813980Y-140334720D02*
X172813980Y-140799540D01*
X172890180Y-140334720D02*
X172813980Y-140334720D01*
X172890180Y-140799540D02*
X172890180Y-140334720D01*
X172813980Y-137997920D02*
X172890180Y-137997920D01*
X172813980Y-138457660D02*
X172813980Y-137997920D01*
X172890180Y-138457660D02*
X172813980Y-138457660D01*
X172890180Y-137997920D02*
X172890180Y-138457660D01*
%TO.C,D7*%
X174109820Y-128302080D02*
X174109820Y-127842340D01*
X174109820Y-127842340D02*
X174186020Y-127842340D01*
X174186020Y-127842340D02*
X174186020Y-128302080D01*
X174186020Y-128302080D02*
X174109820Y-128302080D01*
X174109820Y-125500460D02*
X174109820Y-125965280D01*
X174109820Y-125965280D02*
X174186020Y-125965280D01*
X174186020Y-125965280D02*
X174186020Y-125500460D01*
X174186020Y-125500460D02*
X174109820Y-125500460D01*
X177800000Y-128300000D02*
X177400000Y-128300000D01*
X177800000Y-128300000D02*
X177800000Y-127900000D01*
X173300000Y-128300000D02*
X173700000Y-128300000D01*
X173300000Y-128300000D02*
X173300000Y-127900000D01*
X173300000Y-125500000D02*
X173300000Y-125900000D01*
X173300000Y-125500000D02*
X173700000Y-125500000D01*
X177800000Y-125500000D02*
X177400000Y-125500000D01*
X177800000Y-125500000D02*
X177800000Y-125900000D01*
%TO.C,C48*%
D10*
X164682142Y-139542857D02*
X164729761Y-139590476D01*
X164777380Y-139733333D01*
X164777380Y-139828571D01*
X164729761Y-139971428D01*
X164634523Y-140066666D01*
X164539285Y-140114285D01*
X164348809Y-140161904D01*
X164205952Y-140161904D01*
X164015476Y-140114285D01*
X163920238Y-140066666D01*
X163825000Y-139971428D01*
X163777380Y-139828571D01*
X163777380Y-139733333D01*
X163825000Y-139590476D01*
X163872619Y-139542857D01*
X164110714Y-138685714D02*
X164777380Y-138685714D01*
X163729761Y-138923809D02*
X164444047Y-139161904D01*
X164444047Y-138542857D01*
X164205952Y-138019047D02*
X164158333Y-138114285D01*
X164110714Y-138161904D01*
X164015476Y-138209523D01*
X163967857Y-138209523D01*
X163872619Y-138161904D01*
X163825000Y-138114285D01*
X163777380Y-138019047D01*
X163777380Y-137828571D01*
X163825000Y-137733333D01*
X163872619Y-137685714D01*
X163967857Y-137638095D01*
X164015476Y-137638095D01*
X164110714Y-137685714D01*
X164158333Y-137733333D01*
X164205952Y-137828571D01*
X164205952Y-138019047D01*
X164253571Y-138114285D01*
X164301190Y-138161904D01*
X164396428Y-138209523D01*
X164586904Y-138209523D01*
X164682142Y-138161904D01*
X164729761Y-138114285D01*
X164777380Y-138019047D01*
X164777380Y-137828571D01*
X164729761Y-137733333D01*
X164682142Y-137685714D01*
X164586904Y-137638095D01*
X164396428Y-137638095D01*
X164301190Y-137685714D01*
X164253571Y-137733333D01*
X164205952Y-137828571D01*
%TO.C,J14*%
X138265476Y-135272380D02*
X138265476Y-135986666D01*
X138217857Y-136129523D01*
X138122619Y-136224761D01*
X137979761Y-136272380D01*
X137884523Y-136272380D01*
X139265476Y-136272380D02*
X138694047Y-136272380D01*
X138979761Y-136272380D02*
X138979761Y-135272380D01*
X138884523Y-135415238D01*
X138789285Y-135510476D01*
X138694047Y-135558095D01*
X140122619Y-135605714D02*
X140122619Y-136272380D01*
X139884523Y-135224761D02*
X139646428Y-135939047D01*
X140265476Y-135939047D01*
%TO.C,J17*%
X163940476Y-122652380D02*
X163940476Y-123366666D01*
X163892857Y-123509523D01*
X163797619Y-123604761D01*
X163654761Y-123652380D01*
X163559523Y-123652380D01*
X164940476Y-123652380D02*
X164369047Y-123652380D01*
X164654761Y-123652380D02*
X164654761Y-122652380D01*
X164559523Y-122795238D01*
X164464285Y-122890476D01*
X164369047Y-122938095D01*
X165273809Y-122652380D02*
X165940476Y-122652380D01*
X165511904Y-123652380D01*
%TO.C,J16*%
X183865476Y-104477380D02*
X183865476Y-105191666D01*
X183817857Y-105334523D01*
X183722619Y-105429761D01*
X183579761Y-105477380D01*
X183484523Y-105477380D01*
X184865476Y-105477380D02*
X184294047Y-105477380D01*
X184579761Y-105477380D02*
X184579761Y-104477380D01*
X184484523Y-104620238D01*
X184389285Y-104715476D01*
X184294047Y-104763095D01*
X185722619Y-104477380D02*
X185532142Y-104477380D01*
X185436904Y-104525000D01*
X185389285Y-104572619D01*
X185294047Y-104715476D01*
X185246428Y-104905952D01*
X185246428Y-105286904D01*
X185294047Y-105382142D01*
X185341666Y-105429761D01*
X185436904Y-105477380D01*
X185627380Y-105477380D01*
X185722619Y-105429761D01*
X185770238Y-105382142D01*
X185817857Y-105286904D01*
X185817857Y-105048809D01*
X185770238Y-104953571D01*
X185722619Y-104905952D01*
X185627380Y-104858333D01*
X185436904Y-104858333D01*
X185341666Y-104905952D01*
X185294047Y-104953571D01*
X185246428Y-105048809D01*
%TO.C,J8*%
X177041666Y-132427380D02*
X177041666Y-133141666D01*
X176994047Y-133284523D01*
X176898809Y-133379761D01*
X176755952Y-133427380D01*
X176660714Y-133427380D01*
X177660714Y-132855952D02*
X177565476Y-132808333D01*
X177517857Y-132760714D01*
X177470238Y-132665476D01*
X177470238Y-132617857D01*
X177517857Y-132522619D01*
X177565476Y-132475000D01*
X177660714Y-132427380D01*
X177851190Y-132427380D01*
X177946428Y-132475000D01*
X177994047Y-132522619D01*
X178041666Y-132617857D01*
X178041666Y-132665476D01*
X177994047Y-132760714D01*
X177946428Y-132808333D01*
X177851190Y-132855952D01*
X177660714Y-132855952D01*
X177565476Y-132903571D01*
X177517857Y-132951190D01*
X177470238Y-133046428D01*
X177470238Y-133236904D01*
X177517857Y-133332142D01*
X177565476Y-133379761D01*
X177660714Y-133427380D01*
X177851190Y-133427380D01*
X177946428Y-133379761D01*
X177994047Y-133332142D01*
X178041666Y-133236904D01*
X178041666Y-133046428D01*
X177994047Y-132951190D01*
X177946428Y-132903571D01*
X177851190Y-132855952D01*
%TO.C,J5*%
X134491666Y-135702380D02*
X134491666Y-136416666D01*
X134444047Y-136559523D01*
X134348809Y-136654761D01*
X134205952Y-136702380D01*
X134110714Y-136702380D01*
X135444047Y-135702380D02*
X134967857Y-135702380D01*
X134920238Y-136178571D01*
X134967857Y-136130952D01*
X135063095Y-136083333D01*
X135301190Y-136083333D01*
X135396428Y-136130952D01*
X135444047Y-136178571D01*
X135491666Y-136273809D01*
X135491666Y-136511904D01*
X135444047Y-136607142D01*
X135396428Y-136654761D01*
X135301190Y-136702380D01*
X135063095Y-136702380D01*
X134967857Y-136654761D01*
X134920238Y-136607142D01*
%TO.C,J4*%
X178316666Y-110927380D02*
X178316666Y-111641666D01*
X178269047Y-111784523D01*
X178173809Y-111879761D01*
X178030952Y-111927380D01*
X177935714Y-111927380D01*
X179221428Y-111260714D02*
X179221428Y-111927380D01*
X178983333Y-110879761D02*
X178745238Y-111594047D01*
X179364285Y-111594047D01*
%TO.C,J1*%
X160466666Y-121177380D02*
X160466666Y-121891666D01*
X160419047Y-122034523D01*
X160323809Y-122129761D01*
X160180952Y-122177380D01*
X160085714Y-122177380D01*
X161466666Y-122177380D02*
X160895238Y-122177380D01*
X161180952Y-122177380D02*
X161180952Y-121177380D01*
X161085714Y-121320238D01*
X160990476Y-121415476D01*
X160895238Y-121463095D01*
%TO.C,Battery_9V1*%
X158016666Y-143748571D02*
X158159523Y-143796190D01*
X158207142Y-143843809D01*
X158254761Y-143939047D01*
X158254761Y-144081904D01*
X158207142Y-144177142D01*
X158159523Y-144224761D01*
X158064285Y-144272380D01*
X157683333Y-144272380D01*
X157683333Y-143272380D01*
X158016666Y-143272380D01*
X158111904Y-143320000D01*
X158159523Y-143367619D01*
X158207142Y-143462857D01*
X158207142Y-143558095D01*
X158159523Y-143653333D01*
X158111904Y-143700952D01*
X158016666Y-143748571D01*
X157683333Y-143748571D01*
X159111904Y-144272380D02*
X159111904Y-143748571D01*
X159064285Y-143653333D01*
X158969047Y-143605714D01*
X158778571Y-143605714D01*
X158683333Y-143653333D01*
X159111904Y-144224761D02*
X159016666Y-144272380D01*
X158778571Y-144272380D01*
X158683333Y-144224761D01*
X158635714Y-144129523D01*
X158635714Y-144034285D01*
X158683333Y-143939047D01*
X158778571Y-143891428D01*
X159016666Y-143891428D01*
X159111904Y-143843809D01*
X159445238Y-143605714D02*
X159826190Y-143605714D01*
X159588095Y-143272380D02*
X159588095Y-144129523D01*
X159635714Y-144224761D01*
X159730952Y-144272380D01*
X159826190Y-144272380D01*
X160016666Y-143605714D02*
X160397619Y-143605714D01*
X160159523Y-143272380D02*
X160159523Y-144129523D01*
X160207142Y-144224761D01*
X160302380Y-144272380D01*
X160397619Y-144272380D01*
X161111904Y-144224761D02*
X161016666Y-144272380D01*
X160826190Y-144272380D01*
X160730952Y-144224761D01*
X160683333Y-144129523D01*
X160683333Y-143748571D01*
X160730952Y-143653333D01*
X160826190Y-143605714D01*
X161016666Y-143605714D01*
X161111904Y-143653333D01*
X161159523Y-143748571D01*
X161159523Y-143843809D01*
X160683333Y-143939047D01*
X161588095Y-144272380D02*
X161588095Y-143605714D01*
X161588095Y-143796190D02*
X161635714Y-143700952D01*
X161683333Y-143653333D01*
X161778571Y-143605714D01*
X161873809Y-143605714D01*
X162111904Y-143605714D02*
X162350000Y-144272380D01*
X162588095Y-143605714D02*
X162350000Y-144272380D01*
X162254761Y-144510476D01*
X162207142Y-144558095D01*
X162111904Y-144605714D01*
X162730952Y-144367619D02*
X163492857Y-144367619D01*
X163778571Y-144272380D02*
X163969047Y-144272380D01*
X164064285Y-144224761D01*
X164111904Y-144177142D01*
X164207142Y-144034285D01*
X164254761Y-143843809D01*
X164254761Y-143462857D01*
X164207142Y-143367619D01*
X164159523Y-143320000D01*
X164064285Y-143272380D01*
X163873809Y-143272380D01*
X163778571Y-143320000D01*
X163730952Y-143367619D01*
X163683333Y-143462857D01*
X163683333Y-143700952D01*
X163730952Y-143796190D01*
X163778571Y-143843809D01*
X163873809Y-143891428D01*
X164064285Y-143891428D01*
X164159523Y-143843809D01*
X164207142Y-143796190D01*
X164254761Y-143700952D01*
X164540476Y-143272380D02*
X164873809Y-144272380D01*
X165207142Y-143272380D01*
X166064285Y-144272380D02*
X165492857Y-144272380D01*
X165778571Y-144272380D02*
X165778571Y-143272380D01*
X165683333Y-143415238D01*
X165588095Y-143510476D01*
X165492857Y-143558095D01*
%TO.C,RV2*%
X150254761Y-89352380D02*
X149921428Y-88876190D01*
X149683333Y-89352380D02*
X149683333Y-88352380D01*
X150064285Y-88352380D01*
X150159523Y-88400000D01*
X150207142Y-88447619D01*
X150254761Y-88542857D01*
X150254761Y-88685714D01*
X150207142Y-88780952D01*
X150159523Y-88828571D01*
X150064285Y-88876190D01*
X149683333Y-88876190D01*
X150540476Y-88352380D02*
X150873809Y-89352380D01*
X151207142Y-88352380D01*
X151492857Y-88447619D02*
X151540476Y-88400000D01*
X151635714Y-88352380D01*
X151873809Y-88352380D01*
X151969047Y-88400000D01*
X152016666Y-88447619D01*
X152064285Y-88542857D01*
X152064285Y-88638095D01*
X152016666Y-88780952D01*
X151445238Y-89352380D01*
X152064285Y-89352380D01*
%TO.C,RV1*%
X144254761Y-95102380D02*
X143921428Y-94626190D01*
X143683333Y-95102380D02*
X143683333Y-94102380D01*
X144064285Y-94102380D01*
X144159523Y-94150000D01*
X144207142Y-94197619D01*
X144254761Y-94292857D01*
X144254761Y-94435714D01*
X144207142Y-94530952D01*
X144159523Y-94578571D01*
X144064285Y-94626190D01*
X143683333Y-94626190D01*
X144540476Y-94102380D02*
X144873809Y-95102380D01*
X145207142Y-94102380D01*
X146064285Y-95102380D02*
X145492857Y-95102380D01*
X145778571Y-95102380D02*
X145778571Y-94102380D01*
X145683333Y-94245238D01*
X145588095Y-94340476D01*
X145492857Y-94388095D01*
%TO.C,C49*%
X171397142Y-110042857D02*
X171444761Y-110090476D01*
X171492380Y-110233333D01*
X171492380Y-110328571D01*
X171444761Y-110471428D01*
X171349523Y-110566666D01*
X171254285Y-110614285D01*
X171063809Y-110661904D01*
X170920952Y-110661904D01*
X170730476Y-110614285D01*
X170635238Y-110566666D01*
X170540000Y-110471428D01*
X170492380Y-110328571D01*
X170492380Y-110233333D01*
X170540000Y-110090476D01*
X170587619Y-110042857D01*
X170825714Y-109185714D02*
X171492380Y-109185714D01*
X170444761Y-109423809D02*
X171159047Y-109661904D01*
X171159047Y-109042857D01*
X171492380Y-108614285D02*
X171492380Y-108423809D01*
X171444761Y-108328571D01*
X171397142Y-108280952D01*
X171254285Y-108185714D01*
X171063809Y-108138095D01*
X170682857Y-108138095D01*
X170587619Y-108185714D01*
X170540000Y-108233333D01*
X170492380Y-108328571D01*
X170492380Y-108519047D01*
X170540000Y-108614285D01*
X170587619Y-108661904D01*
X170682857Y-108709523D01*
X170920952Y-108709523D01*
X171016190Y-108661904D01*
X171063809Y-108614285D01*
X171111428Y-108519047D01*
X171111428Y-108328571D01*
X171063809Y-108233333D01*
X171016190Y-108185714D01*
X170920952Y-108138095D01*
%TO.C,U4*%
X164445315Y-110571840D02*
X164445315Y-111381364D01*
X164492934Y-111476602D01*
X164540553Y-111524221D01*
X164635791Y-111571840D01*
X164826267Y-111571840D01*
X164921505Y-111524221D01*
X164969124Y-111476602D01*
X165016743Y-111381364D01*
X165016743Y-110571840D01*
X165921505Y-110905174D02*
X165921505Y-111571840D01*
X165683410Y-110524221D02*
X165445315Y-111238507D01*
X166064362Y-111238507D01*
%TO.C,U2*%
X142277380Y-130886904D02*
X143086904Y-130886904D01*
X143182142Y-130839285D01*
X143229761Y-130791666D01*
X143277380Y-130696428D01*
X143277380Y-130505952D01*
X143229761Y-130410714D01*
X143182142Y-130363095D01*
X143086904Y-130315476D01*
X142277380Y-130315476D01*
X142372619Y-129886904D02*
X142325000Y-129839285D01*
X142277380Y-129744047D01*
X142277380Y-129505952D01*
X142325000Y-129410714D01*
X142372619Y-129363095D01*
X142467857Y-129315476D01*
X142563095Y-129315476D01*
X142705952Y-129363095D01*
X143277380Y-129934523D01*
X143277380Y-129315476D01*
%TO.C,C40*%
X152907142Y-94312142D02*
X152859523Y-94359761D01*
X152716666Y-94407380D01*
X152621428Y-94407380D01*
X152478571Y-94359761D01*
X152383333Y-94264523D01*
X152335714Y-94169285D01*
X152288095Y-93978809D01*
X152288095Y-93835952D01*
X152335714Y-93645476D01*
X152383333Y-93550238D01*
X152478571Y-93455000D01*
X152621428Y-93407380D01*
X152716666Y-93407380D01*
X152859523Y-93455000D01*
X152907142Y-93502619D01*
X153764285Y-93740714D02*
X153764285Y-94407380D01*
X153526190Y-93359761D02*
X153288095Y-94074047D01*
X153907142Y-94074047D01*
X154478571Y-93407380D02*
X154573809Y-93407380D01*
X154669047Y-93455000D01*
X154716666Y-93502619D01*
X154764285Y-93597857D01*
X154811904Y-93788333D01*
X154811904Y-94026428D01*
X154764285Y-94216904D01*
X154716666Y-94312142D01*
X154669047Y-94359761D01*
X154573809Y-94407380D01*
X154478571Y-94407380D01*
X154383333Y-94359761D01*
X154335714Y-94312142D01*
X154288095Y-94216904D01*
X154240476Y-94026428D01*
X154240476Y-93788333D01*
X154288095Y-93597857D01*
X154335714Y-93502619D01*
X154383333Y-93455000D01*
X154478571Y-93407380D01*
X156549047Y-95606428D02*
X157310952Y-95606428D01*
X156930000Y-95987380D02*
X156930000Y-95225476D01*
%TO.C,C21*%
X143665810Y-113058022D02*
X143713429Y-113105641D01*
X143761048Y-113248498D01*
X143761048Y-113343736D01*
X143713429Y-113486593D01*
X143618191Y-113581831D01*
X143522953Y-113629450D01*
X143332477Y-113677069D01*
X143189620Y-113677069D01*
X142999144Y-113629450D01*
X142903906Y-113581831D01*
X142808668Y-113486593D01*
X142761048Y-113343736D01*
X142761048Y-113248498D01*
X142808668Y-113105641D01*
X142856287Y-113058022D01*
X142856287Y-112677069D02*
X142808668Y-112629450D01*
X142761048Y-112534212D01*
X142761048Y-112296117D01*
X142808668Y-112200879D01*
X142856287Y-112153260D01*
X142951525Y-112105641D01*
X143046763Y-112105641D01*
X143189620Y-112153260D01*
X143761048Y-112724688D01*
X143761048Y-112105641D01*
X143761048Y-111153260D02*
X143761048Y-111724688D01*
X143761048Y-111438974D02*
X142761048Y-111438974D01*
X142903906Y-111534212D01*
X142999144Y-111629450D01*
X143046763Y-111724688D01*
X140215793Y-110621764D02*
X140215793Y-109859859D01*
X140596745Y-110240812D02*
X139834841Y-110240812D01*
%TO.C,C28*%
X156082142Y-108307142D02*
X156034523Y-108354761D01*
X155891666Y-108402380D01*
X155796428Y-108402380D01*
X155653571Y-108354761D01*
X155558333Y-108259523D01*
X155510714Y-108164285D01*
X155463095Y-107973809D01*
X155463095Y-107830952D01*
X155510714Y-107640476D01*
X155558333Y-107545238D01*
X155653571Y-107450000D01*
X155796428Y-107402380D01*
X155891666Y-107402380D01*
X156034523Y-107450000D01*
X156082142Y-107497619D01*
X156463095Y-107497619D02*
X156510714Y-107450000D01*
X156605952Y-107402380D01*
X156844047Y-107402380D01*
X156939285Y-107450000D01*
X156986904Y-107497619D01*
X157034523Y-107592857D01*
X157034523Y-107688095D01*
X156986904Y-107830952D01*
X156415476Y-108402380D01*
X157034523Y-108402380D01*
X157605952Y-107830952D02*
X157510714Y-107783333D01*
X157463095Y-107735714D01*
X157415476Y-107640476D01*
X157415476Y-107592857D01*
X157463095Y-107497619D01*
X157510714Y-107450000D01*
X157605952Y-107402380D01*
X157796428Y-107402380D01*
X157891666Y-107450000D01*
X157939285Y-107497619D01*
X157986904Y-107592857D01*
X157986904Y-107640476D01*
X157939285Y-107735714D01*
X157891666Y-107783333D01*
X157796428Y-107830952D01*
X157605952Y-107830952D01*
X157510714Y-107878571D01*
X157463095Y-107926190D01*
X157415476Y-108021428D01*
X157415476Y-108211904D01*
X157463095Y-108307142D01*
X157510714Y-108354761D01*
X157605952Y-108402380D01*
X157796428Y-108402380D01*
X157891666Y-108354761D01*
X157939285Y-108307142D01*
X157986904Y-108211904D01*
X157986904Y-108021428D01*
X157939285Y-107926190D01*
X157891666Y-107878571D01*
X157796428Y-107830952D01*
X153994047Y-111396428D02*
X154755952Y-111396428D01*
X154375000Y-111777380D02*
X154375000Y-111015476D01*
%TO.C,C27*%
X156257142Y-102607142D02*
X156209523Y-102654761D01*
X156066666Y-102702380D01*
X155971428Y-102702380D01*
X155828571Y-102654761D01*
X155733333Y-102559523D01*
X155685714Y-102464285D01*
X155638095Y-102273809D01*
X155638095Y-102130952D01*
X155685714Y-101940476D01*
X155733333Y-101845238D01*
X155828571Y-101750000D01*
X155971428Y-101702380D01*
X156066666Y-101702380D01*
X156209523Y-101750000D01*
X156257142Y-101797619D01*
X156638095Y-101797619D02*
X156685714Y-101750000D01*
X156780952Y-101702380D01*
X157019047Y-101702380D01*
X157114285Y-101750000D01*
X157161904Y-101797619D01*
X157209523Y-101892857D01*
X157209523Y-101988095D01*
X157161904Y-102130952D01*
X156590476Y-102702380D01*
X157209523Y-102702380D01*
X157542857Y-101702380D02*
X158209523Y-101702380D01*
X157780952Y-102702380D01*
X154039047Y-106436428D02*
X154800952Y-106436428D01*
X154420000Y-106817380D02*
X154420000Y-106055476D01*
%TO.C,C8*%
X149077142Y-102291666D02*
X149124761Y-102339285D01*
X149172380Y-102482142D01*
X149172380Y-102577380D01*
X149124761Y-102720238D01*
X149029523Y-102815476D01*
X148934285Y-102863095D01*
X148743809Y-102910714D01*
X148600952Y-102910714D01*
X148410476Y-102863095D01*
X148315238Y-102815476D01*
X148220000Y-102720238D01*
X148172380Y-102577380D01*
X148172380Y-102482142D01*
X148220000Y-102339285D01*
X148267619Y-102291666D01*
X148600952Y-101720238D02*
X148553333Y-101815476D01*
X148505714Y-101863095D01*
X148410476Y-101910714D01*
X148362857Y-101910714D01*
X148267619Y-101863095D01*
X148220000Y-101815476D01*
X148172380Y-101720238D01*
X148172380Y-101529761D01*
X148220000Y-101434523D01*
X148267619Y-101386904D01*
X148362857Y-101339285D01*
X148410476Y-101339285D01*
X148505714Y-101386904D01*
X148553333Y-101434523D01*
X148600952Y-101529761D01*
X148600952Y-101720238D01*
X148648571Y-101815476D01*
X148696190Y-101863095D01*
X148791428Y-101910714D01*
X148981904Y-101910714D01*
X149077142Y-101863095D01*
X149124761Y-101815476D01*
X149172380Y-101720238D01*
X149172380Y-101529761D01*
X149124761Y-101434523D01*
X149077142Y-101386904D01*
X148981904Y-101339285D01*
X148791428Y-101339285D01*
X148696190Y-101386904D01*
X148648571Y-101434523D01*
X148600952Y-101529761D01*
X147211428Y-105885952D02*
X147211428Y-105124047D01*
X147592380Y-105505000D02*
X146830476Y-105505000D01*
%TO.C,C9*%
X137908333Y-107582142D02*
X137860714Y-107629761D01*
X137717857Y-107677380D01*
X137622619Y-107677380D01*
X137479761Y-107629761D01*
X137384523Y-107534523D01*
X137336904Y-107439285D01*
X137289285Y-107248809D01*
X137289285Y-107105952D01*
X137336904Y-106915476D01*
X137384523Y-106820238D01*
X137479761Y-106725000D01*
X137622619Y-106677380D01*
X137717857Y-106677380D01*
X137860714Y-106725000D01*
X137908333Y-106772619D01*
X138384523Y-107677380D02*
X138575000Y-107677380D01*
X138670238Y-107629761D01*
X138717857Y-107582142D01*
X138813095Y-107439285D01*
X138860714Y-107248809D01*
X138860714Y-106867857D01*
X138813095Y-106772619D01*
X138765476Y-106725000D01*
X138670238Y-106677380D01*
X138479761Y-106677380D01*
X138384523Y-106725000D01*
X138336904Y-106772619D01*
X138289285Y-106867857D01*
X138289285Y-107105952D01*
X138336904Y-107201190D01*
X138384523Y-107248809D01*
X138479761Y-107296428D01*
X138670238Y-107296428D01*
X138765476Y-107248809D01*
X138813095Y-107201190D01*
X138860714Y-107105952D01*
X140774047Y-103006428D02*
X141535952Y-103006428D01*
X141155000Y-103387380D02*
X141155000Y-102625476D01*
%TO.C,C17*%
X130107142Y-116117857D02*
X130154761Y-116165476D01*
X130202380Y-116308333D01*
X130202380Y-116403571D01*
X130154761Y-116546428D01*
X130059523Y-116641666D01*
X129964285Y-116689285D01*
X129773809Y-116736904D01*
X129630952Y-116736904D01*
X129440476Y-116689285D01*
X129345238Y-116641666D01*
X129250000Y-116546428D01*
X129202380Y-116403571D01*
X129202380Y-116308333D01*
X129250000Y-116165476D01*
X129297619Y-116117857D01*
X130202380Y-115165476D02*
X130202380Y-115736904D01*
X130202380Y-115451190D02*
X129202380Y-115451190D01*
X129345238Y-115546428D01*
X129440476Y-115641666D01*
X129488095Y-115736904D01*
X129202380Y-114832142D02*
X129202380Y-114165476D01*
X130202380Y-114594047D01*
X130936428Y-113735952D02*
X130936428Y-112974047D01*
X131317380Y-113355000D02*
X130555476Y-113355000D01*
%TO.C,C30*%
X140257142Y-122232142D02*
X140209523Y-122279761D01*
X140066666Y-122327380D01*
X139971428Y-122327380D01*
X139828571Y-122279761D01*
X139733333Y-122184523D01*
X139685714Y-122089285D01*
X139638095Y-121898809D01*
X139638095Y-121755952D01*
X139685714Y-121565476D01*
X139733333Y-121470238D01*
X139828571Y-121375000D01*
X139971428Y-121327380D01*
X140066666Y-121327380D01*
X140209523Y-121375000D01*
X140257142Y-121422619D01*
X140590476Y-121327380D02*
X141209523Y-121327380D01*
X140876190Y-121708333D01*
X141019047Y-121708333D01*
X141114285Y-121755952D01*
X141161904Y-121803571D01*
X141209523Y-121898809D01*
X141209523Y-122136904D01*
X141161904Y-122232142D01*
X141114285Y-122279761D01*
X141019047Y-122327380D01*
X140733333Y-122327380D01*
X140638095Y-122279761D01*
X140590476Y-122232142D01*
X141828571Y-121327380D02*
X141923809Y-121327380D01*
X142019047Y-121375000D01*
X142066666Y-121422619D01*
X142114285Y-121517857D01*
X142161904Y-121708333D01*
X142161904Y-121946428D01*
X142114285Y-122136904D01*
X142066666Y-122232142D01*
X142019047Y-122279761D01*
X141923809Y-122327380D01*
X141828571Y-122327380D01*
X141733333Y-122279761D01*
X141685714Y-122232142D01*
X141638095Y-122136904D01*
X141590476Y-121946428D01*
X141590476Y-121708333D01*
X141638095Y-121517857D01*
X141685714Y-121422619D01*
X141733333Y-121375000D01*
X141828571Y-121327380D01*
X142639047Y-126311428D02*
X143400952Y-126311428D01*
X143020000Y-126692380D02*
X143020000Y-125930476D01*
%TO.C,C41*%
X158092893Y-122247969D02*
X158025549Y-122247969D01*
X157890862Y-122180625D01*
X157823519Y-122113282D01*
X157756175Y-121978595D01*
X157756175Y-121843908D01*
X157789847Y-121742893D01*
X157890862Y-121574534D01*
X157991877Y-121473519D01*
X158160236Y-121372503D01*
X158261251Y-121338832D01*
X158395938Y-121338832D01*
X158530625Y-121406175D01*
X158597969Y-121473519D01*
X158665312Y-121608206D01*
X158665312Y-121675549D01*
X159103045Y-122449999D02*
X158631641Y-122921404D01*
X159204061Y-122012267D02*
X158530625Y-122348984D01*
X158968358Y-122786717D01*
X159372419Y-123662183D02*
X158968358Y-123258122D01*
X159170389Y-123460152D02*
X159877496Y-122753045D01*
X159709137Y-122786717D01*
X159574450Y-122786717D01*
X159473435Y-122753045D01*
X150839047Y-122236428D02*
X151600952Y-122236428D01*
X151220000Y-122617380D02*
X151220000Y-121855476D01*
%TO.C,C44*%
X168457142Y-112662142D02*
X168409523Y-112709761D01*
X168266666Y-112757380D01*
X168171428Y-112757380D01*
X168028571Y-112709761D01*
X167933333Y-112614523D01*
X167885714Y-112519285D01*
X167838095Y-112328809D01*
X167838095Y-112185952D01*
X167885714Y-111995476D01*
X167933333Y-111900238D01*
X168028571Y-111805000D01*
X168171428Y-111757380D01*
X168266666Y-111757380D01*
X168409523Y-111805000D01*
X168457142Y-111852619D01*
X169314285Y-112090714D02*
X169314285Y-112757380D01*
X169076190Y-111709761D02*
X168838095Y-112424047D01*
X169457142Y-112424047D01*
X170266666Y-112090714D02*
X170266666Y-112757380D01*
X170028571Y-111709761D02*
X169790476Y-112424047D01*
X170409523Y-112424047D01*
X172099047Y-113956428D02*
X172860952Y-113956428D01*
X172480000Y-114337380D02*
X172480000Y-113575476D01*
%TO.C,C11*%
X153107142Y-125407142D02*
X153059523Y-125454761D01*
X152916666Y-125502380D01*
X152821428Y-125502380D01*
X152678571Y-125454761D01*
X152583333Y-125359523D01*
X152535714Y-125264285D01*
X152488095Y-125073809D01*
X152488095Y-124930952D01*
X152535714Y-124740476D01*
X152583333Y-124645238D01*
X152678571Y-124550000D01*
X152821428Y-124502380D01*
X152916666Y-124502380D01*
X153059523Y-124550000D01*
X153107142Y-124597619D01*
X154059523Y-125502380D02*
X153488095Y-125502380D01*
X153773809Y-125502380D02*
X153773809Y-124502380D01*
X153678571Y-124645238D01*
X153583333Y-124740476D01*
X153488095Y-124788095D01*
X155011904Y-125502380D02*
X154440476Y-125502380D01*
X154726190Y-125502380D02*
X154726190Y-124502380D01*
X154630952Y-124645238D01*
X154535714Y-124740476D01*
X154440476Y-124788095D01*
X152114047Y-130986428D02*
X152875952Y-130986428D01*
X152495000Y-131367380D02*
X152495000Y-130605476D01*
%TO.C,C4*%
X178657142Y-114366666D02*
X178704761Y-114414285D01*
X178752380Y-114557142D01*
X178752380Y-114652380D01*
X178704761Y-114795238D01*
X178609523Y-114890476D01*
X178514285Y-114938095D01*
X178323809Y-114985714D01*
X178180952Y-114985714D01*
X177990476Y-114938095D01*
X177895238Y-114890476D01*
X177800000Y-114795238D01*
X177752380Y-114652380D01*
X177752380Y-114557142D01*
X177800000Y-114414285D01*
X177847619Y-114366666D01*
X178085714Y-113509523D02*
X178752380Y-113509523D01*
X177704761Y-113747619D02*
X178419047Y-113985714D01*
X178419047Y-113366666D01*
X182511428Y-119235952D02*
X182511428Y-118474047D01*
X182892380Y-118855000D02*
X182130476Y-118855000D01*
%TO.C,C25*%
X167257142Y-124607142D02*
X167209523Y-124654761D01*
X167066666Y-124702380D01*
X166971428Y-124702380D01*
X166828571Y-124654761D01*
X166733333Y-124559523D01*
X166685714Y-124464285D01*
X166638095Y-124273809D01*
X166638095Y-124130952D01*
X166685714Y-123940476D01*
X166733333Y-123845238D01*
X166828571Y-123750000D01*
X166971428Y-123702380D01*
X167066666Y-123702380D01*
X167209523Y-123750000D01*
X167257142Y-123797619D01*
X167638095Y-123797619D02*
X167685714Y-123750000D01*
X167780952Y-123702380D01*
X168019047Y-123702380D01*
X168114285Y-123750000D01*
X168161904Y-123797619D01*
X168209523Y-123892857D01*
X168209523Y-123988095D01*
X168161904Y-124130952D01*
X167590476Y-124702380D01*
X168209523Y-124702380D01*
X169114285Y-123702380D02*
X168638095Y-123702380D01*
X168590476Y-124178571D01*
X168638095Y-124130952D01*
X168733333Y-124083333D01*
X168971428Y-124083333D01*
X169066666Y-124130952D01*
X169114285Y-124178571D01*
X169161904Y-124273809D01*
X169161904Y-124511904D01*
X169114285Y-124607142D01*
X169066666Y-124654761D01*
X168971428Y-124702380D01*
X168733333Y-124702380D01*
X168638095Y-124654761D01*
X168590476Y-124607142D01*
X175149047Y-120131428D02*
X175910952Y-120131428D01*
X175530000Y-120512380D02*
X175530000Y-119750476D01*
%TO.C,C13*%
X161907142Y-129582142D02*
X161859523Y-129629761D01*
X161716666Y-129677380D01*
X161621428Y-129677380D01*
X161478571Y-129629761D01*
X161383333Y-129534523D01*
X161335714Y-129439285D01*
X161288095Y-129248809D01*
X161288095Y-129105952D01*
X161335714Y-128915476D01*
X161383333Y-128820238D01*
X161478571Y-128725000D01*
X161621428Y-128677380D01*
X161716666Y-128677380D01*
X161859523Y-128725000D01*
X161907142Y-128772619D01*
X162859523Y-129677380D02*
X162288095Y-129677380D01*
X162573809Y-129677380D02*
X162573809Y-128677380D01*
X162478571Y-128820238D01*
X162383333Y-128915476D01*
X162288095Y-128963095D01*
X163192857Y-128677380D02*
X163811904Y-128677380D01*
X163478571Y-129058333D01*
X163621428Y-129058333D01*
X163716666Y-129105952D01*
X163764285Y-129153571D01*
X163811904Y-129248809D01*
X163811904Y-129486904D01*
X163764285Y-129582142D01*
X163716666Y-129629761D01*
X163621428Y-129677380D01*
X163335714Y-129677380D01*
X163240476Y-129629761D01*
X163192857Y-129582142D01*
X166824047Y-123456428D02*
X167585952Y-123456428D01*
X167205000Y-123837380D02*
X167205000Y-123075476D01*
%TO.C,C7*%
X163958333Y-154582142D02*
X163910714Y-154629761D01*
X163767857Y-154677380D01*
X163672619Y-154677380D01*
X163529761Y-154629761D01*
X163434523Y-154534523D01*
X163386904Y-154439285D01*
X163339285Y-154248809D01*
X163339285Y-154105952D01*
X163386904Y-153915476D01*
X163434523Y-153820238D01*
X163529761Y-153725000D01*
X163672619Y-153677380D01*
X163767857Y-153677380D01*
X163910714Y-153725000D01*
X163958333Y-153772619D01*
X164291666Y-153677380D02*
X164958333Y-153677380D01*
X164529761Y-154677380D01*
X170849047Y-153881428D02*
X171610952Y-153881428D01*
X171230000Y-154262380D02*
X171230000Y-153500476D01*
%TO.C,C33*%
X125332142Y-90892857D02*
X125379761Y-90940476D01*
X125427380Y-91083333D01*
X125427380Y-91178571D01*
X125379761Y-91321428D01*
X125284523Y-91416666D01*
X125189285Y-91464285D01*
X124998809Y-91511904D01*
X124855952Y-91511904D01*
X124665476Y-91464285D01*
X124570238Y-91416666D01*
X124475000Y-91321428D01*
X124427380Y-91178571D01*
X124427380Y-91083333D01*
X124475000Y-90940476D01*
X124522619Y-90892857D01*
X124427380Y-90559523D02*
X124427380Y-89940476D01*
X124808333Y-90273809D01*
X124808333Y-90130952D01*
X124855952Y-90035714D01*
X124903571Y-89988095D01*
X124998809Y-89940476D01*
X125236904Y-89940476D01*
X125332142Y-89988095D01*
X125379761Y-90035714D01*
X125427380Y-90130952D01*
X125427380Y-90416666D01*
X125379761Y-90511904D01*
X125332142Y-90559523D01*
X124427380Y-89607142D02*
X124427380Y-88988095D01*
X124808333Y-89321428D01*
X124808333Y-89178571D01*
X124855952Y-89083333D01*
X124903571Y-89035714D01*
X124998809Y-88988095D01*
X125236904Y-88988095D01*
X125332142Y-89035714D01*
X125379761Y-89083333D01*
X125427380Y-89178571D01*
X125427380Y-89464285D01*
X125379761Y-89559523D01*
X125332142Y-89607142D01*
X123496428Y-96805952D02*
X123496428Y-96044047D01*
X123877380Y-96425000D02*
X123115476Y-96425000D01*
%TO.C,R31*%
X133302380Y-95992857D02*
X132826190Y-96326190D01*
X133302380Y-96564285D02*
X132302380Y-96564285D01*
X132302380Y-96183333D01*
X132350000Y-96088095D01*
X132397619Y-96040476D01*
X132492857Y-95992857D01*
X132635714Y-95992857D01*
X132730952Y-96040476D01*
X132778571Y-96088095D01*
X132826190Y-96183333D01*
X132826190Y-96564285D01*
X132302380Y-95659523D02*
X132302380Y-95040476D01*
X132683333Y-95373809D01*
X132683333Y-95230952D01*
X132730952Y-95135714D01*
X132778571Y-95088095D01*
X132873809Y-95040476D01*
X133111904Y-95040476D01*
X133207142Y-95088095D01*
X133254761Y-95135714D01*
X133302380Y-95230952D01*
X133302380Y-95516666D01*
X133254761Y-95611904D01*
X133207142Y-95659523D01*
X133302380Y-94088095D02*
X133302380Y-94659523D01*
X133302380Y-94373809D02*
X132302380Y-94373809D01*
X132445238Y-94469047D01*
X132540476Y-94564285D01*
X132588095Y-94659523D01*
%TO.C,C5*%
X134808333Y-93557142D02*
X134760714Y-93604761D01*
X134617857Y-93652380D01*
X134522619Y-93652380D01*
X134379761Y-93604761D01*
X134284523Y-93509523D01*
X134236904Y-93414285D01*
X134189285Y-93223809D01*
X134189285Y-93080952D01*
X134236904Y-92890476D01*
X134284523Y-92795238D01*
X134379761Y-92700000D01*
X134522619Y-92652380D01*
X134617857Y-92652380D01*
X134760714Y-92700000D01*
X134808333Y-92747619D01*
X135713095Y-92652380D02*
X135236904Y-92652380D01*
X135189285Y-93128571D01*
X135236904Y-93080952D01*
X135332142Y-93033333D01*
X135570238Y-93033333D01*
X135665476Y-93080952D01*
X135713095Y-93128571D01*
X135760714Y-93223809D01*
X135760714Y-93461904D01*
X135713095Y-93557142D01*
X135665476Y-93604761D01*
X135570238Y-93652380D01*
X135332142Y-93652380D01*
X135236904Y-93604761D01*
X135189285Y-93557142D01*
X134344047Y-99446428D02*
X135105952Y-99446428D01*
X134725000Y-99827380D02*
X134725000Y-99065476D01*
%TO.C,C42*%
X136207142Y-89532142D02*
X136159523Y-89579761D01*
X136016666Y-89627380D01*
X135921428Y-89627380D01*
X135778571Y-89579761D01*
X135683333Y-89484523D01*
X135635714Y-89389285D01*
X135588095Y-89198809D01*
X135588095Y-89055952D01*
X135635714Y-88865476D01*
X135683333Y-88770238D01*
X135778571Y-88675000D01*
X135921428Y-88627380D01*
X136016666Y-88627380D01*
X136159523Y-88675000D01*
X136207142Y-88722619D01*
X137064285Y-88960714D02*
X137064285Y-89627380D01*
X136826190Y-88579761D02*
X136588095Y-89294047D01*
X137207142Y-89294047D01*
X137540476Y-88722619D02*
X137588095Y-88675000D01*
X137683333Y-88627380D01*
X137921428Y-88627380D01*
X138016666Y-88675000D01*
X138064285Y-88722619D01*
X138111904Y-88817857D01*
X138111904Y-88913095D01*
X138064285Y-89055952D01*
X137492857Y-89627380D01*
X138111904Y-89627380D01*
X145524047Y-88906428D02*
X146285952Y-88906428D01*
X145905000Y-89287380D02*
X145905000Y-88525476D01*
%TO.C,C43*%
X165157142Y-94167857D02*
X165204761Y-94215476D01*
X165252380Y-94358333D01*
X165252380Y-94453571D01*
X165204761Y-94596428D01*
X165109523Y-94691666D01*
X165014285Y-94739285D01*
X164823809Y-94786904D01*
X164680952Y-94786904D01*
X164490476Y-94739285D01*
X164395238Y-94691666D01*
X164300000Y-94596428D01*
X164252380Y-94453571D01*
X164252380Y-94358333D01*
X164300000Y-94215476D01*
X164347619Y-94167857D01*
X164585714Y-93310714D02*
X165252380Y-93310714D01*
X164204761Y-93548809D02*
X164919047Y-93786904D01*
X164919047Y-93167857D01*
X164252380Y-92882142D02*
X164252380Y-92263095D01*
X164633333Y-92596428D01*
X164633333Y-92453571D01*
X164680952Y-92358333D01*
X164728571Y-92310714D01*
X164823809Y-92263095D01*
X165061904Y-92263095D01*
X165157142Y-92310714D01*
X165204761Y-92358333D01*
X165252380Y-92453571D01*
X165252380Y-92739285D01*
X165204761Y-92834523D01*
X165157142Y-92882142D01*
X155989047Y-94486428D02*
X156750952Y-94486428D01*
X156370000Y-94867380D02*
X156370000Y-94105476D01*
%TO.C,M2*%
X182340476Y-152552380D02*
X182340476Y-151552380D01*
X182673809Y-152266666D01*
X183007142Y-151552380D01*
X183007142Y-152552380D01*
X183435714Y-151647619D02*
X183483333Y-151600000D01*
X183578571Y-151552380D01*
X183816666Y-151552380D01*
X183911904Y-151600000D01*
X183959523Y-151647619D01*
X184007142Y-151742857D01*
X184007142Y-151838095D01*
X183959523Y-151980952D01*
X183388095Y-152552380D01*
X184007142Y-152552380D01*
%TO.C,M3*%
X180790476Y-91702380D02*
X180790476Y-90702380D01*
X181123809Y-91416666D01*
X181457142Y-90702380D01*
X181457142Y-91702380D01*
X181838095Y-90702380D02*
X182457142Y-90702380D01*
X182123809Y-91083333D01*
X182266666Y-91083333D01*
X182361904Y-91130952D01*
X182409523Y-91178571D01*
X182457142Y-91273809D01*
X182457142Y-91511904D01*
X182409523Y-91607142D01*
X182361904Y-91654761D01*
X182266666Y-91702380D01*
X181980952Y-91702380D01*
X181885714Y-91654761D01*
X181838095Y-91607142D01*
%TO.C,M1*%
X126015476Y-153152380D02*
X126015476Y-152152380D01*
X126348809Y-152866666D01*
X126682142Y-152152380D01*
X126682142Y-153152380D01*
X127682142Y-153152380D02*
X127110714Y-153152380D01*
X127396428Y-153152380D02*
X127396428Y-152152380D01*
X127301190Y-152295238D01*
X127205952Y-152390476D01*
X127110714Y-152438095D01*
%TO.C,U1*%
X144377380Y-110436904D02*
X145186904Y-110436904D01*
X145282142Y-110389285D01*
X145329761Y-110341666D01*
X145377380Y-110246428D01*
X145377380Y-110055952D01*
X145329761Y-109960714D01*
X145282142Y-109913095D01*
X145186904Y-109865476D01*
X144377380Y-109865476D01*
X145377380Y-108865476D02*
X145377380Y-109436904D01*
X145377380Y-109151190D02*
X144377380Y-109151190D01*
X144520238Y-109246428D01*
X144615476Y-109341666D01*
X144663095Y-109436904D01*
%TO.C,U8*%
X139588095Y-141402380D02*
X139588095Y-142211904D01*
X139635714Y-142307142D01*
X139683333Y-142354761D01*
X139778571Y-142402380D01*
X139969047Y-142402380D01*
X140064285Y-142354761D01*
X140111904Y-142307142D01*
X140159523Y-142211904D01*
X140159523Y-141402380D01*
X140778571Y-141830952D02*
X140683333Y-141783333D01*
X140635714Y-141735714D01*
X140588095Y-141640476D01*
X140588095Y-141592857D01*
X140635714Y-141497619D01*
X140683333Y-141450000D01*
X140778571Y-141402380D01*
X140969047Y-141402380D01*
X141064285Y-141450000D01*
X141111904Y-141497619D01*
X141159523Y-141592857D01*
X141159523Y-141640476D01*
X141111904Y-141735714D01*
X141064285Y-141783333D01*
X140969047Y-141830952D01*
X140778571Y-141830952D01*
X140683333Y-141878571D01*
X140635714Y-141926190D01*
X140588095Y-142021428D01*
X140588095Y-142211904D01*
X140635714Y-142307142D01*
X140683333Y-142354761D01*
X140778571Y-142402380D01*
X140969047Y-142402380D01*
X141064285Y-142354761D01*
X141111904Y-142307142D01*
X141159523Y-142211904D01*
X141159523Y-142021428D01*
X141111904Y-141926190D01*
X141064285Y-141878571D01*
X140969047Y-141830952D01*
%TO.C,D4*%
X183436904Y-106977380D02*
X183436904Y-105977380D01*
X183675000Y-105977380D01*
X183817857Y-106025000D01*
X183913095Y-106120238D01*
X183960714Y-106215476D01*
X184008333Y-106405952D01*
X184008333Y-106548809D01*
X183960714Y-106739285D01*
X183913095Y-106834523D01*
X183817857Y-106929761D01*
X183675000Y-106977380D01*
X183436904Y-106977380D01*
X184865476Y-106310714D02*
X184865476Y-106977380D01*
X184627380Y-105929761D02*
X184389285Y-106644047D01*
X185008333Y-106644047D01*
%TO.C,J3*%
X107377380Y-147558333D02*
X108091666Y-147558333D01*
X108234523Y-147605952D01*
X108329761Y-147701190D01*
X108377380Y-147844047D01*
X108377380Y-147939285D01*
X107377380Y-147177380D02*
X107377380Y-146558333D01*
X107758333Y-146891666D01*
X107758333Y-146748809D01*
X107805952Y-146653571D01*
X107853571Y-146605952D01*
X107948809Y-146558333D01*
X108186904Y-146558333D01*
X108282142Y-146605952D01*
X108329761Y-146653571D01*
X108377380Y-146748809D01*
X108377380Y-147034523D01*
X108329761Y-147129761D01*
X108282142Y-147177380D01*
%TO.C,J6*%
X197152380Y-130158333D02*
X197866666Y-130158333D01*
X198009523Y-130205952D01*
X198104761Y-130301190D01*
X198152380Y-130444047D01*
X198152380Y-130539285D01*
X197152380Y-129253571D02*
X197152380Y-129444047D01*
X197200000Y-129539285D01*
X197247619Y-129586904D01*
X197390476Y-129682142D01*
X197580952Y-129729761D01*
X197961904Y-129729761D01*
X198057142Y-129682142D01*
X198104761Y-129634523D01*
X198152380Y-129539285D01*
X198152380Y-129348809D01*
X198104761Y-129253571D01*
X198057142Y-129205952D01*
X197961904Y-129158333D01*
X197723809Y-129158333D01*
X197628571Y-129205952D01*
X197580952Y-129253571D01*
X197533333Y-129348809D01*
X197533333Y-129539285D01*
X197580952Y-129634523D01*
X197628571Y-129682142D01*
X197723809Y-129729761D01*
%TO.C,J9*%
X109546666Y-145362380D02*
X109546666Y-146076666D01*
X109499047Y-146219523D01*
X109403809Y-146314761D01*
X109260952Y-146362380D01*
X109165714Y-146362380D01*
X110070476Y-146362380D02*
X110260952Y-146362380D01*
X110356190Y-146314761D01*
X110403809Y-146267142D01*
X110499047Y-146124285D01*
X110546666Y-145933809D01*
X110546666Y-145552857D01*
X110499047Y-145457619D01*
X110451428Y-145410000D01*
X110356190Y-145362380D01*
X110165714Y-145362380D01*
X110070476Y-145410000D01*
X110022857Y-145457619D01*
X109975238Y-145552857D01*
X109975238Y-145790952D01*
X110022857Y-145886190D01*
X110070476Y-145933809D01*
X110165714Y-145981428D01*
X110356190Y-145981428D01*
X110451428Y-145933809D01*
X110499047Y-145886190D01*
X110546666Y-145790952D01*
%TO.C,J10*%
X171852380Y-104009523D02*
X172566666Y-104009523D01*
X172709523Y-104057142D01*
X172804761Y-104152380D01*
X172852380Y-104295238D01*
X172852380Y-104390476D01*
X172852380Y-103009523D02*
X172852380Y-103580952D01*
X172852380Y-103295238D02*
X171852380Y-103295238D01*
X171995238Y-103390476D01*
X172090476Y-103485714D01*
X172138095Y-103580952D01*
X171852380Y-102390476D02*
X171852380Y-102295238D01*
X171900000Y-102200000D01*
X171947619Y-102152380D01*
X172042857Y-102104761D01*
X172233333Y-102057142D01*
X172471428Y-102057142D01*
X172661904Y-102104761D01*
X172757142Y-102152380D01*
X172804761Y-102200000D01*
X172852380Y-102295238D01*
X172852380Y-102390476D01*
X172804761Y-102485714D01*
X172757142Y-102533333D01*
X172661904Y-102580952D01*
X172471428Y-102628571D01*
X172233333Y-102628571D01*
X172042857Y-102580952D01*
X171947619Y-102533333D01*
X171900000Y-102485714D01*
X171852380Y-102390476D01*
%TO.C,J11*%
X194460476Y-129362380D02*
X194460476Y-130076666D01*
X194412857Y-130219523D01*
X194317619Y-130314761D01*
X194174761Y-130362380D01*
X194079523Y-130362380D01*
X195460476Y-130362380D02*
X194889047Y-130362380D01*
X195174761Y-130362380D02*
X195174761Y-129362380D01*
X195079523Y-129505238D01*
X194984285Y-129600476D01*
X194889047Y-129648095D01*
X196412857Y-130362380D02*
X195841428Y-130362380D01*
X196127142Y-130362380D02*
X196127142Y-129362380D01*
X196031904Y-129505238D01*
X195936666Y-129600476D01*
X195841428Y-129648095D01*
%TO.C,J12*%
X130065476Y-126947380D02*
X130065476Y-127661666D01*
X130017857Y-127804523D01*
X129922619Y-127899761D01*
X129779761Y-127947380D01*
X129684523Y-127947380D01*
X131065476Y-127947380D02*
X130494047Y-127947380D01*
X130779761Y-127947380D02*
X130779761Y-126947380D01*
X130684523Y-127090238D01*
X130589285Y-127185476D01*
X130494047Y-127233095D01*
X131446428Y-127042619D02*
X131494047Y-126995000D01*
X131589285Y-126947380D01*
X131827380Y-126947380D01*
X131922619Y-126995000D01*
X131970238Y-127042619D01*
X132017857Y-127137857D01*
X132017857Y-127233095D01*
X131970238Y-127375952D01*
X131398809Y-127947380D01*
X132017857Y-127947380D01*
%TO.C,J15*%
X156140476Y-83277380D02*
X156140476Y-83991666D01*
X156092857Y-84134523D01*
X155997619Y-84229761D01*
X155854761Y-84277380D01*
X155759523Y-84277380D01*
X157140476Y-84277380D02*
X156569047Y-84277380D01*
X156854761Y-84277380D02*
X156854761Y-83277380D01*
X156759523Y-83420238D01*
X156664285Y-83515476D01*
X156569047Y-83563095D01*
X158045238Y-83277380D02*
X157569047Y-83277380D01*
X157521428Y-83753571D01*
X157569047Y-83705952D01*
X157664285Y-83658333D01*
X157902380Y-83658333D01*
X157997619Y-83705952D01*
X158045238Y-83753571D01*
X158092857Y-83848809D01*
X158092857Y-84086904D01*
X158045238Y-84182142D01*
X157997619Y-84229761D01*
X157902380Y-84277380D01*
X157664285Y-84277380D01*
X157569047Y-84229761D01*
X157521428Y-84182142D01*
%TO.C,R19*%
X183967380Y-109892857D02*
X183491190Y-110226190D01*
X183967380Y-110464285D02*
X182967380Y-110464285D01*
X182967380Y-110083333D01*
X183015000Y-109988095D01*
X183062619Y-109940476D01*
X183157857Y-109892857D01*
X183300714Y-109892857D01*
X183395952Y-109940476D01*
X183443571Y-109988095D01*
X183491190Y-110083333D01*
X183491190Y-110464285D01*
X183967380Y-108940476D02*
X183967380Y-109511904D01*
X183967380Y-109226190D02*
X182967380Y-109226190D01*
X183110238Y-109321428D01*
X183205476Y-109416666D01*
X183253095Y-109511904D01*
X183967380Y-108464285D02*
X183967380Y-108273809D01*
X183919761Y-108178571D01*
X183872142Y-108130952D01*
X183729285Y-108035714D01*
X183538809Y-107988095D01*
X183157857Y-107988095D01*
X183062619Y-108035714D01*
X183015000Y-108083333D01*
X182967380Y-108178571D01*
X182967380Y-108369047D01*
X183015000Y-108464285D01*
X183062619Y-108511904D01*
X183157857Y-108559523D01*
X183395952Y-108559523D01*
X183491190Y-108511904D01*
X183538809Y-108464285D01*
X183586428Y-108369047D01*
X183586428Y-108178571D01*
X183538809Y-108083333D01*
X183491190Y-108035714D01*
X183395952Y-107988095D01*
%TO.C,R37*%
X148932142Y-72452380D02*
X148598809Y-71976190D01*
X148360714Y-72452380D02*
X148360714Y-71452380D01*
X148741666Y-71452380D01*
X148836904Y-71500000D01*
X148884523Y-71547619D01*
X148932142Y-71642857D01*
X148932142Y-71785714D01*
X148884523Y-71880952D01*
X148836904Y-71928571D01*
X148741666Y-71976190D01*
X148360714Y-71976190D01*
X149265476Y-71452380D02*
X149884523Y-71452380D01*
X149551190Y-71833333D01*
X149694047Y-71833333D01*
X149789285Y-71880952D01*
X149836904Y-71928571D01*
X149884523Y-72023809D01*
X149884523Y-72261904D01*
X149836904Y-72357142D01*
X149789285Y-72404761D01*
X149694047Y-72452380D01*
X149408333Y-72452380D01*
X149313095Y-72404761D01*
X149265476Y-72357142D01*
X150217857Y-71452380D02*
X150884523Y-71452380D01*
X150455952Y-72452380D01*
%TO.C,R38*%
X145632142Y-74602380D02*
X145298809Y-74126190D01*
X145060714Y-74602380D02*
X145060714Y-73602380D01*
X145441666Y-73602380D01*
X145536904Y-73650000D01*
X145584523Y-73697619D01*
X145632142Y-73792857D01*
X145632142Y-73935714D01*
X145584523Y-74030952D01*
X145536904Y-74078571D01*
X145441666Y-74126190D01*
X145060714Y-74126190D01*
X145965476Y-73602380D02*
X146584523Y-73602380D01*
X146251190Y-73983333D01*
X146394047Y-73983333D01*
X146489285Y-74030952D01*
X146536904Y-74078571D01*
X146584523Y-74173809D01*
X146584523Y-74411904D01*
X146536904Y-74507142D01*
X146489285Y-74554761D01*
X146394047Y-74602380D01*
X146108333Y-74602380D01*
X146013095Y-74554761D01*
X145965476Y-74507142D01*
X147155952Y-74030952D02*
X147060714Y-73983333D01*
X147013095Y-73935714D01*
X146965476Y-73840476D01*
X146965476Y-73792857D01*
X147013095Y-73697619D01*
X147060714Y-73650000D01*
X147155952Y-73602380D01*
X147346428Y-73602380D01*
X147441666Y-73650000D01*
X147489285Y-73697619D01*
X147536904Y-73792857D01*
X147536904Y-73840476D01*
X147489285Y-73935714D01*
X147441666Y-73983333D01*
X147346428Y-74030952D01*
X147155952Y-74030952D01*
X147060714Y-74078571D01*
X147013095Y-74126190D01*
X146965476Y-74221428D01*
X146965476Y-74411904D01*
X147013095Y-74507142D01*
X147060714Y-74554761D01*
X147155952Y-74602380D01*
X147346428Y-74602380D01*
X147441666Y-74554761D01*
X147489285Y-74507142D01*
X147536904Y-74411904D01*
X147536904Y-74221428D01*
X147489285Y-74126190D01*
X147441666Y-74078571D01*
X147346428Y-74030952D01*
%TO.C,R39*%
X155552380Y-75817857D02*
X155076190Y-76151190D01*
X155552380Y-76389285D02*
X154552380Y-76389285D01*
X154552380Y-76008333D01*
X154600000Y-75913095D01*
X154647619Y-75865476D01*
X154742857Y-75817857D01*
X154885714Y-75817857D01*
X154980952Y-75865476D01*
X155028571Y-75913095D01*
X155076190Y-76008333D01*
X155076190Y-76389285D01*
X154552380Y-75484523D02*
X154552380Y-74865476D01*
X154933333Y-75198809D01*
X154933333Y-75055952D01*
X154980952Y-74960714D01*
X155028571Y-74913095D01*
X155123809Y-74865476D01*
X155361904Y-74865476D01*
X155457142Y-74913095D01*
X155504761Y-74960714D01*
X155552380Y-75055952D01*
X155552380Y-75341666D01*
X155504761Y-75436904D01*
X155457142Y-75484523D01*
X155552380Y-74389285D02*
X155552380Y-74198809D01*
X155504761Y-74103571D01*
X155457142Y-74055952D01*
X155314285Y-73960714D01*
X155123809Y-73913095D01*
X154742857Y-73913095D01*
X154647619Y-73960714D01*
X154600000Y-74008333D01*
X154552380Y-74103571D01*
X154552380Y-74294047D01*
X154600000Y-74389285D01*
X154647619Y-74436904D01*
X154742857Y-74484523D01*
X154980952Y-74484523D01*
X155076190Y-74436904D01*
X155123809Y-74389285D01*
X155171428Y-74294047D01*
X155171428Y-74103571D01*
X155123809Y-74008333D01*
X155076190Y-73960714D01*
X154980952Y-73913095D01*
%TO.C,SW1*%
X150766666Y-65604761D02*
X150909523Y-65652380D01*
X151147619Y-65652380D01*
X151242857Y-65604761D01*
X151290476Y-65557142D01*
X151338095Y-65461904D01*
X151338095Y-65366666D01*
X151290476Y-65271428D01*
X151242857Y-65223809D01*
X151147619Y-65176190D01*
X150957142Y-65128571D01*
X150861904Y-65080952D01*
X150814285Y-65033333D01*
X150766666Y-64938095D01*
X150766666Y-64842857D01*
X150814285Y-64747619D01*
X150861904Y-64700000D01*
X150957142Y-64652380D01*
X151195238Y-64652380D01*
X151338095Y-64700000D01*
X151671428Y-64652380D02*
X151909523Y-65652380D01*
X152100000Y-64938095D01*
X152290476Y-65652380D01*
X152528571Y-64652380D01*
X153433333Y-65652380D02*
X152861904Y-65652380D01*
X153147619Y-65652380D02*
X153147619Y-64652380D01*
X153052380Y-64795238D01*
X152957142Y-64890476D01*
X152861904Y-64938095D01*
%TO.C,C1*%
X147710490Y-118876990D02*
X147662871Y-118924609D01*
X147520014Y-118972228D01*
X147424776Y-118972228D01*
X147281918Y-118924609D01*
X147186680Y-118829371D01*
X147139061Y-118734133D01*
X147091442Y-118543657D01*
X147091442Y-118400800D01*
X147139061Y-118210324D01*
X147186680Y-118115086D01*
X147281918Y-118019848D01*
X147424776Y-117972228D01*
X147520014Y-117972228D01*
X147662871Y-118019848D01*
X147710490Y-118067467D01*
X148662871Y-118972228D02*
X148091442Y-118972228D01*
X148377157Y-118972228D02*
X148377157Y-117972228D01*
X148281918Y-118115086D01*
X148186680Y-118210324D01*
X148091442Y-118257943D01*
%TO.C,C2*%
X176183333Y-113132142D02*
X176135714Y-113179761D01*
X175992857Y-113227380D01*
X175897619Y-113227380D01*
X175754761Y-113179761D01*
X175659523Y-113084523D01*
X175611904Y-112989285D01*
X175564285Y-112798809D01*
X175564285Y-112655952D01*
X175611904Y-112465476D01*
X175659523Y-112370238D01*
X175754761Y-112275000D01*
X175897619Y-112227380D01*
X175992857Y-112227380D01*
X176135714Y-112275000D01*
X176183333Y-112322619D01*
X176564285Y-112322619D02*
X176611904Y-112275000D01*
X176707142Y-112227380D01*
X176945238Y-112227380D01*
X177040476Y-112275000D01*
X177088095Y-112322619D01*
X177135714Y-112417857D01*
X177135714Y-112513095D01*
X177088095Y-112655952D01*
X176516666Y-113227380D01*
X177135714Y-113227380D01*
%TO.C,C3*%
X159135490Y-116271990D02*
X159087871Y-116319609D01*
X158945014Y-116367228D01*
X158849776Y-116367228D01*
X158706918Y-116319609D01*
X158611680Y-116224371D01*
X158564061Y-116129133D01*
X158516442Y-115938657D01*
X158516442Y-115795800D01*
X158564061Y-115605324D01*
X158611680Y-115510086D01*
X158706918Y-115414848D01*
X158849776Y-115367228D01*
X158945014Y-115367228D01*
X159087871Y-115414848D01*
X159135490Y-115462467D01*
X159468823Y-115367228D02*
X160087871Y-115367228D01*
X159754537Y-115748181D01*
X159897395Y-115748181D01*
X159992633Y-115795800D01*
X160040252Y-115843419D01*
X160087871Y-115938657D01*
X160087871Y-116176752D01*
X160040252Y-116271990D01*
X159992633Y-116319609D01*
X159897395Y-116367228D01*
X159611680Y-116367228D01*
X159516442Y-116319609D01*
X159468823Y-116271990D01*
%TO.C,C6*%
X162602925Y-152907982D02*
X162555306Y-152955601D01*
X162412449Y-153003220D01*
X162317211Y-153003220D01*
X162174353Y-152955601D01*
X162079115Y-152860363D01*
X162031496Y-152765125D01*
X161983877Y-152574649D01*
X161983877Y-152431792D01*
X162031496Y-152241316D01*
X162079115Y-152146078D01*
X162174353Y-152050840D01*
X162317211Y-152003220D01*
X162412449Y-152003220D01*
X162555306Y-152050840D01*
X162602925Y-152098459D01*
X163460068Y-152003220D02*
X163269592Y-152003220D01*
X163174353Y-152050840D01*
X163126734Y-152098459D01*
X163031496Y-152241316D01*
X162983877Y-152431792D01*
X162983877Y-152812744D01*
X163031496Y-152907982D01*
X163079115Y-152955601D01*
X163174353Y-153003220D01*
X163364830Y-153003220D01*
X163460068Y-152955601D01*
X163507687Y-152907982D01*
X163555306Y-152812744D01*
X163555306Y-152574649D01*
X163507687Y-152479411D01*
X163460068Y-152431792D01*
X163364830Y-152384173D01*
X163174353Y-152384173D01*
X163079115Y-152431792D01*
X163031496Y-152479411D01*
X162983877Y-152574649D01*
%TO.C,C10*%
X137582142Y-99432142D02*
X137534523Y-99479761D01*
X137391666Y-99527380D01*
X137296428Y-99527380D01*
X137153571Y-99479761D01*
X137058333Y-99384523D01*
X137010714Y-99289285D01*
X136963095Y-99098809D01*
X136963095Y-98955952D01*
X137010714Y-98765476D01*
X137058333Y-98670238D01*
X137153571Y-98575000D01*
X137296428Y-98527380D01*
X137391666Y-98527380D01*
X137534523Y-98575000D01*
X137582142Y-98622619D01*
X138534523Y-99527380D02*
X137963095Y-99527380D01*
X138248809Y-99527380D02*
X138248809Y-98527380D01*
X138153571Y-98670238D01*
X138058333Y-98765476D01*
X137963095Y-98813095D01*
X139153571Y-98527380D02*
X139248809Y-98527380D01*
X139344047Y-98575000D01*
X139391666Y-98622619D01*
X139439285Y-98717857D01*
X139486904Y-98908333D01*
X139486904Y-99146428D01*
X139439285Y-99336904D01*
X139391666Y-99432142D01*
X139344047Y-99479761D01*
X139248809Y-99527380D01*
X139153571Y-99527380D01*
X139058333Y-99479761D01*
X139010714Y-99432142D01*
X138963095Y-99336904D01*
X138915476Y-99146428D01*
X138915476Y-98908333D01*
X138963095Y-98717857D01*
X139010714Y-98622619D01*
X139058333Y-98575000D01*
X139153571Y-98527380D01*
%TO.C,C12*%
X133597969Y-115582106D02*
X133597969Y-115649450D01*
X133530625Y-115784137D01*
X133463282Y-115851480D01*
X133328595Y-115918824D01*
X133193908Y-115918824D01*
X133092893Y-115885152D01*
X132924534Y-115784137D01*
X132823519Y-115683122D01*
X132722503Y-115514763D01*
X132688832Y-115413748D01*
X132688832Y-115279061D01*
X132756175Y-115144374D01*
X132823519Y-115077030D01*
X132958206Y-115009687D01*
X133025549Y-115009687D01*
X134338748Y-114976015D02*
X133934687Y-115380076D01*
X134136717Y-115178045D02*
X133429610Y-114470938D01*
X133463282Y-114639297D01*
X133463282Y-114773984D01*
X133429610Y-114875000D01*
X133968358Y-114066877D02*
X133968358Y-113999534D01*
X134002030Y-113898519D01*
X134170389Y-113730160D01*
X134271404Y-113696488D01*
X134338748Y-113696488D01*
X134439763Y-113730160D01*
X134507106Y-113797503D01*
X134574450Y-113932190D01*
X134574450Y-114740312D01*
X135012183Y-114302580D01*
%TO.C,C14*%
X122957142Y-114342857D02*
X123004761Y-114390476D01*
X123052380Y-114533333D01*
X123052380Y-114628571D01*
X123004761Y-114771428D01*
X122909523Y-114866666D01*
X122814285Y-114914285D01*
X122623809Y-114961904D01*
X122480952Y-114961904D01*
X122290476Y-114914285D01*
X122195238Y-114866666D01*
X122100000Y-114771428D01*
X122052380Y-114628571D01*
X122052380Y-114533333D01*
X122100000Y-114390476D01*
X122147619Y-114342857D01*
X123052380Y-113390476D02*
X123052380Y-113961904D01*
X123052380Y-113676190D02*
X122052380Y-113676190D01*
X122195238Y-113771428D01*
X122290476Y-113866666D01*
X122338095Y-113961904D01*
X122385714Y-112533333D02*
X123052380Y-112533333D01*
X122004761Y-112771428D02*
X122719047Y-113009523D01*
X122719047Y-112390476D01*
%TO.C,C15*%
X168876735Y-126032983D02*
X168829116Y-126080602D01*
X168686259Y-126128221D01*
X168591021Y-126128221D01*
X168448164Y-126080602D01*
X168352926Y-125985364D01*
X168305307Y-125890126D01*
X168257688Y-125699650D01*
X168257688Y-125556793D01*
X168305307Y-125366317D01*
X168352926Y-125271079D01*
X168448164Y-125175841D01*
X168591021Y-125128221D01*
X168686259Y-125128221D01*
X168829116Y-125175841D01*
X168876735Y-125223460D01*
X169829116Y-126128221D02*
X169257688Y-126128221D01*
X169543402Y-126128221D02*
X169543402Y-125128221D01*
X169448164Y-125271079D01*
X169352926Y-125366317D01*
X169257688Y-125413936D01*
X170733878Y-125128221D02*
X170257688Y-125128221D01*
X170210069Y-125604412D01*
X170257688Y-125556793D01*
X170352926Y-125509174D01*
X170591021Y-125509174D01*
X170686259Y-125556793D01*
X170733878Y-125604412D01*
X170781497Y-125699650D01*
X170781497Y-125937745D01*
X170733878Y-126032983D01*
X170686259Y-126080602D01*
X170591021Y-126128221D01*
X170352926Y-126128221D01*
X170257688Y-126080602D01*
X170210069Y-126032983D01*
%TO.C,C16*%
X139257142Y-137157142D02*
X139209523Y-137204761D01*
X139066666Y-137252380D01*
X138971428Y-137252380D01*
X138828571Y-137204761D01*
X138733333Y-137109523D01*
X138685714Y-137014285D01*
X138638095Y-136823809D01*
X138638095Y-136680952D01*
X138685714Y-136490476D01*
X138733333Y-136395238D01*
X138828571Y-136300000D01*
X138971428Y-136252380D01*
X139066666Y-136252380D01*
X139209523Y-136300000D01*
X139257142Y-136347619D01*
X140209523Y-137252380D02*
X139638095Y-137252380D01*
X139923809Y-137252380D02*
X139923809Y-136252380D01*
X139828571Y-136395238D01*
X139733333Y-136490476D01*
X139638095Y-136538095D01*
X141066666Y-136252380D02*
X140876190Y-136252380D01*
X140780952Y-136300000D01*
X140733333Y-136347619D01*
X140638095Y-136490476D01*
X140590476Y-136680952D01*
X140590476Y-137061904D01*
X140638095Y-137157142D01*
X140685714Y-137204761D01*
X140780952Y-137252380D01*
X140971428Y-137252380D01*
X141066666Y-137204761D01*
X141114285Y-137157142D01*
X141161904Y-137061904D01*
X141161904Y-136823809D01*
X141114285Y-136728571D01*
X141066666Y-136680952D01*
X140971428Y-136633333D01*
X140780952Y-136633333D01*
X140685714Y-136680952D01*
X140638095Y-136728571D01*
X140590476Y-136823809D01*
%TO.C,C18*%
X134257142Y-118567857D02*
X134304761Y-118615476D01*
X134352380Y-118758333D01*
X134352380Y-118853571D01*
X134304761Y-118996428D01*
X134209523Y-119091666D01*
X134114285Y-119139285D01*
X133923809Y-119186904D01*
X133780952Y-119186904D01*
X133590476Y-119139285D01*
X133495238Y-119091666D01*
X133400000Y-118996428D01*
X133352380Y-118853571D01*
X133352380Y-118758333D01*
X133400000Y-118615476D01*
X133447619Y-118567857D01*
X134352380Y-117615476D02*
X134352380Y-118186904D01*
X134352380Y-117901190D02*
X133352380Y-117901190D01*
X133495238Y-117996428D01*
X133590476Y-118091666D01*
X133638095Y-118186904D01*
X133780952Y-117044047D02*
X133733333Y-117139285D01*
X133685714Y-117186904D01*
X133590476Y-117234523D01*
X133542857Y-117234523D01*
X133447619Y-117186904D01*
X133400000Y-117139285D01*
X133352380Y-117044047D01*
X133352380Y-116853571D01*
X133400000Y-116758333D01*
X133447619Y-116710714D01*
X133542857Y-116663095D01*
X133590476Y-116663095D01*
X133685714Y-116710714D01*
X133733333Y-116758333D01*
X133780952Y-116853571D01*
X133780952Y-117044047D01*
X133828571Y-117139285D01*
X133876190Y-117186904D01*
X133971428Y-117234523D01*
X134161904Y-117234523D01*
X134257142Y-117186904D01*
X134304761Y-117139285D01*
X134352380Y-117044047D01*
X134352380Y-116853571D01*
X134304761Y-116758333D01*
X134257142Y-116710714D01*
X134161904Y-116663095D01*
X133971428Y-116663095D01*
X133876190Y-116710714D01*
X133828571Y-116758333D01*
X133780952Y-116853571D01*
%TO.C,C19*%
X141807142Y-118592857D02*
X141854761Y-118640476D01*
X141902380Y-118783333D01*
X141902380Y-118878571D01*
X141854761Y-119021428D01*
X141759523Y-119116666D01*
X141664285Y-119164285D01*
X141473809Y-119211904D01*
X141330952Y-119211904D01*
X141140476Y-119164285D01*
X141045238Y-119116666D01*
X140950000Y-119021428D01*
X140902380Y-118878571D01*
X140902380Y-118783333D01*
X140950000Y-118640476D01*
X140997619Y-118592857D01*
X141902380Y-117640476D02*
X141902380Y-118211904D01*
X141902380Y-117926190D02*
X140902380Y-117926190D01*
X141045238Y-118021428D01*
X141140476Y-118116666D01*
X141188095Y-118211904D01*
X141902380Y-117164285D02*
X141902380Y-116973809D01*
X141854761Y-116878571D01*
X141807142Y-116830952D01*
X141664285Y-116735714D01*
X141473809Y-116688095D01*
X141092857Y-116688095D01*
X140997619Y-116735714D01*
X140950000Y-116783333D01*
X140902380Y-116878571D01*
X140902380Y-117069047D01*
X140950000Y-117164285D01*
X140997619Y-117211904D01*
X141092857Y-117259523D01*
X141330952Y-117259523D01*
X141426190Y-117211904D01*
X141473809Y-117164285D01*
X141521428Y-117069047D01*
X141521428Y-116878571D01*
X141473809Y-116783333D01*
X141426190Y-116735714D01*
X141330952Y-116688095D01*
%TO.C,C20*%
X136157142Y-123342857D02*
X136204761Y-123390476D01*
X136252380Y-123533333D01*
X136252380Y-123628571D01*
X136204761Y-123771428D01*
X136109523Y-123866666D01*
X136014285Y-123914285D01*
X135823809Y-123961904D01*
X135680952Y-123961904D01*
X135490476Y-123914285D01*
X135395238Y-123866666D01*
X135300000Y-123771428D01*
X135252380Y-123628571D01*
X135252380Y-123533333D01*
X135300000Y-123390476D01*
X135347619Y-123342857D01*
X135347619Y-122961904D02*
X135300000Y-122914285D01*
X135252380Y-122819047D01*
X135252380Y-122580952D01*
X135300000Y-122485714D01*
X135347619Y-122438095D01*
X135442857Y-122390476D01*
X135538095Y-122390476D01*
X135680952Y-122438095D01*
X136252380Y-123009523D01*
X136252380Y-122390476D01*
X135252380Y-121771428D02*
X135252380Y-121676190D01*
X135300000Y-121580952D01*
X135347619Y-121533333D01*
X135442857Y-121485714D01*
X135633333Y-121438095D01*
X135871428Y-121438095D01*
X136061904Y-121485714D01*
X136157142Y-121533333D01*
X136204761Y-121580952D01*
X136252380Y-121676190D01*
X136252380Y-121771428D01*
X136204761Y-121866666D01*
X136157142Y-121914285D01*
X136061904Y-121961904D01*
X135871428Y-122009523D01*
X135633333Y-122009523D01*
X135442857Y-121961904D01*
X135347619Y-121914285D01*
X135300000Y-121866666D01*
X135252380Y-121771428D01*
%TO.C,C22*%
X122624300Y-122166991D02*
X122576681Y-122214610D01*
X122433824Y-122262229D01*
X122338586Y-122262229D01*
X122195729Y-122214610D01*
X122100491Y-122119372D01*
X122052872Y-122024134D01*
X122005253Y-121833658D01*
X122005253Y-121690801D01*
X122052872Y-121500325D01*
X122100491Y-121405087D01*
X122195729Y-121309849D01*
X122338586Y-121262229D01*
X122433824Y-121262229D01*
X122576681Y-121309849D01*
X122624300Y-121357468D01*
X123005253Y-121357468D02*
X123052872Y-121309849D01*
X123148110Y-121262229D01*
X123386205Y-121262229D01*
X123481443Y-121309849D01*
X123529062Y-121357468D01*
X123576681Y-121452706D01*
X123576681Y-121547944D01*
X123529062Y-121690801D01*
X122957634Y-122262229D01*
X123576681Y-122262229D01*
X123957634Y-121357468D02*
X124005253Y-121309849D01*
X124100491Y-121262229D01*
X124338586Y-121262229D01*
X124433824Y-121309849D01*
X124481443Y-121357468D01*
X124529062Y-121452706D01*
X124529062Y-121547944D01*
X124481443Y-121690801D01*
X123910015Y-122262229D01*
X124529062Y-122262229D01*
%TO.C,C23*%
X130299301Y-127846990D02*
X130251682Y-127894609D01*
X130108825Y-127942228D01*
X130013587Y-127942228D01*
X129870730Y-127894609D01*
X129775492Y-127799371D01*
X129727873Y-127704133D01*
X129680254Y-127513657D01*
X129680254Y-127370800D01*
X129727873Y-127180324D01*
X129775492Y-127085086D01*
X129870730Y-126989848D01*
X130013587Y-126942228D01*
X130108825Y-126942228D01*
X130251682Y-126989848D01*
X130299301Y-127037467D01*
X130680254Y-127037467D02*
X130727873Y-126989848D01*
X130823111Y-126942228D01*
X131061206Y-126942228D01*
X131156444Y-126989848D01*
X131204063Y-127037467D01*
X131251682Y-127132705D01*
X131251682Y-127227943D01*
X131204063Y-127370800D01*
X130632635Y-127942228D01*
X131251682Y-127942228D01*
X131585016Y-126942228D02*
X132204063Y-126942228D01*
X131870730Y-127323181D01*
X132013587Y-127323181D01*
X132108825Y-127370800D01*
X132156444Y-127418419D01*
X132204063Y-127513657D01*
X132204063Y-127751752D01*
X132156444Y-127846990D01*
X132108825Y-127894609D01*
X132013587Y-127942228D01*
X131727873Y-127942228D01*
X131632635Y-127894609D01*
X131585016Y-127846990D01*
%TO.C,C24*%
X121207142Y-126057142D02*
X121159523Y-126104761D01*
X121016666Y-126152380D01*
X120921428Y-126152380D01*
X120778571Y-126104761D01*
X120683333Y-126009523D01*
X120635714Y-125914285D01*
X120588095Y-125723809D01*
X120588095Y-125580952D01*
X120635714Y-125390476D01*
X120683333Y-125295238D01*
X120778571Y-125200000D01*
X120921428Y-125152380D01*
X121016666Y-125152380D01*
X121159523Y-125200000D01*
X121207142Y-125247619D01*
X121588095Y-125247619D02*
X121635714Y-125200000D01*
X121730952Y-125152380D01*
X121969047Y-125152380D01*
X122064285Y-125200000D01*
X122111904Y-125247619D01*
X122159523Y-125342857D01*
X122159523Y-125438095D01*
X122111904Y-125580952D01*
X121540476Y-126152380D01*
X122159523Y-126152380D01*
X123016666Y-125485714D02*
X123016666Y-126152380D01*
X122778571Y-125104761D02*
X122540476Y-125819047D01*
X123159523Y-125819047D01*
%TO.C,C26*%
X160607983Y-131612549D02*
X160560364Y-131660168D01*
X160417507Y-131707787D01*
X160322269Y-131707787D01*
X160179412Y-131660168D01*
X160084174Y-131564930D01*
X160036555Y-131469692D01*
X159988936Y-131279216D01*
X159988936Y-131136359D01*
X160036555Y-130945883D01*
X160084174Y-130850645D01*
X160179412Y-130755407D01*
X160322269Y-130707787D01*
X160417507Y-130707787D01*
X160560364Y-130755407D01*
X160607983Y-130803026D01*
X160988936Y-130803026D02*
X161036555Y-130755407D01*
X161131793Y-130707787D01*
X161369888Y-130707787D01*
X161465126Y-130755407D01*
X161512745Y-130803026D01*
X161560364Y-130898264D01*
X161560364Y-130993502D01*
X161512745Y-131136359D01*
X160941317Y-131707787D01*
X161560364Y-131707787D01*
X162417507Y-130707787D02*
X162227031Y-130707787D01*
X162131793Y-130755407D01*
X162084174Y-130803026D01*
X161988936Y-130945883D01*
X161941317Y-131136359D01*
X161941317Y-131517311D01*
X161988936Y-131612549D01*
X162036555Y-131660168D01*
X162131793Y-131707787D01*
X162322269Y-131707787D01*
X162417507Y-131660168D01*
X162465126Y-131612549D01*
X162512745Y-131517311D01*
X162512745Y-131279216D01*
X162465126Y-131183978D01*
X162417507Y-131136359D01*
X162322269Y-131088740D01*
X162131793Y-131088740D01*
X162036555Y-131136359D01*
X161988936Y-131183978D01*
X161941317Y-131279216D01*
%TO.C,C29*%
X162757142Y-97807142D02*
X162709523Y-97854761D01*
X162566666Y-97902380D01*
X162471428Y-97902380D01*
X162328571Y-97854761D01*
X162233333Y-97759523D01*
X162185714Y-97664285D01*
X162138095Y-97473809D01*
X162138095Y-97330952D01*
X162185714Y-97140476D01*
X162233333Y-97045238D01*
X162328571Y-96950000D01*
X162471428Y-96902380D01*
X162566666Y-96902380D01*
X162709523Y-96950000D01*
X162757142Y-96997619D01*
X163138095Y-96997619D02*
X163185714Y-96950000D01*
X163280952Y-96902380D01*
X163519047Y-96902380D01*
X163614285Y-96950000D01*
X163661904Y-96997619D01*
X163709523Y-97092857D01*
X163709523Y-97188095D01*
X163661904Y-97330952D01*
X163090476Y-97902380D01*
X163709523Y-97902380D01*
X164185714Y-97902380D02*
X164376190Y-97902380D01*
X164471428Y-97854761D01*
X164519047Y-97807142D01*
X164614285Y-97664285D01*
X164661904Y-97473809D01*
X164661904Y-97092857D01*
X164614285Y-96997619D01*
X164566666Y-96950000D01*
X164471428Y-96902380D01*
X164280952Y-96902380D01*
X164185714Y-96950000D01*
X164138095Y-96997619D01*
X164090476Y-97092857D01*
X164090476Y-97330952D01*
X164138095Y-97426190D01*
X164185714Y-97473809D01*
X164280952Y-97521428D01*
X164471428Y-97521428D01*
X164566666Y-97473809D01*
X164614285Y-97426190D01*
X164661904Y-97330952D01*
%TO.C,C31*%
X125817893Y-98447969D02*
X125750549Y-98447969D01*
X125615862Y-98380625D01*
X125548519Y-98313282D01*
X125481175Y-98178595D01*
X125481175Y-98043908D01*
X125514847Y-97942893D01*
X125615862Y-97774534D01*
X125716877Y-97673519D01*
X125885236Y-97572503D01*
X125986251Y-97538832D01*
X126120938Y-97538832D01*
X126255625Y-97606175D01*
X126322969Y-97673519D01*
X126390312Y-97808206D01*
X126390312Y-97875549D01*
X126693358Y-98043908D02*
X127131091Y-98481641D01*
X126626015Y-98515312D01*
X126727030Y-98616328D01*
X126760702Y-98717343D01*
X126760702Y-98784687D01*
X126727030Y-98885702D01*
X126558671Y-99054061D01*
X126457656Y-99087732D01*
X126390312Y-99087732D01*
X126289297Y-99054061D01*
X126087267Y-98852030D01*
X126053595Y-98751015D01*
X126053595Y-98683671D01*
X127097419Y-99862183D02*
X126693358Y-99458122D01*
X126895389Y-99660152D02*
X127602496Y-98953045D01*
X127434137Y-98986717D01*
X127299450Y-98986717D01*
X127198435Y-98953045D01*
%TO.C,C32*%
X117886507Y-93064607D02*
X117934126Y-93112226D01*
X117981745Y-93255083D01*
X117981745Y-93350321D01*
X117934126Y-93493178D01*
X117838888Y-93588416D01*
X117743650Y-93636035D01*
X117553174Y-93683654D01*
X117410317Y-93683654D01*
X117219841Y-93636035D01*
X117124603Y-93588416D01*
X117029365Y-93493178D01*
X116981745Y-93350321D01*
X116981745Y-93255083D01*
X117029365Y-93112226D01*
X117076984Y-93064607D01*
X116981745Y-92731273D02*
X116981745Y-92112226D01*
X117362698Y-92445559D01*
X117362698Y-92302702D01*
X117410317Y-92207464D01*
X117457936Y-92159845D01*
X117553174Y-92112226D01*
X117791269Y-92112226D01*
X117886507Y-92159845D01*
X117934126Y-92207464D01*
X117981745Y-92302702D01*
X117981745Y-92588416D01*
X117934126Y-92683654D01*
X117886507Y-92731273D01*
X117076984Y-91731273D02*
X117029365Y-91683654D01*
X116981745Y-91588416D01*
X116981745Y-91350321D01*
X117029365Y-91255083D01*
X117076984Y-91207464D01*
X117172222Y-91159845D01*
X117267460Y-91159845D01*
X117410317Y-91207464D01*
X117981745Y-91778892D01*
X117981745Y-91159845D01*
%TO.C,C34*%
X123182142Y-102342857D02*
X123229761Y-102390476D01*
X123277380Y-102533333D01*
X123277380Y-102628571D01*
X123229761Y-102771428D01*
X123134523Y-102866666D01*
X123039285Y-102914285D01*
X122848809Y-102961904D01*
X122705952Y-102961904D01*
X122515476Y-102914285D01*
X122420238Y-102866666D01*
X122325000Y-102771428D01*
X122277380Y-102628571D01*
X122277380Y-102533333D01*
X122325000Y-102390476D01*
X122372619Y-102342857D01*
X122277380Y-102009523D02*
X122277380Y-101390476D01*
X122658333Y-101723809D01*
X122658333Y-101580952D01*
X122705952Y-101485714D01*
X122753571Y-101438095D01*
X122848809Y-101390476D01*
X123086904Y-101390476D01*
X123182142Y-101438095D01*
X123229761Y-101485714D01*
X123277380Y-101580952D01*
X123277380Y-101866666D01*
X123229761Y-101961904D01*
X123182142Y-102009523D01*
X122610714Y-100533333D02*
X123277380Y-100533333D01*
X122229761Y-100771428D02*
X122944047Y-101009523D01*
X122944047Y-100390476D01*
%TO.C,C35*%
X134807142Y-102342857D02*
X134854761Y-102390476D01*
X134902380Y-102533333D01*
X134902380Y-102628571D01*
X134854761Y-102771428D01*
X134759523Y-102866666D01*
X134664285Y-102914285D01*
X134473809Y-102961904D01*
X134330952Y-102961904D01*
X134140476Y-102914285D01*
X134045238Y-102866666D01*
X133950000Y-102771428D01*
X133902380Y-102628571D01*
X133902380Y-102533333D01*
X133950000Y-102390476D01*
X133997619Y-102342857D01*
X133902380Y-102009523D02*
X133902380Y-101390476D01*
X134283333Y-101723809D01*
X134283333Y-101580952D01*
X134330952Y-101485714D01*
X134378571Y-101438095D01*
X134473809Y-101390476D01*
X134711904Y-101390476D01*
X134807142Y-101438095D01*
X134854761Y-101485714D01*
X134902380Y-101580952D01*
X134902380Y-101866666D01*
X134854761Y-101961904D01*
X134807142Y-102009523D01*
X133902380Y-100485714D02*
X133902380Y-100961904D01*
X134378571Y-101009523D01*
X134330952Y-100961904D01*
X134283333Y-100866666D01*
X134283333Y-100628571D01*
X134330952Y-100533333D01*
X134378571Y-100485714D01*
X134473809Y-100438095D01*
X134711904Y-100438095D01*
X134807142Y-100485714D01*
X134854761Y-100533333D01*
X134902380Y-100628571D01*
X134902380Y-100866666D01*
X134854761Y-100961904D01*
X134807142Y-101009523D01*
%TO.C,C36*%
X125910391Y-107136506D02*
X125862772Y-107184125D01*
X125719915Y-107231744D01*
X125624677Y-107231744D01*
X125481820Y-107184125D01*
X125386582Y-107088887D01*
X125338963Y-106993649D01*
X125291344Y-106803173D01*
X125291344Y-106660316D01*
X125338963Y-106469840D01*
X125386582Y-106374602D01*
X125481820Y-106279364D01*
X125624677Y-106231744D01*
X125719915Y-106231744D01*
X125862772Y-106279364D01*
X125910391Y-106326983D01*
X126243725Y-106231744D02*
X126862772Y-106231744D01*
X126529439Y-106612697D01*
X126672296Y-106612697D01*
X126767534Y-106660316D01*
X126815153Y-106707935D01*
X126862772Y-106803173D01*
X126862772Y-107041268D01*
X126815153Y-107136506D01*
X126767534Y-107184125D01*
X126672296Y-107231744D01*
X126386582Y-107231744D01*
X126291344Y-107184125D01*
X126243725Y-107136506D01*
X127719915Y-106231744D02*
X127529439Y-106231744D01*
X127434201Y-106279364D01*
X127386582Y-106326983D01*
X127291344Y-106469840D01*
X127243725Y-106660316D01*
X127243725Y-107041268D01*
X127291344Y-107136506D01*
X127338963Y-107184125D01*
X127434201Y-107231744D01*
X127624677Y-107231744D01*
X127719915Y-107184125D01*
X127767534Y-107136506D01*
X127815153Y-107041268D01*
X127815153Y-106803173D01*
X127767534Y-106707935D01*
X127719915Y-106660316D01*
X127624677Y-106612697D01*
X127434201Y-106612697D01*
X127338963Y-106660316D01*
X127291344Y-106707935D01*
X127243725Y-106803173D01*
%TO.C,C37*%
X118607142Y-114292857D02*
X118654761Y-114340476D01*
X118702380Y-114483333D01*
X118702380Y-114578571D01*
X118654761Y-114721428D01*
X118559523Y-114816666D01*
X118464285Y-114864285D01*
X118273809Y-114911904D01*
X118130952Y-114911904D01*
X117940476Y-114864285D01*
X117845238Y-114816666D01*
X117750000Y-114721428D01*
X117702380Y-114578571D01*
X117702380Y-114483333D01*
X117750000Y-114340476D01*
X117797619Y-114292857D01*
X117702380Y-113959523D02*
X117702380Y-113340476D01*
X118083333Y-113673809D01*
X118083333Y-113530952D01*
X118130952Y-113435714D01*
X118178571Y-113388095D01*
X118273809Y-113340476D01*
X118511904Y-113340476D01*
X118607142Y-113388095D01*
X118654761Y-113435714D01*
X118702380Y-113530952D01*
X118702380Y-113816666D01*
X118654761Y-113911904D01*
X118607142Y-113959523D01*
X117702380Y-113007142D02*
X117702380Y-112340476D01*
X118702380Y-112769047D01*
%TO.C,C38*%
X122657142Y-111207142D02*
X122609523Y-111254761D01*
X122466666Y-111302380D01*
X122371428Y-111302380D01*
X122228571Y-111254761D01*
X122133333Y-111159523D01*
X122085714Y-111064285D01*
X122038095Y-110873809D01*
X122038095Y-110730952D01*
X122085714Y-110540476D01*
X122133333Y-110445238D01*
X122228571Y-110350000D01*
X122371428Y-110302380D01*
X122466666Y-110302380D01*
X122609523Y-110350000D01*
X122657142Y-110397619D01*
X122990476Y-110302380D02*
X123609523Y-110302380D01*
X123276190Y-110683333D01*
X123419047Y-110683333D01*
X123514285Y-110730952D01*
X123561904Y-110778571D01*
X123609523Y-110873809D01*
X123609523Y-111111904D01*
X123561904Y-111207142D01*
X123514285Y-111254761D01*
X123419047Y-111302380D01*
X123133333Y-111302380D01*
X123038095Y-111254761D01*
X122990476Y-111207142D01*
X124180952Y-110730952D02*
X124085714Y-110683333D01*
X124038095Y-110635714D01*
X123990476Y-110540476D01*
X123990476Y-110492857D01*
X124038095Y-110397619D01*
X124085714Y-110350000D01*
X124180952Y-110302380D01*
X124371428Y-110302380D01*
X124466666Y-110350000D01*
X124514285Y-110397619D01*
X124561904Y-110492857D01*
X124561904Y-110540476D01*
X124514285Y-110635714D01*
X124466666Y-110683333D01*
X124371428Y-110730952D01*
X124180952Y-110730952D01*
X124085714Y-110778571D01*
X124038095Y-110826190D01*
X123990476Y-110921428D01*
X123990476Y-111111904D01*
X124038095Y-111207142D01*
X124085714Y-111254761D01*
X124180952Y-111302380D01*
X124371428Y-111302380D01*
X124466666Y-111254761D01*
X124514285Y-111207142D01*
X124561904Y-111111904D01*
X124561904Y-110921428D01*
X124514285Y-110826190D01*
X124466666Y-110778571D01*
X124371428Y-110730952D01*
%TO.C,C39*%
X120557142Y-114442857D02*
X120604761Y-114490476D01*
X120652380Y-114633333D01*
X120652380Y-114728571D01*
X120604761Y-114871428D01*
X120509523Y-114966666D01*
X120414285Y-115014285D01*
X120223809Y-115061904D01*
X120080952Y-115061904D01*
X119890476Y-115014285D01*
X119795238Y-114966666D01*
X119700000Y-114871428D01*
X119652380Y-114728571D01*
X119652380Y-114633333D01*
X119700000Y-114490476D01*
X119747619Y-114442857D01*
X119652380Y-114109523D02*
X119652380Y-113490476D01*
X120033333Y-113823809D01*
X120033333Y-113680952D01*
X120080952Y-113585714D01*
X120128571Y-113538095D01*
X120223809Y-113490476D01*
X120461904Y-113490476D01*
X120557142Y-113538095D01*
X120604761Y-113585714D01*
X120652380Y-113680952D01*
X120652380Y-113966666D01*
X120604761Y-114061904D01*
X120557142Y-114109523D01*
X120652380Y-113014285D02*
X120652380Y-112823809D01*
X120604761Y-112728571D01*
X120557142Y-112680952D01*
X120414285Y-112585714D01*
X120223809Y-112538095D01*
X119842857Y-112538095D01*
X119747619Y-112585714D01*
X119700000Y-112633333D01*
X119652380Y-112728571D01*
X119652380Y-112919047D01*
X119700000Y-113014285D01*
X119747619Y-113061904D01*
X119842857Y-113109523D01*
X120080952Y-113109523D01*
X120176190Y-113061904D01*
X120223809Y-113014285D01*
X120271428Y-112919047D01*
X120271428Y-112728571D01*
X120223809Y-112633333D01*
X120176190Y-112585714D01*
X120080952Y-112538095D01*
%TO.C,C45*%
X161032142Y-156267857D02*
X161079761Y-156315476D01*
X161127380Y-156458333D01*
X161127380Y-156553571D01*
X161079761Y-156696428D01*
X160984523Y-156791666D01*
X160889285Y-156839285D01*
X160698809Y-156886904D01*
X160555952Y-156886904D01*
X160365476Y-156839285D01*
X160270238Y-156791666D01*
X160175000Y-156696428D01*
X160127380Y-156553571D01*
X160127380Y-156458333D01*
X160175000Y-156315476D01*
X160222619Y-156267857D01*
X160460714Y-155410714D02*
X161127380Y-155410714D01*
X160079761Y-155648809D02*
X160794047Y-155886904D01*
X160794047Y-155267857D01*
X160127380Y-154410714D02*
X160127380Y-154886904D01*
X160603571Y-154934523D01*
X160555952Y-154886904D01*
X160508333Y-154791666D01*
X160508333Y-154553571D01*
X160555952Y-154458333D01*
X160603571Y-154410714D01*
X160698809Y-154363095D01*
X160936904Y-154363095D01*
X161032142Y-154410714D01*
X161079761Y-154458333D01*
X161127380Y-154553571D01*
X161127380Y-154791666D01*
X161079761Y-154886904D01*
X161032142Y-154934523D01*
%TO.C,C46*%
X159232142Y-142992857D02*
X159279761Y-143040476D01*
X159327380Y-143183333D01*
X159327380Y-143278571D01*
X159279761Y-143421428D01*
X159184523Y-143516666D01*
X159089285Y-143564285D01*
X158898809Y-143611904D01*
X158755952Y-143611904D01*
X158565476Y-143564285D01*
X158470238Y-143516666D01*
X158375000Y-143421428D01*
X158327380Y-143278571D01*
X158327380Y-143183333D01*
X158375000Y-143040476D01*
X158422619Y-142992857D01*
X158660714Y-142135714D02*
X159327380Y-142135714D01*
X158279761Y-142373809D02*
X158994047Y-142611904D01*
X158994047Y-141992857D01*
X158327380Y-141183333D02*
X158327380Y-141373809D01*
X158375000Y-141469047D01*
X158422619Y-141516666D01*
X158565476Y-141611904D01*
X158755952Y-141659523D01*
X159136904Y-141659523D01*
X159232142Y-141611904D01*
X159279761Y-141564285D01*
X159327380Y-141469047D01*
X159327380Y-141278571D01*
X159279761Y-141183333D01*
X159232142Y-141135714D01*
X159136904Y-141088095D01*
X158898809Y-141088095D01*
X158803571Y-141135714D01*
X158755952Y-141183333D01*
X158708333Y-141278571D01*
X158708333Y-141469047D01*
X158755952Y-141564285D01*
X158803571Y-141611904D01*
X158898809Y-141659523D01*
%TO.C,C47*%
X138657142Y-144957142D02*
X138609523Y-145004761D01*
X138466666Y-145052380D01*
X138371428Y-145052380D01*
X138228571Y-145004761D01*
X138133333Y-144909523D01*
X138085714Y-144814285D01*
X138038095Y-144623809D01*
X138038095Y-144480952D01*
X138085714Y-144290476D01*
X138133333Y-144195238D01*
X138228571Y-144100000D01*
X138371428Y-144052380D01*
X138466666Y-144052380D01*
X138609523Y-144100000D01*
X138657142Y-144147619D01*
X139514285Y-144385714D02*
X139514285Y-145052380D01*
X139276190Y-144004761D02*
X139038095Y-144719047D01*
X139657142Y-144719047D01*
X139942857Y-144052380D02*
X140609523Y-144052380D01*
X140180952Y-145052380D01*
%TO.C,D5*%
X129572380Y-150108095D02*
X128572380Y-150108095D01*
X128572380Y-149870000D01*
X128620000Y-149727142D01*
X128715238Y-149631904D01*
X128810476Y-149584285D01*
X129000952Y-149536666D01*
X129143809Y-149536666D01*
X129334285Y-149584285D01*
X129429523Y-149631904D01*
X129524761Y-149727142D01*
X129572380Y-149870000D01*
X129572380Y-150108095D01*
X128572380Y-148631904D02*
X128572380Y-149108095D01*
X129048571Y-149155714D01*
X129000952Y-149108095D01*
X128953333Y-149012857D01*
X128953333Y-148774761D01*
X129000952Y-148679523D01*
X129048571Y-148631904D01*
X129143809Y-148584285D01*
X129381904Y-148584285D01*
X129477142Y-148631904D01*
X129524761Y-148679523D01*
X129572380Y-148774761D01*
X129572380Y-149012857D01*
X129524761Y-149108095D01*
X129477142Y-149155714D01*
%TO.C,D6*%
X129522380Y-157978095D02*
X128522380Y-157978095D01*
X128522380Y-157740000D01*
X128570000Y-157597142D01*
X128665238Y-157501904D01*
X128760476Y-157454285D01*
X128950952Y-157406666D01*
X129093809Y-157406666D01*
X129284285Y-157454285D01*
X129379523Y-157501904D01*
X129474761Y-157597142D01*
X129522380Y-157740000D01*
X129522380Y-157978095D01*
X128522380Y-156549523D02*
X128522380Y-156740000D01*
X128570000Y-156835238D01*
X128617619Y-156882857D01*
X128760476Y-156978095D01*
X128950952Y-157025714D01*
X129331904Y-157025714D01*
X129427142Y-156978095D01*
X129474761Y-156930476D01*
X129522380Y-156835238D01*
X129522380Y-156644761D01*
X129474761Y-156549523D01*
X129427142Y-156501904D01*
X129331904Y-156454285D01*
X129093809Y-156454285D01*
X128998571Y-156501904D01*
X128950952Y-156549523D01*
X128903333Y-156644761D01*
X128903333Y-156835238D01*
X128950952Y-156930476D01*
X128998571Y-156978095D01*
X129093809Y-157025714D01*
%TO.C,J2*%
X158752380Y-158158333D02*
X159466666Y-158158333D01*
X159609523Y-158205952D01*
X159704761Y-158301190D01*
X159752380Y-158444047D01*
X159752380Y-158539285D01*
X158847619Y-157729761D02*
X158800000Y-157682142D01*
X158752380Y-157586904D01*
X158752380Y-157348809D01*
X158800000Y-157253571D01*
X158847619Y-157205952D01*
X158942857Y-157158333D01*
X159038095Y-157158333D01*
X159180952Y-157205952D01*
X159752380Y-157777380D01*
X159752380Y-157158333D01*
%TO.C,J7*%
X163027380Y-142708333D02*
X163741666Y-142708333D01*
X163884523Y-142755952D01*
X163979761Y-142851190D01*
X164027380Y-142994047D01*
X164027380Y-143089285D01*
X163027380Y-142327380D02*
X163027380Y-141660714D01*
X164027380Y-142089285D01*
%TO.C,J13*%
X147340476Y-161427380D02*
X147340476Y-162141666D01*
X147292857Y-162284523D01*
X147197619Y-162379761D01*
X147054761Y-162427380D01*
X146959523Y-162427380D01*
X148340476Y-162427380D02*
X147769047Y-162427380D01*
X148054761Y-162427380D02*
X148054761Y-161427380D01*
X147959523Y-161570238D01*
X147864285Y-161665476D01*
X147769047Y-161713095D01*
X148673809Y-161427380D02*
X149292857Y-161427380D01*
X148959523Y-161808333D01*
X149102380Y-161808333D01*
X149197619Y-161855952D01*
X149245238Y-161903571D01*
X149292857Y-161998809D01*
X149292857Y-162236904D01*
X149245238Y-162332142D01*
X149197619Y-162379761D01*
X149102380Y-162427380D01*
X148816666Y-162427380D01*
X148721428Y-162379761D01*
X148673809Y-162332142D01*
%TO.C,Q1*%
X153204761Y-136647619D02*
X153109523Y-136600000D01*
X153014285Y-136504761D01*
X152871428Y-136361904D01*
X152776190Y-136314285D01*
X152680952Y-136314285D01*
X152728571Y-136552380D02*
X152633333Y-136504761D01*
X152538095Y-136409523D01*
X152490476Y-136219047D01*
X152490476Y-135885714D01*
X152538095Y-135695238D01*
X152633333Y-135600000D01*
X152728571Y-135552380D01*
X152919047Y-135552380D01*
X153014285Y-135600000D01*
X153109523Y-135695238D01*
X153157142Y-135885714D01*
X153157142Y-136219047D01*
X153109523Y-136409523D01*
X153014285Y-136504761D01*
X152919047Y-136552380D01*
X152728571Y-136552380D01*
X154109523Y-136552380D02*
X153538095Y-136552380D01*
X153823809Y-136552380D02*
X153823809Y-135552380D01*
X153728571Y-135695238D01*
X153633333Y-135790476D01*
X153538095Y-135838095D01*
%TO.C,Q2*%
X139304761Y-130397619D02*
X139209523Y-130350000D01*
X139114285Y-130254761D01*
X138971428Y-130111904D01*
X138876190Y-130064285D01*
X138780952Y-130064285D01*
X138828571Y-130302380D02*
X138733333Y-130254761D01*
X138638095Y-130159523D01*
X138590476Y-129969047D01*
X138590476Y-129635714D01*
X138638095Y-129445238D01*
X138733333Y-129350000D01*
X138828571Y-129302380D01*
X139019047Y-129302380D01*
X139114285Y-129350000D01*
X139209523Y-129445238D01*
X139257142Y-129635714D01*
X139257142Y-129969047D01*
X139209523Y-130159523D01*
X139114285Y-130254761D01*
X139019047Y-130302380D01*
X138828571Y-130302380D01*
X139638095Y-129397619D02*
X139685714Y-129350000D01*
X139780952Y-129302380D01*
X140019047Y-129302380D01*
X140114285Y-129350000D01*
X140161904Y-129397619D01*
X140209523Y-129492857D01*
X140209523Y-129588095D01*
X140161904Y-129730952D01*
X139590476Y-130302380D01*
X140209523Y-130302380D01*
%TO.C,R1*%
X172008333Y-118027380D02*
X171675000Y-117551190D01*
X171436904Y-118027380D02*
X171436904Y-117027380D01*
X171817857Y-117027380D01*
X171913095Y-117075000D01*
X171960714Y-117122619D01*
X172008333Y-117217857D01*
X172008333Y-117360714D01*
X171960714Y-117455952D01*
X171913095Y-117503571D01*
X171817857Y-117551190D01*
X171436904Y-117551190D01*
X172960714Y-118027380D02*
X172389285Y-118027380D01*
X172675000Y-118027380D02*
X172675000Y-117027380D01*
X172579761Y-117170238D01*
X172484523Y-117265476D01*
X172389285Y-117313095D01*
%TO.C,R2*%
X173933333Y-113277380D02*
X173600000Y-112801190D01*
X173361904Y-113277380D02*
X173361904Y-112277380D01*
X173742857Y-112277380D01*
X173838095Y-112325000D01*
X173885714Y-112372619D01*
X173933333Y-112467857D01*
X173933333Y-112610714D01*
X173885714Y-112705952D01*
X173838095Y-112753571D01*
X173742857Y-112801190D01*
X173361904Y-112801190D01*
X174314285Y-112372619D02*
X174361904Y-112325000D01*
X174457142Y-112277380D01*
X174695238Y-112277380D01*
X174790476Y-112325000D01*
X174838095Y-112372619D01*
X174885714Y-112467857D01*
X174885714Y-112563095D01*
X174838095Y-112705952D01*
X174266666Y-113277380D01*
X174885714Y-113277380D01*
%TO.C,R3*%
X165033333Y-114602380D02*
X164700000Y-114126190D01*
X164461904Y-114602380D02*
X164461904Y-113602380D01*
X164842857Y-113602380D01*
X164938095Y-113650000D01*
X164985714Y-113697619D01*
X165033333Y-113792857D01*
X165033333Y-113935714D01*
X164985714Y-114030952D01*
X164938095Y-114078571D01*
X164842857Y-114126190D01*
X164461904Y-114126190D01*
X165366666Y-113602380D02*
X165985714Y-113602380D01*
X165652380Y-113983333D01*
X165795238Y-113983333D01*
X165890476Y-114030952D01*
X165938095Y-114078571D01*
X165985714Y-114173809D01*
X165985714Y-114411904D01*
X165938095Y-114507142D01*
X165890476Y-114554761D01*
X165795238Y-114602380D01*
X165509523Y-114602380D01*
X165414285Y-114554761D01*
X165366666Y-114507142D01*
%TO.C,R4*%
X148633333Y-101152380D02*
X148300000Y-100676190D01*
X148061904Y-101152380D02*
X148061904Y-100152380D01*
X148442857Y-100152380D01*
X148538095Y-100200000D01*
X148585714Y-100247619D01*
X148633333Y-100342857D01*
X148633333Y-100485714D01*
X148585714Y-100580952D01*
X148538095Y-100628571D01*
X148442857Y-100676190D01*
X148061904Y-100676190D01*
X149490476Y-100485714D02*
X149490476Y-101152380D01*
X149252380Y-100104761D02*
X149014285Y-100819047D01*
X149633333Y-100819047D01*
%TO.C,R5*%
X140683333Y-108302380D02*
X140350000Y-107826190D01*
X140111904Y-108302380D02*
X140111904Y-107302380D01*
X140492857Y-107302380D01*
X140588095Y-107350000D01*
X140635714Y-107397619D01*
X140683333Y-107492857D01*
X140683333Y-107635714D01*
X140635714Y-107730952D01*
X140588095Y-107778571D01*
X140492857Y-107826190D01*
X140111904Y-107826190D01*
X141588095Y-107302380D02*
X141111904Y-107302380D01*
X141064285Y-107778571D01*
X141111904Y-107730952D01*
X141207142Y-107683333D01*
X141445238Y-107683333D01*
X141540476Y-107730952D01*
X141588095Y-107778571D01*
X141635714Y-107873809D01*
X141635714Y-108111904D01*
X141588095Y-108207142D01*
X141540476Y-108254761D01*
X141445238Y-108302380D01*
X141207142Y-108302380D01*
X141111904Y-108254761D01*
X141064285Y-108207142D01*
%TO.C,R6*%
X150152380Y-137116666D02*
X149676190Y-137450000D01*
X150152380Y-137688095D02*
X149152380Y-137688095D01*
X149152380Y-137307142D01*
X149200000Y-137211904D01*
X149247619Y-137164285D01*
X149342857Y-137116666D01*
X149485714Y-137116666D01*
X149580952Y-137164285D01*
X149628571Y-137211904D01*
X149676190Y-137307142D01*
X149676190Y-137688095D01*
X149152380Y-136259523D02*
X149152380Y-136450000D01*
X149200000Y-136545238D01*
X149247619Y-136592857D01*
X149390476Y-136688095D01*
X149580952Y-136735714D01*
X149961904Y-136735714D01*
X150057142Y-136688095D01*
X150104761Y-136640476D01*
X150152380Y-136545238D01*
X150152380Y-136354761D01*
X150104761Y-136259523D01*
X150057142Y-136211904D01*
X149961904Y-136164285D01*
X149723809Y-136164285D01*
X149628571Y-136211904D01*
X149580952Y-136259523D01*
X149533333Y-136354761D01*
X149533333Y-136545238D01*
X149580952Y-136640476D01*
X149628571Y-136688095D01*
X149723809Y-136735714D01*
%TO.C,R7*%
X150433333Y-126652380D02*
X150100000Y-126176190D01*
X149861904Y-126652380D02*
X149861904Y-125652380D01*
X150242857Y-125652380D01*
X150338095Y-125700000D01*
X150385714Y-125747619D01*
X150433333Y-125842857D01*
X150433333Y-125985714D01*
X150385714Y-126080952D01*
X150338095Y-126128571D01*
X150242857Y-126176190D01*
X149861904Y-126176190D01*
X150766666Y-125652380D02*
X151433333Y-125652380D01*
X151004761Y-126652380D01*
%TO.C,R8*%
X176383333Y-137152380D02*
X176050000Y-136676190D01*
X175811904Y-137152380D02*
X175811904Y-136152380D01*
X176192857Y-136152380D01*
X176288095Y-136200000D01*
X176335714Y-136247619D01*
X176383333Y-136342857D01*
X176383333Y-136485714D01*
X176335714Y-136580952D01*
X176288095Y-136628571D01*
X176192857Y-136676190D01*
X175811904Y-136676190D01*
X176954761Y-136580952D02*
X176859523Y-136533333D01*
X176811904Y-136485714D01*
X176764285Y-136390476D01*
X176764285Y-136342857D01*
X176811904Y-136247619D01*
X176859523Y-136200000D01*
X176954761Y-136152380D01*
X177145238Y-136152380D01*
X177240476Y-136200000D01*
X177288095Y-136247619D01*
X177335714Y-136342857D01*
X177335714Y-136390476D01*
X177288095Y-136485714D01*
X177240476Y-136533333D01*
X177145238Y-136580952D01*
X176954761Y-136580952D01*
X176859523Y-136628571D01*
X176811904Y-136676190D01*
X176764285Y-136771428D01*
X176764285Y-136961904D01*
X176811904Y-137057142D01*
X176859523Y-137104761D01*
X176954761Y-137152380D01*
X177145238Y-137152380D01*
X177240476Y-137104761D01*
X177288095Y-137057142D01*
X177335714Y-136961904D01*
X177335714Y-136771428D01*
X177288095Y-136676190D01*
X177240476Y-136628571D01*
X177145238Y-136580952D01*
%TO.C,R9*%
X169708333Y-135552380D02*
X169375000Y-135076190D01*
X169136904Y-135552380D02*
X169136904Y-134552380D01*
X169517857Y-134552380D01*
X169613095Y-134600000D01*
X169660714Y-134647619D01*
X169708333Y-134742857D01*
X169708333Y-134885714D01*
X169660714Y-134980952D01*
X169613095Y-135028571D01*
X169517857Y-135076190D01*
X169136904Y-135076190D01*
X170184523Y-135552380D02*
X170375000Y-135552380D01*
X170470238Y-135504761D01*
X170517857Y-135457142D01*
X170613095Y-135314285D01*
X170660714Y-135123809D01*
X170660714Y-134742857D01*
X170613095Y-134647619D01*
X170565476Y-134600000D01*
X170470238Y-134552380D01*
X170279761Y-134552380D01*
X170184523Y-134600000D01*
X170136904Y-134647619D01*
X170089285Y-134742857D01*
X170089285Y-134980952D01*
X170136904Y-135076190D01*
X170184523Y-135123809D01*
X170279761Y-135171428D01*
X170470238Y-135171428D01*
X170565476Y-135123809D01*
X170613095Y-135076190D01*
X170660714Y-134980952D01*
%TO.C,R10*%
X165107142Y-136502380D02*
X164773809Y-136026190D01*
X164535714Y-136502380D02*
X164535714Y-135502380D01*
X164916666Y-135502380D01*
X165011904Y-135550000D01*
X165059523Y-135597619D01*
X165107142Y-135692857D01*
X165107142Y-135835714D01*
X165059523Y-135930952D01*
X165011904Y-135978571D01*
X164916666Y-136026190D01*
X164535714Y-136026190D01*
X166059523Y-136502380D02*
X165488095Y-136502380D01*
X165773809Y-136502380D02*
X165773809Y-135502380D01*
X165678571Y-135645238D01*
X165583333Y-135740476D01*
X165488095Y-135788095D01*
X166678571Y-135502380D02*
X166773809Y-135502380D01*
X166869047Y-135550000D01*
X166916666Y-135597619D01*
X166964285Y-135692857D01*
X167011904Y-135883333D01*
X167011904Y-136121428D01*
X166964285Y-136311904D01*
X166916666Y-136407142D01*
X166869047Y-136454761D01*
X166773809Y-136502380D01*
X166678571Y-136502380D01*
X166583333Y-136454761D01*
X166535714Y-136407142D01*
X166488095Y-136311904D01*
X166440476Y-136121428D01*
X166440476Y-135883333D01*
X166488095Y-135692857D01*
X166535714Y-135597619D01*
X166583333Y-135550000D01*
X166678571Y-135502380D01*
%TO.C,R11*%
X132457142Y-109902380D02*
X132123809Y-109426190D01*
X131885714Y-109902380D02*
X131885714Y-108902380D01*
X132266666Y-108902380D01*
X132361904Y-108950000D01*
X132409523Y-108997619D01*
X132457142Y-109092857D01*
X132457142Y-109235714D01*
X132409523Y-109330952D01*
X132361904Y-109378571D01*
X132266666Y-109426190D01*
X131885714Y-109426190D01*
X133409523Y-109902380D02*
X132838095Y-109902380D01*
X133123809Y-109902380D02*
X133123809Y-108902380D01*
X133028571Y-109045238D01*
X132933333Y-109140476D01*
X132838095Y-109188095D01*
X134361904Y-109902380D02*
X133790476Y-109902380D01*
X134076190Y-109902380D02*
X134076190Y-108902380D01*
X133980952Y-109045238D01*
X133885714Y-109140476D01*
X133790476Y-109188095D01*
%TO.C,R12*%
X133100549Y-107465312D02*
X133201564Y-106892893D01*
X132696488Y-107061251D02*
X133403595Y-106354145D01*
X133672969Y-106623519D01*
X133706641Y-106724534D01*
X133706641Y-106791877D01*
X133672969Y-106892893D01*
X133571954Y-106993908D01*
X133470938Y-107027580D01*
X133403595Y-107027580D01*
X133302580Y-106993908D01*
X133033206Y-106724534D01*
X133773984Y-108138748D02*
X133369923Y-107734687D01*
X133571954Y-107936717D02*
X134279061Y-107229610D01*
X134110702Y-107263282D01*
X133976015Y-107263282D01*
X133875000Y-107229610D01*
X134683122Y-107768358D02*
X134750465Y-107768358D01*
X134851480Y-107802030D01*
X135019839Y-107970389D01*
X135053511Y-108071404D01*
X135053511Y-108138748D01*
X135019839Y-108239763D01*
X134952496Y-108307106D01*
X134817809Y-108374450D01*
X134009687Y-108374450D01*
X134447419Y-108812183D01*
%TO.C,R13*%
X136157142Y-113952380D02*
X135823809Y-113476190D01*
X135585714Y-113952380D02*
X135585714Y-112952380D01*
X135966666Y-112952380D01*
X136061904Y-113000000D01*
X136109523Y-113047619D01*
X136157142Y-113142857D01*
X136157142Y-113285714D01*
X136109523Y-113380952D01*
X136061904Y-113428571D01*
X135966666Y-113476190D01*
X135585714Y-113476190D01*
X137109523Y-113952380D02*
X136538095Y-113952380D01*
X136823809Y-113952380D02*
X136823809Y-112952380D01*
X136728571Y-113095238D01*
X136633333Y-113190476D01*
X136538095Y-113238095D01*
X137442857Y-112952380D02*
X138061904Y-112952380D01*
X137728571Y-113333333D01*
X137871428Y-113333333D01*
X137966666Y-113380952D01*
X138014285Y-113428571D01*
X138061904Y-113523809D01*
X138061904Y-113761904D01*
X138014285Y-113857142D01*
X137966666Y-113904761D01*
X137871428Y-113952380D01*
X137585714Y-113952380D01*
X137490476Y-113904761D01*
X137442857Y-113857142D01*
%TO.C,R14*%
X138907142Y-121027380D02*
X138573809Y-120551190D01*
X138335714Y-121027380D02*
X138335714Y-120027380D01*
X138716666Y-120027380D01*
X138811904Y-120075000D01*
X138859523Y-120122619D01*
X138907142Y-120217857D01*
X138907142Y-120360714D01*
X138859523Y-120455952D01*
X138811904Y-120503571D01*
X138716666Y-120551190D01*
X138335714Y-120551190D01*
X139859523Y-121027380D02*
X139288095Y-121027380D01*
X139573809Y-121027380D02*
X139573809Y-120027380D01*
X139478571Y-120170238D01*
X139383333Y-120265476D01*
X139288095Y-120313095D01*
X140716666Y-120360714D02*
X140716666Y-121027380D01*
X140478571Y-119979761D02*
X140240476Y-120694047D01*
X140859523Y-120694047D01*
%TO.C,R15*%
X136007142Y-121002380D02*
X135673809Y-120526190D01*
X135435714Y-121002380D02*
X135435714Y-120002380D01*
X135816666Y-120002380D01*
X135911904Y-120050000D01*
X135959523Y-120097619D01*
X136007142Y-120192857D01*
X136007142Y-120335714D01*
X135959523Y-120430952D01*
X135911904Y-120478571D01*
X135816666Y-120526190D01*
X135435714Y-120526190D01*
X136959523Y-121002380D02*
X136388095Y-121002380D01*
X136673809Y-121002380D02*
X136673809Y-120002380D01*
X136578571Y-120145238D01*
X136483333Y-120240476D01*
X136388095Y-120288095D01*
X137864285Y-120002380D02*
X137388095Y-120002380D01*
X137340476Y-120478571D01*
X137388095Y-120430952D01*
X137483333Y-120383333D01*
X137721428Y-120383333D01*
X137816666Y-120430952D01*
X137864285Y-120478571D01*
X137911904Y-120573809D01*
X137911904Y-120811904D01*
X137864285Y-120907142D01*
X137816666Y-120954761D01*
X137721428Y-121002380D01*
X137483333Y-121002380D01*
X137388095Y-120954761D01*
X137340476Y-120907142D01*
%TO.C,R16*%
X158007142Y-131102380D02*
X157673809Y-130626190D01*
X157435714Y-131102380D02*
X157435714Y-130102380D01*
X157816666Y-130102380D01*
X157911904Y-130150000D01*
X157959523Y-130197619D01*
X158007142Y-130292857D01*
X158007142Y-130435714D01*
X157959523Y-130530952D01*
X157911904Y-130578571D01*
X157816666Y-130626190D01*
X157435714Y-130626190D01*
X158959523Y-131102380D02*
X158388095Y-131102380D01*
X158673809Y-131102380D02*
X158673809Y-130102380D01*
X158578571Y-130245238D01*
X158483333Y-130340476D01*
X158388095Y-130388095D01*
X159816666Y-130102380D02*
X159626190Y-130102380D01*
X159530952Y-130150000D01*
X159483333Y-130197619D01*
X159388095Y-130340476D01*
X159340476Y-130530952D01*
X159340476Y-130911904D01*
X159388095Y-131007142D01*
X159435714Y-131054761D01*
X159530952Y-131102380D01*
X159721428Y-131102380D01*
X159816666Y-131054761D01*
X159864285Y-131007142D01*
X159911904Y-130911904D01*
X159911904Y-130673809D01*
X159864285Y-130578571D01*
X159816666Y-130530952D01*
X159721428Y-130483333D01*
X159530952Y-130483333D01*
X159435714Y-130530952D01*
X159388095Y-130578571D01*
X159340476Y-130673809D01*
%TO.C,R17*%
X152507142Y-106202380D02*
X152173809Y-105726190D01*
X151935714Y-106202380D02*
X151935714Y-105202380D01*
X152316666Y-105202380D01*
X152411904Y-105250000D01*
X152459523Y-105297619D01*
X152507142Y-105392857D01*
X152507142Y-105535714D01*
X152459523Y-105630952D01*
X152411904Y-105678571D01*
X152316666Y-105726190D01*
X151935714Y-105726190D01*
X153459523Y-106202380D02*
X152888095Y-106202380D01*
X153173809Y-106202380D02*
X153173809Y-105202380D01*
X153078571Y-105345238D01*
X152983333Y-105440476D01*
X152888095Y-105488095D01*
X153792857Y-105202380D02*
X154459523Y-105202380D01*
X154030952Y-106202380D01*
%TO.C,R18*%
X155152380Y-114017857D02*
X154676190Y-114351190D01*
X155152380Y-114589285D02*
X154152380Y-114589285D01*
X154152380Y-114208333D01*
X154200000Y-114113095D01*
X154247619Y-114065476D01*
X154342857Y-114017857D01*
X154485714Y-114017857D01*
X154580952Y-114065476D01*
X154628571Y-114113095D01*
X154676190Y-114208333D01*
X154676190Y-114589285D01*
X155152380Y-113065476D02*
X155152380Y-113636904D01*
X155152380Y-113351190D02*
X154152380Y-113351190D01*
X154295238Y-113446428D01*
X154390476Y-113541666D01*
X154438095Y-113636904D01*
X154580952Y-112494047D02*
X154533333Y-112589285D01*
X154485714Y-112636904D01*
X154390476Y-112684523D01*
X154342857Y-112684523D01*
X154247619Y-112636904D01*
X154200000Y-112589285D01*
X154152380Y-112494047D01*
X154152380Y-112303571D01*
X154200000Y-112208333D01*
X154247619Y-112160714D01*
X154342857Y-112113095D01*
X154390476Y-112113095D01*
X154485714Y-112160714D01*
X154533333Y-112208333D01*
X154580952Y-112303571D01*
X154580952Y-112494047D01*
X154628571Y-112589285D01*
X154676190Y-112636904D01*
X154771428Y-112684523D01*
X154961904Y-112684523D01*
X155057142Y-112636904D01*
X155104761Y-112589285D01*
X155152380Y-112494047D01*
X155152380Y-112303571D01*
X155104761Y-112208333D01*
X155057142Y-112160714D01*
X154961904Y-112113095D01*
X154771428Y-112113095D01*
X154676190Y-112160714D01*
X154628571Y-112208333D01*
X154580952Y-112303571D01*
%TO.C,R20*%
X144487380Y-137487857D02*
X144011190Y-137821190D01*
X144487380Y-138059285D02*
X143487380Y-138059285D01*
X143487380Y-137678333D01*
X143535000Y-137583095D01*
X143582619Y-137535476D01*
X143677857Y-137487857D01*
X143820714Y-137487857D01*
X143915952Y-137535476D01*
X143963571Y-137583095D01*
X144011190Y-137678333D01*
X144011190Y-138059285D01*
X143582619Y-137106904D02*
X143535000Y-137059285D01*
X143487380Y-136964047D01*
X143487380Y-136725952D01*
X143535000Y-136630714D01*
X143582619Y-136583095D01*
X143677857Y-136535476D01*
X143773095Y-136535476D01*
X143915952Y-136583095D01*
X144487380Y-137154523D01*
X144487380Y-136535476D01*
X143487380Y-135916428D02*
X143487380Y-135821190D01*
X143535000Y-135725952D01*
X143582619Y-135678333D01*
X143677857Y-135630714D01*
X143868333Y-135583095D01*
X144106428Y-135583095D01*
X144296904Y-135630714D01*
X144392142Y-135678333D01*
X144439761Y-135725952D01*
X144487380Y-135821190D01*
X144487380Y-135916428D01*
X144439761Y-136011666D01*
X144392142Y-136059285D01*
X144296904Y-136106904D01*
X144106428Y-136154523D01*
X143868333Y-136154523D01*
X143677857Y-136106904D01*
X143582619Y-136059285D01*
X143535000Y-136011666D01*
X143487380Y-135916428D01*
%TO.C,R21*%
X141007142Y-126602380D02*
X140673809Y-126126190D01*
X140435714Y-126602380D02*
X140435714Y-125602380D01*
X140816666Y-125602380D01*
X140911904Y-125650000D01*
X140959523Y-125697619D01*
X141007142Y-125792857D01*
X141007142Y-125935714D01*
X140959523Y-126030952D01*
X140911904Y-126078571D01*
X140816666Y-126126190D01*
X140435714Y-126126190D01*
X141388095Y-125697619D02*
X141435714Y-125650000D01*
X141530952Y-125602380D01*
X141769047Y-125602380D01*
X141864285Y-125650000D01*
X141911904Y-125697619D01*
X141959523Y-125792857D01*
X141959523Y-125888095D01*
X141911904Y-126030952D01*
X141340476Y-126602380D01*
X141959523Y-126602380D01*
X142911904Y-126602380D02*
X142340476Y-126602380D01*
X142626190Y-126602380D02*
X142626190Y-125602380D01*
X142530952Y-125745238D01*
X142435714Y-125840476D01*
X142340476Y-125888095D01*
%TO.C,R22*%
X125452779Y-93315632D02*
X125119446Y-92839442D01*
X124881351Y-93315632D02*
X124881351Y-92315632D01*
X125262303Y-92315632D01*
X125357541Y-92363252D01*
X125405160Y-92410871D01*
X125452779Y-92506109D01*
X125452779Y-92648966D01*
X125405160Y-92744204D01*
X125357541Y-92791823D01*
X125262303Y-92839442D01*
X124881351Y-92839442D01*
X125833732Y-92410871D02*
X125881351Y-92363252D01*
X125976589Y-92315632D01*
X126214684Y-92315632D01*
X126309922Y-92363252D01*
X126357541Y-92410871D01*
X126405160Y-92506109D01*
X126405160Y-92601347D01*
X126357541Y-92744204D01*
X125786113Y-93315632D01*
X126405160Y-93315632D01*
X126786113Y-92410871D02*
X126833732Y-92363252D01*
X126928970Y-92315632D01*
X127167065Y-92315632D01*
X127262303Y-92363252D01*
X127309922Y-92410871D01*
X127357541Y-92506109D01*
X127357541Y-92601347D01*
X127309922Y-92744204D01*
X126738494Y-93315632D01*
X127357541Y-93315632D01*
%TO.C,R23*%
X131277380Y-92767857D02*
X130801190Y-93101190D01*
X131277380Y-93339285D02*
X130277380Y-93339285D01*
X130277380Y-92958333D01*
X130325000Y-92863095D01*
X130372619Y-92815476D01*
X130467857Y-92767857D01*
X130610714Y-92767857D01*
X130705952Y-92815476D01*
X130753571Y-92863095D01*
X130801190Y-92958333D01*
X130801190Y-93339285D01*
X130372619Y-92386904D02*
X130325000Y-92339285D01*
X130277380Y-92244047D01*
X130277380Y-92005952D01*
X130325000Y-91910714D01*
X130372619Y-91863095D01*
X130467857Y-91815476D01*
X130563095Y-91815476D01*
X130705952Y-91863095D01*
X131277380Y-92434523D01*
X131277380Y-91815476D01*
X130277380Y-91482142D02*
X130277380Y-90863095D01*
X130658333Y-91196428D01*
X130658333Y-91053571D01*
X130705952Y-90958333D01*
X130753571Y-90910714D01*
X130848809Y-90863095D01*
X131086904Y-90863095D01*
X131182142Y-90910714D01*
X131229761Y-90958333D01*
X131277380Y-91053571D01*
X131277380Y-91339285D01*
X131229761Y-91434523D01*
X131182142Y-91482142D01*
%TO.C,R24*%
X132307142Y-99202380D02*
X131973809Y-98726190D01*
X131735714Y-99202380D02*
X131735714Y-98202380D01*
X132116666Y-98202380D01*
X132211904Y-98250000D01*
X132259523Y-98297619D01*
X132307142Y-98392857D01*
X132307142Y-98535714D01*
X132259523Y-98630952D01*
X132211904Y-98678571D01*
X132116666Y-98726190D01*
X131735714Y-98726190D01*
X132688095Y-98297619D02*
X132735714Y-98250000D01*
X132830952Y-98202380D01*
X133069047Y-98202380D01*
X133164285Y-98250000D01*
X133211904Y-98297619D01*
X133259523Y-98392857D01*
X133259523Y-98488095D01*
X133211904Y-98630952D01*
X132640476Y-99202380D01*
X133259523Y-99202380D01*
X134116666Y-98535714D02*
X134116666Y-99202380D01*
X133878571Y-98154761D02*
X133640476Y-98869047D01*
X134259523Y-98869047D01*
%TO.C,R25*%
X130232142Y-106027380D02*
X129898809Y-105551190D01*
X129660714Y-106027380D02*
X129660714Y-105027380D01*
X130041666Y-105027380D01*
X130136904Y-105075000D01*
X130184523Y-105122619D01*
X130232142Y-105217857D01*
X130232142Y-105360714D01*
X130184523Y-105455952D01*
X130136904Y-105503571D01*
X130041666Y-105551190D01*
X129660714Y-105551190D01*
X130613095Y-105122619D02*
X130660714Y-105075000D01*
X130755952Y-105027380D01*
X130994047Y-105027380D01*
X131089285Y-105075000D01*
X131136904Y-105122619D01*
X131184523Y-105217857D01*
X131184523Y-105313095D01*
X131136904Y-105455952D01*
X130565476Y-106027380D01*
X131184523Y-106027380D01*
X132089285Y-105027380D02*
X131613095Y-105027380D01*
X131565476Y-105503571D01*
X131613095Y-105455952D01*
X131708333Y-105408333D01*
X131946428Y-105408333D01*
X132041666Y-105455952D01*
X132089285Y-105503571D01*
X132136904Y-105598809D01*
X132136904Y-105836904D01*
X132089285Y-105932142D01*
X132041666Y-105979761D01*
X131946428Y-106027380D01*
X131708333Y-106027380D01*
X131613095Y-105979761D01*
X131565476Y-105932142D01*
%TO.C,R26*%
X130232142Y-104752380D02*
X129898809Y-104276190D01*
X129660714Y-104752380D02*
X129660714Y-103752380D01*
X130041666Y-103752380D01*
X130136904Y-103800000D01*
X130184523Y-103847619D01*
X130232142Y-103942857D01*
X130232142Y-104085714D01*
X130184523Y-104180952D01*
X130136904Y-104228571D01*
X130041666Y-104276190D01*
X129660714Y-104276190D01*
X130613095Y-103847619D02*
X130660714Y-103800000D01*
X130755952Y-103752380D01*
X130994047Y-103752380D01*
X131089285Y-103800000D01*
X131136904Y-103847619D01*
X131184523Y-103942857D01*
X131184523Y-104038095D01*
X131136904Y-104180952D01*
X130565476Y-104752380D01*
X131184523Y-104752380D01*
X132041666Y-103752380D02*
X131851190Y-103752380D01*
X131755952Y-103800000D01*
X131708333Y-103847619D01*
X131613095Y-103990476D01*
X131565476Y-104180952D01*
X131565476Y-104561904D01*
X131613095Y-104657142D01*
X131660714Y-104704761D01*
X131755952Y-104752380D01*
X131946428Y-104752380D01*
X132041666Y-104704761D01*
X132089285Y-104657142D01*
X132136904Y-104561904D01*
X132136904Y-104323809D01*
X132089285Y-104228571D01*
X132041666Y-104180952D01*
X131946428Y-104133333D01*
X131755952Y-104133333D01*
X131660714Y-104180952D01*
X131613095Y-104228571D01*
X131565476Y-104323809D01*
%TO.C,R27*%
X135357142Y-129652380D02*
X135023809Y-129176190D01*
X134785714Y-129652380D02*
X134785714Y-128652380D01*
X135166666Y-128652380D01*
X135261904Y-128700000D01*
X135309523Y-128747619D01*
X135357142Y-128842857D01*
X135357142Y-128985714D01*
X135309523Y-129080952D01*
X135261904Y-129128571D01*
X135166666Y-129176190D01*
X134785714Y-129176190D01*
X135738095Y-128747619D02*
X135785714Y-128700000D01*
X135880952Y-128652380D01*
X136119047Y-128652380D01*
X136214285Y-128700000D01*
X136261904Y-128747619D01*
X136309523Y-128842857D01*
X136309523Y-128938095D01*
X136261904Y-129080952D01*
X135690476Y-129652380D01*
X136309523Y-129652380D01*
X136642857Y-128652380D02*
X137309523Y-128652380D01*
X136880952Y-129652380D01*
%TO.C,R28*%
X137607142Y-149402380D02*
X137273809Y-148926190D01*
X137035714Y-149402380D02*
X137035714Y-148402380D01*
X137416666Y-148402380D01*
X137511904Y-148450000D01*
X137559523Y-148497619D01*
X137607142Y-148592857D01*
X137607142Y-148735714D01*
X137559523Y-148830952D01*
X137511904Y-148878571D01*
X137416666Y-148926190D01*
X137035714Y-148926190D01*
X137988095Y-148497619D02*
X138035714Y-148450000D01*
X138130952Y-148402380D01*
X138369047Y-148402380D01*
X138464285Y-148450000D01*
X138511904Y-148497619D01*
X138559523Y-148592857D01*
X138559523Y-148688095D01*
X138511904Y-148830952D01*
X137940476Y-149402380D01*
X138559523Y-149402380D01*
X139130952Y-148830952D02*
X139035714Y-148783333D01*
X138988095Y-148735714D01*
X138940476Y-148640476D01*
X138940476Y-148592857D01*
X138988095Y-148497619D01*
X139035714Y-148450000D01*
X139130952Y-148402380D01*
X139321428Y-148402380D01*
X139416666Y-148450000D01*
X139464285Y-148497619D01*
X139511904Y-148592857D01*
X139511904Y-148640476D01*
X139464285Y-148735714D01*
X139416666Y-148783333D01*
X139321428Y-148830952D01*
X139130952Y-148830952D01*
X139035714Y-148878571D01*
X138988095Y-148926190D01*
X138940476Y-149021428D01*
X138940476Y-149211904D01*
X138988095Y-149307142D01*
X139035714Y-149354761D01*
X139130952Y-149402380D01*
X139321428Y-149402380D01*
X139416666Y-149354761D01*
X139464285Y-149307142D01*
X139511904Y-149211904D01*
X139511904Y-149021428D01*
X139464285Y-148926190D01*
X139416666Y-148878571D01*
X139321428Y-148830952D01*
%TO.C,R29*%
X141502380Y-153242857D02*
X141026190Y-153576190D01*
X141502380Y-153814285D02*
X140502380Y-153814285D01*
X140502380Y-153433333D01*
X140550000Y-153338095D01*
X140597619Y-153290476D01*
X140692857Y-153242857D01*
X140835714Y-153242857D01*
X140930952Y-153290476D01*
X140978571Y-153338095D01*
X141026190Y-153433333D01*
X141026190Y-153814285D01*
X140597619Y-152861904D02*
X140550000Y-152814285D01*
X140502380Y-152719047D01*
X140502380Y-152480952D01*
X140550000Y-152385714D01*
X140597619Y-152338095D01*
X140692857Y-152290476D01*
X140788095Y-152290476D01*
X140930952Y-152338095D01*
X141502380Y-152909523D01*
X141502380Y-152290476D01*
X141502380Y-151814285D02*
X141502380Y-151623809D01*
X141454761Y-151528571D01*
X141407142Y-151480952D01*
X141264285Y-151385714D01*
X141073809Y-151338095D01*
X140692857Y-151338095D01*
X140597619Y-151385714D01*
X140550000Y-151433333D01*
X140502380Y-151528571D01*
X140502380Y-151719047D01*
X140550000Y-151814285D01*
X140597619Y-151861904D01*
X140692857Y-151909523D01*
X140930952Y-151909523D01*
X141026190Y-151861904D01*
X141073809Y-151814285D01*
X141121428Y-151719047D01*
X141121428Y-151528571D01*
X141073809Y-151433333D01*
X141026190Y-151385714D01*
X140930952Y-151338095D01*
%TO.C,R30*%
X151807142Y-116952380D02*
X151473809Y-116476190D01*
X151235714Y-116952380D02*
X151235714Y-115952380D01*
X151616666Y-115952380D01*
X151711904Y-116000000D01*
X151759523Y-116047619D01*
X151807142Y-116142857D01*
X151807142Y-116285714D01*
X151759523Y-116380952D01*
X151711904Y-116428571D01*
X151616666Y-116476190D01*
X151235714Y-116476190D01*
X152140476Y-115952380D02*
X152759523Y-115952380D01*
X152426190Y-116333333D01*
X152569047Y-116333333D01*
X152664285Y-116380952D01*
X152711904Y-116428571D01*
X152759523Y-116523809D01*
X152759523Y-116761904D01*
X152711904Y-116857142D01*
X152664285Y-116904761D01*
X152569047Y-116952380D01*
X152283333Y-116952380D01*
X152188095Y-116904761D01*
X152140476Y-116857142D01*
X153378571Y-115952380D02*
X153473809Y-115952380D01*
X153569047Y-116000000D01*
X153616666Y-116047619D01*
X153664285Y-116142857D01*
X153711904Y-116333333D01*
X153711904Y-116571428D01*
X153664285Y-116761904D01*
X153616666Y-116857142D01*
X153569047Y-116904761D01*
X153473809Y-116952380D01*
X153378571Y-116952380D01*
X153283333Y-116904761D01*
X153235714Y-116857142D01*
X153188095Y-116761904D01*
X153140476Y-116571428D01*
X153140476Y-116333333D01*
X153188095Y-116142857D01*
X153235714Y-116047619D01*
X153283333Y-116000000D01*
X153378571Y-115952380D01*
%TO.C,R33*%
X141502380Y-156042857D02*
X141026190Y-156376190D01*
X141502380Y-156614285D02*
X140502380Y-156614285D01*
X140502380Y-156233333D01*
X140550000Y-156138095D01*
X140597619Y-156090476D01*
X140692857Y-156042857D01*
X140835714Y-156042857D01*
X140930952Y-156090476D01*
X140978571Y-156138095D01*
X141026190Y-156233333D01*
X141026190Y-156614285D01*
X140502380Y-155709523D02*
X140502380Y-155090476D01*
X140883333Y-155423809D01*
X140883333Y-155280952D01*
X140930952Y-155185714D01*
X140978571Y-155138095D01*
X141073809Y-155090476D01*
X141311904Y-155090476D01*
X141407142Y-155138095D01*
X141454761Y-155185714D01*
X141502380Y-155280952D01*
X141502380Y-155566666D01*
X141454761Y-155661904D01*
X141407142Y-155709523D01*
X140502380Y-154757142D02*
X140502380Y-154138095D01*
X140883333Y-154471428D01*
X140883333Y-154328571D01*
X140930952Y-154233333D01*
X140978571Y-154185714D01*
X141073809Y-154138095D01*
X141311904Y-154138095D01*
X141407142Y-154185714D01*
X141454761Y-154233333D01*
X141502380Y-154328571D01*
X141502380Y-154614285D01*
X141454761Y-154709523D01*
X141407142Y-154757142D01*
%TO.C,R34*%
X141402380Y-158842857D02*
X140926190Y-159176190D01*
X141402380Y-159414285D02*
X140402380Y-159414285D01*
X140402380Y-159033333D01*
X140450000Y-158938095D01*
X140497619Y-158890476D01*
X140592857Y-158842857D01*
X140735714Y-158842857D01*
X140830952Y-158890476D01*
X140878571Y-158938095D01*
X140926190Y-159033333D01*
X140926190Y-159414285D01*
X140402380Y-158509523D02*
X140402380Y-157890476D01*
X140783333Y-158223809D01*
X140783333Y-158080952D01*
X140830952Y-157985714D01*
X140878571Y-157938095D01*
X140973809Y-157890476D01*
X141211904Y-157890476D01*
X141307142Y-157938095D01*
X141354761Y-157985714D01*
X141402380Y-158080952D01*
X141402380Y-158366666D01*
X141354761Y-158461904D01*
X141307142Y-158509523D01*
X140735714Y-157033333D02*
X141402380Y-157033333D01*
X140354761Y-157271428D02*
X141069047Y-157509523D01*
X141069047Y-156890476D01*
%TO.C,R35*%
X160955222Y-96788008D02*
X160479032Y-97121341D01*
X160955222Y-97359436D02*
X159955222Y-97359436D01*
X159955222Y-96978484D01*
X160002842Y-96883246D01*
X160050461Y-96835627D01*
X160145699Y-96788008D01*
X160288556Y-96788008D01*
X160383794Y-96835627D01*
X160431413Y-96883246D01*
X160479032Y-96978484D01*
X160479032Y-97359436D01*
X159955222Y-96454674D02*
X159955222Y-95835627D01*
X160336175Y-96168960D01*
X160336175Y-96026103D01*
X160383794Y-95930865D01*
X160431413Y-95883246D01*
X160526651Y-95835627D01*
X160764746Y-95835627D01*
X160859984Y-95883246D01*
X160907603Y-95930865D01*
X160955222Y-96026103D01*
X160955222Y-96311817D01*
X160907603Y-96407055D01*
X160859984Y-96454674D01*
X159955222Y-94930865D02*
X159955222Y-95407055D01*
X160431413Y-95454674D01*
X160383794Y-95407055D01*
X160336175Y-95311817D01*
X160336175Y-95073722D01*
X160383794Y-94978484D01*
X160431413Y-94930865D01*
X160526651Y-94883246D01*
X160764746Y-94883246D01*
X160859984Y-94930865D01*
X160907603Y-94978484D01*
X160955222Y-95073722D01*
X160955222Y-95311817D01*
X160907603Y-95407055D01*
X160859984Y-95454674D01*
%TO.C,R36*%
X171469537Y-106102705D02*
X170993347Y-106436038D01*
X171469537Y-106674133D02*
X170469537Y-106674133D01*
X170469537Y-106293181D01*
X170517157Y-106197943D01*
X170564776Y-106150324D01*
X170660014Y-106102705D01*
X170802871Y-106102705D01*
X170898109Y-106150324D01*
X170945728Y-106197943D01*
X170993347Y-106293181D01*
X170993347Y-106674133D01*
X170469537Y-105769371D02*
X170469537Y-105150324D01*
X170850490Y-105483657D01*
X170850490Y-105340800D01*
X170898109Y-105245562D01*
X170945728Y-105197943D01*
X171040966Y-105150324D01*
X171279061Y-105150324D01*
X171374299Y-105197943D01*
X171421918Y-105245562D01*
X171469537Y-105340800D01*
X171469537Y-105626514D01*
X171421918Y-105721752D01*
X171374299Y-105769371D01*
X170469537Y-104293181D02*
X170469537Y-104483657D01*
X170517157Y-104578895D01*
X170564776Y-104626514D01*
X170707633Y-104721752D01*
X170898109Y-104769371D01*
X171279061Y-104769371D01*
X171374299Y-104721752D01*
X171421918Y-104674133D01*
X171469537Y-104578895D01*
X171469537Y-104388419D01*
X171421918Y-104293181D01*
X171374299Y-104245562D01*
X171279061Y-104197943D01*
X171040966Y-104197943D01*
X170945728Y-104245562D01*
X170898109Y-104293181D01*
X170850490Y-104388419D01*
X170850490Y-104578895D01*
X170898109Y-104674133D01*
X170945728Y-104721752D01*
X171040966Y-104769371D01*
%TO.C,U3*%
X171032688Y-147078222D02*
X171032688Y-147887746D01*
X171080307Y-147982984D01*
X171127926Y-148030603D01*
X171223164Y-148078222D01*
X171413640Y-148078222D01*
X171508878Y-148030603D01*
X171556497Y-147982984D01*
X171604116Y-147887746D01*
X171604116Y-147078222D01*
X171985069Y-147078222D02*
X172604116Y-147078222D01*
X172270783Y-147459175D01*
X172413640Y-147459175D01*
X172508878Y-147506794D01*
X172556497Y-147554413D01*
X172604116Y-147649651D01*
X172604116Y-147887746D01*
X172556497Y-147982984D01*
X172508878Y-148030603D01*
X172413640Y-148078222D01*
X172127926Y-148078222D01*
X172032688Y-148030603D01*
X171985069Y-147982984D01*
%TO.C,U5*%
X123488095Y-118102380D02*
X123488095Y-118911904D01*
X123535714Y-119007142D01*
X123583333Y-119054761D01*
X123678571Y-119102380D01*
X123869047Y-119102380D01*
X123964285Y-119054761D01*
X124011904Y-119007142D01*
X124059523Y-118911904D01*
X124059523Y-118102380D01*
X125011904Y-118102380D02*
X124535714Y-118102380D01*
X124488095Y-118578571D01*
X124535714Y-118530952D01*
X124630952Y-118483333D01*
X124869047Y-118483333D01*
X124964285Y-118530952D01*
X125011904Y-118578571D01*
X125059523Y-118673809D01*
X125059523Y-118911904D01*
X125011904Y-119007142D01*
X124964285Y-119054761D01*
X124869047Y-119102380D01*
X124630952Y-119102380D01*
X124535714Y-119054761D01*
X124488095Y-119007142D01*
%TO.C,U6*%
X174827380Y-135386904D02*
X175636904Y-135386904D01*
X175732142Y-135339285D01*
X175779761Y-135291666D01*
X175827380Y-135196428D01*
X175827380Y-135005952D01*
X175779761Y-134910714D01*
X175732142Y-134863095D01*
X175636904Y-134815476D01*
X174827380Y-134815476D01*
X174827380Y-133910714D02*
X174827380Y-134101190D01*
X174875000Y-134196428D01*
X174922619Y-134244047D01*
X175065476Y-134339285D01*
X175255952Y-134386904D01*
X175636904Y-134386904D01*
X175732142Y-134339285D01*
X175779761Y-134291666D01*
X175827380Y-134196428D01*
X175827380Y-134005952D01*
X175779761Y-133910714D01*
X175732142Y-133863095D01*
X175636904Y-133815476D01*
X175398809Y-133815476D01*
X175303571Y-133863095D01*
X175255952Y-133910714D01*
X175208333Y-134005952D01*
X175208333Y-134196428D01*
X175255952Y-134291666D01*
X175303571Y-134339285D01*
X175398809Y-134386904D01*
%TO.C,U7*%
X116827380Y-104736904D02*
X117636904Y-104736904D01*
X117732142Y-104689285D01*
X117779761Y-104641666D01*
X117827380Y-104546428D01*
X117827380Y-104355952D01*
X117779761Y-104260714D01*
X117732142Y-104213095D01*
X117636904Y-104165476D01*
X116827380Y-104165476D01*
X116827380Y-103784523D02*
X116827380Y-103117857D01*
X117827380Y-103546428D01*
%TO.C,Y1*%
X157101190Y-147426190D02*
X157577380Y-147426190D01*
X156577380Y-147759523D02*
X157101190Y-147426190D01*
X156577380Y-147092857D01*
X157577380Y-146235714D02*
X157577380Y-146807142D01*
X157577380Y-146521428D02*
X156577380Y-146521428D01*
X156720238Y-146616666D01*
X156815476Y-146711904D01*
X156863095Y-146807142D01*
%TO.C,R32*%
X151052380Y-106967857D02*
X150576190Y-107301190D01*
X151052380Y-107539285D02*
X150052380Y-107539285D01*
X150052380Y-107158333D01*
X150100000Y-107063095D01*
X150147619Y-107015476D01*
X150242857Y-106967857D01*
X150385714Y-106967857D01*
X150480952Y-107015476D01*
X150528571Y-107063095D01*
X150576190Y-107158333D01*
X150576190Y-107539285D01*
X150052380Y-106634523D02*
X150052380Y-106015476D01*
X150433333Y-106348809D01*
X150433333Y-106205952D01*
X150480952Y-106110714D01*
X150528571Y-106063095D01*
X150623809Y-106015476D01*
X150861904Y-106015476D01*
X150957142Y-106063095D01*
X151004761Y-106110714D01*
X151052380Y-106205952D01*
X151052380Y-106491666D01*
X151004761Y-106586904D01*
X150957142Y-106634523D01*
X150147619Y-105634523D02*
X150100000Y-105586904D01*
X150052380Y-105491666D01*
X150052380Y-105253571D01*
X150100000Y-105158333D01*
X150147619Y-105110714D01*
X150242857Y-105063095D01*
X150338095Y-105063095D01*
X150480952Y-105110714D01*
X151052380Y-105682142D01*
X151052380Y-105063095D01*
%TO.C,D1*%
X166847619Y-149011904D02*
X167847619Y-149011904D01*
X167847619Y-149250000D01*
X167800000Y-149392857D01*
X167704761Y-149488095D01*
X167609523Y-149535714D01*
X167419047Y-149583333D01*
X167276190Y-149583333D01*
X167085714Y-149535714D01*
X166990476Y-149488095D01*
X166895238Y-149392857D01*
X166847619Y-149250000D01*
X166847619Y-149011904D01*
X166847619Y-150535714D02*
X166847619Y-149964285D01*
X166847619Y-150250000D02*
X167847619Y-150250000D01*
X167704761Y-150154761D01*
X167609523Y-150059523D01*
X167561904Y-149964285D01*
%TO.C,D2*%
X169186904Y-163327380D02*
X169186904Y-162327380D01*
X169425000Y-162327380D01*
X169567857Y-162375000D01*
X169663095Y-162470238D01*
X169710714Y-162565476D01*
X169758333Y-162755952D01*
X169758333Y-162898809D01*
X169710714Y-163089285D01*
X169663095Y-163184523D01*
X169567857Y-163279761D01*
X169425000Y-163327380D01*
X169186904Y-163327380D01*
X170139285Y-162422619D02*
X170186904Y-162375000D01*
X170282142Y-162327380D01*
X170520238Y-162327380D01*
X170615476Y-162375000D01*
X170663095Y-162422619D01*
X170710714Y-162517857D01*
X170710714Y-162613095D01*
X170663095Y-162755952D01*
X170091666Y-163327380D01*
X170710714Y-163327380D01*
%TO.C,D3*%
X175261904Y-138852380D02*
X175261904Y-137852380D01*
X175500000Y-137852380D01*
X175642857Y-137900000D01*
X175738095Y-137995238D01*
X175785714Y-138090476D01*
X175833333Y-138280952D01*
X175833333Y-138423809D01*
X175785714Y-138614285D01*
X175738095Y-138709523D01*
X175642857Y-138804761D01*
X175500000Y-138852380D01*
X175261904Y-138852380D01*
X176166666Y-137852380D02*
X176785714Y-137852380D01*
X176452380Y-138233333D01*
X176595238Y-138233333D01*
X176690476Y-138280952D01*
X176738095Y-138328571D01*
X176785714Y-138423809D01*
X176785714Y-138661904D01*
X176738095Y-138757142D01*
X176690476Y-138804761D01*
X176595238Y-138852380D01*
X176309523Y-138852380D01*
X176214285Y-138804761D01*
X176166666Y-138757142D01*
%TO.C,D7*%
X180327380Y-127663095D02*
X179327380Y-127663095D01*
X179327380Y-127425000D01*
X179375000Y-127282142D01*
X179470238Y-127186904D01*
X179565476Y-127139285D01*
X179755952Y-127091666D01*
X179898809Y-127091666D01*
X180089285Y-127139285D01*
X180184523Y-127186904D01*
X180279761Y-127282142D01*
X180327380Y-127425000D01*
X180327380Y-127663095D01*
X179327380Y-126758333D02*
X179327380Y-126091666D01*
X180327380Y-126520238D01*
%TD*%
M02*
