M48
; DRILL file {KiCad (5.1.6)-1} date 04/19/21 20:59:21
; FORMAT={-:-/ absolute / inch / decimal}
; #@! TF.CreationDate,2021-04-19T20:59:21+02:00
; #@! TF.GenerationSoftware,Kicad,Pcbnew,(5.1.6)-1
FMAT,2
INCH
T1C0.0157
T2C0.0354
T3C0.0394
T4C0.0472
T5C0.0512
T6C0.0591
T7C0.0709
T8C0.1260
%
G90
G05
T1
X4.5994Y-4.0
X4.6102Y-4.4911
X4.7421Y-3.8445
X4.7736Y-4.1732
X4.7805Y-4.4902
X4.7992Y-4.002
X4.7992Y-4.0837
X4.8022Y-4.9606
X4.8917Y-4.5876
X4.9587Y-3.6526
X4.9606Y-4.4803
X4.9675Y-4.2687
X5.0815Y-3.6029
X5.0955Y-4.7864
X5.0974Y-4.6319
X5.1781Y-3.5344
X5.187Y-4.2008
X5.2146Y-3.6654
X5.312Y-5.5325
X5.312Y-5.6309
X5.3287Y-3.9783
X5.3376Y-5.0266
X5.4006Y-5.1996
X5.4085Y-6.4055
X5.4124Y-4.9488
X5.4636Y-5.6358
X5.4744Y-5.2402
X5.4832Y-4.9449
X5.4862Y-4.8652
X5.497Y-5.0315
X5.502Y-4.5295
X5.5089Y-6.3169
X5.5098Y-6.4035
X5.5551Y-5.5079
X5.5551Y-5.6575
X5.6219Y-4.6854
X5.6299Y-3.69
X5.6417Y-5.3
X5.6772Y-5.5551
X5.6841Y-5.7537
X5.685Y-5.6063
X5.6969Y-5.9537
X5.6969Y-6.0069
X5.6988Y-6.0579
X5.7244Y-4.4173
X5.7244Y-4.4685
X5.7254Y-4.813
X5.7441Y-5.8177
X5.7677Y-5.4919
X5.7854Y-6.1799
X5.7943Y-6.3248
X5.8071Y-4.6299
X5.8219Y-5.8679
X5.8223Y-4.1594
X5.8238Y-5.4693
X5.8524Y-4.3622
X5.8524Y-4.4173
X5.8524Y-4.4764
X5.8976Y-6.1789
X5.9193Y-5.7352
X5.9193Y-5.8809
X5.9311Y-6.1071
X5.9311Y-6.0079
X5.9409Y-4.2677
X5.9449Y-4.3189
X5.9533Y-5.2199
X5.9616Y-4.9606
X5.9823Y-2.8465
X5.9823Y-2.9685
X6.0807Y-4.2165
X6.0846Y-3.9587
X6.1004Y-5.1565
X6.1437Y-4.9419
X6.1575Y-5.2638
X6.188Y-6.2766
X6.2618Y-4.8937
X6.2667Y-5.9075
X6.2667Y-5.9813
X6.2697Y-5.8366
X6.2717Y-5.6447
X6.2717Y-5.7067
X6.2717Y-5.7697
X6.2904Y-6.2559
X6.2924Y-4.1602
X6.3081Y-4.0039
X6.3307Y-3.9252
X6.3435Y-4.8671
X6.3504Y-5.0305
X6.3524Y-6.3091
X6.3829Y-3.9833
X6.3878Y-4.3258
X6.4065Y-6.3711
X6.4094Y-4.1683
X6.4213Y-4.0246
X6.4557Y-6.0679
X6.4715Y-5.3327
X6.4744Y-6.2244
X6.4798Y-4.1598
X6.4892Y-4.8681
X6.6024Y-6.0699
X6.6024Y-6.2313
X6.627Y-3.9232
X6.627Y-4.0128
X6.627Y-4.2923
X6.6496Y-5.2067
X6.6575Y-4.6624
X6.6614Y-4.378
X6.6654Y-5.1004
X6.7067Y-4.7323
X6.7579Y-4.5
X6.7628Y-4.4498
X6.7707Y-5.8248
X6.7756Y-4.9045
X6.7874Y-4.2441
X6.7923Y-4.4793
X6.7953Y-5.0758
X6.8593Y-4.4793
X6.9272Y-4.9065
X6.9272Y-5.4951
X6.9301Y-5.2559
X6.937Y-4.4783
T2
X5.3004Y-6.0906
X5.3004Y-6.1906
X5.3004Y-6.2906
X5.3024Y-5.7807
X5.3024Y-5.8807
X5.3024Y-5.9807
X7.0896Y-4.0457
X7.0896Y-4.1457
T3
X5.1526Y-5.1112
X5.1526Y-5.2112
X5.1526Y-5.3112
X5.1526Y-5.4112
X5.1526Y-5.5112
X5.1526Y-5.6112
X6.8829Y-3.8425
X6.8829Y-3.9425
X6.8829Y-4.0425
X6.8829Y-4.1425
X6.8829Y-4.2425
X6.8829Y-4.3425
X5.6443Y-6.2734
X5.7443Y-6.2734
X5.8443Y-6.2734
X5.9443Y-6.2734
X6.0443Y-6.2734
X6.373Y-6.002
X6.373Y-6.102
X6.373Y-6.202
X5.787Y-3.2047
X5.887Y-3.2047
X5.987Y-3.2047
X6.087Y-3.2047
X6.187Y-3.2047
X4.326Y-5.1528
X4.326Y-5.2528
X4.326Y-5.3528
X4.326Y-5.4528
X4.326Y-5.5528
X4.326Y-5.6528
X5.8819Y-2.5039
X5.8819Y-3.0748
X5.9803Y-3.0748
X6.0787Y-2.5039
X6.0787Y-3.0748
X5.4754Y-5.439
X5.4754Y-5.539
X6.3691Y-5.2073
X6.3691Y-5.3073
X6.3691Y-5.4073
X6.3691Y-5.5073
X6.3691Y-5.6073
X6.372Y-5.7539
X6.372Y-5.8539
X7.6878Y-5.2063
X7.6878Y-5.3063
X7.6878Y-5.4063
X7.6878Y-5.5063
X7.6878Y-5.6063
X7.6878Y-5.7063
T4
X5.8231Y-3.5805
X5.9251Y-3.5815
X5.9251Y-3.6815
X5.6339Y-3.8022
X5.7339Y-3.8022
X5.8339Y-3.8022
T5
X7.2333Y-4.0394
X6.9587Y-5.1427
X5.3081Y-5.2756
X7.0335Y-4.3002
X6.4862Y-4.7618
X6.3307Y-4.7037
T6
X7.9654Y-5.139
X7.9654Y-5.778
X8.2154Y-5.139
X8.2154Y-5.778
X8.4654Y-5.139
X8.4654Y-5.778
X3.5512Y-5.087
X3.5512Y-5.726
X3.8012Y-5.087
X3.8012Y-5.726
X4.0512Y-5.087
X4.0512Y-5.726
T8
X7.1496Y-3.7579
X4.8661Y-6.1634
X7.1496Y-6.1614
T7
G00X5.7559Y-2.7638
M15
G01X5.7559Y-2.7953
M16
G05
G00X6.2047Y-2.7638
M15
G01X6.2047Y-2.7953
M16
G05
T0
M30
