%TF.GenerationSoftware,KiCad,Pcbnew,(5.1.6)-1*%
%TF.CreationDate,2021-04-19T20:59:16+02:00*%
%TF.ProjectId,SimpleDigital,53696d70-6c65-4446-9967-6974616c2e6b,v01*%
%TF.SameCoordinates,Original*%
%TF.FileFunction,Copper,L2,Bot*%
%TF.FilePolarity,Positive*%
%FSLAX46Y46*%
G04 Gerber Fmt 4.6, Leading zero omitted, Abs format (unit mm)*
G04 Created by KiCad (PCBNEW (5.1.6)-1) date 2021-04-19 20:59:16*
%MOMM*%
%LPD*%
G01*
G04 APERTURE LIST*
%TA.AperFunction,NonConductor*%
%ADD10C,0.300000*%
%TD*%
%TA.AperFunction,ComponentPad*%
%ADD11O,1.700000X1.700000*%
%TD*%
%TA.AperFunction,ComponentPad*%
%ADD12R,1.700000X1.700000*%
%TD*%
%TA.AperFunction,ComponentPad*%
%ADD13C,2.600000*%
%TD*%
%TA.AperFunction,ComponentPad*%
%ADD14C,2.000000*%
%TD*%
%TA.AperFunction,ComponentPad*%
%ADD15R,1.800000X1.800000*%
%TD*%
%TA.AperFunction,ComponentPad*%
%ADD16C,1.800000*%
%TD*%
%TA.AperFunction,ComponentPad*%
%ADD17C,3.000000*%
%TD*%
%TA.AperFunction,ComponentPad*%
%ADD18R,2.800000X3.600000*%
%TD*%
%TA.AperFunction,ViaPad*%
%ADD19C,0.800000*%
%TD*%
%TA.AperFunction,Conductor*%
%ADD20C,0.500000*%
%TD*%
%TA.AperFunction,Conductor*%
%ADD21C,0.600000*%
%TD*%
%TA.AperFunction,Conductor*%
%ADD22C,0.400000*%
%TD*%
%TA.AperFunction,Conductor*%
%ADD23C,0.254000*%
%TD*%
G04 APERTURE END LIST*
D10*
X187803571Y-138846428D02*
X187803571Y-137989285D01*
X187803571Y-138417857D02*
X186303571Y-138417857D01*
X186517857Y-138275000D01*
X186660714Y-138132142D01*
X186732142Y-137989285D01*
X187803571Y-140275000D02*
X187803571Y-139417857D01*
X187803571Y-139846428D02*
X186303571Y-139846428D01*
X186517857Y-139703571D01*
X186660714Y-139560714D01*
X186732142Y-139417857D01*
X186232142Y-141989285D02*
X188160714Y-140703571D01*
X186803571Y-143132142D02*
X187803571Y-143132142D01*
X186232142Y-142775000D02*
X187303571Y-142417857D01*
X187303571Y-143346428D01*
X186232142Y-144989285D02*
X188160714Y-143703571D01*
X186446428Y-145417857D02*
X186375000Y-145489285D01*
X186303571Y-145632142D01*
X186303571Y-145989285D01*
X186375000Y-146132142D01*
X186446428Y-146203571D01*
X186589285Y-146275000D01*
X186732142Y-146275000D01*
X186946428Y-146203571D01*
X187803571Y-145346428D01*
X187803571Y-146275000D01*
X186303571Y-147203571D02*
X186303571Y-147346428D01*
X186375000Y-147489285D01*
X186446428Y-147560714D01*
X186589285Y-147632142D01*
X186875000Y-147703571D01*
X187232142Y-147703571D01*
X187517857Y-147632142D01*
X187660714Y-147560714D01*
X187732142Y-147489285D01*
X187803571Y-147346428D01*
X187803571Y-147203571D01*
X187732142Y-147060714D01*
X187660714Y-146989285D01*
X187517857Y-146917857D01*
X187232142Y-146846428D01*
X186875000Y-146846428D01*
X186589285Y-146917857D01*
X186446428Y-146989285D01*
X186375000Y-147060714D01*
X186303571Y-147203571D01*
X186446428Y-148275000D02*
X186375000Y-148346428D01*
X186303571Y-148489285D01*
X186303571Y-148846428D01*
X186375000Y-148989285D01*
X186446428Y-149060714D01*
X186589285Y-149132142D01*
X186732142Y-149132142D01*
X186946428Y-149060714D01*
X187803571Y-148203571D01*
X187803571Y-149132142D01*
X187803571Y-150560714D02*
X187803571Y-149703571D01*
X187803571Y-150132142D02*
X186303571Y-150132142D01*
X186517857Y-149989285D01*
X186660714Y-149846428D01*
X186732142Y-149703571D01*
X175742857Y-162628571D02*
X175742857Y-161128571D01*
X175385714Y-161128571D01*
X175171428Y-161200000D01*
X175028571Y-161342857D01*
X174957142Y-161485714D01*
X174885714Y-161771428D01*
X174885714Y-161985714D01*
X174957142Y-162271428D01*
X175028571Y-162414285D01*
X175171428Y-162557142D01*
X175385714Y-162628571D01*
X175742857Y-162628571D01*
X174242857Y-162628571D02*
X174242857Y-161128571D01*
X173671428Y-161128571D01*
X173528571Y-161200000D01*
X173457142Y-161271428D01*
X173385714Y-161414285D01*
X173385714Y-161628571D01*
X173457142Y-161771428D01*
X173528571Y-161842857D01*
X173671428Y-161914285D01*
X174242857Y-161914285D01*
X183185714Y-161628571D02*
X182828571Y-162628571D01*
X182471428Y-161628571D01*
X181614285Y-161128571D02*
X181471428Y-161128571D01*
X181328571Y-161200000D01*
X181257142Y-161271428D01*
X181185714Y-161414285D01*
X181114285Y-161700000D01*
X181114285Y-162057142D01*
X181185714Y-162342857D01*
X181257142Y-162485714D01*
X181328571Y-162557142D01*
X181471428Y-162628571D01*
X181614285Y-162628571D01*
X181757142Y-162557142D01*
X181828571Y-162485714D01*
X181900000Y-162342857D01*
X181971428Y-162057142D01*
X181971428Y-161700000D01*
X181900000Y-161414285D01*
X181828571Y-161271428D01*
X181757142Y-161200000D01*
X181614285Y-161128571D01*
X179685714Y-162628571D02*
X180542857Y-162628571D01*
X180114285Y-162628571D02*
X180114285Y-161128571D01*
X180257142Y-161342857D01*
X180400000Y-161485714D01*
X180542857Y-161557142D01*
D11*
%TO.P,J14,2*%
%TO.N,GNDA*%
X139075000Y-140690000D03*
D12*
%TO.P,J14,1*%
%TO.N,Net-(J14-Pad1)*%
X139075000Y-138150000D03*
%TD*%
D13*
%TO.P,J17,1*%
%TO.N,Net-(C44-Pad2)*%
X164750000Y-120950000D03*
%TD*%
%TO.P,J16,1*%
%TO.N,Net-(D4-Pad2)*%
X183725000Y-102600000D03*
%TD*%
%TO.P,J8,1*%
%TO.N,+5V*%
X176750000Y-130625000D03*
%TD*%
%TO.P,J5,1*%
%TO.N,Net-(J12-Pad6)*%
X134825000Y-134000000D03*
%TD*%
%TO.P,J4,1*%
%TO.N,Net-(J10-Pad6)*%
X178650000Y-109225000D03*
%TD*%
%TO.P,J1,1*%
%TO.N,Net-(C3-Pad2)*%
X160800000Y-119475000D03*
%TD*%
D11*
%TO.P,Battery_9V1,2*%
%TO.N,BAT_NEG*%
X161850000Y-148690000D03*
D12*
%TO.P,Battery_9V1,1*%
%TO.N,+9V*%
X161850000Y-146150000D03*
%TD*%
D14*
%TO.P,RV2,1*%
%TO.N,Net-(C41-Pad1)*%
X150497156Y-93509848D03*
%TO.P,RV2,3*%
%TO.N,GNDA*%
X147906356Y-90944448D03*
%TO.P,RV2,2*%
%TO.N,Net-(C43-Pad1)*%
X150497156Y-90969848D03*
%TD*%
%TO.P,RV1,2*%
%TO.N,Net-(R4-Pad2)*%
X145640000Y-96575000D03*
%TO.P,RV1,3*%
%TO.N,GNDA*%
X148180000Y-96575000D03*
%TO.P,RV1,1*%
%TO.N,Net-(C5-Pad2)*%
X143100000Y-96575000D03*
%TD*%
D15*
%TO.P,D4,1*%
%TO.N,Net-(D4-Pad1)*%
X180075000Y-105300000D03*
D16*
%TO.P,D4,2*%
%TO.N,Net-(D4-Pad2)*%
X180075000Y-102760000D03*
%TD*%
D17*
%TO.P,J3,1*%
%TO.N,Net-(J3-Pad1)*%
X90200000Y-145440000D03*
%TO.P,J3,2*%
%TO.N,Net-(J3-Pad2)*%
X102900000Y-145440000D03*
%TO.P,J3,3*%
%TO.N,Net-(J3-Pad3)*%
X96550000Y-145440000D03*
%TO.P,J3,4*%
%TO.N,Net-(J3-Pad4)*%
X90200000Y-129210000D03*
%TO.P,J3,5*%
%TO.N,Net-(J3-Pad5)*%
X102900000Y-129210000D03*
%TO.P,J3,6*%
%TO.N,Net-(J3-Pad6)*%
X96550000Y-129210000D03*
%TD*%
%TO.P,J6,6*%
%TO.N,Net-(J11-Pad5)*%
X208670000Y-146759999D03*
%TO.P,J6,5*%
%TO.N,Net-(J11-Pad6)*%
X202320000Y-146759999D03*
%TO.P,J6,4*%
%TO.N,Net-(J11-Pad4)*%
X215020000Y-146759999D03*
%TO.P,J6,3*%
%TO.N,Net-(J11-Pad2)*%
X208670000Y-130529999D03*
%TO.P,J6,2*%
%TO.N,Net-(J11-Pad1)*%
X202320000Y-130529999D03*
%TO.P,J6,1*%
%TO.N,Net-(J11-Pad3)*%
X215020000Y-130529999D03*
%TD*%
D12*
%TO.P,J9,1*%
%TO.N,Net-(J3-Pad2)*%
X109880000Y-143580000D03*
D11*
%TO.P,J9,2*%
%TO.N,Net-(J3-Pad3)*%
X109880000Y-141040000D03*
%TO.P,J9,3*%
%TO.N,Net-(J3-Pad1)*%
X109880000Y-138500000D03*
%TO.P,J9,4*%
%TO.N,Net-(J3-Pad4)*%
X109880000Y-135960000D03*
%TO.P,J9,5*%
%TO.N,Net-(J3-Pad6)*%
X109880000Y-133420000D03*
%TO.P,J9,6*%
%TO.N,Net-(J3-Pad5)*%
X109880000Y-130880000D03*
%TD*%
%TO.P,J10,6*%
%TO.N,Net-(J10-Pad6)*%
X174825000Y-110300000D03*
%TO.P,J10,5*%
%TO.N,Net-(J10-Pad5)*%
X174825000Y-107760000D03*
%TO.P,J10,4*%
%TO.N,Net-(J10-Pad4)*%
X174825000Y-105220000D03*
%TO.P,J10,3*%
%TO.N,Net-(J10-Pad3)*%
X174825000Y-102680000D03*
%TO.P,J10,2*%
%TO.N,GNDA*%
X174825000Y-100140000D03*
D12*
%TO.P,J10,1*%
X174825000Y-97600000D03*
%TD*%
%TO.P,J11,1*%
%TO.N,Net-(J11-Pad1)*%
X195270000Y-132240000D03*
D11*
%TO.P,J11,2*%
%TO.N,Net-(J11-Pad2)*%
X195270000Y-134780000D03*
%TO.P,J11,3*%
%TO.N,Net-(J11-Pad3)*%
X195270000Y-137320000D03*
%TO.P,J11,4*%
%TO.N,Net-(J11-Pad4)*%
X195270000Y-139860000D03*
%TO.P,J11,5*%
%TO.N,Net-(J11-Pad5)*%
X195270000Y-142400000D03*
%TO.P,J11,6*%
%TO.N,Net-(J11-Pad6)*%
X195270000Y-144940000D03*
%TD*%
%TO.P,J12,6*%
%TO.N,Net-(J12-Pad6)*%
X130875000Y-142525000D03*
%TO.P,J12,5*%
%TO.N,Net-(J12-Pad5)*%
X130875000Y-139985000D03*
%TO.P,J12,4*%
%TO.N,Net-(J12-Pad4)*%
X130875000Y-137445000D03*
%TO.P,J12,3*%
%TO.N,Net-(J12-Pad3)*%
X130875000Y-134905000D03*
%TO.P,J12,2*%
%TO.N,GNDA*%
X130875000Y-132365000D03*
D12*
%TO.P,J12,1*%
X130875000Y-129825000D03*
%TD*%
%TO.P,J15,1*%
%TO.N,B_OUT*%
X157150000Y-81400000D03*
D11*
%TO.P,J15,2*%
%TO.N,ENC_GROUND*%
X154610000Y-81400000D03*
%TO.P,J15,3*%
%TO.N,A_OUT*%
X152070000Y-81400000D03*
%TO.P,J15,4*%
%TO.N,SW_OUT*%
X149530000Y-81400000D03*
%TO.P,J15,5*%
%TO.N,ENC_POWER*%
X146990000Y-81400000D03*
%TD*%
D18*
%TO.P,SW1,3*%
%TO.N,N/C*%
X146200000Y-70600000D03*
X157600000Y-70600000D03*
D14*
%TO.P,SW1,1*%
%TO.N,SW_OUT*%
X149400000Y-63600000D03*
%TO.P,SW1,2*%
%TO.N,ENC_GROUND*%
X154400000Y-63600000D03*
%TO.P,SW1,A*%
%TO.N,A_OUT*%
X149400000Y-78100000D03*
%TO.P,SW1,C*%
%TO.N,ENC_GROUND*%
X151900000Y-78100000D03*
%TO.P,SW1,B*%
%TO.N,B_OUT*%
X154400000Y-78100000D03*
%TD*%
D16*
%TO.P,D5,3*%
%TO.N,Net-(D5-Pad3)*%
X134680000Y-146830000D03*
%TO.P,D5,2*%
%TO.N,+5V*%
X134680000Y-149370000D03*
D15*
%TO.P,D5,1*%
%TO.N,Net-(D5-Pad1)*%
X134680000Y-151910000D03*
%TD*%
%TO.P,D6,1*%
%TO.N,Net-(D6-Pad1)*%
X134630000Y-159780000D03*
D16*
%TO.P,D6,2*%
%TO.N,+5V*%
X134630000Y-157240000D03*
%TO.P,D6,3*%
%TO.N,Net-(D6-Pad3)*%
X134630000Y-154700000D03*
%TD*%
D12*
%TO.P,J2,1*%
%TO.N,BAT_NEG*%
X161875000Y-152450000D03*
D11*
%TO.P,J2,2*%
%TO.N,GNDA*%
X161875000Y-154990000D03*
%TO.P,J2,3*%
%TO.N,Net-(D2-PadA)*%
X161875000Y-157530000D03*
%TD*%
D12*
%TO.P,J7,1*%
%TO.N,GNDA*%
X161775000Y-142425000D03*
D11*
%TO.P,J7,2*%
%TO.N,+5V*%
X161775000Y-139885000D03*
%TO.P,J7,3*%
%TO.N,SWITCH*%
X161775000Y-137345000D03*
%TO.P,J7,4*%
%TO.N,ENC_A*%
X161775000Y-134805000D03*
%TO.P,J7,5*%
%TO.N,ENC_B*%
X161775000Y-132265000D03*
%TD*%
%TO.P,J13,5*%
%TO.N,+5V*%
X143365000Y-159345000D03*
%TO.P,J13,4*%
%TO.N,GNDA*%
X145905000Y-159345000D03*
%TO.P,J13,3*%
%TO.N,LED2_G*%
X148445000Y-159345000D03*
%TO.P,J13,2*%
%TO.N,Net-(J13-Pad2)*%
X150985000Y-159345000D03*
D12*
%TO.P,J13,1*%
%TO.N,Net-(J13-Pad1)*%
X153525000Y-159345000D03*
%TD*%
D19*
%TO.N,+9V*%
X169200000Y-111200000D03*
X169100000Y-118425000D03*
%TO.N,+5V*%
X143300001Y-134620000D03*
X144375000Y-146145000D03*
X126000000Y-113800000D03*
X120450000Y-97650000D03*
X147500000Y-117600000D03*
X145425000Y-122250000D03*
X139274368Y-125599673D03*
X168900000Y-132250000D03*
X161350000Y-160250000D03*
%TO.N,GNDA*%
X154450000Y-107100000D03*
X139750000Y-115050000D03*
X137475000Y-125700000D03*
X139350000Y-123575000D03*
X139625000Y-127800000D03*
X129475000Y-117650000D03*
X175950000Y-139575000D03*
X148650000Y-110800000D03*
X148650000Y-112200000D03*
X148650000Y-113700000D03*
X144700000Y-151225000D03*
X144700000Y-152575000D03*
X150350000Y-145675000D03*
X150350000Y-149375000D03*
X156050000Y-125525000D03*
X139950000Y-162650000D03*
X139925000Y-160450000D03*
X137375000Y-162700000D03*
X157175000Y-159425000D03*
X131750000Y-106700000D03*
X126175000Y-108425000D03*
X121425000Y-114050000D03*
X124250000Y-116525000D03*
X129425000Y-121575000D03*
X135575000Y-127675000D03*
X151425000Y-126000000D03*
X154950000Y-130975000D03*
X138775000Y-143150000D03*
X168325000Y-101925000D03*
X168325000Y-99650000D03*
X132450000Y-93100000D03*
X125950000Y-92775000D03*
X131525000Y-89775000D03*
X135350000Y-101050000D03*
X121900000Y-103725000D03*
X121900000Y-101650000D03*
X116825000Y-101600000D03*
X117100000Y-114075000D03*
X134925000Y-140525000D03*
X134925000Y-143025000D03*
X176025000Y-133500000D03*
X162125000Y-101175000D03*
X160225000Y-101700000D03*
X163100000Y-102225000D03*
X162800000Y-105875000D03*
X168325000Y-109025000D03*
X159175000Y-151925000D03*
X159175000Y-150050000D03*
X159250000Y-148250000D03*
X159300000Y-146550000D03*
X159300000Y-144950000D03*
X159300000Y-143375000D03*
X147175000Y-160650000D03*
X169300000Y-129550000D03*
X172600000Y-128925000D03*
X175950000Y-124625000D03*
X172100000Y-124575000D03*
X161300000Y-127775000D03*
X161125000Y-123625000D03*
X164825000Y-123650000D03*
X170350000Y-120200000D03*
X164375000Y-135450000D03*
X171775000Y-113025000D03*
X172525000Y-113775000D03*
X171650000Y-114300000D03*
X174225000Y-113775000D03*
X176200000Y-113750000D03*
X171975000Y-147950000D03*
X163975000Y-154125000D03*
X167700000Y-154175000D03*
X164450000Y-158100000D03*
X167700000Y-158275000D03*
X162725000Y-161825000D03*
X159775000Y-158900000D03*
X121975000Y-126000000D03*
%TO.N,+4V*%
X164587158Y-105659849D03*
X172400000Y-107800000D03*
X162250000Y-109875000D03*
%TO.N,Net-(C27-Pad2)*%
X129069849Y-91512842D03*
X160800000Y-99700000D03*
%TO.N,Net-(C40-Pad1)*%
X154550000Y-100550000D03*
%TO.N,Net-(C41-Pad1)*%
X142797158Y-119009849D03*
X143000000Y-93725000D03*
%TO.N,SWITCH*%
X150650000Y-152600000D03*
%TO.N,Net-(J13-Pad2)*%
X146950000Y-156970000D03*
X149800000Y-156945000D03*
%TO.N,ENC_GROUND*%
X151950000Y-75400000D03*
X151950000Y-72300000D03*
%TO.N,Net-(Q1-Pad3)*%
X159050000Y-124300000D03*
X156400000Y-133700000D03*
%TO.N,CURR_A*%
X150649999Y-155120000D03*
X151215000Y-132585000D03*
%TO.N,CURR_B*%
X137175000Y-132070000D03*
X144750000Y-153870000D03*
%TO.N,Net-(Q2-Pad3)*%
X139050000Y-133100000D03*
X121250000Y-106000000D03*
%TO.N,Net-(R5-Pad2)*%
X147887157Y-105649848D03*
X159827157Y-105669849D03*
%TO.N,PWM_A*%
X147925000Y-138920000D03*
X147875000Y-149044999D03*
%TO.N,PWM_B*%
X145900000Y-147770000D03*
X146500000Y-139495000D03*
%TO.N,U4B*%
X144400000Y-142400000D03*
X151000000Y-109700000D03*
%TO.N,U4C*%
X144200000Y-141100000D03*
X150900000Y-108400000D03*
%TO.N,U4D*%
X141100000Y-139900000D03*
X145400000Y-112200000D03*
%TO.N,U4A*%
X145400000Y-113500000D03*
X141100000Y-143700000D03*
%TD*%
D20*
%TO.N,+9V*%
X169100000Y-111300000D02*
X169200000Y-111200000D01*
X169100000Y-118425000D02*
X169100000Y-111300000D01*
%TO.N,+5V*%
X120450000Y-97650000D02*
X124900000Y-97650000D01*
X124900000Y-97650000D02*
X127500000Y-100250000D01*
D21*
X143365000Y-159345000D02*
X145900000Y-156810000D01*
X145900000Y-156810000D02*
X145900000Y-149220000D01*
X145900000Y-149220000D02*
X144375000Y-147695000D01*
X144375000Y-146145000D02*
X144375000Y-147695000D01*
X144375000Y-146145000D02*
X144375000Y-145795000D01*
X144375000Y-145795000D02*
X143300000Y-144720000D01*
X143300001Y-135185685D02*
X143300001Y-134620000D01*
X143300000Y-144720000D02*
X143300001Y-135185685D01*
X147500000Y-119500000D02*
X147500000Y-117600000D01*
D20*
X127500000Y-100250000D02*
X127500000Y-108375000D01*
X127500000Y-108375000D02*
X127500000Y-108900000D01*
D21*
X161775000Y-139885000D02*
X163240000Y-139885000D01*
X143300001Y-134620000D02*
X143300001Y-123699999D01*
D20*
X144712500Y-122287500D02*
X145387500Y-122287500D01*
D21*
X144712500Y-122287500D02*
X147500000Y-119500000D01*
D20*
X145387500Y-122287500D02*
X145425000Y-122250000D01*
D21*
X143300001Y-123699999D02*
X144712500Y-122287500D01*
D20*
X139274368Y-125599673D02*
X127500000Y-113825305D01*
X126025305Y-113825305D02*
X126000000Y-113800000D01*
X127500000Y-113475610D02*
X127150305Y-113825305D01*
X127500000Y-113450000D02*
X127500000Y-113475610D01*
X127150305Y-113825305D02*
X126025305Y-113825305D01*
X127500000Y-113825305D02*
X127150305Y-113825305D01*
X127500000Y-113825305D02*
X127500000Y-113450000D01*
X127500000Y-113450000D02*
X127500000Y-108900000D01*
D21*
X170525000Y-130625000D02*
X176750000Y-130625000D01*
X168900000Y-132250000D02*
X170525000Y-130625000D01*
X168900000Y-132250000D02*
X168900000Y-137100000D01*
X166115000Y-139885000D02*
X161775000Y-139885000D01*
X168900000Y-137100000D02*
X166115000Y-139885000D01*
X166100000Y-139900000D02*
X166115000Y-139885000D01*
X166100000Y-158100000D02*
X166100000Y-158650000D01*
X166100000Y-158100000D02*
X166100000Y-139900000D01*
X166100000Y-158650000D02*
X164500000Y-160250000D01*
X164500000Y-160250000D02*
X161350000Y-160250000D01*
D20*
%TO.N,+4V*%
X164607005Y-107800000D02*
X164587157Y-107819848D01*
X164587158Y-107087158D02*
X164587158Y-107487158D01*
X164587157Y-107819848D02*
X164587158Y-107087158D01*
X164587158Y-107087158D02*
X164587158Y-105659849D01*
X164587158Y-107487158D02*
X164900000Y-107800000D01*
X172400000Y-107800000D02*
X164900000Y-107800000D01*
X164900000Y-107800000D02*
X164607005Y-107800000D01*
X162250000Y-109875000D02*
X163850000Y-108275000D01*
X164132005Y-108275000D02*
X164587157Y-107819848D01*
X163850000Y-108275000D02*
X164132005Y-108275000D01*
%TO.N,Net-(C27-Pad2)*%
X129089848Y-91492843D02*
X129069849Y-91512842D01*
X160800000Y-98000000D02*
X160800000Y-99700000D01*
X149550000Y-95375000D02*
X158175000Y-95375000D01*
X129069849Y-91512842D02*
X145687842Y-91512842D01*
X158175000Y-95375000D02*
X160800000Y-98000000D01*
X145687842Y-91512842D02*
X149550000Y-95375000D01*
%TO.N,Net-(C41-Pad1)*%
X142797158Y-119009849D02*
X142797157Y-102059849D01*
X142797157Y-102059849D02*
X141077157Y-100339849D01*
X141077157Y-100339849D02*
X141077157Y-95547843D01*
X141077157Y-95547843D02*
X142900000Y-93725000D01*
X142900000Y-93725000D02*
X143000000Y-93725000D01*
%TO.N,SWITCH*%
X151445000Y-151805000D02*
X150650000Y-152600000D01*
X160670000Y-136240000D02*
X152709999Y-136240000D01*
X161775000Y-137345000D02*
X160670000Y-136240000D01*
X152709999Y-136240000D02*
X151770000Y-137179999D01*
X151445000Y-151795000D02*
X151770000Y-151470000D01*
X151445000Y-151805000D02*
X151445000Y-151795000D01*
X151770000Y-137179999D02*
X151770000Y-151470000D01*
%TO.N,Net-(J13-Pad2)*%
X149775000Y-156970001D02*
X149800000Y-156945000D01*
X146950000Y-156970000D02*
X149775000Y-156970001D01*
%TO.N,ENC_GROUND*%
X151950000Y-75400000D02*
X151950000Y-72300000D01*
%TO.N,Net-(Q1-Pad3)*%
X159050000Y-124300000D02*
X159050000Y-131050000D01*
X159050000Y-131050000D02*
X156400000Y-133700000D01*
%TO.N,CURR_A*%
X151200000Y-132600000D02*
X151215000Y-132585000D01*
X149275000Y-134825000D02*
X151200000Y-132900000D01*
X151200000Y-132900000D02*
X151200000Y-132600000D01*
X149275000Y-152595000D02*
X149275000Y-134825000D01*
X150649999Y-155120000D02*
X150650000Y-153970000D01*
X150650000Y-153970000D02*
X149275000Y-152595000D01*
D22*
%TO.N,CURR_B*%
X144750000Y-153870000D02*
X138750000Y-153870000D01*
X137175000Y-152295000D02*
X138750000Y-153870000D01*
X137175000Y-132070000D02*
X137175000Y-152295000D01*
D20*
%TO.N,Net-(Q2-Pad3)*%
X139050000Y-132534315D02*
X138950000Y-132434315D01*
X139050000Y-133100000D02*
X139050000Y-132534315D01*
X138950000Y-132434315D02*
X138950000Y-129100000D01*
X138950000Y-129100000D02*
X121250000Y-111400000D01*
X121250000Y-111400000D02*
X121250000Y-106000000D01*
%TO.N,Net-(R5-Pad2)*%
X147887157Y-105649848D02*
X155617157Y-105649849D01*
X155617157Y-105649849D02*
X155637157Y-105669849D01*
X155617157Y-105649849D02*
X159807157Y-105649849D01*
X159807157Y-105649849D02*
X159827157Y-105669849D01*
%TO.N,PWM_A*%
X147925000Y-138920000D02*
X147924999Y-148995000D01*
X147924999Y-148995000D02*
X147875000Y-149044999D01*
%TO.N,PWM_B*%
X146500000Y-147170000D02*
X145900000Y-147770000D01*
X146500000Y-139495000D02*
X146500000Y-147170000D01*
%TO.N,U4B*%
X144400000Y-142400000D02*
X145100000Y-141700000D01*
X145100000Y-141700000D02*
X145200000Y-141600000D01*
X145200000Y-141600000D02*
X145300000Y-141500000D01*
X145300000Y-141500000D02*
X145300000Y-130100000D01*
X145300000Y-130100000D02*
X150900000Y-124500000D01*
X150900000Y-124500000D02*
X150900000Y-109800000D01*
X150900000Y-109800000D02*
X151000000Y-109700000D01*
%TO.N,U4C*%
X144200000Y-141100000D02*
X144200000Y-132000000D01*
X144200000Y-132000000D02*
X144200000Y-129300000D01*
X144200000Y-129300000D02*
X146650001Y-126849999D01*
X146650001Y-126849999D02*
X149900000Y-123600000D01*
X149900000Y-123600000D02*
X149900000Y-109200000D01*
X149900000Y-109200000D02*
X150700000Y-108400000D01*
X150700000Y-108400000D02*
X150900000Y-108400000D01*
%TO.N,U4D*%
X141100000Y-139900000D02*
X141100000Y-128100000D01*
X141100000Y-128100000D02*
X141100000Y-122800000D01*
X141100000Y-122800000D02*
X144200000Y-119700000D01*
X144200000Y-119700000D02*
X144200000Y-112600000D01*
X144600000Y-112200000D02*
X145400000Y-112200000D01*
X144200000Y-112600000D02*
X144600000Y-112200000D01*
%TO.N,U4A*%
X145400000Y-113500000D02*
X145400000Y-120000000D01*
X145400000Y-120000000D02*
X142300000Y-123100000D01*
X142300000Y-123100000D02*
X142300000Y-142000000D01*
X142300000Y-142000000D02*
X142300000Y-142100000D01*
X142300000Y-142000000D02*
X141100000Y-143200000D01*
X141100000Y-143200000D02*
X141100000Y-143700000D01*
%TD*%
D23*
%TO.N,GNDA*%
G36*
X188940816Y-136918571D02*
G01*
X185335000Y-136918571D01*
X185335000Y-151631428D01*
X188931137Y-151631428D01*
X188923083Y-163873000D01*
X184185000Y-163873000D01*
X184185000Y-160160000D01*
X178615000Y-160160000D01*
X178615000Y-163873000D01*
X176885000Y-163873000D01*
X176885000Y-160160000D01*
X172315000Y-160160000D01*
X172315000Y-163873000D01*
X116227000Y-163873000D01*
X116227000Y-158880000D01*
X133091928Y-158880000D01*
X133091928Y-160680000D01*
X133104188Y-160804482D01*
X133140498Y-160924180D01*
X133199463Y-161034494D01*
X133278815Y-161131185D01*
X133375506Y-161210537D01*
X133485820Y-161269502D01*
X133605518Y-161305812D01*
X133730000Y-161318072D01*
X135530000Y-161318072D01*
X135654482Y-161305812D01*
X135774180Y-161269502D01*
X135884494Y-161210537D01*
X135981185Y-161131185D01*
X136060537Y-161034494D01*
X136119502Y-160924180D01*
X136155812Y-160804482D01*
X136168072Y-160680000D01*
X136168072Y-158880000D01*
X136155812Y-158755518D01*
X136119502Y-158635820D01*
X136060537Y-158525506D01*
X135981185Y-158428815D01*
X135884494Y-158349463D01*
X135774180Y-158290498D01*
X135755873Y-158284944D01*
X135822312Y-158218505D01*
X135990299Y-157967095D01*
X136106011Y-157687743D01*
X136165000Y-157391184D01*
X136165000Y-157088816D01*
X136106011Y-156792257D01*
X135990299Y-156512905D01*
X135822312Y-156261495D01*
X135608505Y-156047688D01*
X135492237Y-155970000D01*
X135608505Y-155892312D01*
X135822312Y-155678505D01*
X135990299Y-155427095D01*
X136106011Y-155147743D01*
X136165000Y-154851184D01*
X136165000Y-154548816D01*
X136106011Y-154252257D01*
X135990299Y-153972905D01*
X135822312Y-153721495D01*
X135608505Y-153507688D01*
X135519283Y-153448072D01*
X135580000Y-153448072D01*
X135704482Y-153435812D01*
X135824180Y-153399502D01*
X135934494Y-153340537D01*
X136031185Y-153261185D01*
X136110537Y-153164494D01*
X136169502Y-153054180D01*
X136205812Y-152934482D01*
X136218072Y-152810000D01*
X136218072Y-151010000D01*
X136205812Y-150885518D01*
X136169502Y-150765820D01*
X136110537Y-150655506D01*
X136031185Y-150558815D01*
X135934494Y-150479463D01*
X135824180Y-150420498D01*
X135805873Y-150414944D01*
X135872312Y-150348505D01*
X136040299Y-150097095D01*
X136156011Y-149817743D01*
X136215000Y-149521184D01*
X136215000Y-149218816D01*
X136156011Y-148922257D01*
X136040299Y-148642905D01*
X135872312Y-148391495D01*
X135658505Y-148177688D01*
X135542237Y-148100000D01*
X135658505Y-148022312D01*
X135872312Y-147808505D01*
X136040299Y-147557095D01*
X136156011Y-147277743D01*
X136215000Y-146981184D01*
X136215000Y-146678816D01*
X136156011Y-146382257D01*
X136040299Y-146102905D01*
X135872312Y-145851495D01*
X135658505Y-145637688D01*
X135407095Y-145469701D01*
X135127743Y-145353989D01*
X134831184Y-145295000D01*
X134528816Y-145295000D01*
X134232257Y-145353989D01*
X133952905Y-145469701D01*
X133701495Y-145637688D01*
X133487688Y-145851495D01*
X133319701Y-146102905D01*
X133203989Y-146382257D01*
X133145000Y-146678816D01*
X133145000Y-146981184D01*
X133203989Y-147277743D01*
X133319701Y-147557095D01*
X133487688Y-147808505D01*
X133701495Y-148022312D01*
X133817763Y-148100000D01*
X133701495Y-148177688D01*
X133487688Y-148391495D01*
X133319701Y-148642905D01*
X133203989Y-148922257D01*
X133145000Y-149218816D01*
X133145000Y-149521184D01*
X133203989Y-149817743D01*
X133319701Y-150097095D01*
X133487688Y-150348505D01*
X133554127Y-150414944D01*
X133535820Y-150420498D01*
X133425506Y-150479463D01*
X133328815Y-150558815D01*
X133249463Y-150655506D01*
X133190498Y-150765820D01*
X133154188Y-150885518D01*
X133141928Y-151010000D01*
X133141928Y-152810000D01*
X133154188Y-152934482D01*
X133190498Y-153054180D01*
X133249463Y-153164494D01*
X133328815Y-153261185D01*
X133425506Y-153340537D01*
X133535820Y-153399502D01*
X133655518Y-153435812D01*
X133745763Y-153444700D01*
X133651495Y-153507688D01*
X133437688Y-153721495D01*
X133269701Y-153972905D01*
X133153989Y-154252257D01*
X133095000Y-154548816D01*
X133095000Y-154851184D01*
X133153989Y-155147743D01*
X133269701Y-155427095D01*
X133437688Y-155678505D01*
X133651495Y-155892312D01*
X133767763Y-155970000D01*
X133651495Y-156047688D01*
X133437688Y-156261495D01*
X133269701Y-156512905D01*
X133153989Y-156792257D01*
X133095000Y-157088816D01*
X133095000Y-157391184D01*
X133153989Y-157687743D01*
X133269701Y-157967095D01*
X133437688Y-158218505D01*
X133504127Y-158284944D01*
X133485820Y-158290498D01*
X133375506Y-158349463D01*
X133278815Y-158428815D01*
X133199463Y-158525506D01*
X133140498Y-158635820D01*
X133104188Y-158755518D01*
X133091928Y-158880000D01*
X116227000Y-158880000D01*
X116227000Y-156329872D01*
X121365000Y-156329872D01*
X121365000Y-156770128D01*
X121450890Y-157201925D01*
X121619369Y-157608669D01*
X121863962Y-157974729D01*
X122175271Y-158286038D01*
X122541331Y-158530631D01*
X122948075Y-158699110D01*
X123379872Y-158785000D01*
X123820128Y-158785000D01*
X124251925Y-158699110D01*
X124658669Y-158530631D01*
X125024729Y-158286038D01*
X125336038Y-157974729D01*
X125580631Y-157608669D01*
X125749110Y-157201925D01*
X125835000Y-156770128D01*
X125835000Y-156329872D01*
X125749110Y-155898075D01*
X125580631Y-155491331D01*
X125336038Y-155125271D01*
X125024729Y-154813962D01*
X124658669Y-154569369D01*
X124251925Y-154400890D01*
X123820128Y-154315000D01*
X123379872Y-154315000D01*
X122948075Y-154400890D01*
X122541331Y-154569369D01*
X122175271Y-154813962D01*
X121863962Y-155125271D01*
X121619369Y-155491331D01*
X121450890Y-155898075D01*
X121365000Y-156329872D01*
X116227000Y-156329872D01*
X116227000Y-134758740D01*
X129390000Y-134758740D01*
X129390000Y-135051260D01*
X129447068Y-135338158D01*
X129559010Y-135608411D01*
X129721525Y-135851632D01*
X129928368Y-136058475D01*
X130102760Y-136175000D01*
X129928368Y-136291525D01*
X129721525Y-136498368D01*
X129559010Y-136741589D01*
X129447068Y-137011842D01*
X129390000Y-137298740D01*
X129390000Y-137591260D01*
X129447068Y-137878158D01*
X129559010Y-138148411D01*
X129721525Y-138391632D01*
X129928368Y-138598475D01*
X130102760Y-138715000D01*
X129928368Y-138831525D01*
X129721525Y-139038368D01*
X129559010Y-139281589D01*
X129447068Y-139551842D01*
X129390000Y-139838740D01*
X129390000Y-140131260D01*
X129447068Y-140418158D01*
X129559010Y-140688411D01*
X129721525Y-140931632D01*
X129928368Y-141138475D01*
X130102760Y-141255000D01*
X129928368Y-141371525D01*
X129721525Y-141578368D01*
X129559010Y-141821589D01*
X129447068Y-142091842D01*
X129390000Y-142378740D01*
X129390000Y-142671260D01*
X129447068Y-142958158D01*
X129559010Y-143228411D01*
X129721525Y-143471632D01*
X129928368Y-143678475D01*
X130171589Y-143840990D01*
X130441842Y-143952932D01*
X130728740Y-144010000D01*
X131021260Y-144010000D01*
X131308158Y-143952932D01*
X131578411Y-143840990D01*
X131821632Y-143678475D01*
X132028475Y-143471632D01*
X132190990Y-143228411D01*
X132302932Y-142958158D01*
X132360000Y-142671260D01*
X132360000Y-142378740D01*
X132302932Y-142091842D01*
X132190990Y-141821589D01*
X132028475Y-141578368D01*
X131821632Y-141371525D01*
X131647240Y-141255000D01*
X131821632Y-141138475D01*
X132028475Y-140931632D01*
X132190990Y-140688411D01*
X132302932Y-140418158D01*
X132360000Y-140131260D01*
X132360000Y-139838740D01*
X132302932Y-139551842D01*
X132190990Y-139281589D01*
X132028475Y-139038368D01*
X131821632Y-138831525D01*
X131647240Y-138715000D01*
X131821632Y-138598475D01*
X132028475Y-138391632D01*
X132190990Y-138148411D01*
X132302932Y-137878158D01*
X132360000Y-137591260D01*
X132360000Y-137298740D01*
X132302932Y-137011842D01*
X132190990Y-136741589D01*
X132028475Y-136498368D01*
X131821632Y-136291525D01*
X131647240Y-136175000D01*
X131821632Y-136058475D01*
X132028475Y-135851632D01*
X132190990Y-135608411D01*
X132302932Y-135338158D01*
X132360000Y-135051260D01*
X132360000Y-134758740D01*
X132302932Y-134471842D01*
X132190990Y-134201589D01*
X132028475Y-133958368D01*
X131821632Y-133751525D01*
X131639466Y-133629805D01*
X131756355Y-133560178D01*
X131972588Y-133365269D01*
X132146641Y-133131920D01*
X132271825Y-132869099D01*
X132316476Y-132721890D01*
X132195155Y-132492000D01*
X131002000Y-132492000D01*
X131002000Y-132512000D01*
X130748000Y-132512000D01*
X130748000Y-132492000D01*
X129554845Y-132492000D01*
X129433524Y-132721890D01*
X129478175Y-132869099D01*
X129603359Y-133131920D01*
X129777412Y-133365269D01*
X129993645Y-133560178D01*
X130110534Y-133629805D01*
X129928368Y-133751525D01*
X129721525Y-133958368D01*
X129559010Y-134201589D01*
X129447068Y-134471842D01*
X129390000Y-134758740D01*
X116227000Y-134758740D01*
X116227000Y-130675000D01*
X129386928Y-130675000D01*
X129399188Y-130799482D01*
X129435498Y-130919180D01*
X129494463Y-131029494D01*
X129573815Y-131126185D01*
X129670506Y-131205537D01*
X129780820Y-131264502D01*
X129861466Y-131288966D01*
X129777412Y-131364731D01*
X129603359Y-131598080D01*
X129478175Y-131860901D01*
X129433524Y-132008110D01*
X129554845Y-132238000D01*
X130748000Y-132238000D01*
X130748000Y-129952000D01*
X131002000Y-129952000D01*
X131002000Y-132238000D01*
X132195155Y-132238000D01*
X132316476Y-132008110D01*
X132271825Y-131860901D01*
X132146641Y-131598080D01*
X131972588Y-131364731D01*
X131888534Y-131288966D01*
X131969180Y-131264502D01*
X132079494Y-131205537D01*
X132176185Y-131126185D01*
X132255537Y-131029494D01*
X132314502Y-130919180D01*
X132350812Y-130799482D01*
X132363072Y-130675000D01*
X132360000Y-130110750D01*
X132201250Y-129952000D01*
X131002000Y-129952000D01*
X130748000Y-129952000D01*
X129548750Y-129952000D01*
X129390000Y-130110750D01*
X129386928Y-130675000D01*
X116227000Y-130675000D01*
X116227000Y-128975000D01*
X129386928Y-128975000D01*
X129390000Y-129539250D01*
X129548750Y-129698000D01*
X130748000Y-129698000D01*
X130748000Y-128498750D01*
X131002000Y-128498750D01*
X131002000Y-129698000D01*
X132201250Y-129698000D01*
X132360000Y-129539250D01*
X132363072Y-128975000D01*
X132350812Y-128850518D01*
X132314502Y-128730820D01*
X132255537Y-128620506D01*
X132176185Y-128523815D01*
X132079494Y-128444463D01*
X131969180Y-128385498D01*
X131849482Y-128349188D01*
X131725000Y-128336928D01*
X131160750Y-128340000D01*
X131002000Y-128498750D01*
X130748000Y-128498750D01*
X130589250Y-128340000D01*
X130025000Y-128336928D01*
X129900518Y-128349188D01*
X129780820Y-128385498D01*
X129670506Y-128444463D01*
X129573815Y-128523815D01*
X129494463Y-128620506D01*
X129435498Y-128730820D01*
X129399188Y-128850518D01*
X129386928Y-128975000D01*
X116227000Y-128975000D01*
X116227000Y-97548061D01*
X119415000Y-97548061D01*
X119415000Y-97751939D01*
X119454774Y-97951898D01*
X119532795Y-98140256D01*
X119646063Y-98309774D01*
X119790226Y-98453937D01*
X119959744Y-98567205D01*
X120148102Y-98645226D01*
X120348061Y-98685000D01*
X120551939Y-98685000D01*
X120751898Y-98645226D01*
X120940256Y-98567205D01*
X120988454Y-98535000D01*
X124533422Y-98535000D01*
X126615000Y-100616579D01*
X126615001Y-108331514D01*
X126615000Y-108331524D01*
X126615000Y-108943477D01*
X126615001Y-108943487D01*
X126615000Y-112940305D01*
X126576326Y-112940305D01*
X126490256Y-112882795D01*
X126301898Y-112804774D01*
X126101939Y-112765000D01*
X125898061Y-112765000D01*
X125698102Y-112804774D01*
X125509744Y-112882795D01*
X125340226Y-112996063D01*
X125196063Y-113140226D01*
X125082795Y-113309744D01*
X125004774Y-113498102D01*
X124965000Y-113698061D01*
X124965000Y-113863422D01*
X122135000Y-111033422D01*
X122135000Y-106538454D01*
X122167205Y-106490256D01*
X122245226Y-106301898D01*
X122285000Y-106101939D01*
X122285000Y-105898061D01*
X122245226Y-105698102D01*
X122167205Y-105509744D01*
X122053937Y-105340226D01*
X121909774Y-105196063D01*
X121740256Y-105082795D01*
X121551898Y-105004774D01*
X121351939Y-104965000D01*
X121148061Y-104965000D01*
X120948102Y-105004774D01*
X120759744Y-105082795D01*
X120590226Y-105196063D01*
X120446063Y-105340226D01*
X120332795Y-105509744D01*
X120254774Y-105698102D01*
X120215000Y-105898061D01*
X120215000Y-106101939D01*
X120254774Y-106301898D01*
X120332795Y-106490256D01*
X120365001Y-106538456D01*
X120365000Y-111356531D01*
X120360719Y-111400000D01*
X120365000Y-111443469D01*
X120365000Y-111443476D01*
X120377805Y-111573489D01*
X120428411Y-111740312D01*
X120510589Y-111894058D01*
X120621183Y-112028817D01*
X120654956Y-112056534D01*
X138065001Y-129466580D01*
X138065000Y-131539029D01*
X137978937Y-131410226D01*
X137834774Y-131266063D01*
X137665256Y-131152795D01*
X137476898Y-131074774D01*
X137276939Y-131035000D01*
X137073061Y-131035000D01*
X136873102Y-131074774D01*
X136684744Y-131152795D01*
X136515226Y-131266063D01*
X136371063Y-131410226D01*
X136257795Y-131579744D01*
X136179774Y-131768102D01*
X136140000Y-131968061D01*
X136140000Y-132171939D01*
X136179774Y-132371898D01*
X136257795Y-132560256D01*
X136340000Y-132683285D01*
X136340000Y-132784449D01*
X136328013Y-132766509D01*
X136058491Y-132496987D01*
X135741566Y-132285225D01*
X135389419Y-132139361D01*
X135015581Y-132065000D01*
X134634419Y-132065000D01*
X134260581Y-132139361D01*
X133908434Y-132285225D01*
X133591509Y-132496987D01*
X133321987Y-132766509D01*
X133110225Y-133083434D01*
X132964361Y-133435581D01*
X132890000Y-133809419D01*
X132890000Y-134190581D01*
X132964361Y-134564419D01*
X133110225Y-134916566D01*
X133321987Y-135233491D01*
X133591509Y-135503013D01*
X133908434Y-135714775D01*
X134260581Y-135860639D01*
X134634419Y-135935000D01*
X135015581Y-135935000D01*
X135389419Y-135860639D01*
X135741566Y-135714775D01*
X136058491Y-135503013D01*
X136328013Y-135233491D01*
X136340000Y-135215551D01*
X136340001Y-152253971D01*
X136335960Y-152295000D01*
X136352082Y-152458688D01*
X136399828Y-152616086D01*
X136441625Y-152694282D01*
X136477365Y-152761146D01*
X136581710Y-152888291D01*
X136613574Y-152914441D01*
X138130559Y-154431426D01*
X138156709Y-154463291D01*
X138283854Y-154567636D01*
X138428913Y-154645172D01*
X138586311Y-154692918D01*
X138708981Y-154705000D01*
X138708991Y-154705000D01*
X138749999Y-154709039D01*
X138791007Y-154705000D01*
X144136715Y-154705000D01*
X144259744Y-154787205D01*
X144448102Y-154865226D01*
X144648061Y-154905000D01*
X144851939Y-154905000D01*
X144965000Y-154882511D01*
X144965000Y-156422710D01*
X143524981Y-157862729D01*
X143511260Y-157860000D01*
X143218740Y-157860000D01*
X142931842Y-157917068D01*
X142661589Y-158029010D01*
X142418368Y-158191525D01*
X142211525Y-158398368D01*
X142049010Y-158641589D01*
X141937068Y-158911842D01*
X141880000Y-159198740D01*
X141880000Y-159491260D01*
X141937068Y-159778158D01*
X142049010Y-160048411D01*
X142211525Y-160291632D01*
X142418368Y-160498475D01*
X142661589Y-160660990D01*
X142931842Y-160772932D01*
X143218740Y-160830000D01*
X143511260Y-160830000D01*
X143798158Y-160772932D01*
X144068411Y-160660990D01*
X144311632Y-160498475D01*
X144518475Y-160291632D01*
X144640195Y-160109466D01*
X144709822Y-160226355D01*
X144904731Y-160442588D01*
X145138080Y-160616641D01*
X145400901Y-160741825D01*
X145548110Y-160786476D01*
X145778000Y-160665155D01*
X145778000Y-159472000D01*
X145758000Y-159472000D01*
X145758000Y-159218000D01*
X145778000Y-159218000D01*
X145778000Y-159198000D01*
X146032000Y-159198000D01*
X146032000Y-159218000D01*
X146052000Y-159218000D01*
X146052000Y-159472000D01*
X146032000Y-159472000D01*
X146032000Y-160665155D01*
X146261890Y-160786476D01*
X146409099Y-160741825D01*
X146671920Y-160616641D01*
X146905269Y-160442588D01*
X147100178Y-160226355D01*
X147169805Y-160109466D01*
X147291525Y-160291632D01*
X147498368Y-160498475D01*
X147741589Y-160660990D01*
X148011842Y-160772932D01*
X148298740Y-160830000D01*
X148591260Y-160830000D01*
X148878158Y-160772932D01*
X149148411Y-160660990D01*
X149391632Y-160498475D01*
X149598475Y-160291632D01*
X149715000Y-160117240D01*
X149831525Y-160291632D01*
X150038368Y-160498475D01*
X150281589Y-160660990D01*
X150551842Y-160772932D01*
X150838740Y-160830000D01*
X151131260Y-160830000D01*
X151418158Y-160772932D01*
X151688411Y-160660990D01*
X151931632Y-160498475D01*
X152063487Y-160366620D01*
X152085498Y-160439180D01*
X152144463Y-160549494D01*
X152223815Y-160646185D01*
X152320506Y-160725537D01*
X152430820Y-160784502D01*
X152550518Y-160820812D01*
X152675000Y-160833072D01*
X154375000Y-160833072D01*
X154499482Y-160820812D01*
X154619180Y-160784502D01*
X154729494Y-160725537D01*
X154826185Y-160646185D01*
X154905537Y-160549494D01*
X154964502Y-160439180D01*
X155000812Y-160319482D01*
X155013072Y-160195000D01*
X155013072Y-158495000D01*
X155000812Y-158370518D01*
X154964502Y-158250820D01*
X154905537Y-158140506D01*
X154826185Y-158043815D01*
X154729494Y-157964463D01*
X154619180Y-157905498D01*
X154499482Y-157869188D01*
X154375000Y-157856928D01*
X152675000Y-157856928D01*
X152550518Y-157869188D01*
X152430820Y-157905498D01*
X152320506Y-157964463D01*
X152223815Y-158043815D01*
X152144463Y-158140506D01*
X152085498Y-158250820D01*
X152063487Y-158323380D01*
X151931632Y-158191525D01*
X151688411Y-158029010D01*
X151418158Y-157917068D01*
X151131260Y-157860000D01*
X150838740Y-157860000D01*
X150551842Y-157917068D01*
X150281589Y-158029010D01*
X150038368Y-158191525D01*
X149831525Y-158398368D01*
X149715000Y-158572760D01*
X149598475Y-158398368D01*
X149391632Y-158191525D01*
X149148411Y-158029010D01*
X148878158Y-157917068D01*
X148591260Y-157860000D01*
X148298740Y-157860000D01*
X148011842Y-157917068D01*
X147741589Y-158029010D01*
X147498368Y-158191525D01*
X147291525Y-158398368D01*
X147169805Y-158580534D01*
X147100178Y-158463645D01*
X146905269Y-158247412D01*
X146671920Y-158073359D01*
X146409099Y-157948175D01*
X146261890Y-157903524D01*
X146032002Y-158024844D01*
X146032002Y-158000287D01*
X146274289Y-157758000D01*
X146290226Y-157773937D01*
X146459744Y-157887205D01*
X146648102Y-157965226D01*
X146848061Y-158005000D01*
X147051939Y-158005000D01*
X147251898Y-157965226D01*
X147440256Y-157887205D01*
X147488455Y-157854999D01*
X149298962Y-157855001D01*
X149309744Y-157862205D01*
X149498102Y-157940226D01*
X149698061Y-157980000D01*
X149901939Y-157980000D01*
X150101898Y-157940226D01*
X150290256Y-157862205D01*
X150459774Y-157748937D01*
X150603937Y-157604774D01*
X150717205Y-157435256D01*
X150738543Y-157383740D01*
X160390000Y-157383740D01*
X160390000Y-157676260D01*
X160447068Y-157963158D01*
X160559010Y-158233411D01*
X160721525Y-158476632D01*
X160928368Y-158683475D01*
X161171589Y-158845990D01*
X161441842Y-158957932D01*
X161728740Y-159015000D01*
X162021260Y-159015000D01*
X162308158Y-158957932D01*
X162578411Y-158845990D01*
X162821632Y-158683475D01*
X163028475Y-158476632D01*
X163190990Y-158233411D01*
X163302932Y-157963158D01*
X163360000Y-157676260D01*
X163360000Y-157383740D01*
X163302932Y-157096842D01*
X163190990Y-156826589D01*
X163028475Y-156583368D01*
X162821632Y-156376525D01*
X162639466Y-156254805D01*
X162756355Y-156185178D01*
X162972588Y-155990269D01*
X163146641Y-155756920D01*
X163271825Y-155494099D01*
X163316476Y-155346890D01*
X163195155Y-155117000D01*
X162002000Y-155117000D01*
X162002000Y-155137000D01*
X161748000Y-155137000D01*
X161748000Y-155117000D01*
X160554845Y-155117000D01*
X160433524Y-155346890D01*
X160478175Y-155494099D01*
X160603359Y-155756920D01*
X160777412Y-155990269D01*
X160993645Y-156185178D01*
X161110534Y-156254805D01*
X160928368Y-156376525D01*
X160721525Y-156583368D01*
X160559010Y-156826589D01*
X160447068Y-157096842D01*
X160390000Y-157383740D01*
X150738543Y-157383740D01*
X150795226Y-157246898D01*
X150835000Y-157046939D01*
X150835000Y-156843061D01*
X150795226Y-156643102D01*
X150717205Y-156454744D01*
X150603937Y-156285226D01*
X150459774Y-156141063D01*
X150452051Y-156135903D01*
X150548060Y-156155000D01*
X150751938Y-156155000D01*
X150951897Y-156115226D01*
X151140255Y-156037205D01*
X151309773Y-155923937D01*
X151453936Y-155779774D01*
X151567204Y-155610256D01*
X151645225Y-155421898D01*
X151684999Y-155221939D01*
X151684999Y-155018061D01*
X151645225Y-154818102D01*
X151567204Y-154629744D01*
X151534999Y-154581546D01*
X151535000Y-154013470D01*
X151539281Y-153970000D01*
X151535000Y-153926531D01*
X151535000Y-153926524D01*
X151522195Y-153796511D01*
X151513565Y-153768061D01*
X151471589Y-153629686D01*
X151389411Y-153475941D01*
X151321058Y-153392653D01*
X151453937Y-153259774D01*
X151567205Y-153090256D01*
X151645226Y-152901898D01*
X151656535Y-152845044D01*
X152040050Y-152461529D01*
X152073817Y-152433817D01*
X152147302Y-152344276D01*
X152365044Y-152126534D01*
X152398817Y-152098817D01*
X152509411Y-151964059D01*
X152591589Y-151810313D01*
X152642195Y-151643490D01*
X152646478Y-151600000D01*
X160386928Y-151600000D01*
X160386928Y-153300000D01*
X160399188Y-153424482D01*
X160435498Y-153544180D01*
X160494463Y-153654494D01*
X160573815Y-153751185D01*
X160670506Y-153830537D01*
X160780820Y-153889502D01*
X160861466Y-153913966D01*
X160777412Y-153989731D01*
X160603359Y-154223080D01*
X160478175Y-154485901D01*
X160433524Y-154633110D01*
X160554845Y-154863000D01*
X161748000Y-154863000D01*
X161748000Y-154843000D01*
X162002000Y-154843000D01*
X162002000Y-154863000D01*
X163195155Y-154863000D01*
X163316476Y-154633110D01*
X163271825Y-154485901D01*
X163146641Y-154223080D01*
X162972588Y-153989731D01*
X162888534Y-153913966D01*
X162969180Y-153889502D01*
X163079494Y-153830537D01*
X163176185Y-153751185D01*
X163255537Y-153654494D01*
X163314502Y-153544180D01*
X163350812Y-153424482D01*
X163363072Y-153300000D01*
X163363072Y-151600000D01*
X163350812Y-151475518D01*
X163314502Y-151355820D01*
X163255537Y-151245506D01*
X163176185Y-151148815D01*
X163079494Y-151069463D01*
X162969180Y-151010498D01*
X162849482Y-150974188D01*
X162725000Y-150961928D01*
X161025000Y-150961928D01*
X160900518Y-150974188D01*
X160780820Y-151010498D01*
X160670506Y-151069463D01*
X160573815Y-151148815D01*
X160494463Y-151245506D01*
X160435498Y-151355820D01*
X160399188Y-151475518D01*
X160386928Y-151600000D01*
X152646478Y-151600000D01*
X152655000Y-151513477D01*
X152655000Y-151513467D01*
X152659281Y-151470001D01*
X152655000Y-151426535D01*
X152655000Y-145300000D01*
X160361928Y-145300000D01*
X160361928Y-147000000D01*
X160374188Y-147124482D01*
X160410498Y-147244180D01*
X160469463Y-147354494D01*
X160548815Y-147451185D01*
X160645506Y-147530537D01*
X160755820Y-147589502D01*
X160828380Y-147611513D01*
X160696525Y-147743368D01*
X160534010Y-147986589D01*
X160422068Y-148256842D01*
X160365000Y-148543740D01*
X160365000Y-148836260D01*
X160422068Y-149123158D01*
X160534010Y-149393411D01*
X160696525Y-149636632D01*
X160903368Y-149843475D01*
X161146589Y-150005990D01*
X161416842Y-150117932D01*
X161703740Y-150175000D01*
X161996260Y-150175000D01*
X162283158Y-150117932D01*
X162553411Y-150005990D01*
X162796632Y-149843475D01*
X163003475Y-149636632D01*
X163165990Y-149393411D01*
X163277932Y-149123158D01*
X163335000Y-148836260D01*
X163335000Y-148543740D01*
X163277932Y-148256842D01*
X163165990Y-147986589D01*
X163003475Y-147743368D01*
X162871620Y-147611513D01*
X162944180Y-147589502D01*
X163054494Y-147530537D01*
X163151185Y-147451185D01*
X163230537Y-147354494D01*
X163289502Y-147244180D01*
X163325812Y-147124482D01*
X163338072Y-147000000D01*
X163338072Y-145300000D01*
X163325812Y-145175518D01*
X163289502Y-145055820D01*
X163230537Y-144945506D01*
X163151185Y-144848815D01*
X163054494Y-144769463D01*
X162944180Y-144710498D01*
X162824482Y-144674188D01*
X162700000Y-144661928D01*
X161000000Y-144661928D01*
X160875518Y-144674188D01*
X160755820Y-144710498D01*
X160645506Y-144769463D01*
X160548815Y-144848815D01*
X160469463Y-144945506D01*
X160410498Y-145055820D01*
X160374188Y-145175518D01*
X160361928Y-145300000D01*
X152655000Y-145300000D01*
X152655000Y-143275000D01*
X160286928Y-143275000D01*
X160299188Y-143399482D01*
X160335498Y-143519180D01*
X160394463Y-143629494D01*
X160473815Y-143726185D01*
X160570506Y-143805537D01*
X160680820Y-143864502D01*
X160800518Y-143900812D01*
X160925000Y-143913072D01*
X161489250Y-143910000D01*
X161648000Y-143751250D01*
X161648000Y-142552000D01*
X161902000Y-142552000D01*
X161902000Y-143751250D01*
X162060750Y-143910000D01*
X162625000Y-143913072D01*
X162749482Y-143900812D01*
X162869180Y-143864502D01*
X162979494Y-143805537D01*
X163076185Y-143726185D01*
X163155537Y-143629494D01*
X163214502Y-143519180D01*
X163250812Y-143399482D01*
X163263072Y-143275000D01*
X163260000Y-142710750D01*
X163101250Y-142552000D01*
X161902000Y-142552000D01*
X161648000Y-142552000D01*
X160448750Y-142552000D01*
X160290000Y-142710750D01*
X160286928Y-143275000D01*
X152655000Y-143275000D01*
X152655000Y-137546577D01*
X153076578Y-137125000D01*
X160303422Y-137125000D01*
X160304461Y-137126039D01*
X160290000Y-137198740D01*
X160290000Y-137491260D01*
X160347068Y-137778158D01*
X160459010Y-138048411D01*
X160621525Y-138291632D01*
X160828368Y-138498475D01*
X161002760Y-138615000D01*
X160828368Y-138731525D01*
X160621525Y-138938368D01*
X160459010Y-139181589D01*
X160347068Y-139451842D01*
X160290000Y-139738740D01*
X160290000Y-140031260D01*
X160347068Y-140318158D01*
X160459010Y-140588411D01*
X160621525Y-140831632D01*
X160753380Y-140963487D01*
X160680820Y-140985498D01*
X160570506Y-141044463D01*
X160473815Y-141123815D01*
X160394463Y-141220506D01*
X160335498Y-141330820D01*
X160299188Y-141450518D01*
X160286928Y-141575000D01*
X160290000Y-142139250D01*
X160448750Y-142298000D01*
X161648000Y-142298000D01*
X161648000Y-142278000D01*
X161902000Y-142278000D01*
X161902000Y-142298000D01*
X163101250Y-142298000D01*
X163260000Y-142139250D01*
X163263072Y-141575000D01*
X163250812Y-141450518D01*
X163214502Y-141330820D01*
X163155537Y-141220506D01*
X163076185Y-141123815D01*
X162979494Y-141044463D01*
X162869180Y-140985498D01*
X162796620Y-140963487D01*
X162928475Y-140831632D01*
X162936247Y-140820000D01*
X165165001Y-140820000D01*
X165165000Y-158054068D01*
X165165000Y-158262711D01*
X164112711Y-159315000D01*
X161797295Y-159315000D01*
X161651898Y-159254774D01*
X161451939Y-159215000D01*
X161248061Y-159215000D01*
X161048102Y-159254774D01*
X160859744Y-159332795D01*
X160690226Y-159446063D01*
X160546063Y-159590226D01*
X160432795Y-159759744D01*
X160354774Y-159948102D01*
X160315000Y-160148061D01*
X160315000Y-160351939D01*
X160354774Y-160551898D01*
X160432795Y-160740256D01*
X160546063Y-160909774D01*
X160690226Y-161053937D01*
X160859744Y-161167205D01*
X161048102Y-161245226D01*
X161248061Y-161285000D01*
X161451939Y-161285000D01*
X161651898Y-161245226D01*
X161797295Y-161185000D01*
X164454068Y-161185000D01*
X164500000Y-161189524D01*
X164545932Y-161185000D01*
X164683292Y-161171471D01*
X164859540Y-161118007D01*
X165021972Y-161031186D01*
X165164344Y-160914344D01*
X165193630Y-160878659D01*
X166728659Y-159343630D01*
X166764344Y-159314344D01*
X166881186Y-159171972D01*
X166937765Y-159066120D01*
X166968007Y-159009541D01*
X167021472Y-158833292D01*
X167039524Y-158650000D01*
X167035000Y-158604065D01*
X167035000Y-156279872D01*
X179365000Y-156279872D01*
X179365000Y-156720128D01*
X179450890Y-157151925D01*
X179619369Y-157558669D01*
X179863962Y-157924729D01*
X180175271Y-158236038D01*
X180541331Y-158480631D01*
X180948075Y-158649110D01*
X181379872Y-158735000D01*
X181820128Y-158735000D01*
X182251925Y-158649110D01*
X182658669Y-158480631D01*
X183024729Y-158236038D01*
X183336038Y-157924729D01*
X183580631Y-157558669D01*
X183749110Y-157151925D01*
X183835000Y-156720128D01*
X183835000Y-156279872D01*
X183749110Y-155848075D01*
X183580631Y-155441331D01*
X183336038Y-155075271D01*
X183024729Y-154763962D01*
X182658669Y-154519369D01*
X182251925Y-154350890D01*
X181820128Y-154265000D01*
X181379872Y-154265000D01*
X180948075Y-154350890D01*
X180541331Y-154519369D01*
X180175271Y-154763962D01*
X179863962Y-155075271D01*
X179619369Y-155441331D01*
X179450890Y-155848075D01*
X179365000Y-156279872D01*
X167035000Y-156279872D01*
X167035000Y-140287289D01*
X169528659Y-137793630D01*
X169564344Y-137764344D01*
X169681186Y-137621972D01*
X169768007Y-137459540D01*
X169800177Y-137353489D01*
X169821472Y-137283292D01*
X169839524Y-137100000D01*
X169835000Y-137054065D01*
X169835000Y-132697295D01*
X169877431Y-132594858D01*
X170912290Y-131560000D01*
X175047542Y-131560000D01*
X175246987Y-131858491D01*
X175516509Y-132128013D01*
X175833434Y-132339775D01*
X176185581Y-132485639D01*
X176559419Y-132560000D01*
X176940581Y-132560000D01*
X177314419Y-132485639D01*
X177666566Y-132339775D01*
X177983491Y-132128013D01*
X178253013Y-131858491D01*
X178464775Y-131541566D01*
X178610639Y-131189419D01*
X178685000Y-130815581D01*
X178685000Y-130434419D01*
X178610639Y-130060581D01*
X178464775Y-129708434D01*
X178253013Y-129391509D01*
X177983491Y-129121987D01*
X177666566Y-128910225D01*
X177314419Y-128764361D01*
X176940581Y-128690000D01*
X176559419Y-128690000D01*
X176185581Y-128764361D01*
X175833434Y-128910225D01*
X175516509Y-129121987D01*
X175246987Y-129391509D01*
X175047542Y-129690000D01*
X170570931Y-129690000D01*
X170524999Y-129685476D01*
X170341707Y-129703529D01*
X170325538Y-129708434D01*
X170165460Y-129756993D01*
X170003028Y-129843814D01*
X169860656Y-129960656D01*
X169831374Y-129996336D01*
X168555142Y-131272569D01*
X168409744Y-131332795D01*
X168240226Y-131446063D01*
X168096063Y-131590226D01*
X167982795Y-131759744D01*
X167904774Y-131948102D01*
X167865000Y-132148061D01*
X167865000Y-132351939D01*
X167904774Y-132551898D01*
X167965000Y-132697296D01*
X167965001Y-136712710D01*
X165727711Y-138950000D01*
X162936247Y-138950000D01*
X162928475Y-138938368D01*
X162721632Y-138731525D01*
X162547240Y-138615000D01*
X162721632Y-138498475D01*
X162928475Y-138291632D01*
X163090990Y-138048411D01*
X163202932Y-137778158D01*
X163260000Y-137491260D01*
X163260000Y-137198740D01*
X163202932Y-136911842D01*
X163090990Y-136641589D01*
X162928475Y-136398368D01*
X162721632Y-136191525D01*
X162547240Y-136075000D01*
X162721632Y-135958475D01*
X162928475Y-135751632D01*
X163090990Y-135508411D01*
X163202932Y-135238158D01*
X163260000Y-134951260D01*
X163260000Y-134658740D01*
X163202932Y-134371842D01*
X163090990Y-134101589D01*
X162928475Y-133858368D01*
X162721632Y-133651525D01*
X162547240Y-133535000D01*
X162721632Y-133418475D01*
X162928475Y-133211632D01*
X163090990Y-132968411D01*
X163202932Y-132698158D01*
X163260000Y-132411260D01*
X163260000Y-132118740D01*
X163202932Y-131831842D01*
X163090990Y-131561589D01*
X162928475Y-131318368D01*
X162721632Y-131111525D01*
X162478411Y-130949010D01*
X162208158Y-130837068D01*
X161921260Y-130780000D01*
X161628740Y-130780000D01*
X161341842Y-130837068D01*
X161071589Y-130949010D01*
X160828368Y-131111525D01*
X160621525Y-131318368D01*
X160459010Y-131561589D01*
X160347068Y-131831842D01*
X160290000Y-132118740D01*
X160290000Y-132411260D01*
X160347068Y-132698158D01*
X160459010Y-132968411D01*
X160621525Y-133211632D01*
X160828368Y-133418475D01*
X161002760Y-133535000D01*
X160828368Y-133651525D01*
X160621525Y-133858368D01*
X160459010Y-134101589D01*
X160347068Y-134371842D01*
X160290000Y-134658740D01*
X160290000Y-134951260D01*
X160347068Y-135238158D01*
X160395465Y-135355000D01*
X152753464Y-135355000D01*
X152709998Y-135350719D01*
X152666532Y-135355000D01*
X152666522Y-135355000D01*
X152536509Y-135367805D01*
X152369686Y-135418411D01*
X152215940Y-135500589D01*
X152206409Y-135508411D01*
X152114952Y-135583468D01*
X152114950Y-135583470D01*
X152081182Y-135611183D01*
X152053469Y-135644951D01*
X151174956Y-136523465D01*
X151141183Y-136551182D01*
X151030589Y-136685941D01*
X150948411Y-136839687D01*
X150916311Y-136945506D01*
X150906026Y-136979411D01*
X150897805Y-137006510D01*
X150885000Y-137136523D01*
X150885000Y-137136530D01*
X150880719Y-137179999D01*
X150885000Y-137223468D01*
X150885001Y-151103421D01*
X150849955Y-151138467D01*
X150816183Y-151166183D01*
X150742702Y-151255719D01*
X150404956Y-151593465D01*
X150348102Y-151604774D01*
X150160000Y-151682689D01*
X150160000Y-135191578D01*
X151753517Y-133598061D01*
X155365000Y-133598061D01*
X155365000Y-133801939D01*
X155404774Y-134001898D01*
X155482795Y-134190256D01*
X155596063Y-134359774D01*
X155740226Y-134503937D01*
X155909744Y-134617205D01*
X156098102Y-134695226D01*
X156298061Y-134735000D01*
X156501939Y-134735000D01*
X156701898Y-134695226D01*
X156890256Y-134617205D01*
X157059774Y-134503937D01*
X157203937Y-134359774D01*
X157317205Y-134190256D01*
X157395226Y-134001898D01*
X157406535Y-133945043D01*
X159645049Y-131706530D01*
X159678817Y-131678817D01*
X159725993Y-131621334D01*
X159784535Y-131550000D01*
X159789411Y-131544059D01*
X159871589Y-131390313D01*
X159922195Y-131223490D01*
X159935000Y-131093477D01*
X159935000Y-131093469D01*
X159939281Y-131050000D01*
X159935000Y-131006531D01*
X159935000Y-124838454D01*
X159967205Y-124790256D01*
X160045226Y-124601898D01*
X160085000Y-124401939D01*
X160085000Y-124198061D01*
X160045226Y-123998102D01*
X159967205Y-123809744D01*
X159853937Y-123640226D01*
X159709774Y-123496063D01*
X159540256Y-123382795D01*
X159351898Y-123304774D01*
X159151939Y-123265000D01*
X158948061Y-123265000D01*
X158748102Y-123304774D01*
X158559744Y-123382795D01*
X158390226Y-123496063D01*
X158246063Y-123640226D01*
X158132795Y-123809744D01*
X158054774Y-123998102D01*
X158015000Y-124198061D01*
X158015000Y-124401939D01*
X158054774Y-124601898D01*
X158132795Y-124790256D01*
X158165000Y-124838454D01*
X158165001Y-130683420D01*
X156154957Y-132693465D01*
X156098102Y-132704774D01*
X155909744Y-132782795D01*
X155740226Y-132896063D01*
X155596063Y-133040226D01*
X155482795Y-133209744D01*
X155404774Y-133398102D01*
X155365000Y-133598061D01*
X151753517Y-133598061D01*
X151795050Y-133556529D01*
X151828817Y-133528817D01*
X151905335Y-133435581D01*
X151939410Y-133394060D01*
X151939411Y-133394059D01*
X152020275Y-133242772D01*
X152132205Y-133075256D01*
X152210226Y-132886898D01*
X152250000Y-132686939D01*
X152250000Y-132483061D01*
X152210226Y-132283102D01*
X152132205Y-132094744D01*
X152018937Y-131925226D01*
X151874774Y-131781063D01*
X151705256Y-131667795D01*
X151516898Y-131589774D01*
X151316939Y-131550000D01*
X151113061Y-131550000D01*
X150913102Y-131589774D01*
X150724744Y-131667795D01*
X150555226Y-131781063D01*
X150411063Y-131925226D01*
X150297795Y-132094744D01*
X150219774Y-132283102D01*
X150180000Y-132483061D01*
X150180000Y-132668421D01*
X148679951Y-134168471D01*
X148646184Y-134196183D01*
X148618471Y-134229951D01*
X148618468Y-134229954D01*
X148535590Y-134330941D01*
X148453412Y-134484687D01*
X148402805Y-134651510D01*
X148385719Y-134825000D01*
X148390001Y-134868479D01*
X148390001Y-137992334D01*
X148226898Y-137924774D01*
X148026939Y-137885000D01*
X147823061Y-137885000D01*
X147623102Y-137924774D01*
X147434744Y-138002795D01*
X147265226Y-138116063D01*
X147121063Y-138260226D01*
X147007795Y-138429744D01*
X146952882Y-138562314D01*
X146801898Y-138499774D01*
X146601939Y-138460000D01*
X146398061Y-138460000D01*
X146198102Y-138499774D01*
X146185000Y-138505201D01*
X146185000Y-130466578D01*
X151495051Y-125156528D01*
X151528817Y-125128817D01*
X151639411Y-124994059D01*
X151721589Y-124840313D01*
X151772195Y-124673490D01*
X151785000Y-124543477D01*
X151785000Y-124543469D01*
X151789281Y-124500000D01*
X151785000Y-124456531D01*
X151785000Y-119284419D01*
X158865000Y-119284419D01*
X158865000Y-119665581D01*
X158939361Y-120039419D01*
X159085225Y-120391566D01*
X159296987Y-120708491D01*
X159566509Y-120978013D01*
X159883434Y-121189775D01*
X160235581Y-121335639D01*
X160609419Y-121410000D01*
X160990581Y-121410000D01*
X161364419Y-121335639D01*
X161716566Y-121189775D01*
X162033491Y-120978013D01*
X162252085Y-120759419D01*
X162815000Y-120759419D01*
X162815000Y-121140581D01*
X162889361Y-121514419D01*
X163035225Y-121866566D01*
X163246987Y-122183491D01*
X163516509Y-122453013D01*
X163833434Y-122664775D01*
X164185581Y-122810639D01*
X164559419Y-122885000D01*
X164940581Y-122885000D01*
X165314419Y-122810639D01*
X165666566Y-122664775D01*
X165983491Y-122453013D01*
X166253013Y-122183491D01*
X166464775Y-121866566D01*
X166610639Y-121514419D01*
X166685000Y-121140581D01*
X166685000Y-120759419D01*
X166610639Y-120385581D01*
X166464775Y-120033434D01*
X166253013Y-119716509D01*
X165983491Y-119446987D01*
X165666566Y-119235225D01*
X165314419Y-119089361D01*
X164940581Y-119015000D01*
X164559419Y-119015000D01*
X164185581Y-119089361D01*
X163833434Y-119235225D01*
X163516509Y-119446987D01*
X163246987Y-119716509D01*
X163035225Y-120033434D01*
X162889361Y-120385581D01*
X162815000Y-120759419D01*
X162252085Y-120759419D01*
X162303013Y-120708491D01*
X162514775Y-120391566D01*
X162660639Y-120039419D01*
X162735000Y-119665581D01*
X162735000Y-119284419D01*
X162660639Y-118910581D01*
X162514775Y-118558434D01*
X162357505Y-118323061D01*
X168065000Y-118323061D01*
X168065000Y-118526939D01*
X168104774Y-118726898D01*
X168182795Y-118915256D01*
X168296063Y-119084774D01*
X168440226Y-119228937D01*
X168609744Y-119342205D01*
X168798102Y-119420226D01*
X168998061Y-119460000D01*
X169201939Y-119460000D01*
X169401898Y-119420226D01*
X169590256Y-119342205D01*
X169759774Y-119228937D01*
X169903937Y-119084774D01*
X170017205Y-118915256D01*
X170095226Y-118726898D01*
X170135000Y-118526939D01*
X170135000Y-118323061D01*
X170095226Y-118123102D01*
X170017205Y-117934744D01*
X169985000Y-117886546D01*
X169985000Y-111878711D01*
X170003937Y-111859774D01*
X170117205Y-111690256D01*
X170195226Y-111501898D01*
X170235000Y-111301939D01*
X170235000Y-111098061D01*
X170195226Y-110898102D01*
X170117205Y-110709744D01*
X170003937Y-110540226D01*
X169859774Y-110396063D01*
X169690256Y-110282795D01*
X169501898Y-110204774D01*
X169301939Y-110165000D01*
X169098061Y-110165000D01*
X168898102Y-110204774D01*
X168709744Y-110282795D01*
X168540226Y-110396063D01*
X168396063Y-110540226D01*
X168282795Y-110709744D01*
X168204774Y-110898102D01*
X168165000Y-111098061D01*
X168165000Y-111301939D01*
X168204774Y-111501898D01*
X168215001Y-111526588D01*
X168215000Y-117886546D01*
X168182795Y-117934744D01*
X168104774Y-118123102D01*
X168065000Y-118323061D01*
X162357505Y-118323061D01*
X162303013Y-118241509D01*
X162033491Y-117971987D01*
X161716566Y-117760225D01*
X161364419Y-117614361D01*
X160990581Y-117540000D01*
X160609419Y-117540000D01*
X160235581Y-117614361D01*
X159883434Y-117760225D01*
X159566509Y-117971987D01*
X159296987Y-118241509D01*
X159085225Y-118558434D01*
X158939361Y-118910581D01*
X158865000Y-119284419D01*
X151785000Y-119284419D01*
X151785000Y-110378711D01*
X151803937Y-110359774D01*
X151917205Y-110190256D01*
X151995226Y-110001898D01*
X152035000Y-109801939D01*
X152035000Y-109773061D01*
X161215000Y-109773061D01*
X161215000Y-109976939D01*
X161254774Y-110176898D01*
X161332795Y-110365256D01*
X161446063Y-110534774D01*
X161590226Y-110678937D01*
X161759744Y-110792205D01*
X161948102Y-110870226D01*
X162148061Y-110910000D01*
X162351939Y-110910000D01*
X162551898Y-110870226D01*
X162740256Y-110792205D01*
X162909774Y-110678937D01*
X163053937Y-110534774D01*
X163167205Y-110365256D01*
X163245226Y-110176898D01*
X163256535Y-110120043D01*
X164221069Y-109155510D01*
X164305495Y-109147195D01*
X164472318Y-109096589D01*
X164626064Y-109014411D01*
X164760822Y-108903817D01*
X164788539Y-108870044D01*
X164973583Y-108685000D01*
X171861546Y-108685000D01*
X171909744Y-108717205D01*
X172098102Y-108795226D01*
X172298061Y-108835000D01*
X172501939Y-108835000D01*
X172701898Y-108795226D01*
X172890256Y-108717205D01*
X173059774Y-108603937D01*
X173203937Y-108459774D01*
X173317205Y-108290256D01*
X173384207Y-108128501D01*
X173397068Y-108193158D01*
X173509010Y-108463411D01*
X173671525Y-108706632D01*
X173878368Y-108913475D01*
X174052760Y-109030000D01*
X173878368Y-109146525D01*
X173671525Y-109353368D01*
X173509010Y-109596589D01*
X173397068Y-109866842D01*
X173340000Y-110153740D01*
X173340000Y-110446260D01*
X173397068Y-110733158D01*
X173509010Y-111003411D01*
X173671525Y-111246632D01*
X173878368Y-111453475D01*
X174121589Y-111615990D01*
X174391842Y-111727932D01*
X174678740Y-111785000D01*
X174971260Y-111785000D01*
X175258158Y-111727932D01*
X175528411Y-111615990D01*
X175771632Y-111453475D01*
X175978475Y-111246632D01*
X176140990Y-111003411D01*
X176252932Y-110733158D01*
X176310000Y-110446260D01*
X176310000Y-110153740D01*
X176252932Y-109866842D01*
X176140990Y-109596589D01*
X175978475Y-109353368D01*
X175771632Y-109146525D01*
X175603854Y-109034419D01*
X176715000Y-109034419D01*
X176715000Y-109415581D01*
X176789361Y-109789419D01*
X176935225Y-110141566D01*
X177146987Y-110458491D01*
X177416509Y-110728013D01*
X177733434Y-110939775D01*
X178085581Y-111085639D01*
X178459419Y-111160000D01*
X178840581Y-111160000D01*
X179214419Y-111085639D01*
X179566566Y-110939775D01*
X179883491Y-110728013D01*
X180153013Y-110458491D01*
X180364775Y-110141566D01*
X180510639Y-109789419D01*
X180585000Y-109415581D01*
X180585000Y-109034419D01*
X180510639Y-108660581D01*
X180364775Y-108308434D01*
X180153013Y-107991509D01*
X179883491Y-107721987D01*
X179566566Y-107510225D01*
X179214419Y-107364361D01*
X178840581Y-107290000D01*
X178459419Y-107290000D01*
X178085581Y-107364361D01*
X177733434Y-107510225D01*
X177416509Y-107721987D01*
X177146987Y-107991509D01*
X176935225Y-108308434D01*
X176789361Y-108660581D01*
X176715000Y-109034419D01*
X175603854Y-109034419D01*
X175597240Y-109030000D01*
X175771632Y-108913475D01*
X175978475Y-108706632D01*
X176140990Y-108463411D01*
X176252932Y-108193158D01*
X176310000Y-107906260D01*
X176310000Y-107613740D01*
X176252932Y-107326842D01*
X176140990Y-107056589D01*
X175978475Y-106813368D01*
X175771632Y-106606525D01*
X175597240Y-106490000D01*
X175771632Y-106373475D01*
X175978475Y-106166632D01*
X176140990Y-105923411D01*
X176252932Y-105653158D01*
X176310000Y-105366260D01*
X176310000Y-105073740D01*
X176252932Y-104786842D01*
X176140990Y-104516589D01*
X176063088Y-104400000D01*
X178536928Y-104400000D01*
X178536928Y-106200000D01*
X178549188Y-106324482D01*
X178585498Y-106444180D01*
X178644463Y-106554494D01*
X178723815Y-106651185D01*
X178820506Y-106730537D01*
X178930820Y-106789502D01*
X179050518Y-106825812D01*
X179175000Y-106838072D01*
X180975000Y-106838072D01*
X181099482Y-106825812D01*
X181219180Y-106789502D01*
X181329494Y-106730537D01*
X181426185Y-106651185D01*
X181505537Y-106554494D01*
X181564502Y-106444180D01*
X181600812Y-106324482D01*
X181613072Y-106200000D01*
X181613072Y-104400000D01*
X181600812Y-104275518D01*
X181564502Y-104155820D01*
X181505537Y-104045506D01*
X181426185Y-103948815D01*
X181329494Y-103869463D01*
X181219180Y-103810498D01*
X181200873Y-103804944D01*
X181267312Y-103738505D01*
X181435299Y-103487095D01*
X181551011Y-103207743D01*
X181610000Y-102911184D01*
X181610000Y-102608816D01*
X181570338Y-102409419D01*
X181790000Y-102409419D01*
X181790000Y-102790581D01*
X181864361Y-103164419D01*
X182010225Y-103516566D01*
X182221987Y-103833491D01*
X182491509Y-104103013D01*
X182808434Y-104314775D01*
X183160581Y-104460639D01*
X183534419Y-104535000D01*
X183915581Y-104535000D01*
X184289419Y-104460639D01*
X184641566Y-104314775D01*
X184958491Y-104103013D01*
X185228013Y-103833491D01*
X185439775Y-103516566D01*
X185585639Y-103164419D01*
X185660000Y-102790581D01*
X185660000Y-102409419D01*
X185585639Y-102035581D01*
X185439775Y-101683434D01*
X185228013Y-101366509D01*
X184958491Y-101096987D01*
X184641566Y-100885225D01*
X184289419Y-100739361D01*
X183915581Y-100665000D01*
X183534419Y-100665000D01*
X183160581Y-100739361D01*
X182808434Y-100885225D01*
X182491509Y-101096987D01*
X182221987Y-101366509D01*
X182010225Y-101683434D01*
X181864361Y-102035581D01*
X181790000Y-102409419D01*
X181570338Y-102409419D01*
X181551011Y-102312257D01*
X181435299Y-102032905D01*
X181267312Y-101781495D01*
X181053505Y-101567688D01*
X180802095Y-101399701D01*
X180522743Y-101283989D01*
X180226184Y-101225000D01*
X179923816Y-101225000D01*
X179627257Y-101283989D01*
X179347905Y-101399701D01*
X179096495Y-101567688D01*
X178882688Y-101781495D01*
X178714701Y-102032905D01*
X178598989Y-102312257D01*
X178540000Y-102608816D01*
X178540000Y-102911184D01*
X178598989Y-103207743D01*
X178714701Y-103487095D01*
X178882688Y-103738505D01*
X178949127Y-103804944D01*
X178930820Y-103810498D01*
X178820506Y-103869463D01*
X178723815Y-103948815D01*
X178644463Y-104045506D01*
X178585498Y-104155820D01*
X178549188Y-104275518D01*
X178536928Y-104400000D01*
X176063088Y-104400000D01*
X175978475Y-104273368D01*
X175771632Y-104066525D01*
X175597240Y-103950000D01*
X175771632Y-103833475D01*
X175978475Y-103626632D01*
X176140990Y-103383411D01*
X176252932Y-103113158D01*
X176310000Y-102826260D01*
X176310000Y-102533740D01*
X176252932Y-102246842D01*
X176140990Y-101976589D01*
X175978475Y-101733368D01*
X175771632Y-101526525D01*
X175589466Y-101404805D01*
X175706355Y-101335178D01*
X175922588Y-101140269D01*
X176096641Y-100906920D01*
X176221825Y-100644099D01*
X176266476Y-100496890D01*
X176145155Y-100267000D01*
X174952000Y-100267000D01*
X174952000Y-100287000D01*
X174698000Y-100287000D01*
X174698000Y-100267000D01*
X173504845Y-100267000D01*
X173383524Y-100496890D01*
X173428175Y-100644099D01*
X173553359Y-100906920D01*
X173727412Y-101140269D01*
X173943645Y-101335178D01*
X174060534Y-101404805D01*
X173878368Y-101526525D01*
X173671525Y-101733368D01*
X173509010Y-101976589D01*
X173397068Y-102246842D01*
X173340000Y-102533740D01*
X173340000Y-102826260D01*
X173397068Y-103113158D01*
X173509010Y-103383411D01*
X173671525Y-103626632D01*
X173878368Y-103833475D01*
X174052760Y-103950000D01*
X173878368Y-104066525D01*
X173671525Y-104273368D01*
X173509010Y-104516589D01*
X173397068Y-104786842D01*
X173340000Y-105073740D01*
X173340000Y-105366260D01*
X173397068Y-105653158D01*
X173509010Y-105923411D01*
X173671525Y-106166632D01*
X173878368Y-106373475D01*
X174052760Y-106490000D01*
X173878368Y-106606525D01*
X173671525Y-106813368D01*
X173509010Y-107056589D01*
X173397068Y-107326842D01*
X173373456Y-107445545D01*
X173317205Y-107309744D01*
X173203937Y-107140226D01*
X173059774Y-106996063D01*
X172890256Y-106882795D01*
X172701898Y-106804774D01*
X172501939Y-106765000D01*
X172298061Y-106765000D01*
X172098102Y-106804774D01*
X171909744Y-106882795D01*
X171861546Y-106915000D01*
X165472158Y-106915000D01*
X165472158Y-106198303D01*
X165504363Y-106150105D01*
X165582384Y-105961747D01*
X165622158Y-105761788D01*
X165622158Y-105557910D01*
X165582384Y-105357951D01*
X165504363Y-105169593D01*
X165391095Y-105000075D01*
X165246932Y-104855912D01*
X165077414Y-104742644D01*
X164889056Y-104664623D01*
X164689097Y-104624849D01*
X164485219Y-104624849D01*
X164285260Y-104664623D01*
X164096902Y-104742644D01*
X163927384Y-104855912D01*
X163783221Y-105000075D01*
X163669953Y-105169593D01*
X163591932Y-105357951D01*
X163552158Y-105557910D01*
X163552158Y-105761788D01*
X163591932Y-105961747D01*
X163669953Y-106150105D01*
X163702159Y-106198304D01*
X163702158Y-107043680D01*
X163702158Y-107400279D01*
X163676510Y-107402805D01*
X163509687Y-107453411D01*
X163402470Y-107510719D01*
X163355941Y-107535589D01*
X163254953Y-107618468D01*
X163254951Y-107618470D01*
X163221183Y-107646183D01*
X163193470Y-107679951D01*
X162004957Y-108868465D01*
X161948102Y-108879774D01*
X161759744Y-108957795D01*
X161590226Y-109071063D01*
X161446063Y-109215226D01*
X161332795Y-109384744D01*
X161254774Y-109573102D01*
X161215000Y-109773061D01*
X152035000Y-109773061D01*
X152035000Y-109598061D01*
X151995226Y-109398102D01*
X151917205Y-109209744D01*
X151803937Y-109040226D01*
X151751821Y-108988110D01*
X151817205Y-108890256D01*
X151895226Y-108701898D01*
X151935000Y-108501939D01*
X151935000Y-108298061D01*
X151895226Y-108098102D01*
X151817205Y-107909744D01*
X151703937Y-107740226D01*
X151559774Y-107596063D01*
X151390256Y-107482795D01*
X151201898Y-107404774D01*
X151001939Y-107365000D01*
X150798061Y-107365000D01*
X150598102Y-107404774D01*
X150409744Y-107482795D01*
X150240226Y-107596063D01*
X150096063Y-107740226D01*
X150080472Y-107763560D01*
X150071183Y-107771183D01*
X150043470Y-107804951D01*
X149304951Y-108543471D01*
X149271184Y-108571183D01*
X149243471Y-108604951D01*
X149243468Y-108604954D01*
X149160590Y-108705941D01*
X149078412Y-108859687D01*
X149027805Y-109026510D01*
X149010719Y-109200000D01*
X149015001Y-109243479D01*
X149015000Y-123233421D01*
X146054959Y-126193463D01*
X146054954Y-126193467D01*
X144235001Y-128013421D01*
X144235001Y-124087288D01*
X145090548Y-123231742D01*
X145123102Y-123245226D01*
X145323061Y-123285000D01*
X145526939Y-123285000D01*
X145726898Y-123245226D01*
X145915256Y-123167205D01*
X146084774Y-123053937D01*
X146228937Y-122909774D01*
X146342205Y-122740256D01*
X146420226Y-122551898D01*
X146460000Y-122351939D01*
X146460000Y-122148061D01*
X146420226Y-121948102D01*
X146406742Y-121915548D01*
X148128666Y-120193624D01*
X148164344Y-120164344D01*
X148281186Y-120021972D01*
X148368007Y-119859540D01*
X148411395Y-119716509D01*
X148421471Y-119683293D01*
X148439524Y-119500001D01*
X148435000Y-119454069D01*
X148435000Y-118047295D01*
X148495226Y-117901898D01*
X148535000Y-117701939D01*
X148535000Y-117498061D01*
X148495226Y-117298102D01*
X148417205Y-117109744D01*
X148303937Y-116940226D01*
X148159774Y-116796063D01*
X147990256Y-116682795D01*
X147801898Y-116604774D01*
X147601939Y-116565000D01*
X147398061Y-116565000D01*
X147198102Y-116604774D01*
X147009744Y-116682795D01*
X146840226Y-116796063D01*
X146696063Y-116940226D01*
X146582795Y-117109744D01*
X146504774Y-117298102D01*
X146465000Y-117498061D01*
X146465000Y-117701939D01*
X146504774Y-117901898D01*
X146565001Y-118047297D01*
X146565000Y-119112710D01*
X146285000Y-119392710D01*
X146285000Y-114038454D01*
X146317205Y-113990256D01*
X146395226Y-113801898D01*
X146435000Y-113601939D01*
X146435000Y-113398061D01*
X146395226Y-113198102D01*
X146317205Y-113009744D01*
X146210468Y-112850000D01*
X146317205Y-112690256D01*
X146395226Y-112501898D01*
X146435000Y-112301939D01*
X146435000Y-112098061D01*
X146395226Y-111898102D01*
X146317205Y-111709744D01*
X146203937Y-111540226D01*
X146059774Y-111396063D01*
X145890256Y-111282795D01*
X145701898Y-111204774D01*
X145501939Y-111165000D01*
X145298061Y-111165000D01*
X145098102Y-111204774D01*
X144909744Y-111282795D01*
X144861546Y-111315000D01*
X144643465Y-111315000D01*
X144599999Y-111310719D01*
X144556533Y-111315000D01*
X144556523Y-111315000D01*
X144426510Y-111327805D01*
X144259687Y-111378411D01*
X144105941Y-111460589D01*
X143971183Y-111571183D01*
X143943466Y-111604956D01*
X143682157Y-111866265D01*
X143682157Y-105547909D01*
X146852157Y-105547909D01*
X146852157Y-105751787D01*
X146891931Y-105951746D01*
X146969952Y-106140104D01*
X147083220Y-106309622D01*
X147227383Y-106453785D01*
X147396901Y-106567053D01*
X147585259Y-106645074D01*
X147785218Y-106684848D01*
X147989096Y-106684848D01*
X148189055Y-106645074D01*
X148377413Y-106567053D01*
X148425613Y-106534847D01*
X155439952Y-106534849D01*
X155463667Y-106542043D01*
X155637156Y-106559130D01*
X155810646Y-106542043D01*
X155834361Y-106534849D01*
X159258770Y-106534849D01*
X159336901Y-106587054D01*
X159525259Y-106665075D01*
X159725218Y-106704849D01*
X159929096Y-106704849D01*
X160129055Y-106665075D01*
X160317413Y-106587054D01*
X160486931Y-106473786D01*
X160631094Y-106329623D01*
X160744362Y-106160105D01*
X160822383Y-105971747D01*
X160862157Y-105771788D01*
X160862157Y-105567910D01*
X160822383Y-105367951D01*
X160744362Y-105179593D01*
X160631094Y-105010075D01*
X160486931Y-104865912D01*
X160317413Y-104752644D01*
X160129055Y-104674623D01*
X159929096Y-104634849D01*
X159725218Y-104634849D01*
X159525259Y-104674623D01*
X159336901Y-104752644D01*
X159318635Y-104764849D01*
X155660626Y-104764849D01*
X155617157Y-104760568D01*
X155573688Y-104764849D01*
X155573680Y-104764849D01*
X155573670Y-104764850D01*
X148425612Y-104764848D01*
X148377413Y-104732643D01*
X148189055Y-104654622D01*
X147989096Y-104614848D01*
X147785218Y-104614848D01*
X147585259Y-104654622D01*
X147396901Y-104732643D01*
X147227383Y-104845911D01*
X147083220Y-104990074D01*
X146969952Y-105159592D01*
X146891931Y-105347950D01*
X146852157Y-105547909D01*
X143682157Y-105547909D01*
X143682156Y-102103324D01*
X143686438Y-102059848D01*
X143669351Y-101886358D01*
X143618745Y-101719535D01*
X143536567Y-101565789D01*
X143453689Y-101464802D01*
X143453681Y-101464794D01*
X143425973Y-101431032D01*
X143392211Y-101403324D01*
X142436948Y-100448061D01*
X153515000Y-100448061D01*
X153515000Y-100651939D01*
X153554774Y-100851898D01*
X153632795Y-101040256D01*
X153746063Y-101209774D01*
X153890226Y-101353937D01*
X154059744Y-101467205D01*
X154248102Y-101545226D01*
X154448061Y-101585000D01*
X154651939Y-101585000D01*
X154851898Y-101545226D01*
X155040256Y-101467205D01*
X155209774Y-101353937D01*
X155353937Y-101209774D01*
X155467205Y-101040256D01*
X155545226Y-100851898D01*
X155585000Y-100651939D01*
X155585000Y-100448061D01*
X155545226Y-100248102D01*
X155467205Y-100059744D01*
X155353937Y-99890226D01*
X155209774Y-99746063D01*
X155040256Y-99632795D01*
X154851898Y-99554774D01*
X154651939Y-99515000D01*
X154448061Y-99515000D01*
X154248102Y-99554774D01*
X154059744Y-99632795D01*
X153890226Y-99746063D01*
X153746063Y-99890226D01*
X153632795Y-100059744D01*
X153554774Y-100248102D01*
X153515000Y-100448061D01*
X142436948Y-100448061D01*
X141962157Y-99973271D01*
X141962157Y-97749396D01*
X142057748Y-97844987D01*
X142325537Y-98023918D01*
X142623088Y-98147168D01*
X142938967Y-98210000D01*
X143261033Y-98210000D01*
X143576912Y-98147168D01*
X143874463Y-98023918D01*
X144142252Y-97844987D01*
X144369987Y-97617252D01*
X144370000Y-97617233D01*
X144370013Y-97617252D01*
X144597748Y-97844987D01*
X144865537Y-98023918D01*
X145163088Y-98147168D01*
X145478967Y-98210000D01*
X145801033Y-98210000D01*
X146116912Y-98147168D01*
X146414463Y-98023918D01*
X146682252Y-97844987D01*
X146816826Y-97710413D01*
X147224192Y-97710413D01*
X147319956Y-97974814D01*
X147609571Y-98115704D01*
X147921108Y-98197384D01*
X148242595Y-98216718D01*
X148561675Y-98172961D01*
X148866088Y-98067795D01*
X149040044Y-97974814D01*
X149135808Y-97710413D01*
X148180000Y-96754605D01*
X147224192Y-97710413D01*
X146816826Y-97710413D01*
X146909987Y-97617252D01*
X146982720Y-97508400D01*
X147044587Y-97530808D01*
X148000395Y-96575000D01*
X147044587Y-95619192D01*
X146982720Y-95641600D01*
X146909987Y-95532748D01*
X146682252Y-95305013D01*
X146414463Y-95126082D01*
X146116912Y-95002832D01*
X145801033Y-94940000D01*
X145478967Y-94940000D01*
X145163088Y-95002832D01*
X144865537Y-95126082D01*
X144597748Y-95305013D01*
X144370013Y-95532748D01*
X144370000Y-95532767D01*
X144369987Y-95532748D01*
X144142252Y-95305013D01*
X143874463Y-95126082D01*
X143576912Y-95002832D01*
X143261033Y-94940000D01*
X142938967Y-94940000D01*
X142935986Y-94940593D01*
X143120214Y-94756365D01*
X143301898Y-94720226D01*
X143490256Y-94642205D01*
X143659774Y-94528937D01*
X143803937Y-94384774D01*
X143917205Y-94215256D01*
X143995226Y-94026898D01*
X144035000Y-93826939D01*
X144035000Y-93623061D01*
X143995226Y-93423102D01*
X143917205Y-93234744D01*
X143803937Y-93065226D01*
X143659774Y-92921063D01*
X143490256Y-92807795D01*
X143301898Y-92729774D01*
X143101939Y-92690000D01*
X142898061Y-92690000D01*
X142698102Y-92729774D01*
X142509744Y-92807795D01*
X142340226Y-92921063D01*
X142196063Y-93065226D01*
X142082795Y-93234744D01*
X142043280Y-93330141D01*
X140482108Y-94891314D01*
X140448341Y-94919026D01*
X140420628Y-94952794D01*
X140420625Y-94952797D01*
X140337747Y-95053784D01*
X140255569Y-95207530D01*
X140204962Y-95374353D01*
X140187876Y-95547843D01*
X140192158Y-95591322D01*
X140192157Y-100296380D01*
X140187876Y-100339849D01*
X140192157Y-100383318D01*
X140192157Y-100383325D01*
X140204962Y-100513338D01*
X140255568Y-100680161D01*
X140337746Y-100833907D01*
X140448340Y-100968666D01*
X140482113Y-100996383D01*
X141912157Y-102426428D01*
X141912159Y-118471393D01*
X141879953Y-118519593D01*
X141801932Y-118707951D01*
X141762158Y-118907910D01*
X141762158Y-119111788D01*
X141801932Y-119311747D01*
X141879953Y-119500105D01*
X141993221Y-119669623D01*
X142137384Y-119813786D01*
X142306902Y-119927054D01*
X142495260Y-120005075D01*
X142618777Y-120029644D01*
X140504951Y-122143471D01*
X140471184Y-122171183D01*
X140443471Y-122204951D01*
X140443468Y-122204954D01*
X140360590Y-122305941D01*
X140278412Y-122459687D01*
X140227805Y-122626510D01*
X140210719Y-122800000D01*
X140215001Y-122843479D01*
X140215001Y-125165976D01*
X140191573Y-125109417D01*
X140078305Y-124939899D01*
X139934142Y-124795736D01*
X139764624Y-124682468D01*
X139576266Y-124604447D01*
X139519412Y-124593138D01*
X128387904Y-113461631D01*
X128385000Y-113432145D01*
X128385000Y-100293465D01*
X128389281Y-100249999D01*
X128385000Y-100206533D01*
X128385000Y-100206523D01*
X128372195Y-100076510D01*
X128321589Y-99909687D01*
X128239411Y-99755941D01*
X128128817Y-99621183D01*
X128095050Y-99593471D01*
X125556534Y-97054956D01*
X125528817Y-97021183D01*
X125394059Y-96910589D01*
X125240313Y-96828411D01*
X125073490Y-96777805D01*
X124943477Y-96765000D01*
X124943469Y-96765000D01*
X124900000Y-96760719D01*
X124856531Y-96765000D01*
X120988454Y-96765000D01*
X120940256Y-96732795D01*
X120751898Y-96654774D01*
X120551939Y-96615000D01*
X120348061Y-96615000D01*
X120148102Y-96654774D01*
X119959744Y-96732795D01*
X119790226Y-96846063D01*
X119646063Y-96990226D01*
X119532795Y-97159744D01*
X119454774Y-97348102D01*
X119415000Y-97548061D01*
X116227000Y-97548061D01*
X116227000Y-91410903D01*
X128034849Y-91410903D01*
X128034849Y-91614781D01*
X128074623Y-91814740D01*
X128152644Y-92003098D01*
X128265912Y-92172616D01*
X128410075Y-92316779D01*
X128579593Y-92430047D01*
X128767951Y-92508068D01*
X128967910Y-92547842D01*
X129171788Y-92547842D01*
X129371747Y-92508068D01*
X129560105Y-92430047D01*
X129608303Y-92397842D01*
X145321264Y-92397842D01*
X147888143Y-94964722D01*
X147798325Y-94977039D01*
X147493912Y-95082205D01*
X147319956Y-95175186D01*
X147224192Y-95439587D01*
X148180000Y-96395395D01*
X148194143Y-96381253D01*
X148373748Y-96560858D01*
X148359605Y-96575000D01*
X149315413Y-97530808D01*
X149579814Y-97435044D01*
X149720704Y-97145429D01*
X149802384Y-96833892D01*
X149821718Y-96512405D01*
X149787104Y-96260000D01*
X157808422Y-96260000D01*
X159915000Y-98366579D01*
X159915001Y-99161545D01*
X159882795Y-99209744D01*
X159804774Y-99398102D01*
X159765000Y-99598061D01*
X159765000Y-99801939D01*
X159804774Y-100001898D01*
X159882795Y-100190256D01*
X159996063Y-100359774D01*
X160140226Y-100503937D01*
X160309744Y-100617205D01*
X160498102Y-100695226D01*
X160698061Y-100735000D01*
X160901939Y-100735000D01*
X161101898Y-100695226D01*
X161290256Y-100617205D01*
X161459774Y-100503937D01*
X161603937Y-100359774D01*
X161717205Y-100190256D01*
X161795226Y-100001898D01*
X161835000Y-99801939D01*
X161835000Y-99598061D01*
X161795226Y-99398102D01*
X161717205Y-99209744D01*
X161685000Y-99161546D01*
X161685000Y-98450000D01*
X173336928Y-98450000D01*
X173349188Y-98574482D01*
X173385498Y-98694180D01*
X173444463Y-98804494D01*
X173523815Y-98901185D01*
X173620506Y-98980537D01*
X173730820Y-99039502D01*
X173811466Y-99063966D01*
X173727412Y-99139731D01*
X173553359Y-99373080D01*
X173428175Y-99635901D01*
X173383524Y-99783110D01*
X173504845Y-100013000D01*
X174698000Y-100013000D01*
X174698000Y-97727000D01*
X174952000Y-97727000D01*
X174952000Y-100013000D01*
X176145155Y-100013000D01*
X176266476Y-99783110D01*
X176221825Y-99635901D01*
X176096641Y-99373080D01*
X175922588Y-99139731D01*
X175838534Y-99063966D01*
X175919180Y-99039502D01*
X176029494Y-98980537D01*
X176126185Y-98901185D01*
X176205537Y-98804494D01*
X176264502Y-98694180D01*
X176300812Y-98574482D01*
X176313072Y-98450000D01*
X176310000Y-97885750D01*
X176151250Y-97727000D01*
X174952000Y-97727000D01*
X174698000Y-97727000D01*
X173498750Y-97727000D01*
X173340000Y-97885750D01*
X173336928Y-98450000D01*
X161685000Y-98450000D01*
X161685000Y-98043469D01*
X161689281Y-98000000D01*
X161685000Y-97956531D01*
X161685000Y-97956523D01*
X161672195Y-97826510D01*
X161649574Y-97751939D01*
X161621589Y-97659686D01*
X161539411Y-97505941D01*
X161456532Y-97404953D01*
X161456530Y-97404951D01*
X161428817Y-97371183D01*
X161395050Y-97343471D01*
X160801579Y-96750000D01*
X173336928Y-96750000D01*
X173340000Y-97314250D01*
X173498750Y-97473000D01*
X174698000Y-97473000D01*
X174698000Y-96273750D01*
X174952000Y-96273750D01*
X174952000Y-97473000D01*
X176151250Y-97473000D01*
X176310000Y-97314250D01*
X176313072Y-96750000D01*
X176300812Y-96625518D01*
X176264502Y-96505820D01*
X176205537Y-96395506D01*
X176126185Y-96298815D01*
X176029494Y-96219463D01*
X175919180Y-96160498D01*
X175799482Y-96124188D01*
X175675000Y-96111928D01*
X175110750Y-96115000D01*
X174952000Y-96273750D01*
X174698000Y-96273750D01*
X174539250Y-96115000D01*
X173975000Y-96111928D01*
X173850518Y-96124188D01*
X173730820Y-96160498D01*
X173620506Y-96219463D01*
X173523815Y-96298815D01*
X173444463Y-96395506D01*
X173385498Y-96505820D01*
X173349188Y-96625518D01*
X173336928Y-96750000D01*
X160801579Y-96750000D01*
X159281451Y-95229872D01*
X179365000Y-95229872D01*
X179365000Y-95670128D01*
X179450890Y-96101925D01*
X179619369Y-96508669D01*
X179863962Y-96874729D01*
X180175271Y-97186038D01*
X180541331Y-97430631D01*
X180948075Y-97599110D01*
X181379872Y-97685000D01*
X181820128Y-97685000D01*
X182251925Y-97599110D01*
X182658669Y-97430631D01*
X183024729Y-97186038D01*
X183336038Y-96874729D01*
X183580631Y-96508669D01*
X183749110Y-96101925D01*
X183835000Y-95670128D01*
X183835000Y-95229872D01*
X183749110Y-94798075D01*
X183580631Y-94391331D01*
X183336038Y-94025271D01*
X183024729Y-93713962D01*
X182658669Y-93469369D01*
X182251925Y-93300890D01*
X181820128Y-93215000D01*
X181379872Y-93215000D01*
X180948075Y-93300890D01*
X180541331Y-93469369D01*
X180175271Y-93713962D01*
X179863962Y-94025271D01*
X179619369Y-94391331D01*
X179450890Y-94798075D01*
X179365000Y-95229872D01*
X159281451Y-95229872D01*
X158831534Y-94779956D01*
X158803817Y-94746183D01*
X158669059Y-94635589D01*
X158515313Y-94553411D01*
X158348490Y-94502805D01*
X158218477Y-94490000D01*
X158218469Y-94490000D01*
X158175000Y-94485719D01*
X158131531Y-94490000D01*
X151808637Y-94490000D01*
X151946074Y-94284311D01*
X152069324Y-93986760D01*
X152132156Y-93670881D01*
X152132156Y-93348815D01*
X152069324Y-93032936D01*
X151946074Y-92735385D01*
X151767143Y-92467596D01*
X151539408Y-92239861D01*
X151539389Y-92239848D01*
X151539408Y-92239835D01*
X151767143Y-92012100D01*
X151946074Y-91744311D01*
X152069324Y-91446760D01*
X152132156Y-91130881D01*
X152132156Y-90808815D01*
X152069324Y-90492936D01*
X151946074Y-90195385D01*
X151767143Y-89927596D01*
X151539408Y-89699861D01*
X151271619Y-89520930D01*
X150974068Y-89397680D01*
X150658189Y-89334848D01*
X150336123Y-89334848D01*
X150020244Y-89397680D01*
X149722693Y-89520930D01*
X149454904Y-89699861D01*
X149227169Y-89927596D01*
X149158203Y-90030811D01*
X149041769Y-89988640D01*
X148085961Y-90944448D01*
X149041769Y-91900256D01*
X149130873Y-91867983D01*
X149227169Y-92012100D01*
X149454904Y-92239835D01*
X149454923Y-92239848D01*
X149454904Y-92239861D01*
X149227169Y-92467596D01*
X149048238Y-92735385D01*
X148924988Y-93032936D01*
X148862156Y-93348815D01*
X148862156Y-93435577D01*
X148007463Y-92580885D01*
X148288031Y-92542409D01*
X148592444Y-92437243D01*
X148766400Y-92344262D01*
X148862164Y-92079861D01*
X147906356Y-91124053D01*
X147892214Y-91138196D01*
X147712609Y-90958591D01*
X147726751Y-90944448D01*
X146770943Y-89988640D01*
X146506542Y-90084404D01*
X146365652Y-90374019D01*
X146283972Y-90685556D01*
X146274135Y-90849126D01*
X146181901Y-90773431D01*
X146028155Y-90691253D01*
X145861332Y-90640647D01*
X145731319Y-90627842D01*
X145731311Y-90627842D01*
X145687842Y-90623561D01*
X145644373Y-90627842D01*
X129608303Y-90627842D01*
X129560105Y-90595637D01*
X129371747Y-90517616D01*
X129171788Y-90477842D01*
X128967910Y-90477842D01*
X128767951Y-90517616D01*
X128579593Y-90595637D01*
X128410075Y-90708905D01*
X128265912Y-90853068D01*
X128152644Y-91022586D01*
X128074623Y-91210944D01*
X128034849Y-91410903D01*
X116227000Y-91410903D01*
X116227000Y-89809035D01*
X146950548Y-89809035D01*
X147906356Y-90764843D01*
X148862164Y-89809035D01*
X148766400Y-89544634D01*
X148476785Y-89403744D01*
X148165248Y-89322064D01*
X147843761Y-89302730D01*
X147524681Y-89346487D01*
X147220268Y-89451653D01*
X147046312Y-89544634D01*
X146950548Y-89809035D01*
X116227000Y-89809035D01*
X116227000Y-88127000D01*
X188972916Y-88127000D01*
X188940816Y-136918571D01*
G37*
X188940816Y-136918571D02*
X185335000Y-136918571D01*
X185335000Y-151631428D01*
X188931137Y-151631428D01*
X188923083Y-163873000D01*
X184185000Y-163873000D01*
X184185000Y-160160000D01*
X178615000Y-160160000D01*
X178615000Y-163873000D01*
X176885000Y-163873000D01*
X176885000Y-160160000D01*
X172315000Y-160160000D01*
X172315000Y-163873000D01*
X116227000Y-163873000D01*
X116227000Y-158880000D01*
X133091928Y-158880000D01*
X133091928Y-160680000D01*
X133104188Y-160804482D01*
X133140498Y-160924180D01*
X133199463Y-161034494D01*
X133278815Y-161131185D01*
X133375506Y-161210537D01*
X133485820Y-161269502D01*
X133605518Y-161305812D01*
X133730000Y-161318072D01*
X135530000Y-161318072D01*
X135654482Y-161305812D01*
X135774180Y-161269502D01*
X135884494Y-161210537D01*
X135981185Y-161131185D01*
X136060537Y-161034494D01*
X136119502Y-160924180D01*
X136155812Y-160804482D01*
X136168072Y-160680000D01*
X136168072Y-158880000D01*
X136155812Y-158755518D01*
X136119502Y-158635820D01*
X136060537Y-158525506D01*
X135981185Y-158428815D01*
X135884494Y-158349463D01*
X135774180Y-158290498D01*
X135755873Y-158284944D01*
X135822312Y-158218505D01*
X135990299Y-157967095D01*
X136106011Y-157687743D01*
X136165000Y-157391184D01*
X136165000Y-157088816D01*
X136106011Y-156792257D01*
X135990299Y-156512905D01*
X135822312Y-156261495D01*
X135608505Y-156047688D01*
X135492237Y-155970000D01*
X135608505Y-155892312D01*
X135822312Y-155678505D01*
X135990299Y-155427095D01*
X136106011Y-155147743D01*
X136165000Y-154851184D01*
X136165000Y-154548816D01*
X136106011Y-154252257D01*
X135990299Y-153972905D01*
X135822312Y-153721495D01*
X135608505Y-153507688D01*
X135519283Y-153448072D01*
X135580000Y-153448072D01*
X135704482Y-153435812D01*
X135824180Y-153399502D01*
X135934494Y-153340537D01*
X136031185Y-153261185D01*
X136110537Y-153164494D01*
X136169502Y-153054180D01*
X136205812Y-152934482D01*
X136218072Y-152810000D01*
X136218072Y-151010000D01*
X136205812Y-150885518D01*
X136169502Y-150765820D01*
X136110537Y-150655506D01*
X136031185Y-150558815D01*
X135934494Y-150479463D01*
X135824180Y-150420498D01*
X135805873Y-150414944D01*
X135872312Y-150348505D01*
X136040299Y-150097095D01*
X136156011Y-149817743D01*
X136215000Y-149521184D01*
X136215000Y-149218816D01*
X136156011Y-148922257D01*
X136040299Y-148642905D01*
X135872312Y-148391495D01*
X135658505Y-148177688D01*
X135542237Y-148100000D01*
X135658505Y-148022312D01*
X135872312Y-147808505D01*
X136040299Y-147557095D01*
X136156011Y-147277743D01*
X136215000Y-146981184D01*
X136215000Y-146678816D01*
X136156011Y-146382257D01*
X136040299Y-146102905D01*
X135872312Y-145851495D01*
X135658505Y-145637688D01*
X135407095Y-145469701D01*
X135127743Y-145353989D01*
X134831184Y-145295000D01*
X134528816Y-145295000D01*
X134232257Y-145353989D01*
X133952905Y-145469701D01*
X133701495Y-145637688D01*
X133487688Y-145851495D01*
X133319701Y-146102905D01*
X133203989Y-146382257D01*
X133145000Y-146678816D01*
X133145000Y-146981184D01*
X133203989Y-147277743D01*
X133319701Y-147557095D01*
X133487688Y-147808505D01*
X133701495Y-148022312D01*
X133817763Y-148100000D01*
X133701495Y-148177688D01*
X133487688Y-148391495D01*
X133319701Y-148642905D01*
X133203989Y-148922257D01*
X133145000Y-149218816D01*
X133145000Y-149521184D01*
X133203989Y-149817743D01*
X133319701Y-150097095D01*
X133487688Y-150348505D01*
X133554127Y-150414944D01*
X133535820Y-150420498D01*
X133425506Y-150479463D01*
X133328815Y-150558815D01*
X133249463Y-150655506D01*
X133190498Y-150765820D01*
X133154188Y-150885518D01*
X133141928Y-151010000D01*
X133141928Y-152810000D01*
X133154188Y-152934482D01*
X133190498Y-153054180D01*
X133249463Y-153164494D01*
X133328815Y-153261185D01*
X133425506Y-153340537D01*
X133535820Y-153399502D01*
X133655518Y-153435812D01*
X133745763Y-153444700D01*
X133651495Y-153507688D01*
X133437688Y-153721495D01*
X133269701Y-153972905D01*
X133153989Y-154252257D01*
X133095000Y-154548816D01*
X133095000Y-154851184D01*
X133153989Y-155147743D01*
X133269701Y-155427095D01*
X133437688Y-155678505D01*
X133651495Y-155892312D01*
X133767763Y-155970000D01*
X133651495Y-156047688D01*
X133437688Y-156261495D01*
X133269701Y-156512905D01*
X133153989Y-156792257D01*
X133095000Y-157088816D01*
X133095000Y-157391184D01*
X133153989Y-157687743D01*
X133269701Y-157967095D01*
X133437688Y-158218505D01*
X133504127Y-158284944D01*
X133485820Y-158290498D01*
X133375506Y-158349463D01*
X133278815Y-158428815D01*
X133199463Y-158525506D01*
X133140498Y-158635820D01*
X133104188Y-158755518D01*
X133091928Y-158880000D01*
X116227000Y-158880000D01*
X116227000Y-156329872D01*
X121365000Y-156329872D01*
X121365000Y-156770128D01*
X121450890Y-157201925D01*
X121619369Y-157608669D01*
X121863962Y-157974729D01*
X122175271Y-158286038D01*
X122541331Y-158530631D01*
X122948075Y-158699110D01*
X123379872Y-158785000D01*
X123820128Y-158785000D01*
X124251925Y-158699110D01*
X124658669Y-158530631D01*
X125024729Y-158286038D01*
X125336038Y-157974729D01*
X125580631Y-157608669D01*
X125749110Y-157201925D01*
X125835000Y-156770128D01*
X125835000Y-156329872D01*
X125749110Y-155898075D01*
X125580631Y-155491331D01*
X125336038Y-155125271D01*
X125024729Y-154813962D01*
X124658669Y-154569369D01*
X124251925Y-154400890D01*
X123820128Y-154315000D01*
X123379872Y-154315000D01*
X122948075Y-154400890D01*
X122541331Y-154569369D01*
X122175271Y-154813962D01*
X121863962Y-155125271D01*
X121619369Y-155491331D01*
X121450890Y-155898075D01*
X121365000Y-156329872D01*
X116227000Y-156329872D01*
X116227000Y-134758740D01*
X129390000Y-134758740D01*
X129390000Y-135051260D01*
X129447068Y-135338158D01*
X129559010Y-135608411D01*
X129721525Y-135851632D01*
X129928368Y-136058475D01*
X130102760Y-136175000D01*
X129928368Y-136291525D01*
X129721525Y-136498368D01*
X129559010Y-136741589D01*
X129447068Y-137011842D01*
X129390000Y-137298740D01*
X129390000Y-137591260D01*
X129447068Y-137878158D01*
X129559010Y-138148411D01*
X129721525Y-138391632D01*
X129928368Y-138598475D01*
X130102760Y-138715000D01*
X129928368Y-138831525D01*
X129721525Y-139038368D01*
X129559010Y-139281589D01*
X129447068Y-139551842D01*
X129390000Y-139838740D01*
X129390000Y-140131260D01*
X129447068Y-140418158D01*
X129559010Y-140688411D01*
X129721525Y-140931632D01*
X129928368Y-141138475D01*
X130102760Y-141255000D01*
X129928368Y-141371525D01*
X129721525Y-141578368D01*
X129559010Y-141821589D01*
X129447068Y-142091842D01*
X129390000Y-142378740D01*
X129390000Y-142671260D01*
X129447068Y-142958158D01*
X129559010Y-143228411D01*
X129721525Y-143471632D01*
X129928368Y-143678475D01*
X130171589Y-143840990D01*
X130441842Y-143952932D01*
X130728740Y-144010000D01*
X131021260Y-144010000D01*
X131308158Y-143952932D01*
X131578411Y-143840990D01*
X131821632Y-143678475D01*
X132028475Y-143471632D01*
X132190990Y-143228411D01*
X132302932Y-142958158D01*
X132360000Y-142671260D01*
X132360000Y-142378740D01*
X132302932Y-142091842D01*
X132190990Y-141821589D01*
X132028475Y-141578368D01*
X131821632Y-141371525D01*
X131647240Y-141255000D01*
X131821632Y-141138475D01*
X132028475Y-140931632D01*
X132190990Y-140688411D01*
X132302932Y-140418158D01*
X132360000Y-140131260D01*
X132360000Y-139838740D01*
X132302932Y-139551842D01*
X132190990Y-139281589D01*
X132028475Y-139038368D01*
X131821632Y-138831525D01*
X131647240Y-138715000D01*
X131821632Y-138598475D01*
X132028475Y-138391632D01*
X132190990Y-138148411D01*
X132302932Y-137878158D01*
X132360000Y-137591260D01*
X132360000Y-137298740D01*
X132302932Y-137011842D01*
X132190990Y-136741589D01*
X132028475Y-136498368D01*
X131821632Y-136291525D01*
X131647240Y-136175000D01*
X131821632Y-136058475D01*
X132028475Y-135851632D01*
X132190990Y-135608411D01*
X132302932Y-135338158D01*
X132360000Y-135051260D01*
X132360000Y-134758740D01*
X132302932Y-134471842D01*
X132190990Y-134201589D01*
X132028475Y-133958368D01*
X131821632Y-133751525D01*
X131639466Y-133629805D01*
X131756355Y-133560178D01*
X131972588Y-133365269D01*
X132146641Y-133131920D01*
X132271825Y-132869099D01*
X132316476Y-132721890D01*
X132195155Y-132492000D01*
X131002000Y-132492000D01*
X131002000Y-132512000D01*
X130748000Y-132512000D01*
X130748000Y-132492000D01*
X129554845Y-132492000D01*
X129433524Y-132721890D01*
X129478175Y-132869099D01*
X129603359Y-133131920D01*
X129777412Y-133365269D01*
X129993645Y-133560178D01*
X130110534Y-133629805D01*
X129928368Y-133751525D01*
X129721525Y-133958368D01*
X129559010Y-134201589D01*
X129447068Y-134471842D01*
X129390000Y-134758740D01*
X116227000Y-134758740D01*
X116227000Y-130675000D01*
X129386928Y-130675000D01*
X129399188Y-130799482D01*
X129435498Y-130919180D01*
X129494463Y-131029494D01*
X129573815Y-131126185D01*
X129670506Y-131205537D01*
X129780820Y-131264502D01*
X129861466Y-131288966D01*
X129777412Y-131364731D01*
X129603359Y-131598080D01*
X129478175Y-131860901D01*
X129433524Y-132008110D01*
X129554845Y-132238000D01*
X130748000Y-132238000D01*
X130748000Y-129952000D01*
X131002000Y-129952000D01*
X131002000Y-132238000D01*
X132195155Y-132238000D01*
X132316476Y-132008110D01*
X132271825Y-131860901D01*
X132146641Y-131598080D01*
X131972588Y-131364731D01*
X131888534Y-131288966D01*
X131969180Y-131264502D01*
X132079494Y-131205537D01*
X132176185Y-131126185D01*
X132255537Y-131029494D01*
X132314502Y-130919180D01*
X132350812Y-130799482D01*
X132363072Y-130675000D01*
X132360000Y-130110750D01*
X132201250Y-129952000D01*
X131002000Y-129952000D01*
X130748000Y-129952000D01*
X129548750Y-129952000D01*
X129390000Y-130110750D01*
X129386928Y-130675000D01*
X116227000Y-130675000D01*
X116227000Y-128975000D01*
X129386928Y-128975000D01*
X129390000Y-129539250D01*
X129548750Y-129698000D01*
X130748000Y-129698000D01*
X130748000Y-128498750D01*
X131002000Y-128498750D01*
X131002000Y-129698000D01*
X132201250Y-129698000D01*
X132360000Y-129539250D01*
X132363072Y-128975000D01*
X132350812Y-128850518D01*
X132314502Y-128730820D01*
X132255537Y-128620506D01*
X132176185Y-128523815D01*
X132079494Y-128444463D01*
X131969180Y-128385498D01*
X131849482Y-128349188D01*
X131725000Y-128336928D01*
X131160750Y-128340000D01*
X131002000Y-128498750D01*
X130748000Y-128498750D01*
X130589250Y-128340000D01*
X130025000Y-128336928D01*
X129900518Y-128349188D01*
X129780820Y-128385498D01*
X129670506Y-128444463D01*
X129573815Y-128523815D01*
X129494463Y-128620506D01*
X129435498Y-128730820D01*
X129399188Y-128850518D01*
X129386928Y-128975000D01*
X116227000Y-128975000D01*
X116227000Y-97548061D01*
X119415000Y-97548061D01*
X119415000Y-97751939D01*
X119454774Y-97951898D01*
X119532795Y-98140256D01*
X119646063Y-98309774D01*
X119790226Y-98453937D01*
X119959744Y-98567205D01*
X120148102Y-98645226D01*
X120348061Y-98685000D01*
X120551939Y-98685000D01*
X120751898Y-98645226D01*
X120940256Y-98567205D01*
X120988454Y-98535000D01*
X124533422Y-98535000D01*
X126615000Y-100616579D01*
X126615001Y-108331514D01*
X126615000Y-108331524D01*
X126615000Y-108943477D01*
X126615001Y-108943487D01*
X126615000Y-112940305D01*
X126576326Y-112940305D01*
X126490256Y-112882795D01*
X126301898Y-112804774D01*
X126101939Y-112765000D01*
X125898061Y-112765000D01*
X125698102Y-112804774D01*
X125509744Y-112882795D01*
X125340226Y-112996063D01*
X125196063Y-113140226D01*
X125082795Y-113309744D01*
X125004774Y-113498102D01*
X124965000Y-113698061D01*
X124965000Y-113863422D01*
X122135000Y-111033422D01*
X122135000Y-106538454D01*
X122167205Y-106490256D01*
X122245226Y-106301898D01*
X122285000Y-106101939D01*
X122285000Y-105898061D01*
X122245226Y-105698102D01*
X122167205Y-105509744D01*
X122053937Y-105340226D01*
X121909774Y-105196063D01*
X121740256Y-105082795D01*
X121551898Y-105004774D01*
X121351939Y-104965000D01*
X121148061Y-104965000D01*
X120948102Y-105004774D01*
X120759744Y-105082795D01*
X120590226Y-105196063D01*
X120446063Y-105340226D01*
X120332795Y-105509744D01*
X120254774Y-105698102D01*
X120215000Y-105898061D01*
X120215000Y-106101939D01*
X120254774Y-106301898D01*
X120332795Y-106490256D01*
X120365001Y-106538456D01*
X120365000Y-111356531D01*
X120360719Y-111400000D01*
X120365000Y-111443469D01*
X120365000Y-111443476D01*
X120377805Y-111573489D01*
X120428411Y-111740312D01*
X120510589Y-111894058D01*
X120621183Y-112028817D01*
X120654956Y-112056534D01*
X138065001Y-129466580D01*
X138065000Y-131539029D01*
X137978937Y-131410226D01*
X137834774Y-131266063D01*
X137665256Y-131152795D01*
X137476898Y-131074774D01*
X137276939Y-131035000D01*
X137073061Y-131035000D01*
X136873102Y-131074774D01*
X136684744Y-131152795D01*
X136515226Y-131266063D01*
X136371063Y-131410226D01*
X136257795Y-131579744D01*
X136179774Y-131768102D01*
X136140000Y-131968061D01*
X136140000Y-132171939D01*
X136179774Y-132371898D01*
X136257795Y-132560256D01*
X136340000Y-132683285D01*
X136340000Y-132784449D01*
X136328013Y-132766509D01*
X136058491Y-132496987D01*
X135741566Y-132285225D01*
X135389419Y-132139361D01*
X135015581Y-132065000D01*
X134634419Y-132065000D01*
X134260581Y-132139361D01*
X133908434Y-132285225D01*
X133591509Y-132496987D01*
X133321987Y-132766509D01*
X133110225Y-133083434D01*
X132964361Y-133435581D01*
X132890000Y-133809419D01*
X132890000Y-134190581D01*
X132964361Y-134564419D01*
X133110225Y-134916566D01*
X133321987Y-135233491D01*
X133591509Y-135503013D01*
X133908434Y-135714775D01*
X134260581Y-135860639D01*
X134634419Y-135935000D01*
X135015581Y-135935000D01*
X135389419Y-135860639D01*
X135741566Y-135714775D01*
X136058491Y-135503013D01*
X136328013Y-135233491D01*
X136340000Y-135215551D01*
X136340001Y-152253971D01*
X136335960Y-152295000D01*
X136352082Y-152458688D01*
X136399828Y-152616086D01*
X136441625Y-152694282D01*
X136477365Y-152761146D01*
X136581710Y-152888291D01*
X136613574Y-152914441D01*
X138130559Y-154431426D01*
X138156709Y-154463291D01*
X138283854Y-154567636D01*
X138428913Y-154645172D01*
X138586311Y-154692918D01*
X138708981Y-154705000D01*
X138708991Y-154705000D01*
X138749999Y-154709039D01*
X138791007Y-154705000D01*
X144136715Y-154705000D01*
X144259744Y-154787205D01*
X144448102Y-154865226D01*
X144648061Y-154905000D01*
X144851939Y-154905000D01*
X144965000Y-154882511D01*
X144965000Y-156422710D01*
X143524981Y-157862729D01*
X143511260Y-157860000D01*
X143218740Y-157860000D01*
X142931842Y-157917068D01*
X142661589Y-158029010D01*
X142418368Y-158191525D01*
X142211525Y-158398368D01*
X142049010Y-158641589D01*
X141937068Y-158911842D01*
X141880000Y-159198740D01*
X141880000Y-159491260D01*
X141937068Y-159778158D01*
X142049010Y-160048411D01*
X142211525Y-160291632D01*
X142418368Y-160498475D01*
X142661589Y-160660990D01*
X142931842Y-160772932D01*
X143218740Y-160830000D01*
X143511260Y-160830000D01*
X143798158Y-160772932D01*
X144068411Y-160660990D01*
X144311632Y-160498475D01*
X144518475Y-160291632D01*
X144640195Y-160109466D01*
X144709822Y-160226355D01*
X144904731Y-160442588D01*
X145138080Y-160616641D01*
X145400901Y-160741825D01*
X145548110Y-160786476D01*
X145778000Y-160665155D01*
X145778000Y-159472000D01*
X145758000Y-159472000D01*
X145758000Y-159218000D01*
X145778000Y-159218000D01*
X145778000Y-159198000D01*
X146032000Y-159198000D01*
X146032000Y-159218000D01*
X146052000Y-159218000D01*
X146052000Y-159472000D01*
X146032000Y-159472000D01*
X146032000Y-160665155D01*
X146261890Y-160786476D01*
X146409099Y-160741825D01*
X146671920Y-160616641D01*
X146905269Y-160442588D01*
X147100178Y-160226355D01*
X147169805Y-160109466D01*
X147291525Y-160291632D01*
X147498368Y-160498475D01*
X147741589Y-160660990D01*
X148011842Y-160772932D01*
X148298740Y-160830000D01*
X148591260Y-160830000D01*
X148878158Y-160772932D01*
X149148411Y-160660990D01*
X149391632Y-160498475D01*
X149598475Y-160291632D01*
X149715000Y-160117240D01*
X149831525Y-160291632D01*
X150038368Y-160498475D01*
X150281589Y-160660990D01*
X150551842Y-160772932D01*
X150838740Y-160830000D01*
X151131260Y-160830000D01*
X151418158Y-160772932D01*
X151688411Y-160660990D01*
X151931632Y-160498475D01*
X152063487Y-160366620D01*
X152085498Y-160439180D01*
X152144463Y-160549494D01*
X152223815Y-160646185D01*
X152320506Y-160725537D01*
X152430820Y-160784502D01*
X152550518Y-160820812D01*
X152675000Y-160833072D01*
X154375000Y-160833072D01*
X154499482Y-160820812D01*
X154619180Y-160784502D01*
X154729494Y-160725537D01*
X154826185Y-160646185D01*
X154905537Y-160549494D01*
X154964502Y-160439180D01*
X155000812Y-160319482D01*
X155013072Y-160195000D01*
X155013072Y-158495000D01*
X155000812Y-158370518D01*
X154964502Y-158250820D01*
X154905537Y-158140506D01*
X154826185Y-158043815D01*
X154729494Y-157964463D01*
X154619180Y-157905498D01*
X154499482Y-157869188D01*
X154375000Y-157856928D01*
X152675000Y-157856928D01*
X152550518Y-157869188D01*
X152430820Y-157905498D01*
X152320506Y-157964463D01*
X152223815Y-158043815D01*
X152144463Y-158140506D01*
X152085498Y-158250820D01*
X152063487Y-158323380D01*
X151931632Y-158191525D01*
X151688411Y-158029010D01*
X151418158Y-157917068D01*
X151131260Y-157860000D01*
X150838740Y-157860000D01*
X150551842Y-157917068D01*
X150281589Y-158029010D01*
X150038368Y-158191525D01*
X149831525Y-158398368D01*
X149715000Y-158572760D01*
X149598475Y-158398368D01*
X149391632Y-158191525D01*
X149148411Y-158029010D01*
X148878158Y-157917068D01*
X148591260Y-157860000D01*
X148298740Y-157860000D01*
X148011842Y-157917068D01*
X147741589Y-158029010D01*
X147498368Y-158191525D01*
X147291525Y-158398368D01*
X147169805Y-158580534D01*
X147100178Y-158463645D01*
X146905269Y-158247412D01*
X146671920Y-158073359D01*
X146409099Y-157948175D01*
X146261890Y-157903524D01*
X146032002Y-158024844D01*
X146032002Y-158000287D01*
X146274289Y-157758000D01*
X146290226Y-157773937D01*
X146459744Y-157887205D01*
X146648102Y-157965226D01*
X146848061Y-158005000D01*
X147051939Y-158005000D01*
X147251898Y-157965226D01*
X147440256Y-157887205D01*
X147488455Y-157854999D01*
X149298962Y-157855001D01*
X149309744Y-157862205D01*
X149498102Y-157940226D01*
X149698061Y-157980000D01*
X149901939Y-157980000D01*
X150101898Y-157940226D01*
X150290256Y-157862205D01*
X150459774Y-157748937D01*
X150603937Y-157604774D01*
X150717205Y-157435256D01*
X150738543Y-157383740D01*
X160390000Y-157383740D01*
X160390000Y-157676260D01*
X160447068Y-157963158D01*
X160559010Y-158233411D01*
X160721525Y-158476632D01*
X160928368Y-158683475D01*
X161171589Y-158845990D01*
X161441842Y-158957932D01*
X161728740Y-159015000D01*
X162021260Y-159015000D01*
X162308158Y-158957932D01*
X162578411Y-158845990D01*
X162821632Y-158683475D01*
X163028475Y-158476632D01*
X163190990Y-158233411D01*
X163302932Y-157963158D01*
X163360000Y-157676260D01*
X163360000Y-157383740D01*
X163302932Y-157096842D01*
X163190990Y-156826589D01*
X163028475Y-156583368D01*
X162821632Y-156376525D01*
X162639466Y-156254805D01*
X162756355Y-156185178D01*
X162972588Y-155990269D01*
X163146641Y-155756920D01*
X163271825Y-155494099D01*
X163316476Y-155346890D01*
X163195155Y-155117000D01*
X162002000Y-155117000D01*
X162002000Y-155137000D01*
X161748000Y-155137000D01*
X161748000Y-155117000D01*
X160554845Y-155117000D01*
X160433524Y-155346890D01*
X160478175Y-155494099D01*
X160603359Y-155756920D01*
X160777412Y-155990269D01*
X160993645Y-156185178D01*
X161110534Y-156254805D01*
X160928368Y-156376525D01*
X160721525Y-156583368D01*
X160559010Y-156826589D01*
X160447068Y-157096842D01*
X160390000Y-157383740D01*
X150738543Y-157383740D01*
X150795226Y-157246898D01*
X150835000Y-157046939D01*
X150835000Y-156843061D01*
X150795226Y-156643102D01*
X150717205Y-156454744D01*
X150603937Y-156285226D01*
X150459774Y-156141063D01*
X150452051Y-156135903D01*
X150548060Y-156155000D01*
X150751938Y-156155000D01*
X150951897Y-156115226D01*
X151140255Y-156037205D01*
X151309773Y-155923937D01*
X151453936Y-155779774D01*
X151567204Y-155610256D01*
X151645225Y-155421898D01*
X151684999Y-155221939D01*
X151684999Y-155018061D01*
X151645225Y-154818102D01*
X151567204Y-154629744D01*
X151534999Y-154581546D01*
X151535000Y-154013470D01*
X151539281Y-153970000D01*
X151535000Y-153926531D01*
X151535000Y-153926524D01*
X151522195Y-153796511D01*
X151513565Y-153768061D01*
X151471589Y-153629686D01*
X151389411Y-153475941D01*
X151321058Y-153392653D01*
X151453937Y-153259774D01*
X151567205Y-153090256D01*
X151645226Y-152901898D01*
X151656535Y-152845044D01*
X152040050Y-152461529D01*
X152073817Y-152433817D01*
X152147302Y-152344276D01*
X152365044Y-152126534D01*
X152398817Y-152098817D01*
X152509411Y-151964059D01*
X152591589Y-151810313D01*
X152642195Y-151643490D01*
X152646478Y-151600000D01*
X160386928Y-151600000D01*
X160386928Y-153300000D01*
X160399188Y-153424482D01*
X160435498Y-153544180D01*
X160494463Y-153654494D01*
X160573815Y-153751185D01*
X160670506Y-153830537D01*
X160780820Y-153889502D01*
X160861466Y-153913966D01*
X160777412Y-153989731D01*
X160603359Y-154223080D01*
X160478175Y-154485901D01*
X160433524Y-154633110D01*
X160554845Y-154863000D01*
X161748000Y-154863000D01*
X161748000Y-154843000D01*
X162002000Y-154843000D01*
X162002000Y-154863000D01*
X163195155Y-154863000D01*
X163316476Y-154633110D01*
X163271825Y-154485901D01*
X163146641Y-154223080D01*
X162972588Y-153989731D01*
X162888534Y-153913966D01*
X162969180Y-153889502D01*
X163079494Y-153830537D01*
X163176185Y-153751185D01*
X163255537Y-153654494D01*
X163314502Y-153544180D01*
X163350812Y-153424482D01*
X163363072Y-153300000D01*
X163363072Y-151600000D01*
X163350812Y-151475518D01*
X163314502Y-151355820D01*
X163255537Y-151245506D01*
X163176185Y-151148815D01*
X163079494Y-151069463D01*
X162969180Y-151010498D01*
X162849482Y-150974188D01*
X162725000Y-150961928D01*
X161025000Y-150961928D01*
X160900518Y-150974188D01*
X160780820Y-151010498D01*
X160670506Y-151069463D01*
X160573815Y-151148815D01*
X160494463Y-151245506D01*
X160435498Y-151355820D01*
X160399188Y-151475518D01*
X160386928Y-151600000D01*
X152646478Y-151600000D01*
X152655000Y-151513477D01*
X152655000Y-151513467D01*
X152659281Y-151470001D01*
X152655000Y-151426535D01*
X152655000Y-145300000D01*
X160361928Y-145300000D01*
X160361928Y-147000000D01*
X160374188Y-147124482D01*
X160410498Y-147244180D01*
X160469463Y-147354494D01*
X160548815Y-147451185D01*
X160645506Y-147530537D01*
X160755820Y-147589502D01*
X160828380Y-147611513D01*
X160696525Y-147743368D01*
X160534010Y-147986589D01*
X160422068Y-148256842D01*
X160365000Y-148543740D01*
X160365000Y-148836260D01*
X160422068Y-149123158D01*
X160534010Y-149393411D01*
X160696525Y-149636632D01*
X160903368Y-149843475D01*
X161146589Y-150005990D01*
X161416842Y-150117932D01*
X161703740Y-150175000D01*
X161996260Y-150175000D01*
X162283158Y-150117932D01*
X162553411Y-150005990D01*
X162796632Y-149843475D01*
X163003475Y-149636632D01*
X163165990Y-149393411D01*
X163277932Y-149123158D01*
X163335000Y-148836260D01*
X163335000Y-148543740D01*
X163277932Y-148256842D01*
X163165990Y-147986589D01*
X163003475Y-147743368D01*
X162871620Y-147611513D01*
X162944180Y-147589502D01*
X163054494Y-147530537D01*
X163151185Y-147451185D01*
X163230537Y-147354494D01*
X163289502Y-147244180D01*
X163325812Y-147124482D01*
X163338072Y-147000000D01*
X163338072Y-145300000D01*
X163325812Y-145175518D01*
X163289502Y-145055820D01*
X163230537Y-144945506D01*
X163151185Y-144848815D01*
X163054494Y-144769463D01*
X162944180Y-144710498D01*
X162824482Y-144674188D01*
X162700000Y-144661928D01*
X161000000Y-144661928D01*
X160875518Y-144674188D01*
X160755820Y-144710498D01*
X160645506Y-144769463D01*
X160548815Y-144848815D01*
X160469463Y-144945506D01*
X160410498Y-145055820D01*
X160374188Y-145175518D01*
X160361928Y-145300000D01*
X152655000Y-145300000D01*
X152655000Y-143275000D01*
X160286928Y-143275000D01*
X160299188Y-143399482D01*
X160335498Y-143519180D01*
X160394463Y-143629494D01*
X160473815Y-143726185D01*
X160570506Y-143805537D01*
X160680820Y-143864502D01*
X160800518Y-143900812D01*
X160925000Y-143913072D01*
X161489250Y-143910000D01*
X161648000Y-143751250D01*
X161648000Y-142552000D01*
X161902000Y-142552000D01*
X161902000Y-143751250D01*
X162060750Y-143910000D01*
X162625000Y-143913072D01*
X162749482Y-143900812D01*
X162869180Y-143864502D01*
X162979494Y-143805537D01*
X163076185Y-143726185D01*
X163155537Y-143629494D01*
X163214502Y-143519180D01*
X163250812Y-143399482D01*
X163263072Y-143275000D01*
X163260000Y-142710750D01*
X163101250Y-142552000D01*
X161902000Y-142552000D01*
X161648000Y-142552000D01*
X160448750Y-142552000D01*
X160290000Y-142710750D01*
X160286928Y-143275000D01*
X152655000Y-143275000D01*
X152655000Y-137546577D01*
X153076578Y-137125000D01*
X160303422Y-137125000D01*
X160304461Y-137126039D01*
X160290000Y-137198740D01*
X160290000Y-137491260D01*
X160347068Y-137778158D01*
X160459010Y-138048411D01*
X160621525Y-138291632D01*
X160828368Y-138498475D01*
X161002760Y-138615000D01*
X160828368Y-138731525D01*
X160621525Y-138938368D01*
X160459010Y-139181589D01*
X160347068Y-139451842D01*
X160290000Y-139738740D01*
X160290000Y-140031260D01*
X160347068Y-140318158D01*
X160459010Y-140588411D01*
X160621525Y-140831632D01*
X160753380Y-140963487D01*
X160680820Y-140985498D01*
X160570506Y-141044463D01*
X160473815Y-141123815D01*
X160394463Y-141220506D01*
X160335498Y-141330820D01*
X160299188Y-141450518D01*
X160286928Y-141575000D01*
X160290000Y-142139250D01*
X160448750Y-142298000D01*
X161648000Y-142298000D01*
X161648000Y-142278000D01*
X161902000Y-142278000D01*
X161902000Y-142298000D01*
X163101250Y-142298000D01*
X163260000Y-142139250D01*
X163263072Y-141575000D01*
X163250812Y-141450518D01*
X163214502Y-141330820D01*
X163155537Y-141220506D01*
X163076185Y-141123815D01*
X162979494Y-141044463D01*
X162869180Y-140985498D01*
X162796620Y-140963487D01*
X162928475Y-140831632D01*
X162936247Y-140820000D01*
X165165001Y-140820000D01*
X165165000Y-158054068D01*
X165165000Y-158262711D01*
X164112711Y-159315000D01*
X161797295Y-159315000D01*
X161651898Y-159254774D01*
X161451939Y-159215000D01*
X161248061Y-159215000D01*
X161048102Y-159254774D01*
X160859744Y-159332795D01*
X160690226Y-159446063D01*
X160546063Y-159590226D01*
X160432795Y-159759744D01*
X160354774Y-159948102D01*
X160315000Y-160148061D01*
X160315000Y-160351939D01*
X160354774Y-160551898D01*
X160432795Y-160740256D01*
X160546063Y-160909774D01*
X160690226Y-161053937D01*
X160859744Y-161167205D01*
X161048102Y-161245226D01*
X161248061Y-161285000D01*
X161451939Y-161285000D01*
X161651898Y-161245226D01*
X161797295Y-161185000D01*
X164454068Y-161185000D01*
X164500000Y-161189524D01*
X164545932Y-161185000D01*
X164683292Y-161171471D01*
X164859540Y-161118007D01*
X165021972Y-161031186D01*
X165164344Y-160914344D01*
X165193630Y-160878659D01*
X166728659Y-159343630D01*
X166764344Y-159314344D01*
X166881186Y-159171972D01*
X166937765Y-159066120D01*
X166968007Y-159009541D01*
X167021472Y-158833292D01*
X167039524Y-158650000D01*
X167035000Y-158604065D01*
X167035000Y-156279872D01*
X179365000Y-156279872D01*
X179365000Y-156720128D01*
X179450890Y-157151925D01*
X179619369Y-157558669D01*
X179863962Y-157924729D01*
X180175271Y-158236038D01*
X180541331Y-158480631D01*
X180948075Y-158649110D01*
X181379872Y-158735000D01*
X181820128Y-158735000D01*
X182251925Y-158649110D01*
X182658669Y-158480631D01*
X183024729Y-158236038D01*
X183336038Y-157924729D01*
X183580631Y-157558669D01*
X183749110Y-157151925D01*
X183835000Y-156720128D01*
X183835000Y-156279872D01*
X183749110Y-155848075D01*
X183580631Y-155441331D01*
X183336038Y-155075271D01*
X183024729Y-154763962D01*
X182658669Y-154519369D01*
X182251925Y-154350890D01*
X181820128Y-154265000D01*
X181379872Y-154265000D01*
X180948075Y-154350890D01*
X180541331Y-154519369D01*
X180175271Y-154763962D01*
X179863962Y-155075271D01*
X179619369Y-155441331D01*
X179450890Y-155848075D01*
X179365000Y-156279872D01*
X167035000Y-156279872D01*
X167035000Y-140287289D01*
X169528659Y-137793630D01*
X169564344Y-137764344D01*
X169681186Y-137621972D01*
X169768007Y-137459540D01*
X169800177Y-137353489D01*
X169821472Y-137283292D01*
X169839524Y-137100000D01*
X169835000Y-137054065D01*
X169835000Y-132697295D01*
X169877431Y-132594858D01*
X170912290Y-131560000D01*
X175047542Y-131560000D01*
X175246987Y-131858491D01*
X175516509Y-132128013D01*
X175833434Y-132339775D01*
X176185581Y-132485639D01*
X176559419Y-132560000D01*
X176940581Y-132560000D01*
X177314419Y-132485639D01*
X177666566Y-132339775D01*
X177983491Y-132128013D01*
X178253013Y-131858491D01*
X178464775Y-131541566D01*
X178610639Y-131189419D01*
X178685000Y-130815581D01*
X178685000Y-130434419D01*
X178610639Y-130060581D01*
X178464775Y-129708434D01*
X178253013Y-129391509D01*
X177983491Y-129121987D01*
X177666566Y-128910225D01*
X177314419Y-128764361D01*
X176940581Y-128690000D01*
X176559419Y-128690000D01*
X176185581Y-128764361D01*
X175833434Y-128910225D01*
X175516509Y-129121987D01*
X175246987Y-129391509D01*
X175047542Y-129690000D01*
X170570931Y-129690000D01*
X170524999Y-129685476D01*
X170341707Y-129703529D01*
X170325538Y-129708434D01*
X170165460Y-129756993D01*
X170003028Y-129843814D01*
X169860656Y-129960656D01*
X169831374Y-129996336D01*
X168555142Y-131272569D01*
X168409744Y-131332795D01*
X168240226Y-131446063D01*
X168096063Y-131590226D01*
X167982795Y-131759744D01*
X167904774Y-131948102D01*
X167865000Y-132148061D01*
X167865000Y-132351939D01*
X167904774Y-132551898D01*
X167965000Y-132697296D01*
X167965001Y-136712710D01*
X165727711Y-138950000D01*
X162936247Y-138950000D01*
X162928475Y-138938368D01*
X162721632Y-138731525D01*
X162547240Y-138615000D01*
X162721632Y-138498475D01*
X162928475Y-138291632D01*
X163090990Y-138048411D01*
X163202932Y-137778158D01*
X163260000Y-137491260D01*
X163260000Y-137198740D01*
X163202932Y-136911842D01*
X163090990Y-136641589D01*
X162928475Y-136398368D01*
X162721632Y-136191525D01*
X162547240Y-136075000D01*
X162721632Y-135958475D01*
X162928475Y-135751632D01*
X163090990Y-135508411D01*
X163202932Y-135238158D01*
X163260000Y-134951260D01*
X163260000Y-134658740D01*
X163202932Y-134371842D01*
X163090990Y-134101589D01*
X162928475Y-133858368D01*
X162721632Y-133651525D01*
X162547240Y-133535000D01*
X162721632Y-133418475D01*
X162928475Y-133211632D01*
X163090990Y-132968411D01*
X163202932Y-132698158D01*
X163260000Y-132411260D01*
X163260000Y-132118740D01*
X163202932Y-131831842D01*
X163090990Y-131561589D01*
X162928475Y-131318368D01*
X162721632Y-131111525D01*
X162478411Y-130949010D01*
X162208158Y-130837068D01*
X161921260Y-130780000D01*
X161628740Y-130780000D01*
X161341842Y-130837068D01*
X161071589Y-130949010D01*
X160828368Y-131111525D01*
X160621525Y-131318368D01*
X160459010Y-131561589D01*
X160347068Y-131831842D01*
X160290000Y-132118740D01*
X160290000Y-132411260D01*
X160347068Y-132698158D01*
X160459010Y-132968411D01*
X160621525Y-133211632D01*
X160828368Y-133418475D01*
X161002760Y-133535000D01*
X160828368Y-133651525D01*
X160621525Y-133858368D01*
X160459010Y-134101589D01*
X160347068Y-134371842D01*
X160290000Y-134658740D01*
X160290000Y-134951260D01*
X160347068Y-135238158D01*
X160395465Y-135355000D01*
X152753464Y-135355000D01*
X152709998Y-135350719D01*
X152666532Y-135355000D01*
X152666522Y-135355000D01*
X152536509Y-135367805D01*
X152369686Y-135418411D01*
X152215940Y-135500589D01*
X152206409Y-135508411D01*
X152114952Y-135583468D01*
X152114950Y-135583470D01*
X152081182Y-135611183D01*
X152053469Y-135644951D01*
X151174956Y-136523465D01*
X151141183Y-136551182D01*
X151030589Y-136685941D01*
X150948411Y-136839687D01*
X150916311Y-136945506D01*
X150906026Y-136979411D01*
X150897805Y-137006510D01*
X150885000Y-137136523D01*
X150885000Y-137136530D01*
X150880719Y-137179999D01*
X150885000Y-137223468D01*
X150885001Y-151103421D01*
X150849955Y-151138467D01*
X150816183Y-151166183D01*
X150742702Y-151255719D01*
X150404956Y-151593465D01*
X150348102Y-151604774D01*
X150160000Y-151682689D01*
X150160000Y-135191578D01*
X151753517Y-133598061D01*
X155365000Y-133598061D01*
X155365000Y-133801939D01*
X155404774Y-134001898D01*
X155482795Y-134190256D01*
X155596063Y-134359774D01*
X155740226Y-134503937D01*
X155909744Y-134617205D01*
X156098102Y-134695226D01*
X156298061Y-134735000D01*
X156501939Y-134735000D01*
X156701898Y-134695226D01*
X156890256Y-134617205D01*
X157059774Y-134503937D01*
X157203937Y-134359774D01*
X157317205Y-134190256D01*
X157395226Y-134001898D01*
X157406535Y-133945043D01*
X159645049Y-131706530D01*
X159678817Y-131678817D01*
X159725993Y-131621334D01*
X159784535Y-131550000D01*
X159789411Y-131544059D01*
X159871589Y-131390313D01*
X159922195Y-131223490D01*
X159935000Y-131093477D01*
X159935000Y-131093469D01*
X159939281Y-131050000D01*
X159935000Y-131006531D01*
X159935000Y-124838454D01*
X159967205Y-124790256D01*
X160045226Y-124601898D01*
X160085000Y-124401939D01*
X160085000Y-124198061D01*
X160045226Y-123998102D01*
X159967205Y-123809744D01*
X159853937Y-123640226D01*
X159709774Y-123496063D01*
X159540256Y-123382795D01*
X159351898Y-123304774D01*
X159151939Y-123265000D01*
X158948061Y-123265000D01*
X158748102Y-123304774D01*
X158559744Y-123382795D01*
X158390226Y-123496063D01*
X158246063Y-123640226D01*
X158132795Y-123809744D01*
X158054774Y-123998102D01*
X158015000Y-124198061D01*
X158015000Y-124401939D01*
X158054774Y-124601898D01*
X158132795Y-124790256D01*
X158165000Y-124838454D01*
X158165001Y-130683420D01*
X156154957Y-132693465D01*
X156098102Y-132704774D01*
X155909744Y-132782795D01*
X155740226Y-132896063D01*
X155596063Y-133040226D01*
X155482795Y-133209744D01*
X155404774Y-133398102D01*
X155365000Y-133598061D01*
X151753517Y-133598061D01*
X151795050Y-133556529D01*
X151828817Y-133528817D01*
X151905335Y-133435581D01*
X151939410Y-133394060D01*
X151939411Y-133394059D01*
X152020275Y-133242772D01*
X152132205Y-133075256D01*
X152210226Y-132886898D01*
X152250000Y-132686939D01*
X152250000Y-132483061D01*
X152210226Y-132283102D01*
X152132205Y-132094744D01*
X152018937Y-131925226D01*
X151874774Y-131781063D01*
X151705256Y-131667795D01*
X151516898Y-131589774D01*
X151316939Y-131550000D01*
X151113061Y-131550000D01*
X150913102Y-131589774D01*
X150724744Y-131667795D01*
X150555226Y-131781063D01*
X150411063Y-131925226D01*
X150297795Y-132094744D01*
X150219774Y-132283102D01*
X150180000Y-132483061D01*
X150180000Y-132668421D01*
X148679951Y-134168471D01*
X148646184Y-134196183D01*
X148618471Y-134229951D01*
X148618468Y-134229954D01*
X148535590Y-134330941D01*
X148453412Y-134484687D01*
X148402805Y-134651510D01*
X148385719Y-134825000D01*
X148390001Y-134868479D01*
X148390001Y-137992334D01*
X148226898Y-137924774D01*
X148026939Y-137885000D01*
X147823061Y-137885000D01*
X147623102Y-137924774D01*
X147434744Y-138002795D01*
X147265226Y-138116063D01*
X147121063Y-138260226D01*
X147007795Y-138429744D01*
X146952882Y-138562314D01*
X146801898Y-138499774D01*
X146601939Y-138460000D01*
X146398061Y-138460000D01*
X146198102Y-138499774D01*
X146185000Y-138505201D01*
X146185000Y-130466578D01*
X151495051Y-125156528D01*
X151528817Y-125128817D01*
X151639411Y-124994059D01*
X151721589Y-124840313D01*
X151772195Y-124673490D01*
X151785000Y-124543477D01*
X151785000Y-124543469D01*
X151789281Y-124500000D01*
X151785000Y-124456531D01*
X151785000Y-119284419D01*
X158865000Y-119284419D01*
X158865000Y-119665581D01*
X158939361Y-120039419D01*
X159085225Y-120391566D01*
X159296987Y-120708491D01*
X159566509Y-120978013D01*
X159883434Y-121189775D01*
X160235581Y-121335639D01*
X160609419Y-121410000D01*
X160990581Y-121410000D01*
X161364419Y-121335639D01*
X161716566Y-121189775D01*
X162033491Y-120978013D01*
X162252085Y-120759419D01*
X162815000Y-120759419D01*
X162815000Y-121140581D01*
X162889361Y-121514419D01*
X163035225Y-121866566D01*
X163246987Y-122183491D01*
X163516509Y-122453013D01*
X163833434Y-122664775D01*
X164185581Y-122810639D01*
X164559419Y-122885000D01*
X164940581Y-122885000D01*
X165314419Y-122810639D01*
X165666566Y-122664775D01*
X165983491Y-122453013D01*
X166253013Y-122183491D01*
X166464775Y-121866566D01*
X166610639Y-121514419D01*
X166685000Y-121140581D01*
X166685000Y-120759419D01*
X166610639Y-120385581D01*
X166464775Y-120033434D01*
X166253013Y-119716509D01*
X165983491Y-119446987D01*
X165666566Y-119235225D01*
X165314419Y-119089361D01*
X164940581Y-119015000D01*
X164559419Y-119015000D01*
X164185581Y-119089361D01*
X163833434Y-119235225D01*
X163516509Y-119446987D01*
X163246987Y-119716509D01*
X163035225Y-120033434D01*
X162889361Y-120385581D01*
X162815000Y-120759419D01*
X162252085Y-120759419D01*
X162303013Y-120708491D01*
X162514775Y-120391566D01*
X162660639Y-120039419D01*
X162735000Y-119665581D01*
X162735000Y-119284419D01*
X162660639Y-118910581D01*
X162514775Y-118558434D01*
X162357505Y-118323061D01*
X168065000Y-118323061D01*
X168065000Y-118526939D01*
X168104774Y-118726898D01*
X168182795Y-118915256D01*
X168296063Y-119084774D01*
X168440226Y-119228937D01*
X168609744Y-119342205D01*
X168798102Y-119420226D01*
X168998061Y-119460000D01*
X169201939Y-119460000D01*
X169401898Y-119420226D01*
X169590256Y-119342205D01*
X169759774Y-119228937D01*
X169903937Y-119084774D01*
X170017205Y-118915256D01*
X170095226Y-118726898D01*
X170135000Y-118526939D01*
X170135000Y-118323061D01*
X170095226Y-118123102D01*
X170017205Y-117934744D01*
X169985000Y-117886546D01*
X169985000Y-111878711D01*
X170003937Y-111859774D01*
X170117205Y-111690256D01*
X170195226Y-111501898D01*
X170235000Y-111301939D01*
X170235000Y-111098061D01*
X170195226Y-110898102D01*
X170117205Y-110709744D01*
X170003937Y-110540226D01*
X169859774Y-110396063D01*
X169690256Y-110282795D01*
X169501898Y-110204774D01*
X169301939Y-110165000D01*
X169098061Y-110165000D01*
X168898102Y-110204774D01*
X168709744Y-110282795D01*
X168540226Y-110396063D01*
X168396063Y-110540226D01*
X168282795Y-110709744D01*
X168204774Y-110898102D01*
X168165000Y-111098061D01*
X168165000Y-111301939D01*
X168204774Y-111501898D01*
X168215001Y-111526588D01*
X168215000Y-117886546D01*
X168182795Y-117934744D01*
X168104774Y-118123102D01*
X168065000Y-118323061D01*
X162357505Y-118323061D01*
X162303013Y-118241509D01*
X162033491Y-117971987D01*
X161716566Y-117760225D01*
X161364419Y-117614361D01*
X160990581Y-117540000D01*
X160609419Y-117540000D01*
X160235581Y-117614361D01*
X159883434Y-117760225D01*
X159566509Y-117971987D01*
X159296987Y-118241509D01*
X159085225Y-118558434D01*
X158939361Y-118910581D01*
X158865000Y-119284419D01*
X151785000Y-119284419D01*
X151785000Y-110378711D01*
X151803937Y-110359774D01*
X151917205Y-110190256D01*
X151995226Y-110001898D01*
X152035000Y-109801939D01*
X152035000Y-109773061D01*
X161215000Y-109773061D01*
X161215000Y-109976939D01*
X161254774Y-110176898D01*
X161332795Y-110365256D01*
X161446063Y-110534774D01*
X161590226Y-110678937D01*
X161759744Y-110792205D01*
X161948102Y-110870226D01*
X162148061Y-110910000D01*
X162351939Y-110910000D01*
X162551898Y-110870226D01*
X162740256Y-110792205D01*
X162909774Y-110678937D01*
X163053937Y-110534774D01*
X163167205Y-110365256D01*
X163245226Y-110176898D01*
X163256535Y-110120043D01*
X164221069Y-109155510D01*
X164305495Y-109147195D01*
X164472318Y-109096589D01*
X164626064Y-109014411D01*
X164760822Y-108903817D01*
X164788539Y-108870044D01*
X164973583Y-108685000D01*
X171861546Y-108685000D01*
X171909744Y-108717205D01*
X172098102Y-108795226D01*
X172298061Y-108835000D01*
X172501939Y-108835000D01*
X172701898Y-108795226D01*
X172890256Y-108717205D01*
X173059774Y-108603937D01*
X173203937Y-108459774D01*
X173317205Y-108290256D01*
X173384207Y-108128501D01*
X173397068Y-108193158D01*
X173509010Y-108463411D01*
X173671525Y-108706632D01*
X173878368Y-108913475D01*
X174052760Y-109030000D01*
X173878368Y-109146525D01*
X173671525Y-109353368D01*
X173509010Y-109596589D01*
X173397068Y-109866842D01*
X173340000Y-110153740D01*
X173340000Y-110446260D01*
X173397068Y-110733158D01*
X173509010Y-111003411D01*
X173671525Y-111246632D01*
X173878368Y-111453475D01*
X174121589Y-111615990D01*
X174391842Y-111727932D01*
X174678740Y-111785000D01*
X174971260Y-111785000D01*
X175258158Y-111727932D01*
X175528411Y-111615990D01*
X175771632Y-111453475D01*
X175978475Y-111246632D01*
X176140990Y-111003411D01*
X176252932Y-110733158D01*
X176310000Y-110446260D01*
X176310000Y-110153740D01*
X176252932Y-109866842D01*
X176140990Y-109596589D01*
X175978475Y-109353368D01*
X175771632Y-109146525D01*
X175603854Y-109034419D01*
X176715000Y-109034419D01*
X176715000Y-109415581D01*
X176789361Y-109789419D01*
X176935225Y-110141566D01*
X177146987Y-110458491D01*
X177416509Y-110728013D01*
X177733434Y-110939775D01*
X178085581Y-111085639D01*
X178459419Y-111160000D01*
X178840581Y-111160000D01*
X179214419Y-111085639D01*
X179566566Y-110939775D01*
X179883491Y-110728013D01*
X180153013Y-110458491D01*
X180364775Y-110141566D01*
X180510639Y-109789419D01*
X180585000Y-109415581D01*
X180585000Y-109034419D01*
X180510639Y-108660581D01*
X180364775Y-108308434D01*
X180153013Y-107991509D01*
X179883491Y-107721987D01*
X179566566Y-107510225D01*
X179214419Y-107364361D01*
X178840581Y-107290000D01*
X178459419Y-107290000D01*
X178085581Y-107364361D01*
X177733434Y-107510225D01*
X177416509Y-107721987D01*
X177146987Y-107991509D01*
X176935225Y-108308434D01*
X176789361Y-108660581D01*
X176715000Y-109034419D01*
X175603854Y-109034419D01*
X175597240Y-109030000D01*
X175771632Y-108913475D01*
X175978475Y-108706632D01*
X176140990Y-108463411D01*
X176252932Y-108193158D01*
X176310000Y-107906260D01*
X176310000Y-107613740D01*
X176252932Y-107326842D01*
X176140990Y-107056589D01*
X175978475Y-106813368D01*
X175771632Y-106606525D01*
X175597240Y-106490000D01*
X175771632Y-106373475D01*
X175978475Y-106166632D01*
X176140990Y-105923411D01*
X176252932Y-105653158D01*
X176310000Y-105366260D01*
X176310000Y-105073740D01*
X176252932Y-104786842D01*
X176140990Y-104516589D01*
X176063088Y-104400000D01*
X178536928Y-104400000D01*
X178536928Y-106200000D01*
X178549188Y-106324482D01*
X178585498Y-106444180D01*
X178644463Y-106554494D01*
X178723815Y-106651185D01*
X178820506Y-106730537D01*
X178930820Y-106789502D01*
X179050518Y-106825812D01*
X179175000Y-106838072D01*
X180975000Y-106838072D01*
X181099482Y-106825812D01*
X181219180Y-106789502D01*
X181329494Y-106730537D01*
X181426185Y-106651185D01*
X181505537Y-106554494D01*
X181564502Y-106444180D01*
X181600812Y-106324482D01*
X181613072Y-106200000D01*
X181613072Y-104400000D01*
X181600812Y-104275518D01*
X181564502Y-104155820D01*
X181505537Y-104045506D01*
X181426185Y-103948815D01*
X181329494Y-103869463D01*
X181219180Y-103810498D01*
X181200873Y-103804944D01*
X181267312Y-103738505D01*
X181435299Y-103487095D01*
X181551011Y-103207743D01*
X181610000Y-102911184D01*
X181610000Y-102608816D01*
X181570338Y-102409419D01*
X181790000Y-102409419D01*
X181790000Y-102790581D01*
X181864361Y-103164419D01*
X182010225Y-103516566D01*
X182221987Y-103833491D01*
X182491509Y-104103013D01*
X182808434Y-104314775D01*
X183160581Y-104460639D01*
X183534419Y-104535000D01*
X183915581Y-104535000D01*
X184289419Y-104460639D01*
X184641566Y-104314775D01*
X184958491Y-104103013D01*
X185228013Y-103833491D01*
X185439775Y-103516566D01*
X185585639Y-103164419D01*
X185660000Y-102790581D01*
X185660000Y-102409419D01*
X185585639Y-102035581D01*
X185439775Y-101683434D01*
X185228013Y-101366509D01*
X184958491Y-101096987D01*
X184641566Y-100885225D01*
X184289419Y-100739361D01*
X183915581Y-100665000D01*
X183534419Y-100665000D01*
X183160581Y-100739361D01*
X182808434Y-100885225D01*
X182491509Y-101096987D01*
X182221987Y-101366509D01*
X182010225Y-101683434D01*
X181864361Y-102035581D01*
X181790000Y-102409419D01*
X181570338Y-102409419D01*
X181551011Y-102312257D01*
X181435299Y-102032905D01*
X181267312Y-101781495D01*
X181053505Y-101567688D01*
X180802095Y-101399701D01*
X180522743Y-101283989D01*
X180226184Y-101225000D01*
X179923816Y-101225000D01*
X179627257Y-101283989D01*
X179347905Y-101399701D01*
X179096495Y-101567688D01*
X178882688Y-101781495D01*
X178714701Y-102032905D01*
X178598989Y-102312257D01*
X178540000Y-102608816D01*
X178540000Y-102911184D01*
X178598989Y-103207743D01*
X178714701Y-103487095D01*
X178882688Y-103738505D01*
X178949127Y-103804944D01*
X178930820Y-103810498D01*
X178820506Y-103869463D01*
X178723815Y-103948815D01*
X178644463Y-104045506D01*
X178585498Y-104155820D01*
X178549188Y-104275518D01*
X178536928Y-104400000D01*
X176063088Y-104400000D01*
X175978475Y-104273368D01*
X175771632Y-104066525D01*
X175597240Y-103950000D01*
X175771632Y-103833475D01*
X175978475Y-103626632D01*
X176140990Y-103383411D01*
X176252932Y-103113158D01*
X176310000Y-102826260D01*
X176310000Y-102533740D01*
X176252932Y-102246842D01*
X176140990Y-101976589D01*
X175978475Y-101733368D01*
X175771632Y-101526525D01*
X175589466Y-101404805D01*
X175706355Y-101335178D01*
X175922588Y-101140269D01*
X176096641Y-100906920D01*
X176221825Y-100644099D01*
X176266476Y-100496890D01*
X176145155Y-100267000D01*
X174952000Y-100267000D01*
X174952000Y-100287000D01*
X174698000Y-100287000D01*
X174698000Y-100267000D01*
X173504845Y-100267000D01*
X173383524Y-100496890D01*
X173428175Y-100644099D01*
X173553359Y-100906920D01*
X173727412Y-101140269D01*
X173943645Y-101335178D01*
X174060534Y-101404805D01*
X173878368Y-101526525D01*
X173671525Y-101733368D01*
X173509010Y-101976589D01*
X173397068Y-102246842D01*
X173340000Y-102533740D01*
X173340000Y-102826260D01*
X173397068Y-103113158D01*
X173509010Y-103383411D01*
X173671525Y-103626632D01*
X173878368Y-103833475D01*
X174052760Y-103950000D01*
X173878368Y-104066525D01*
X173671525Y-104273368D01*
X173509010Y-104516589D01*
X173397068Y-104786842D01*
X173340000Y-105073740D01*
X173340000Y-105366260D01*
X173397068Y-105653158D01*
X173509010Y-105923411D01*
X173671525Y-106166632D01*
X173878368Y-106373475D01*
X174052760Y-106490000D01*
X173878368Y-106606525D01*
X173671525Y-106813368D01*
X173509010Y-107056589D01*
X173397068Y-107326842D01*
X173373456Y-107445545D01*
X173317205Y-107309744D01*
X173203937Y-107140226D01*
X173059774Y-106996063D01*
X172890256Y-106882795D01*
X172701898Y-106804774D01*
X172501939Y-106765000D01*
X172298061Y-106765000D01*
X172098102Y-106804774D01*
X171909744Y-106882795D01*
X171861546Y-106915000D01*
X165472158Y-106915000D01*
X165472158Y-106198303D01*
X165504363Y-106150105D01*
X165582384Y-105961747D01*
X165622158Y-105761788D01*
X165622158Y-105557910D01*
X165582384Y-105357951D01*
X165504363Y-105169593D01*
X165391095Y-105000075D01*
X165246932Y-104855912D01*
X165077414Y-104742644D01*
X164889056Y-104664623D01*
X164689097Y-104624849D01*
X164485219Y-104624849D01*
X164285260Y-104664623D01*
X164096902Y-104742644D01*
X163927384Y-104855912D01*
X163783221Y-105000075D01*
X163669953Y-105169593D01*
X163591932Y-105357951D01*
X163552158Y-105557910D01*
X163552158Y-105761788D01*
X163591932Y-105961747D01*
X163669953Y-106150105D01*
X163702159Y-106198304D01*
X163702158Y-107043680D01*
X163702158Y-107400279D01*
X163676510Y-107402805D01*
X163509687Y-107453411D01*
X163402470Y-107510719D01*
X163355941Y-107535589D01*
X163254953Y-107618468D01*
X163254951Y-107618470D01*
X163221183Y-107646183D01*
X163193470Y-107679951D01*
X162004957Y-108868465D01*
X161948102Y-108879774D01*
X161759744Y-108957795D01*
X161590226Y-109071063D01*
X161446063Y-109215226D01*
X161332795Y-109384744D01*
X161254774Y-109573102D01*
X161215000Y-109773061D01*
X152035000Y-109773061D01*
X152035000Y-109598061D01*
X151995226Y-109398102D01*
X151917205Y-109209744D01*
X151803937Y-109040226D01*
X151751821Y-108988110D01*
X151817205Y-108890256D01*
X151895226Y-108701898D01*
X151935000Y-108501939D01*
X151935000Y-108298061D01*
X151895226Y-108098102D01*
X151817205Y-107909744D01*
X151703937Y-107740226D01*
X151559774Y-107596063D01*
X151390256Y-107482795D01*
X151201898Y-107404774D01*
X151001939Y-107365000D01*
X150798061Y-107365000D01*
X150598102Y-107404774D01*
X150409744Y-107482795D01*
X150240226Y-107596063D01*
X150096063Y-107740226D01*
X150080472Y-107763560D01*
X150071183Y-107771183D01*
X150043470Y-107804951D01*
X149304951Y-108543471D01*
X149271184Y-108571183D01*
X149243471Y-108604951D01*
X149243468Y-108604954D01*
X149160590Y-108705941D01*
X149078412Y-108859687D01*
X149027805Y-109026510D01*
X149010719Y-109200000D01*
X149015001Y-109243479D01*
X149015000Y-123233421D01*
X146054959Y-126193463D01*
X146054954Y-126193467D01*
X144235001Y-128013421D01*
X144235001Y-124087288D01*
X145090548Y-123231742D01*
X145123102Y-123245226D01*
X145323061Y-123285000D01*
X145526939Y-123285000D01*
X145726898Y-123245226D01*
X145915256Y-123167205D01*
X146084774Y-123053937D01*
X146228937Y-122909774D01*
X146342205Y-122740256D01*
X146420226Y-122551898D01*
X146460000Y-122351939D01*
X146460000Y-122148061D01*
X146420226Y-121948102D01*
X146406742Y-121915548D01*
X148128666Y-120193624D01*
X148164344Y-120164344D01*
X148281186Y-120021972D01*
X148368007Y-119859540D01*
X148411395Y-119716509D01*
X148421471Y-119683293D01*
X148439524Y-119500001D01*
X148435000Y-119454069D01*
X148435000Y-118047295D01*
X148495226Y-117901898D01*
X148535000Y-117701939D01*
X148535000Y-117498061D01*
X148495226Y-117298102D01*
X148417205Y-117109744D01*
X148303937Y-116940226D01*
X148159774Y-116796063D01*
X147990256Y-116682795D01*
X147801898Y-116604774D01*
X147601939Y-116565000D01*
X147398061Y-116565000D01*
X147198102Y-116604774D01*
X147009744Y-116682795D01*
X146840226Y-116796063D01*
X146696063Y-116940226D01*
X146582795Y-117109744D01*
X146504774Y-117298102D01*
X146465000Y-117498061D01*
X146465000Y-117701939D01*
X146504774Y-117901898D01*
X146565001Y-118047297D01*
X146565000Y-119112710D01*
X146285000Y-119392710D01*
X146285000Y-114038454D01*
X146317205Y-113990256D01*
X146395226Y-113801898D01*
X146435000Y-113601939D01*
X146435000Y-113398061D01*
X146395226Y-113198102D01*
X146317205Y-113009744D01*
X146210468Y-112850000D01*
X146317205Y-112690256D01*
X146395226Y-112501898D01*
X146435000Y-112301939D01*
X146435000Y-112098061D01*
X146395226Y-111898102D01*
X146317205Y-111709744D01*
X146203937Y-111540226D01*
X146059774Y-111396063D01*
X145890256Y-111282795D01*
X145701898Y-111204774D01*
X145501939Y-111165000D01*
X145298061Y-111165000D01*
X145098102Y-111204774D01*
X144909744Y-111282795D01*
X144861546Y-111315000D01*
X144643465Y-111315000D01*
X144599999Y-111310719D01*
X144556533Y-111315000D01*
X144556523Y-111315000D01*
X144426510Y-111327805D01*
X144259687Y-111378411D01*
X144105941Y-111460589D01*
X143971183Y-111571183D01*
X143943466Y-111604956D01*
X143682157Y-111866265D01*
X143682157Y-105547909D01*
X146852157Y-105547909D01*
X146852157Y-105751787D01*
X146891931Y-105951746D01*
X146969952Y-106140104D01*
X147083220Y-106309622D01*
X147227383Y-106453785D01*
X147396901Y-106567053D01*
X147585259Y-106645074D01*
X147785218Y-106684848D01*
X147989096Y-106684848D01*
X148189055Y-106645074D01*
X148377413Y-106567053D01*
X148425613Y-106534847D01*
X155439952Y-106534849D01*
X155463667Y-106542043D01*
X155637156Y-106559130D01*
X155810646Y-106542043D01*
X155834361Y-106534849D01*
X159258770Y-106534849D01*
X159336901Y-106587054D01*
X159525259Y-106665075D01*
X159725218Y-106704849D01*
X159929096Y-106704849D01*
X160129055Y-106665075D01*
X160317413Y-106587054D01*
X160486931Y-106473786D01*
X160631094Y-106329623D01*
X160744362Y-106160105D01*
X160822383Y-105971747D01*
X160862157Y-105771788D01*
X160862157Y-105567910D01*
X160822383Y-105367951D01*
X160744362Y-105179593D01*
X160631094Y-105010075D01*
X160486931Y-104865912D01*
X160317413Y-104752644D01*
X160129055Y-104674623D01*
X159929096Y-104634849D01*
X159725218Y-104634849D01*
X159525259Y-104674623D01*
X159336901Y-104752644D01*
X159318635Y-104764849D01*
X155660626Y-104764849D01*
X155617157Y-104760568D01*
X155573688Y-104764849D01*
X155573680Y-104764849D01*
X155573670Y-104764850D01*
X148425612Y-104764848D01*
X148377413Y-104732643D01*
X148189055Y-104654622D01*
X147989096Y-104614848D01*
X147785218Y-104614848D01*
X147585259Y-104654622D01*
X147396901Y-104732643D01*
X147227383Y-104845911D01*
X147083220Y-104990074D01*
X146969952Y-105159592D01*
X146891931Y-105347950D01*
X146852157Y-105547909D01*
X143682157Y-105547909D01*
X143682156Y-102103324D01*
X143686438Y-102059848D01*
X143669351Y-101886358D01*
X143618745Y-101719535D01*
X143536567Y-101565789D01*
X143453689Y-101464802D01*
X143453681Y-101464794D01*
X143425973Y-101431032D01*
X143392211Y-101403324D01*
X142436948Y-100448061D01*
X153515000Y-100448061D01*
X153515000Y-100651939D01*
X153554774Y-100851898D01*
X153632795Y-101040256D01*
X153746063Y-101209774D01*
X153890226Y-101353937D01*
X154059744Y-101467205D01*
X154248102Y-101545226D01*
X154448061Y-101585000D01*
X154651939Y-101585000D01*
X154851898Y-101545226D01*
X155040256Y-101467205D01*
X155209774Y-101353937D01*
X155353937Y-101209774D01*
X155467205Y-101040256D01*
X155545226Y-100851898D01*
X155585000Y-100651939D01*
X155585000Y-100448061D01*
X155545226Y-100248102D01*
X155467205Y-100059744D01*
X155353937Y-99890226D01*
X155209774Y-99746063D01*
X155040256Y-99632795D01*
X154851898Y-99554774D01*
X154651939Y-99515000D01*
X154448061Y-99515000D01*
X154248102Y-99554774D01*
X154059744Y-99632795D01*
X153890226Y-99746063D01*
X153746063Y-99890226D01*
X153632795Y-100059744D01*
X153554774Y-100248102D01*
X153515000Y-100448061D01*
X142436948Y-100448061D01*
X141962157Y-99973271D01*
X141962157Y-97749396D01*
X142057748Y-97844987D01*
X142325537Y-98023918D01*
X142623088Y-98147168D01*
X142938967Y-98210000D01*
X143261033Y-98210000D01*
X143576912Y-98147168D01*
X143874463Y-98023918D01*
X144142252Y-97844987D01*
X144369987Y-97617252D01*
X144370000Y-97617233D01*
X144370013Y-97617252D01*
X144597748Y-97844987D01*
X144865537Y-98023918D01*
X145163088Y-98147168D01*
X145478967Y-98210000D01*
X145801033Y-98210000D01*
X146116912Y-98147168D01*
X146414463Y-98023918D01*
X146682252Y-97844987D01*
X146816826Y-97710413D01*
X147224192Y-97710413D01*
X147319956Y-97974814D01*
X147609571Y-98115704D01*
X147921108Y-98197384D01*
X148242595Y-98216718D01*
X148561675Y-98172961D01*
X148866088Y-98067795D01*
X149040044Y-97974814D01*
X149135808Y-97710413D01*
X148180000Y-96754605D01*
X147224192Y-97710413D01*
X146816826Y-97710413D01*
X146909987Y-97617252D01*
X146982720Y-97508400D01*
X147044587Y-97530808D01*
X148000395Y-96575000D01*
X147044587Y-95619192D01*
X146982720Y-95641600D01*
X146909987Y-95532748D01*
X146682252Y-95305013D01*
X146414463Y-95126082D01*
X146116912Y-95002832D01*
X145801033Y-94940000D01*
X145478967Y-94940000D01*
X145163088Y-95002832D01*
X144865537Y-95126082D01*
X144597748Y-95305013D01*
X144370013Y-95532748D01*
X144370000Y-95532767D01*
X144369987Y-95532748D01*
X144142252Y-95305013D01*
X143874463Y-95126082D01*
X143576912Y-95002832D01*
X143261033Y-94940000D01*
X142938967Y-94940000D01*
X142935986Y-94940593D01*
X143120214Y-94756365D01*
X143301898Y-94720226D01*
X143490256Y-94642205D01*
X143659774Y-94528937D01*
X143803937Y-94384774D01*
X143917205Y-94215256D01*
X143995226Y-94026898D01*
X144035000Y-93826939D01*
X144035000Y-93623061D01*
X143995226Y-93423102D01*
X143917205Y-93234744D01*
X143803937Y-93065226D01*
X143659774Y-92921063D01*
X143490256Y-92807795D01*
X143301898Y-92729774D01*
X143101939Y-92690000D01*
X142898061Y-92690000D01*
X142698102Y-92729774D01*
X142509744Y-92807795D01*
X142340226Y-92921063D01*
X142196063Y-93065226D01*
X142082795Y-93234744D01*
X142043280Y-93330141D01*
X140482108Y-94891314D01*
X140448341Y-94919026D01*
X140420628Y-94952794D01*
X140420625Y-94952797D01*
X140337747Y-95053784D01*
X140255569Y-95207530D01*
X140204962Y-95374353D01*
X140187876Y-95547843D01*
X140192158Y-95591322D01*
X140192157Y-100296380D01*
X140187876Y-100339849D01*
X140192157Y-100383318D01*
X140192157Y-100383325D01*
X140204962Y-100513338D01*
X140255568Y-100680161D01*
X140337746Y-100833907D01*
X140448340Y-100968666D01*
X140482113Y-100996383D01*
X141912157Y-102426428D01*
X141912159Y-118471393D01*
X141879953Y-118519593D01*
X141801932Y-118707951D01*
X141762158Y-118907910D01*
X141762158Y-119111788D01*
X141801932Y-119311747D01*
X141879953Y-119500105D01*
X141993221Y-119669623D01*
X142137384Y-119813786D01*
X142306902Y-119927054D01*
X142495260Y-120005075D01*
X142618777Y-120029644D01*
X140504951Y-122143471D01*
X140471184Y-122171183D01*
X140443471Y-122204951D01*
X140443468Y-122204954D01*
X140360590Y-122305941D01*
X140278412Y-122459687D01*
X140227805Y-122626510D01*
X140210719Y-122800000D01*
X140215001Y-122843479D01*
X140215001Y-125165976D01*
X140191573Y-125109417D01*
X140078305Y-124939899D01*
X139934142Y-124795736D01*
X139764624Y-124682468D01*
X139576266Y-124604447D01*
X139519412Y-124593138D01*
X128387904Y-113461631D01*
X128385000Y-113432145D01*
X128385000Y-100293465D01*
X128389281Y-100249999D01*
X128385000Y-100206533D01*
X128385000Y-100206523D01*
X128372195Y-100076510D01*
X128321589Y-99909687D01*
X128239411Y-99755941D01*
X128128817Y-99621183D01*
X128095050Y-99593471D01*
X125556534Y-97054956D01*
X125528817Y-97021183D01*
X125394059Y-96910589D01*
X125240313Y-96828411D01*
X125073490Y-96777805D01*
X124943477Y-96765000D01*
X124943469Y-96765000D01*
X124900000Y-96760719D01*
X124856531Y-96765000D01*
X120988454Y-96765000D01*
X120940256Y-96732795D01*
X120751898Y-96654774D01*
X120551939Y-96615000D01*
X120348061Y-96615000D01*
X120148102Y-96654774D01*
X119959744Y-96732795D01*
X119790226Y-96846063D01*
X119646063Y-96990226D01*
X119532795Y-97159744D01*
X119454774Y-97348102D01*
X119415000Y-97548061D01*
X116227000Y-97548061D01*
X116227000Y-91410903D01*
X128034849Y-91410903D01*
X128034849Y-91614781D01*
X128074623Y-91814740D01*
X128152644Y-92003098D01*
X128265912Y-92172616D01*
X128410075Y-92316779D01*
X128579593Y-92430047D01*
X128767951Y-92508068D01*
X128967910Y-92547842D01*
X129171788Y-92547842D01*
X129371747Y-92508068D01*
X129560105Y-92430047D01*
X129608303Y-92397842D01*
X145321264Y-92397842D01*
X147888143Y-94964722D01*
X147798325Y-94977039D01*
X147493912Y-95082205D01*
X147319956Y-95175186D01*
X147224192Y-95439587D01*
X148180000Y-96395395D01*
X148194143Y-96381253D01*
X148373748Y-96560858D01*
X148359605Y-96575000D01*
X149315413Y-97530808D01*
X149579814Y-97435044D01*
X149720704Y-97145429D01*
X149802384Y-96833892D01*
X149821718Y-96512405D01*
X149787104Y-96260000D01*
X157808422Y-96260000D01*
X159915000Y-98366579D01*
X159915001Y-99161545D01*
X159882795Y-99209744D01*
X159804774Y-99398102D01*
X159765000Y-99598061D01*
X159765000Y-99801939D01*
X159804774Y-100001898D01*
X159882795Y-100190256D01*
X159996063Y-100359774D01*
X160140226Y-100503937D01*
X160309744Y-100617205D01*
X160498102Y-100695226D01*
X160698061Y-100735000D01*
X160901939Y-100735000D01*
X161101898Y-100695226D01*
X161290256Y-100617205D01*
X161459774Y-100503937D01*
X161603937Y-100359774D01*
X161717205Y-100190256D01*
X161795226Y-100001898D01*
X161835000Y-99801939D01*
X161835000Y-99598061D01*
X161795226Y-99398102D01*
X161717205Y-99209744D01*
X161685000Y-99161546D01*
X161685000Y-98450000D01*
X173336928Y-98450000D01*
X173349188Y-98574482D01*
X173385498Y-98694180D01*
X173444463Y-98804494D01*
X173523815Y-98901185D01*
X173620506Y-98980537D01*
X173730820Y-99039502D01*
X173811466Y-99063966D01*
X173727412Y-99139731D01*
X173553359Y-99373080D01*
X173428175Y-99635901D01*
X173383524Y-99783110D01*
X173504845Y-100013000D01*
X174698000Y-100013000D01*
X174698000Y-97727000D01*
X174952000Y-97727000D01*
X174952000Y-100013000D01*
X176145155Y-100013000D01*
X176266476Y-99783110D01*
X176221825Y-99635901D01*
X176096641Y-99373080D01*
X175922588Y-99139731D01*
X175838534Y-99063966D01*
X175919180Y-99039502D01*
X176029494Y-98980537D01*
X176126185Y-98901185D01*
X176205537Y-98804494D01*
X176264502Y-98694180D01*
X176300812Y-98574482D01*
X176313072Y-98450000D01*
X176310000Y-97885750D01*
X176151250Y-97727000D01*
X174952000Y-97727000D01*
X174698000Y-97727000D01*
X173498750Y-97727000D01*
X173340000Y-97885750D01*
X173336928Y-98450000D01*
X161685000Y-98450000D01*
X161685000Y-98043469D01*
X161689281Y-98000000D01*
X161685000Y-97956531D01*
X161685000Y-97956523D01*
X161672195Y-97826510D01*
X161649574Y-97751939D01*
X161621589Y-97659686D01*
X161539411Y-97505941D01*
X161456532Y-97404953D01*
X161456530Y-97404951D01*
X161428817Y-97371183D01*
X161395050Y-97343471D01*
X160801579Y-96750000D01*
X173336928Y-96750000D01*
X173340000Y-97314250D01*
X173498750Y-97473000D01*
X174698000Y-97473000D01*
X174698000Y-96273750D01*
X174952000Y-96273750D01*
X174952000Y-97473000D01*
X176151250Y-97473000D01*
X176310000Y-97314250D01*
X176313072Y-96750000D01*
X176300812Y-96625518D01*
X176264502Y-96505820D01*
X176205537Y-96395506D01*
X176126185Y-96298815D01*
X176029494Y-96219463D01*
X175919180Y-96160498D01*
X175799482Y-96124188D01*
X175675000Y-96111928D01*
X175110750Y-96115000D01*
X174952000Y-96273750D01*
X174698000Y-96273750D01*
X174539250Y-96115000D01*
X173975000Y-96111928D01*
X173850518Y-96124188D01*
X173730820Y-96160498D01*
X173620506Y-96219463D01*
X173523815Y-96298815D01*
X173444463Y-96395506D01*
X173385498Y-96505820D01*
X173349188Y-96625518D01*
X173336928Y-96750000D01*
X160801579Y-96750000D01*
X159281451Y-95229872D01*
X179365000Y-95229872D01*
X179365000Y-95670128D01*
X179450890Y-96101925D01*
X179619369Y-96508669D01*
X179863962Y-96874729D01*
X180175271Y-97186038D01*
X180541331Y-97430631D01*
X180948075Y-97599110D01*
X181379872Y-97685000D01*
X181820128Y-97685000D01*
X182251925Y-97599110D01*
X182658669Y-97430631D01*
X183024729Y-97186038D01*
X183336038Y-96874729D01*
X183580631Y-96508669D01*
X183749110Y-96101925D01*
X183835000Y-95670128D01*
X183835000Y-95229872D01*
X183749110Y-94798075D01*
X183580631Y-94391331D01*
X183336038Y-94025271D01*
X183024729Y-93713962D01*
X182658669Y-93469369D01*
X182251925Y-93300890D01*
X181820128Y-93215000D01*
X181379872Y-93215000D01*
X180948075Y-93300890D01*
X180541331Y-93469369D01*
X180175271Y-93713962D01*
X179863962Y-94025271D01*
X179619369Y-94391331D01*
X179450890Y-94798075D01*
X179365000Y-95229872D01*
X159281451Y-95229872D01*
X158831534Y-94779956D01*
X158803817Y-94746183D01*
X158669059Y-94635589D01*
X158515313Y-94553411D01*
X158348490Y-94502805D01*
X158218477Y-94490000D01*
X158218469Y-94490000D01*
X158175000Y-94485719D01*
X158131531Y-94490000D01*
X151808637Y-94490000D01*
X151946074Y-94284311D01*
X152069324Y-93986760D01*
X152132156Y-93670881D01*
X152132156Y-93348815D01*
X152069324Y-93032936D01*
X151946074Y-92735385D01*
X151767143Y-92467596D01*
X151539408Y-92239861D01*
X151539389Y-92239848D01*
X151539408Y-92239835D01*
X151767143Y-92012100D01*
X151946074Y-91744311D01*
X152069324Y-91446760D01*
X152132156Y-91130881D01*
X152132156Y-90808815D01*
X152069324Y-90492936D01*
X151946074Y-90195385D01*
X151767143Y-89927596D01*
X151539408Y-89699861D01*
X151271619Y-89520930D01*
X150974068Y-89397680D01*
X150658189Y-89334848D01*
X150336123Y-89334848D01*
X150020244Y-89397680D01*
X149722693Y-89520930D01*
X149454904Y-89699861D01*
X149227169Y-89927596D01*
X149158203Y-90030811D01*
X149041769Y-89988640D01*
X148085961Y-90944448D01*
X149041769Y-91900256D01*
X149130873Y-91867983D01*
X149227169Y-92012100D01*
X149454904Y-92239835D01*
X149454923Y-92239848D01*
X149454904Y-92239861D01*
X149227169Y-92467596D01*
X149048238Y-92735385D01*
X148924988Y-93032936D01*
X148862156Y-93348815D01*
X148862156Y-93435577D01*
X148007463Y-92580885D01*
X148288031Y-92542409D01*
X148592444Y-92437243D01*
X148766400Y-92344262D01*
X148862164Y-92079861D01*
X147906356Y-91124053D01*
X147892214Y-91138196D01*
X147712609Y-90958591D01*
X147726751Y-90944448D01*
X146770943Y-89988640D01*
X146506542Y-90084404D01*
X146365652Y-90374019D01*
X146283972Y-90685556D01*
X146274135Y-90849126D01*
X146181901Y-90773431D01*
X146028155Y-90691253D01*
X145861332Y-90640647D01*
X145731319Y-90627842D01*
X145731311Y-90627842D01*
X145687842Y-90623561D01*
X145644373Y-90627842D01*
X129608303Y-90627842D01*
X129560105Y-90595637D01*
X129371747Y-90517616D01*
X129171788Y-90477842D01*
X128967910Y-90477842D01*
X128767951Y-90517616D01*
X128579593Y-90595637D01*
X128410075Y-90708905D01*
X128265912Y-90853068D01*
X128152644Y-91022586D01*
X128074623Y-91210944D01*
X128034849Y-91410903D01*
X116227000Y-91410903D01*
X116227000Y-89809035D01*
X146950548Y-89809035D01*
X147906356Y-90764843D01*
X148862164Y-89809035D01*
X148766400Y-89544634D01*
X148476785Y-89403744D01*
X148165248Y-89322064D01*
X147843761Y-89302730D01*
X147524681Y-89346487D01*
X147220268Y-89451653D01*
X147046312Y-89544634D01*
X146950548Y-89809035D01*
X116227000Y-89809035D01*
X116227000Y-88127000D01*
X188972916Y-88127000D01*
X188940816Y-136918571D01*
G36*
X139202000Y-140563000D02*
G01*
X139222000Y-140563000D01*
X139222000Y-140817000D01*
X139202000Y-140817000D01*
X139202000Y-142010814D01*
X139431891Y-142131481D01*
X139706252Y-142034157D01*
X139956355Y-141885178D01*
X140172588Y-141690269D01*
X140346641Y-141456920D01*
X140471825Y-141194099D01*
X140516476Y-141046890D01*
X140395156Y-140817002D01*
X140560000Y-140817002D01*
X140560000Y-140783967D01*
X140609744Y-140817205D01*
X140798102Y-140895226D01*
X140998061Y-140935000D01*
X141201939Y-140935000D01*
X141401898Y-140895226D01*
X141415001Y-140889799D01*
X141415001Y-141633420D01*
X140504956Y-142543466D01*
X140471183Y-142571183D01*
X140360589Y-142705942D01*
X140278411Y-142859688D01*
X140227805Y-143026511D01*
X140215000Y-143156524D01*
X140215000Y-143156531D01*
X140214421Y-143162413D01*
X140182795Y-143209744D01*
X140104774Y-143398102D01*
X140065000Y-143598061D01*
X140065000Y-143801939D01*
X140104774Y-144001898D01*
X140182795Y-144190256D01*
X140296063Y-144359774D01*
X140440226Y-144503937D01*
X140609744Y-144617205D01*
X140798102Y-144695226D01*
X140998061Y-144735000D01*
X141201939Y-144735000D01*
X141401898Y-144695226D01*
X141590256Y-144617205D01*
X141759774Y-144503937D01*
X141903937Y-144359774D01*
X142017205Y-144190256D01*
X142095226Y-144001898D01*
X142135000Y-143801939D01*
X142135000Y-143598061D01*
X142104890Y-143446688D01*
X142365000Y-143186578D01*
X142365000Y-144674068D01*
X142360476Y-144720000D01*
X142365000Y-144765931D01*
X142378529Y-144903291D01*
X142431993Y-145079539D01*
X142518814Y-145241971D01*
X142635656Y-145384343D01*
X142671335Y-145413624D01*
X143340000Y-146082289D01*
X143340000Y-146246939D01*
X143379774Y-146446898D01*
X143440000Y-146592296D01*
X143440001Y-147649059D01*
X143435476Y-147695000D01*
X143453529Y-147878291D01*
X143486381Y-147986589D01*
X143506994Y-148054540D01*
X143593815Y-148216972D01*
X143710657Y-148359344D01*
X143746336Y-148388625D01*
X144965001Y-149607290D01*
X144965001Y-152857489D01*
X144851939Y-152835000D01*
X144648061Y-152835000D01*
X144448102Y-152874774D01*
X144259744Y-152952795D01*
X144136715Y-153035000D01*
X139095868Y-153035000D01*
X138010000Y-151949133D01*
X138010000Y-141719643D01*
X138193645Y-141885178D01*
X138443748Y-142034157D01*
X138718109Y-142131481D01*
X138948000Y-142010814D01*
X138948000Y-140817000D01*
X138928000Y-140817000D01*
X138928000Y-140563000D01*
X138948000Y-140563000D01*
X138948000Y-140543000D01*
X139202000Y-140543000D01*
X139202000Y-140563000D01*
G37*
X139202000Y-140563000D02*
X139222000Y-140563000D01*
X139222000Y-140817000D01*
X139202000Y-140817000D01*
X139202000Y-142010814D01*
X139431891Y-142131481D01*
X139706252Y-142034157D01*
X139956355Y-141885178D01*
X140172588Y-141690269D01*
X140346641Y-141456920D01*
X140471825Y-141194099D01*
X140516476Y-141046890D01*
X140395156Y-140817002D01*
X140560000Y-140817002D01*
X140560000Y-140783967D01*
X140609744Y-140817205D01*
X140798102Y-140895226D01*
X140998061Y-140935000D01*
X141201939Y-140935000D01*
X141401898Y-140895226D01*
X141415001Y-140889799D01*
X141415001Y-141633420D01*
X140504956Y-142543466D01*
X140471183Y-142571183D01*
X140360589Y-142705942D01*
X140278411Y-142859688D01*
X140227805Y-143026511D01*
X140215000Y-143156524D01*
X140215000Y-143156531D01*
X140214421Y-143162413D01*
X140182795Y-143209744D01*
X140104774Y-143398102D01*
X140065000Y-143598061D01*
X140065000Y-143801939D01*
X140104774Y-144001898D01*
X140182795Y-144190256D01*
X140296063Y-144359774D01*
X140440226Y-144503937D01*
X140609744Y-144617205D01*
X140798102Y-144695226D01*
X140998061Y-144735000D01*
X141201939Y-144735000D01*
X141401898Y-144695226D01*
X141590256Y-144617205D01*
X141759774Y-144503937D01*
X141903937Y-144359774D01*
X142017205Y-144190256D01*
X142095226Y-144001898D01*
X142135000Y-143801939D01*
X142135000Y-143598061D01*
X142104890Y-143446688D01*
X142365000Y-143186578D01*
X142365000Y-144674068D01*
X142360476Y-144720000D01*
X142365000Y-144765931D01*
X142378529Y-144903291D01*
X142431993Y-145079539D01*
X142518814Y-145241971D01*
X142635656Y-145384343D01*
X142671335Y-145413624D01*
X143340000Y-146082289D01*
X143340000Y-146246939D01*
X143379774Y-146446898D01*
X143440000Y-146592296D01*
X143440001Y-147649059D01*
X143435476Y-147695000D01*
X143453529Y-147878291D01*
X143486381Y-147986589D01*
X143506994Y-148054540D01*
X143593815Y-148216972D01*
X143710657Y-148359344D01*
X143746336Y-148388625D01*
X144965001Y-149607290D01*
X144965001Y-152857489D01*
X144851939Y-152835000D01*
X144648061Y-152835000D01*
X144448102Y-152874774D01*
X144259744Y-152952795D01*
X144136715Y-153035000D01*
X139095868Y-153035000D01*
X138010000Y-151949133D01*
X138010000Y-141719643D01*
X138193645Y-141885178D01*
X138443748Y-142034157D01*
X138718109Y-142131481D01*
X138948000Y-142010814D01*
X138948000Y-140817000D01*
X138928000Y-140817000D01*
X138928000Y-140563000D01*
X138948000Y-140563000D01*
X138948000Y-140543000D01*
X139202000Y-140543000D01*
X139202000Y-140563000D01*
G36*
X127136326Y-114713209D02*
G01*
X138267833Y-125844717D01*
X138279142Y-125901571D01*
X138357163Y-126089929D01*
X138470431Y-126259447D01*
X138614594Y-126403610D01*
X138784112Y-126516878D01*
X138972470Y-126594899D01*
X139172429Y-126634673D01*
X139376307Y-126634673D01*
X139576266Y-126594899D01*
X139764624Y-126516878D01*
X139934142Y-126403610D01*
X140078305Y-126259447D01*
X140191573Y-126089929D01*
X140215000Y-126033371D01*
X140215000Y-128143476D01*
X140215001Y-128143486D01*
X140215000Y-136734990D01*
X140169180Y-136710498D01*
X140049482Y-136674188D01*
X139925000Y-136661928D01*
X138225000Y-136661928D01*
X138100518Y-136674188D01*
X138010000Y-136701646D01*
X138010000Y-132683285D01*
X138075574Y-132585147D01*
X138077805Y-132607805D01*
X138084179Y-132628817D01*
X138101392Y-132685558D01*
X138054774Y-132798102D01*
X138015000Y-132998061D01*
X138015000Y-133201939D01*
X138054774Y-133401898D01*
X138132795Y-133590256D01*
X138246063Y-133759774D01*
X138390226Y-133903937D01*
X138559744Y-134017205D01*
X138748102Y-134095226D01*
X138948061Y-134135000D01*
X139151939Y-134135000D01*
X139351898Y-134095226D01*
X139540256Y-134017205D01*
X139709774Y-133903937D01*
X139853937Y-133759774D01*
X139967205Y-133590256D01*
X140045226Y-133401898D01*
X140085000Y-133201939D01*
X140085000Y-132998061D01*
X140045226Y-132798102D01*
X139967205Y-132609744D01*
X139936394Y-132563631D01*
X139939281Y-132534314D01*
X139935000Y-132490848D01*
X139935000Y-132490838D01*
X139922195Y-132360825D01*
X139871589Y-132194002D01*
X139835000Y-132125548D01*
X139835000Y-129143466D01*
X139839281Y-129099999D01*
X139835000Y-129056533D01*
X139835000Y-129056523D01*
X139822195Y-128926510D01*
X139771589Y-128759687D01*
X139689411Y-128605941D01*
X139652191Y-128560589D01*
X139606532Y-128504953D01*
X139606530Y-128504951D01*
X139578817Y-128471183D01*
X139545049Y-128443470D01*
X125936578Y-114835000D01*
X126101939Y-114835000D01*
X126301898Y-114795226D01*
X126490256Y-114717205D01*
X126500583Y-114710305D01*
X127106836Y-114710305D01*
X127136326Y-114713209D01*
G37*
X127136326Y-114713209D02*
X138267833Y-125844717D01*
X138279142Y-125901571D01*
X138357163Y-126089929D01*
X138470431Y-126259447D01*
X138614594Y-126403610D01*
X138784112Y-126516878D01*
X138972470Y-126594899D01*
X139172429Y-126634673D01*
X139376307Y-126634673D01*
X139576266Y-126594899D01*
X139764624Y-126516878D01*
X139934142Y-126403610D01*
X140078305Y-126259447D01*
X140191573Y-126089929D01*
X140215000Y-126033371D01*
X140215000Y-128143476D01*
X140215001Y-128143486D01*
X140215000Y-136734990D01*
X140169180Y-136710498D01*
X140049482Y-136674188D01*
X139925000Y-136661928D01*
X138225000Y-136661928D01*
X138100518Y-136674188D01*
X138010000Y-136701646D01*
X138010000Y-132683285D01*
X138075574Y-132585147D01*
X138077805Y-132607805D01*
X138084179Y-132628817D01*
X138101392Y-132685558D01*
X138054774Y-132798102D01*
X138015000Y-132998061D01*
X138015000Y-133201939D01*
X138054774Y-133401898D01*
X138132795Y-133590256D01*
X138246063Y-133759774D01*
X138390226Y-133903937D01*
X138559744Y-134017205D01*
X138748102Y-134095226D01*
X138948061Y-134135000D01*
X139151939Y-134135000D01*
X139351898Y-134095226D01*
X139540256Y-134017205D01*
X139709774Y-133903937D01*
X139853937Y-133759774D01*
X139967205Y-133590256D01*
X140045226Y-133401898D01*
X140085000Y-133201939D01*
X140085000Y-132998061D01*
X140045226Y-132798102D01*
X139967205Y-132609744D01*
X139936394Y-132563631D01*
X139939281Y-132534314D01*
X139935000Y-132490848D01*
X139935000Y-132490838D01*
X139922195Y-132360825D01*
X139871589Y-132194002D01*
X139835000Y-132125548D01*
X139835000Y-129143466D01*
X139839281Y-129099999D01*
X139835000Y-129056533D01*
X139835000Y-129056523D01*
X139822195Y-128926510D01*
X139771589Y-128759687D01*
X139689411Y-128605941D01*
X139652191Y-128560589D01*
X139606532Y-128504953D01*
X139606530Y-128504951D01*
X139578817Y-128471183D01*
X139545049Y-128443470D01*
X125936578Y-114835000D01*
X126101939Y-114835000D01*
X126301898Y-114795226D01*
X126490256Y-114717205D01*
X126500583Y-114710305D01*
X127106836Y-114710305D01*
X127136326Y-114713209D01*
%TO.N,ENC_GROUND*%
G36*
X158873000Y-68161928D02*
G01*
X156200000Y-68161928D01*
X156075518Y-68174188D01*
X155955820Y-68210498D01*
X155845506Y-68269463D01*
X155748815Y-68348815D01*
X155669463Y-68445506D01*
X155610498Y-68555820D01*
X155574188Y-68675518D01*
X155561928Y-68800000D01*
X155561928Y-72400000D01*
X155574188Y-72524482D01*
X155610498Y-72644180D01*
X155669463Y-72754494D01*
X155748815Y-72851185D01*
X155845506Y-72930537D01*
X155955820Y-72989502D01*
X156075518Y-73025812D01*
X156200000Y-73038072D01*
X158873000Y-73038072D01*
X158873000Y-84423000D01*
X143401862Y-84423000D01*
X143398410Y-81253740D01*
X145505000Y-81253740D01*
X145505000Y-81546260D01*
X145562068Y-81833158D01*
X145674010Y-82103411D01*
X145836525Y-82346632D01*
X146043368Y-82553475D01*
X146286589Y-82715990D01*
X146556842Y-82827932D01*
X146843740Y-82885000D01*
X147136260Y-82885000D01*
X147423158Y-82827932D01*
X147693411Y-82715990D01*
X147936632Y-82553475D01*
X148143475Y-82346632D01*
X148260000Y-82172240D01*
X148376525Y-82346632D01*
X148583368Y-82553475D01*
X148826589Y-82715990D01*
X149096842Y-82827932D01*
X149383740Y-82885000D01*
X149676260Y-82885000D01*
X149963158Y-82827932D01*
X150233411Y-82715990D01*
X150476632Y-82553475D01*
X150683475Y-82346632D01*
X150800000Y-82172240D01*
X150916525Y-82346632D01*
X151123368Y-82553475D01*
X151366589Y-82715990D01*
X151636842Y-82827932D01*
X151923740Y-82885000D01*
X152216260Y-82885000D01*
X152503158Y-82827932D01*
X152773411Y-82715990D01*
X153016632Y-82553475D01*
X153223475Y-82346632D01*
X153345195Y-82164466D01*
X153414822Y-82281355D01*
X153609731Y-82497588D01*
X153843080Y-82671641D01*
X154105901Y-82796825D01*
X154253110Y-82841476D01*
X154483000Y-82720155D01*
X154483000Y-81527000D01*
X154463000Y-81527000D01*
X154463000Y-81273000D01*
X154483000Y-81273000D01*
X154483000Y-80079845D01*
X154737000Y-80079845D01*
X154737000Y-81273000D01*
X154757000Y-81273000D01*
X154757000Y-81527000D01*
X154737000Y-81527000D01*
X154737000Y-82720155D01*
X154966890Y-82841476D01*
X155114099Y-82796825D01*
X155376920Y-82671641D01*
X155610269Y-82497588D01*
X155686034Y-82413534D01*
X155710498Y-82494180D01*
X155769463Y-82604494D01*
X155848815Y-82701185D01*
X155945506Y-82780537D01*
X156055820Y-82839502D01*
X156175518Y-82875812D01*
X156300000Y-82888072D01*
X158000000Y-82888072D01*
X158124482Y-82875812D01*
X158244180Y-82839502D01*
X158354494Y-82780537D01*
X158451185Y-82701185D01*
X158530537Y-82604494D01*
X158589502Y-82494180D01*
X158625812Y-82374482D01*
X158638072Y-82250000D01*
X158638072Y-80550000D01*
X158625812Y-80425518D01*
X158589502Y-80305820D01*
X158530537Y-80195506D01*
X158451185Y-80098815D01*
X158354494Y-80019463D01*
X158244180Y-79960498D01*
X158124482Y-79924188D01*
X158000000Y-79911928D01*
X156300000Y-79911928D01*
X156175518Y-79924188D01*
X156055820Y-79960498D01*
X155945506Y-80019463D01*
X155848815Y-80098815D01*
X155769463Y-80195506D01*
X155710498Y-80305820D01*
X155686034Y-80386466D01*
X155610269Y-80302412D01*
X155376920Y-80128359D01*
X155114099Y-80003175D01*
X154966890Y-79958524D01*
X154737000Y-80079845D01*
X154483000Y-80079845D01*
X154253110Y-79958524D01*
X154105901Y-80003175D01*
X153843080Y-80128359D01*
X153609731Y-80302412D01*
X153414822Y-80518645D01*
X153345195Y-80635534D01*
X153223475Y-80453368D01*
X153016632Y-80246525D01*
X152773411Y-80084010D01*
X152503158Y-79972068D01*
X152216260Y-79915000D01*
X151923740Y-79915000D01*
X151636842Y-79972068D01*
X151366589Y-80084010D01*
X151123368Y-80246525D01*
X150916525Y-80453368D01*
X150800000Y-80627760D01*
X150683475Y-80453368D01*
X150476632Y-80246525D01*
X150233411Y-80084010D01*
X149963158Y-79972068D01*
X149676260Y-79915000D01*
X149383740Y-79915000D01*
X149096842Y-79972068D01*
X148826589Y-80084010D01*
X148583368Y-80246525D01*
X148376525Y-80453368D01*
X148260000Y-80627760D01*
X148143475Y-80453368D01*
X147936632Y-80246525D01*
X147693411Y-80084010D01*
X147423158Y-79972068D01*
X147136260Y-79915000D01*
X146843740Y-79915000D01*
X146556842Y-79972068D01*
X146286589Y-80084010D01*
X146043368Y-80246525D01*
X145836525Y-80453368D01*
X145674010Y-80696589D01*
X145562068Y-80966842D01*
X145505000Y-81253740D01*
X143398410Y-81253740D01*
X143394800Y-77938967D01*
X147765000Y-77938967D01*
X147765000Y-78261033D01*
X147827832Y-78576912D01*
X147951082Y-78874463D01*
X148130013Y-79142252D01*
X148357748Y-79369987D01*
X148625537Y-79548918D01*
X148923088Y-79672168D01*
X149238967Y-79735000D01*
X149561033Y-79735000D01*
X149876912Y-79672168D01*
X150174463Y-79548918D01*
X150442252Y-79369987D01*
X150576826Y-79235413D01*
X150944192Y-79235413D01*
X151039956Y-79499814D01*
X151329571Y-79640704D01*
X151641108Y-79722384D01*
X151962595Y-79741718D01*
X152281675Y-79697961D01*
X152586088Y-79592795D01*
X152760044Y-79499814D01*
X152855808Y-79235413D01*
X151900000Y-78279605D01*
X150944192Y-79235413D01*
X150576826Y-79235413D01*
X150669987Y-79142252D01*
X150734925Y-79045065D01*
X150764587Y-79055808D01*
X151720395Y-78100000D01*
X152079605Y-78100000D01*
X153035413Y-79055808D01*
X153065075Y-79045065D01*
X153130013Y-79142252D01*
X153357748Y-79369987D01*
X153625537Y-79548918D01*
X153923088Y-79672168D01*
X154238967Y-79735000D01*
X154561033Y-79735000D01*
X154876912Y-79672168D01*
X155174463Y-79548918D01*
X155442252Y-79369987D01*
X155669987Y-79142252D01*
X155848918Y-78874463D01*
X155972168Y-78576912D01*
X156035000Y-78261033D01*
X156035000Y-77938967D01*
X155972168Y-77623088D01*
X155848918Y-77325537D01*
X155669987Y-77057748D01*
X155442252Y-76830013D01*
X155174463Y-76651082D01*
X154876912Y-76527832D01*
X154561033Y-76465000D01*
X154238967Y-76465000D01*
X153923088Y-76527832D01*
X153625537Y-76651082D01*
X153357748Y-76830013D01*
X153130013Y-77057748D01*
X153065075Y-77154935D01*
X153035413Y-77144192D01*
X152079605Y-78100000D01*
X151720395Y-78100000D01*
X150764587Y-77144192D01*
X150734925Y-77154935D01*
X150669987Y-77057748D01*
X150576826Y-76964587D01*
X150944192Y-76964587D01*
X151900000Y-77920395D01*
X152855808Y-76964587D01*
X152760044Y-76700186D01*
X152470429Y-76559296D01*
X152158892Y-76477616D01*
X151837405Y-76458282D01*
X151518325Y-76502039D01*
X151213912Y-76607205D01*
X151039956Y-76700186D01*
X150944192Y-76964587D01*
X150576826Y-76964587D01*
X150442252Y-76830013D01*
X150174463Y-76651082D01*
X149876912Y-76527832D01*
X149561033Y-76465000D01*
X149238967Y-76465000D01*
X148923088Y-76527832D01*
X148625537Y-76651082D01*
X148357748Y-76830013D01*
X148130013Y-77057748D01*
X147951082Y-77325537D01*
X147827832Y-77623088D01*
X147765000Y-77938967D01*
X143394800Y-77938967D01*
X143384844Y-68800000D01*
X144161928Y-68800000D01*
X144161928Y-72400000D01*
X144174188Y-72524482D01*
X144210498Y-72644180D01*
X144269463Y-72754494D01*
X144348815Y-72851185D01*
X144445506Y-72930537D01*
X144555820Y-72989502D01*
X144675518Y-73025812D01*
X144800000Y-73038072D01*
X147600000Y-73038072D01*
X147724482Y-73025812D01*
X147844180Y-72989502D01*
X147954494Y-72930537D01*
X148051185Y-72851185D01*
X148130537Y-72754494D01*
X148189502Y-72644180D01*
X148225812Y-72524482D01*
X148238072Y-72400000D01*
X148238072Y-68800000D01*
X148225812Y-68675518D01*
X148189502Y-68555820D01*
X148130537Y-68445506D01*
X148051185Y-68348815D01*
X147954494Y-68269463D01*
X147844180Y-68210498D01*
X147724482Y-68174188D01*
X147600000Y-68161928D01*
X144800000Y-68161928D01*
X144675518Y-68174188D01*
X144555820Y-68210498D01*
X144445506Y-68269463D01*
X144348815Y-68348815D01*
X144269463Y-68445506D01*
X144210498Y-68555820D01*
X144174188Y-68675518D01*
X144161928Y-68800000D01*
X143384844Y-68800000D01*
X143379004Y-63438967D01*
X147765000Y-63438967D01*
X147765000Y-63761033D01*
X147827832Y-64076912D01*
X147951082Y-64374463D01*
X148130013Y-64642252D01*
X148357748Y-64869987D01*
X148625537Y-65048918D01*
X148923088Y-65172168D01*
X149238967Y-65235000D01*
X149561033Y-65235000D01*
X149876912Y-65172168D01*
X150174463Y-65048918D01*
X150442252Y-64869987D01*
X150576826Y-64735413D01*
X153444192Y-64735413D01*
X153539956Y-64999814D01*
X153829571Y-65140704D01*
X154141108Y-65222384D01*
X154462595Y-65241718D01*
X154781675Y-65197961D01*
X155086088Y-65092795D01*
X155260044Y-64999814D01*
X155355808Y-64735413D01*
X154400000Y-63779605D01*
X153444192Y-64735413D01*
X150576826Y-64735413D01*
X150669987Y-64642252D01*
X150848918Y-64374463D01*
X150972168Y-64076912D01*
X151035000Y-63761033D01*
X151035000Y-63662595D01*
X152758282Y-63662595D01*
X152802039Y-63981675D01*
X152907205Y-64286088D01*
X153000186Y-64460044D01*
X153264587Y-64555808D01*
X154220395Y-63600000D01*
X154579605Y-63600000D01*
X155535413Y-64555808D01*
X155799814Y-64460044D01*
X155940704Y-64170429D01*
X156022384Y-63858892D01*
X156041718Y-63537405D01*
X155997961Y-63218325D01*
X155892795Y-62913912D01*
X155799814Y-62739956D01*
X155535413Y-62644192D01*
X154579605Y-63600000D01*
X154220395Y-63600000D01*
X153264587Y-62644192D01*
X153000186Y-62739956D01*
X152859296Y-63029571D01*
X152777616Y-63341108D01*
X152758282Y-63662595D01*
X151035000Y-63662595D01*
X151035000Y-63438967D01*
X150972168Y-63123088D01*
X150848918Y-62825537D01*
X150669987Y-62557748D01*
X150576826Y-62464587D01*
X153444192Y-62464587D01*
X154400000Y-63420395D01*
X155355808Y-62464587D01*
X155260044Y-62200186D01*
X154970429Y-62059296D01*
X154658892Y-61977616D01*
X154337405Y-61958282D01*
X154018325Y-62002039D01*
X153713912Y-62107205D01*
X153539956Y-62200186D01*
X153444192Y-62464587D01*
X150576826Y-62464587D01*
X150442252Y-62330013D01*
X150174463Y-62151082D01*
X149876912Y-62027832D01*
X149561033Y-61965000D01*
X149238967Y-61965000D01*
X148923088Y-62027832D01*
X148625537Y-62151082D01*
X148357748Y-62330013D01*
X148130013Y-62557748D01*
X147951082Y-62825537D01*
X147827832Y-63123088D01*
X147765000Y-63438967D01*
X143379004Y-63438967D01*
X143377138Y-61726799D01*
X158873000Y-61702202D01*
X158873000Y-68161928D01*
G37*
X158873000Y-68161928D02*
X156200000Y-68161928D01*
X156075518Y-68174188D01*
X155955820Y-68210498D01*
X155845506Y-68269463D01*
X155748815Y-68348815D01*
X155669463Y-68445506D01*
X155610498Y-68555820D01*
X155574188Y-68675518D01*
X155561928Y-68800000D01*
X155561928Y-72400000D01*
X155574188Y-72524482D01*
X155610498Y-72644180D01*
X155669463Y-72754494D01*
X155748815Y-72851185D01*
X155845506Y-72930537D01*
X155955820Y-72989502D01*
X156075518Y-73025812D01*
X156200000Y-73038072D01*
X158873000Y-73038072D01*
X158873000Y-84423000D01*
X143401862Y-84423000D01*
X143398410Y-81253740D01*
X145505000Y-81253740D01*
X145505000Y-81546260D01*
X145562068Y-81833158D01*
X145674010Y-82103411D01*
X145836525Y-82346632D01*
X146043368Y-82553475D01*
X146286589Y-82715990D01*
X146556842Y-82827932D01*
X146843740Y-82885000D01*
X147136260Y-82885000D01*
X147423158Y-82827932D01*
X147693411Y-82715990D01*
X147936632Y-82553475D01*
X148143475Y-82346632D01*
X148260000Y-82172240D01*
X148376525Y-82346632D01*
X148583368Y-82553475D01*
X148826589Y-82715990D01*
X149096842Y-82827932D01*
X149383740Y-82885000D01*
X149676260Y-82885000D01*
X149963158Y-82827932D01*
X150233411Y-82715990D01*
X150476632Y-82553475D01*
X150683475Y-82346632D01*
X150800000Y-82172240D01*
X150916525Y-82346632D01*
X151123368Y-82553475D01*
X151366589Y-82715990D01*
X151636842Y-82827932D01*
X151923740Y-82885000D01*
X152216260Y-82885000D01*
X152503158Y-82827932D01*
X152773411Y-82715990D01*
X153016632Y-82553475D01*
X153223475Y-82346632D01*
X153345195Y-82164466D01*
X153414822Y-82281355D01*
X153609731Y-82497588D01*
X153843080Y-82671641D01*
X154105901Y-82796825D01*
X154253110Y-82841476D01*
X154483000Y-82720155D01*
X154483000Y-81527000D01*
X154463000Y-81527000D01*
X154463000Y-81273000D01*
X154483000Y-81273000D01*
X154483000Y-80079845D01*
X154737000Y-80079845D01*
X154737000Y-81273000D01*
X154757000Y-81273000D01*
X154757000Y-81527000D01*
X154737000Y-81527000D01*
X154737000Y-82720155D01*
X154966890Y-82841476D01*
X155114099Y-82796825D01*
X155376920Y-82671641D01*
X155610269Y-82497588D01*
X155686034Y-82413534D01*
X155710498Y-82494180D01*
X155769463Y-82604494D01*
X155848815Y-82701185D01*
X155945506Y-82780537D01*
X156055820Y-82839502D01*
X156175518Y-82875812D01*
X156300000Y-82888072D01*
X158000000Y-82888072D01*
X158124482Y-82875812D01*
X158244180Y-82839502D01*
X158354494Y-82780537D01*
X158451185Y-82701185D01*
X158530537Y-82604494D01*
X158589502Y-82494180D01*
X158625812Y-82374482D01*
X158638072Y-82250000D01*
X158638072Y-80550000D01*
X158625812Y-80425518D01*
X158589502Y-80305820D01*
X158530537Y-80195506D01*
X158451185Y-80098815D01*
X158354494Y-80019463D01*
X158244180Y-79960498D01*
X158124482Y-79924188D01*
X158000000Y-79911928D01*
X156300000Y-79911928D01*
X156175518Y-79924188D01*
X156055820Y-79960498D01*
X155945506Y-80019463D01*
X155848815Y-80098815D01*
X155769463Y-80195506D01*
X155710498Y-80305820D01*
X155686034Y-80386466D01*
X155610269Y-80302412D01*
X155376920Y-80128359D01*
X155114099Y-80003175D01*
X154966890Y-79958524D01*
X154737000Y-80079845D01*
X154483000Y-80079845D01*
X154253110Y-79958524D01*
X154105901Y-80003175D01*
X153843080Y-80128359D01*
X153609731Y-80302412D01*
X153414822Y-80518645D01*
X153345195Y-80635534D01*
X153223475Y-80453368D01*
X153016632Y-80246525D01*
X152773411Y-80084010D01*
X152503158Y-79972068D01*
X152216260Y-79915000D01*
X151923740Y-79915000D01*
X151636842Y-79972068D01*
X151366589Y-80084010D01*
X151123368Y-80246525D01*
X150916525Y-80453368D01*
X150800000Y-80627760D01*
X150683475Y-80453368D01*
X150476632Y-80246525D01*
X150233411Y-80084010D01*
X149963158Y-79972068D01*
X149676260Y-79915000D01*
X149383740Y-79915000D01*
X149096842Y-79972068D01*
X148826589Y-80084010D01*
X148583368Y-80246525D01*
X148376525Y-80453368D01*
X148260000Y-80627760D01*
X148143475Y-80453368D01*
X147936632Y-80246525D01*
X147693411Y-80084010D01*
X147423158Y-79972068D01*
X147136260Y-79915000D01*
X146843740Y-79915000D01*
X146556842Y-79972068D01*
X146286589Y-80084010D01*
X146043368Y-80246525D01*
X145836525Y-80453368D01*
X145674010Y-80696589D01*
X145562068Y-80966842D01*
X145505000Y-81253740D01*
X143398410Y-81253740D01*
X143394800Y-77938967D01*
X147765000Y-77938967D01*
X147765000Y-78261033D01*
X147827832Y-78576912D01*
X147951082Y-78874463D01*
X148130013Y-79142252D01*
X148357748Y-79369987D01*
X148625537Y-79548918D01*
X148923088Y-79672168D01*
X149238967Y-79735000D01*
X149561033Y-79735000D01*
X149876912Y-79672168D01*
X150174463Y-79548918D01*
X150442252Y-79369987D01*
X150576826Y-79235413D01*
X150944192Y-79235413D01*
X151039956Y-79499814D01*
X151329571Y-79640704D01*
X151641108Y-79722384D01*
X151962595Y-79741718D01*
X152281675Y-79697961D01*
X152586088Y-79592795D01*
X152760044Y-79499814D01*
X152855808Y-79235413D01*
X151900000Y-78279605D01*
X150944192Y-79235413D01*
X150576826Y-79235413D01*
X150669987Y-79142252D01*
X150734925Y-79045065D01*
X150764587Y-79055808D01*
X151720395Y-78100000D01*
X152079605Y-78100000D01*
X153035413Y-79055808D01*
X153065075Y-79045065D01*
X153130013Y-79142252D01*
X153357748Y-79369987D01*
X153625537Y-79548918D01*
X153923088Y-79672168D01*
X154238967Y-79735000D01*
X154561033Y-79735000D01*
X154876912Y-79672168D01*
X155174463Y-79548918D01*
X155442252Y-79369987D01*
X155669987Y-79142252D01*
X155848918Y-78874463D01*
X155972168Y-78576912D01*
X156035000Y-78261033D01*
X156035000Y-77938967D01*
X155972168Y-77623088D01*
X155848918Y-77325537D01*
X155669987Y-77057748D01*
X155442252Y-76830013D01*
X155174463Y-76651082D01*
X154876912Y-76527832D01*
X154561033Y-76465000D01*
X154238967Y-76465000D01*
X153923088Y-76527832D01*
X153625537Y-76651082D01*
X153357748Y-76830013D01*
X153130013Y-77057748D01*
X153065075Y-77154935D01*
X153035413Y-77144192D01*
X152079605Y-78100000D01*
X151720395Y-78100000D01*
X150764587Y-77144192D01*
X150734925Y-77154935D01*
X150669987Y-77057748D01*
X150576826Y-76964587D01*
X150944192Y-76964587D01*
X151900000Y-77920395D01*
X152855808Y-76964587D01*
X152760044Y-76700186D01*
X152470429Y-76559296D01*
X152158892Y-76477616D01*
X151837405Y-76458282D01*
X151518325Y-76502039D01*
X151213912Y-76607205D01*
X151039956Y-76700186D01*
X150944192Y-76964587D01*
X150576826Y-76964587D01*
X150442252Y-76830013D01*
X150174463Y-76651082D01*
X149876912Y-76527832D01*
X149561033Y-76465000D01*
X149238967Y-76465000D01*
X148923088Y-76527832D01*
X148625537Y-76651082D01*
X148357748Y-76830013D01*
X148130013Y-77057748D01*
X147951082Y-77325537D01*
X147827832Y-77623088D01*
X147765000Y-77938967D01*
X143394800Y-77938967D01*
X143384844Y-68800000D01*
X144161928Y-68800000D01*
X144161928Y-72400000D01*
X144174188Y-72524482D01*
X144210498Y-72644180D01*
X144269463Y-72754494D01*
X144348815Y-72851185D01*
X144445506Y-72930537D01*
X144555820Y-72989502D01*
X144675518Y-73025812D01*
X144800000Y-73038072D01*
X147600000Y-73038072D01*
X147724482Y-73025812D01*
X147844180Y-72989502D01*
X147954494Y-72930537D01*
X148051185Y-72851185D01*
X148130537Y-72754494D01*
X148189502Y-72644180D01*
X148225812Y-72524482D01*
X148238072Y-72400000D01*
X148238072Y-68800000D01*
X148225812Y-68675518D01*
X148189502Y-68555820D01*
X148130537Y-68445506D01*
X148051185Y-68348815D01*
X147954494Y-68269463D01*
X147844180Y-68210498D01*
X147724482Y-68174188D01*
X147600000Y-68161928D01*
X144800000Y-68161928D01*
X144675518Y-68174188D01*
X144555820Y-68210498D01*
X144445506Y-68269463D01*
X144348815Y-68348815D01*
X144269463Y-68445506D01*
X144210498Y-68555820D01*
X144174188Y-68675518D01*
X144161928Y-68800000D01*
X143384844Y-68800000D01*
X143379004Y-63438967D01*
X147765000Y-63438967D01*
X147765000Y-63761033D01*
X147827832Y-64076912D01*
X147951082Y-64374463D01*
X148130013Y-64642252D01*
X148357748Y-64869987D01*
X148625537Y-65048918D01*
X148923088Y-65172168D01*
X149238967Y-65235000D01*
X149561033Y-65235000D01*
X149876912Y-65172168D01*
X150174463Y-65048918D01*
X150442252Y-64869987D01*
X150576826Y-64735413D01*
X153444192Y-64735413D01*
X153539956Y-64999814D01*
X153829571Y-65140704D01*
X154141108Y-65222384D01*
X154462595Y-65241718D01*
X154781675Y-65197961D01*
X155086088Y-65092795D01*
X155260044Y-64999814D01*
X155355808Y-64735413D01*
X154400000Y-63779605D01*
X153444192Y-64735413D01*
X150576826Y-64735413D01*
X150669987Y-64642252D01*
X150848918Y-64374463D01*
X150972168Y-64076912D01*
X151035000Y-63761033D01*
X151035000Y-63662595D01*
X152758282Y-63662595D01*
X152802039Y-63981675D01*
X152907205Y-64286088D01*
X153000186Y-64460044D01*
X153264587Y-64555808D01*
X154220395Y-63600000D01*
X154579605Y-63600000D01*
X155535413Y-64555808D01*
X155799814Y-64460044D01*
X155940704Y-64170429D01*
X156022384Y-63858892D01*
X156041718Y-63537405D01*
X155997961Y-63218325D01*
X155892795Y-62913912D01*
X155799814Y-62739956D01*
X155535413Y-62644192D01*
X154579605Y-63600000D01*
X154220395Y-63600000D01*
X153264587Y-62644192D01*
X153000186Y-62739956D01*
X152859296Y-63029571D01*
X152777616Y-63341108D01*
X152758282Y-63662595D01*
X151035000Y-63662595D01*
X151035000Y-63438967D01*
X150972168Y-63123088D01*
X150848918Y-62825537D01*
X150669987Y-62557748D01*
X150576826Y-62464587D01*
X153444192Y-62464587D01*
X154400000Y-63420395D01*
X155355808Y-62464587D01*
X155260044Y-62200186D01*
X154970429Y-62059296D01*
X154658892Y-61977616D01*
X154337405Y-61958282D01*
X154018325Y-62002039D01*
X153713912Y-62107205D01*
X153539956Y-62200186D01*
X153444192Y-62464587D01*
X150576826Y-62464587D01*
X150442252Y-62330013D01*
X150174463Y-62151082D01*
X149876912Y-62027832D01*
X149561033Y-61965000D01*
X149238967Y-61965000D01*
X148923088Y-62027832D01*
X148625537Y-62151082D01*
X148357748Y-62330013D01*
X148130013Y-62557748D01*
X147951082Y-62825537D01*
X147827832Y-63123088D01*
X147765000Y-63438967D01*
X143379004Y-63438967D01*
X143377138Y-61726799D01*
X158873000Y-61702202D01*
X158873000Y-68161928D01*
%TD*%
M02*
