%TF.GenerationSoftware,KiCad,Pcbnew,(5.1.6)-1*%
%TF.CreationDate,2021-04-19T20:59:16+02:00*%
%TF.ProjectId,SimpleDigital,53696d70-6c65-4446-9967-6974616c2e6b,v01*%
%TF.SameCoordinates,Original*%
%TF.FileFunction,Soldermask,Bot*%
%TF.FilePolarity,Negative*%
%FSLAX46Y46*%
G04 Gerber Fmt 4.6, Leading zero omitted, Abs format (unit mm)*
G04 Created by KiCad (PCBNEW (5.1.6)-1) date 2021-04-19 20:59:16*
%MOMM*%
%LPD*%
G01*
G04 APERTURE LIST*
%ADD10O,1.800000X1.800000*%
%ADD11R,1.800000X1.800000*%
%ADD12C,2.700000*%
%ADD13C,2.100000*%
%ADD14C,3.300000*%
%ADD15R,1.900000X1.900000*%
%ADD16C,1.900000*%
%ADD17C,3.100000*%
%ADD18R,2.900000X3.700000*%
G04 APERTURE END LIST*
D10*
%TO.C,J14*%
X139075000Y-140690000D03*
D11*
X139075000Y-138150000D03*
%TD*%
D12*
%TO.C,J17*%
X164750000Y-120950000D03*
%TD*%
%TO.C,J16*%
X183725000Y-102600000D03*
%TD*%
%TO.C,J8*%
X176750000Y-130625000D03*
%TD*%
%TO.C,J5*%
X134825000Y-134000000D03*
%TD*%
%TO.C,J4*%
X178650000Y-109225000D03*
%TD*%
%TO.C,J1*%
X160800000Y-119475000D03*
%TD*%
D10*
%TO.C,Battery_9V1*%
X161850000Y-148690000D03*
D11*
X161850000Y-146150000D03*
%TD*%
D13*
%TO.C,RV2*%
X150497156Y-93509848D03*
X147906356Y-90944448D03*
X150497156Y-90969848D03*
%TD*%
%TO.C,RV1*%
X145640000Y-96575000D03*
X148180000Y-96575000D03*
X143100000Y-96575000D03*
%TD*%
D14*
%TO.C,M2*%
X181600000Y-156500000D03*
%TD*%
%TO.C,M3*%
X181600000Y-95450000D03*
%TD*%
%TO.C,M1*%
X123600000Y-156550000D03*
%TD*%
D15*
%TO.C,D4*%
X180075000Y-105300000D03*
D16*
X180075000Y-102760000D03*
%TD*%
D17*
%TO.C,J3*%
X90200000Y-145440000D03*
X102900000Y-145440000D03*
X96550000Y-145440000D03*
X90200000Y-129210000D03*
X102900000Y-129210000D03*
X96550000Y-129210000D03*
%TD*%
%TO.C,J6*%
X208670000Y-146759999D03*
X202320000Y-146759999D03*
X215020000Y-146759999D03*
X208670000Y-130529999D03*
X202320000Y-130529999D03*
X215020000Y-130529999D03*
%TD*%
D11*
%TO.C,J9*%
X109880000Y-143580000D03*
D10*
X109880000Y-141040000D03*
X109880000Y-138500000D03*
X109880000Y-135960000D03*
X109880000Y-133420000D03*
X109880000Y-130880000D03*
%TD*%
%TO.C,J10*%
X174825000Y-110300000D03*
X174825000Y-107760000D03*
X174825000Y-105220000D03*
X174825000Y-102680000D03*
X174825000Y-100140000D03*
D11*
X174825000Y-97600000D03*
%TD*%
%TO.C,J11*%
X195270000Y-132240000D03*
D10*
X195270000Y-134780000D03*
X195270000Y-137320000D03*
X195270000Y-139860000D03*
X195270000Y-142400000D03*
X195270000Y-144940000D03*
%TD*%
%TO.C,J12*%
X130875000Y-142525000D03*
X130875000Y-139985000D03*
X130875000Y-137445000D03*
X130875000Y-134905000D03*
X130875000Y-132365000D03*
D11*
X130875000Y-129825000D03*
%TD*%
%TO.C,J15*%
X157150000Y-81400000D03*
D10*
X154610000Y-81400000D03*
X152070000Y-81400000D03*
X149530000Y-81400000D03*
X146990000Y-81400000D03*
%TD*%
D18*
%TO.C,SW1*%
X146200000Y-70600000D03*
X157600000Y-70600000D03*
D13*
X149400000Y-63600000D03*
X154400000Y-63600000D03*
X149400000Y-78100000D03*
X151900000Y-78100000D03*
X154400000Y-78100000D03*
%TD*%
D16*
%TO.C,D5*%
X134680000Y-146830000D03*
X134680000Y-149370000D03*
D15*
X134680000Y-151910000D03*
%TD*%
%TO.C,D6*%
X134630000Y-159780000D03*
D16*
X134630000Y-157240000D03*
X134630000Y-154700000D03*
%TD*%
D11*
%TO.C,J2*%
X161875000Y-152450000D03*
D10*
X161875000Y-154990000D03*
X161875000Y-157530000D03*
%TD*%
D11*
%TO.C,J7*%
X161775000Y-142425000D03*
D10*
X161775000Y-139885000D03*
X161775000Y-137345000D03*
X161775000Y-134805000D03*
X161775000Y-132265000D03*
%TD*%
%TO.C,J13*%
X143365000Y-159345000D03*
X145905000Y-159345000D03*
X148445000Y-159345000D03*
X150985000Y-159345000D03*
D11*
X153525000Y-159345000D03*
%TD*%
M02*
